<svg width="1023" height="320" xmlns="http://www.w3.org/2000/svg" xmlns:xlink="http://www.w3.org/1999/xlink"><defs><path id="a" d="M0 0h125v238H0z"/><path id="c" d="M0 0h125v238H0z"/></defs><g fill="none" fill-rule="evenodd"><g transform="translate(1 81)"><mask id="b" fill="#fff"><use xlink:href="#a"/></mask><g mask="url(#b)"><path d="M-45.858 49.432c-2.815-15.966 7.881-31.198 23.89-34.021 13.54-2.388 26.544 4.866 31.936 16.82a29.348 29.348 0 0 1 15.18-7.652c16.01-2.823 31.271 7.832 34.086 23.798a29.173 29.173 0 0 1-2.996 18.848c12.263 1.735 22.56 11.128 24.822 23.956 1.861 10.554-2.184 20.783-9.762 27.324.424 1.3.768 2.642 1.012 4.028 1.947 11.042-2.572 21.73-10.838 28.208.89 14.694-9.37 28.182-24.256 30.806-16.01 2.823-31.289-7.934-34.062-23.663l-16.625 2.932-15.85-89.888c-8.394-3.91-14.81-11.7-16.537-21.496" fill="#23A84D"/><path d="M-15.787 98.758c8.357-9.216 27.893-55.383 28.09-55.85a1.266 1.266 0 0 1 1.655-.673c.645.27.946 1.01.675 1.651-.808 1.915-19.902 47.03-28.545 56.563a1.264 1.264 0 0 1-1.786.09 1.258 1.258 0 0 1-.089-1.78M7.177 107.275l3.06-26.685a1.265 1.265 0 0 1 2.511.286l-2.452 21.388 7.13-11.458 12.17-20.658-3.017-17.113a1.262 1.262 0 0 1 1.026-1.46 1.263 1.263 0 0 1 1.464 1.021l2.504 14.198 6.054-10.277a1.268 1.268 0 0 1 1.73-.45c.603.352.803 1.125.45 1.726L19.59 92.108l-22.675 36.433a1.26 1.26 0 0 1-.855.578 1.262 1.262 0 0 1-1.292-1.906l12.409-19.938zM-.144 138c.357-.29 35.834-29.169 45.878-51.225a1.266 1.266 0 0 1 1.674-.627c.635.287.916 1.034.627 1.669-2.194 4.816-5.634 10.192-10.277 16.078 8.3-.634 19.738-2.099 22.118-4.055a1.266 1.266 0 0 1 1.779.169 1.259 1.259 0 0 1-.172 1.775c-1.527 1.257-5.157 2.22-9.265 2.944-6.518 1.15-14.218 1.694-16.63 1.846-4.123 4.975-9.051 10.289-14.789 15.93-10.198 10.024-19.26 17.38-19.351 17.453a1.263 1.263 0 0 1-1.778-.183A1.26 1.26 0 0 1-.144 138M1.53 145.131l40.883-19.728c.105-.05.217-.086.331-.106l10.791-1.902A1.263 1.263 0 0 1 55 124.417c.121.685-.339 1.34-1.026 1.461l-10.618 1.872-11.348 5.476 16.716 1.445a1.26 1.26 0 1 1-.22 2.513l-20.57-1.778a1.267 1.267 0 0 1-.302-.07L2.63 147.403a1.265 1.265 0 0 1-1.688-.586 1.26 1.26 0 0 1 .589-1.685" fill-opacity=".6" fill="#0C6920"/><g><path d="M-61.858 138.432c-2.815-15.966 7.881-31.198 23.89-34.021 13.54-2.388 26.544 4.866 31.936 16.82a29.348 29.348 0 0 1 15.18-7.652c16.01-2.823 31.271 7.832 34.086 23.798a29.173 29.173 0 0 1-2.996 18.848c12.263 1.735 22.56 11.128 24.822 23.956 1.861 10.554-2.184 20.783-9.762 27.324.424 1.3.768 2.642 1.012 4.028 1.947 11.042-2.572 21.73-10.838 28.208.89 14.694-9.37 28.182-24.256 30.806-16.01 2.823-31.289-7.934-34.062-23.663l-16.625 2.932-15.85-89.888c-8.394-3.91-14.81-11.7-16.537-21.496" fill="#23A84D"/><path d="M-31.787 187.758c8.357-9.216 27.893-55.383 28.09-55.85a1.266 1.266 0 0 1 1.655-.673c.645.27.946 1.01.675 1.651-.808 1.915-19.902 47.03-28.545 56.563a1.264 1.264 0 0 1-1.786.09 1.258 1.258 0 0 1-.089-1.78M-8.823 196.275l3.06-26.685a1.265 1.265 0 0 1 2.511.286l-2.452 21.388 7.13-11.458 12.17-20.658-3.017-17.113a1.262 1.262 0 0 1 1.026-1.46 1.263 1.263 0 0 1 1.464 1.021l2.504 14.198 6.054-10.277a1.268 1.268 0 0 1 1.73-.45c.603.352.803 1.125.45 1.726L3.59 181.108l-22.675 36.433a1.26 1.26 0 0 1-.855.578 1.262 1.262 0 0 1-1.292-1.906l12.409-19.938zM-16.144 227c.357-.29 35.834-29.169 45.878-51.225a1.266 1.266 0 0 1 1.674-.627c.635.287.916 1.034.627 1.669-2.194 4.816-5.634 10.192-10.277 16.078 8.3-.634 19.738-2.099 22.118-4.055a1.266 1.266 0 0 1 1.779.169 1.259 1.259 0 0 1-.172 1.775c-1.527 1.257-5.157 2.22-9.265 2.944-6.518 1.15-14.218 1.694-16.63 1.846-4.123 4.975-9.051 10.289-14.789 15.93-10.198 10.024-19.26 17.38-19.351 17.453a1.263 1.263 0 0 1-1.778-.183 1.26 1.26 0 0 1 .186-1.774M-14.47 234.131l40.883-19.728c.105-.05.217-.086.331-.106l10.791-1.902A1.263 1.263 0 0 1 39 213.417c.121.685-.339 1.34-1.026 1.461l-10.618 1.872-11.348 5.476 16.716 1.445a1.26 1.26 0 1 1-.22 2.513l-20.57-1.778a1.267 1.267 0 0 1-.302-.07l-25.002 12.066a1.265 1.265 0 0 1-1.688-.586 1.26 1.26 0 0 1 .589-1.685" fill-opacity=".6" fill="#0C6920"/></g></g></g><g transform="matrix(-1 0 0 1 1024 81)"><mask id="d" fill="#fff"><use xlink:href="#c"/></mask><g mask="url(#d)"><path d="M-71.858 59.432c-2.815-15.966 7.881-31.198 23.89-34.021 13.54-2.388 26.544 4.866 31.936 16.82A29.348 29.348 0 0 1-.852 34.58c16.01-2.823 31.271 7.832 34.086 23.798a29.173 29.173 0 0 1-2.996 18.848c12.263 1.735 22.56 11.128 24.822 23.956 1.861 10.554-2.184 20.783-9.762 27.324.424 1.3.768 2.642 1.012 4.028 1.947 11.042-2.572 21.73-10.838 28.208.89 14.694-9.37 28.182-24.256 30.806-16.01 2.823-31.289-7.934-34.062-23.663l-16.625 2.932-15.85-89.888c-8.394-3.91-14.81-11.7-16.537-21.496" fill="#23A84D"/><path d="M-18.823 117.275l3.06-26.685a1.265 1.265 0 0 1 2.511.286l-2.452 21.388 7.13-11.458 12.17-20.658L.58 63.035a1.262 1.262 0 0 1 1.026-1.46 1.263 1.263 0 0 1 1.464 1.021l2.504 14.198 6.054-10.277a1.268 1.268 0 0 1 1.73-.45c.603.352.803 1.125.45 1.726L-6.41 102.108l-22.675 36.433a1.26 1.26 0 0 1-.855.578 1.262 1.262 0 0 1-1.292-1.906l12.409-19.938zM-26.144 148c.357-.29 35.834-29.169 45.878-51.225a1.266 1.266 0 0 1 1.674-.627c.635.287.916 1.034.627 1.669-2.194 4.816-5.634 10.192-10.277 16.078 8.3-.634 19.738-2.099 22.118-4.055a1.266 1.266 0 0 1 1.779.169 1.259 1.259 0 0 1-.172 1.775c-1.527 1.257-5.157 2.22-9.265 2.944-6.518 1.15-14.218 1.694-16.63 1.846-4.123 4.975-9.051 10.289-14.789 15.93-10.198 10.024-19.26 17.38-19.351 17.453a1.263 1.263 0 0 1-1.778-.183 1.26 1.26 0 0 1 .186-1.774M-24.47 155.131l40.883-19.728c.105-.05.217-.086.331-.106l10.791-1.902A1.263 1.263 0 0 1 29 134.417c.121.685-.339 1.34-1.026 1.461l-10.618 1.872-11.348 5.476 16.716 1.445a1.26 1.26 0 1 1-.22 2.513l-20.57-1.778a1.267 1.267 0 0 1-.302-.07l-25.002 12.066a1.265 1.265 0 0 1-1.688-.586 1.26 1.26 0 0 1 .589-1.685" fill-opacity=".6" fill="#0C6920"/><g><path d="M-87.858 148.432c-2.815-15.966 7.881-31.198 23.89-34.021 13.54-2.388 26.544 4.866 31.936 16.82a29.348 29.348 0 0 1 15.18-7.652c16.01-2.823 31.271 7.832 34.086 23.798a29.173 29.173 0 0 1-2.996 18.848c12.263 1.735 22.56 11.128 24.822 23.956 1.861 10.554-2.184 20.783-9.762 27.324.424 1.3.768 2.642 1.012 4.028 1.947 11.042-2.572 21.73-10.838 28.208.89 14.694-9.37 28.182-24.256 30.806-16.01 2.823-31.289-7.934-34.062-23.663l-16.625 2.932-15.85-89.888c-8.394-3.91-14.81-11.7-16.537-21.496" fill="#23A84D"/><path d="M-34.823 206.275l3.06-26.685a1.265 1.265 0 0 1 2.511.286l-2.452 21.388 7.13-11.458 12.17-20.658-3.017-17.113a1.262 1.262 0 0 1 1.026-1.46 1.263 1.263 0 0 1 1.464 1.021l2.504 14.198 6.054-10.277a1.268 1.268 0 0 1 1.73-.45c.603.352.803 1.125.45 1.726l-20.217 34.315-22.675 36.433a1.26 1.26 0 0 1-.855.578 1.262 1.262 0 0 1-1.292-1.906l12.409-19.938zM-42.144 237c.357-.29 35.834-29.169 45.878-51.225a1.266 1.266 0 0 1 1.674-.627c.635.287.916 1.034.627 1.669C3.84 191.633.4 197.009-4.242 202.895c8.3-.634 19.738-2.099 22.118-4.055a1.266 1.266 0 0 1 1.779.169 1.259 1.259 0 0 1-.172 1.775c-1.527 1.257-5.157 2.22-9.265 2.944-6.518 1.15-14.218 1.694-16.63 1.846-4.123 4.975-9.051 10.289-14.789 15.93-10.198 10.024-19.26 17.38-19.351 17.453a1.263 1.263 0 0 1-1.778-.183 1.26 1.26 0 0 1 .186-1.774M-40.47 244.131L.413 224.403c.105-.05.217-.086.331-.106l10.791-1.902A1.263 1.263 0 0 1 13 223.417c.121.685-.339 1.34-1.026 1.461L1.355 226.75l-11.348 5.476 16.716 1.445a1.26 1.26 0 1 1-.22 2.513l-20.57-1.778a1.267 1.267 0 0 1-.302-.07l-25.002 12.066a1.265 1.265 0 0 1-1.688-.586 1.26 1.26 0 0 1 .589-1.685" fill-opacity=".6" fill="#0C6920"/></g></g></g><path d="M852.937 307.255s-8.887 3.064-13.095-6.539c0 0 9.108-3.794 13.095 6.54" fill="#1E8E42"/><path d="M851.304 320.532c-.659-28.189-5.699-34.139-5.75-34.195l1.814-1.583c.233.24 5.7 6.197 6.39 35.726l-2.454.052z" fill="#0C6920"/><path d="M848.807 294.758c0 1.293-.782 2.35-1.739 2.35-.956 0-1.738-1.057-1.738-2.35V276.35c0-1.293.782-2.35 1.738-2.35.957 0 1.739 1.058 1.739 2.35v18.408z" fill="#FFFFFD"/><path d="M856.682 283.89c1.35 0 2.454.748 2.454 1.664 0 .916-1.104 1.665-2.454 1.665h-19.227c-1.35 0-2.455-.75-2.455-1.665 0-.916 1.105-1.664 2.455-1.664h19.227z" fill="#FFFFFD"/><path d="M841.5 293.24c-.955.914-2.289 1.131-2.965.484-.676-.647-.449-1.924.506-2.838l13.596-13.017c.955-.914 2.288-1.132 2.965-.485.676.647.448 1.925-.507 2.839L841.5 293.24z" fill="#FFFFFD"/><path d="M855.095 290.885c.955.915 1.183 2.191.507 2.84-.677.646-2.01.429-2.965-.486l-13.596-13.016c-.955-.914-1.182-2.191-.506-2.84.675-.646 2.01-.428 2.965.486l13.595 13.016z" fill="#FFFFFD"/><path d="M843.489 285.75c0-1.73 1.465-3.133 3.272-3.133 1.808 0 3.273 1.403 3.273 3.133s-1.465 3.133-3.273 3.133c-1.807 0-3.272-1.403-3.272-3.133" fill="#F2C100"/><path d="M859.136 320.804l1.38-18.025 1.407 16.33s2.033-15.407 6.533-18.344c0 0-3.081 7.506-3.695 18.473h2.25s6.341-7.453 12.682-9.999c0 0-9.102 7.649-10.278 11.565h-10.279zM852.011 303.701s-.818-9.008 9.955-10.444c0 0 1.5 9.4-9.955 10.444" fill="#1E8E42"/><g><path d="M752.79 131.355c0-3.692 3.07-6.683 6.853-6.683 3.786 0 6.855 2.991 6.855 6.683 0 3.692-3.07 6.683-6.855 6.683-3.784 0-6.853-2.991-6.853-6.683" fill="#F2F4F7"/><path d="M754.793 126.619s6.972-6.641 13.58-10.223c6.609-3.58 11.75-1.909 11.016-.238-.735 1.67-6.364 8.832-7.833 10.265-1.47 1.43-9.057 1.192-9.057 1.192l-7.706-.996z" fill="#F2F4F7"/><path d="M758.535 123.408s-2.47-12.405-5.312-13.28c-2.845-.876-5.612 2.99-5.687 4.961-.076 1.97 1.87 6.275 1.87 6.275s-5.162 1.023-6.06 3.576c-.819 2.33-.3 5.692 2.843 6.787 3.142 1.094 7.407-2.92 7.407-2.92l4.939-5.4z" fill="#CBE6F5"/></g><g><path d="M322 123.5a5.5 5.5 0 1 1 11 0 5.5 5.5 0 0 1-11 0" fill="#F2F4F7"/><path d="M324 120.167s5.653-5.469 11.011-8.419c5.359-2.948 9.528-1.572 8.932-.196-.595 1.376-5.16 7.274-6.351 8.454-1.192 1.178-7.344.982-7.344.982l-6.248-.82z" fill="#F2F4F7"/><path d="M327 117.012s-2.066-10.188-4.445-10.908c-2.38-.719-4.697 2.457-4.76 4.075-.063 1.619 1.566 5.154 1.566 5.154s-4.32.84-5.072 2.938c-.685 1.913-.25 4.675 2.379 5.574 2.63.899 6.2-2.398 6.2-2.398l4.132-4.435z" fill="#CBE6F5"/></g><g><path d="M701.027 180.046c0-1.91 1.576-3.457 3.52-3.457 1.943 0 3.52 1.547 3.52 3.457s-1.577 3.457-3.52 3.457c-1.944 0-3.52-1.548-3.52-3.457" fill="#F2F4F7"/><path d="M702.056 177.596s3.58-3.435 6.974-5.288c3.393-1.851 6.033-.987 5.656-.123-.377.864-3.268 4.568-4.022 5.31-.755.74-4.65.616-4.65.616l-3.958-.515z" fill="#F2F4F7"/><path d="M703.977 175.935s-1.268-6.416-2.727-6.87c-1.461-.452-2.882 1.548-2.921 2.567-.039 1.02.961 3.246.961 3.246s-2.651.529-3.112 1.85c-.42 1.205-.154 2.944 1.46 3.51 1.613.566 3.803-1.51 3.803-1.51l2.536-2.793z" fill="#CBE6F5"/></g><g opacity=".522"><path d="M810.027 172.046c0-1.91 1.576-3.457 3.52-3.457 1.943 0 3.52 1.547 3.52 3.457s-1.577 3.457-3.52 3.457c-1.944 0-3.52-1.548-3.52-3.457" fill="#F2F4F7"/><path d="M811.056 169.596s3.58-3.435 6.974-5.288c3.393-1.851 6.033-.987 5.656-.123-.377.864-3.268 4.568-4.022 5.31-.755.74-4.65.616-4.65.616l-3.958-.515z" fill="#F2F4F7"/><path d="M812.977 167.935s-1.268-6.416-2.727-6.87c-1.461-.452-2.882 1.548-2.921 2.567-.039 1.02.961 3.246.961 3.246s-2.651.529-3.112 1.85c-.42 1.205-.154 2.944 1.46 3.51 1.613.566 3.803-1.51 3.803-1.51l2.536-2.793z" fill="#CBE6F5"/></g><g><path d="M920.684 294.973s-16.192 5.801-23.86-12.383c0 0 16.595-7.185 23.86 12.383" fill="#1E8E42"/><path d="M917.71 320.114c-1.201-53.38-10.385-64.646-10.478-64.753l3.306-2.997c.423.453 10.385 11.735 11.644 67.65l-4.472.1z" fill="#0C6920"/><path d="M913.16 271.308c0 2.448-1.426 4.45-3.17 4.45-1.742 0-3.167-2.002-3.167-4.45V236.45c0-2.447 1.425-4.45 3.168-4.45s3.168 2.002 3.168 4.45v34.858z" fill="#FFFFFD"/><path d="M927.51 250.727c2.46 0 4.472 1.418 4.472 3.152 0 1.734-2.013 3.152-4.473 3.152h-35.036c-2.46 0-4.473-1.418-4.473-3.152 0-1.734 2.013-3.152 4.473-3.152h35.036z" fill="#FFFFFD"/><path d="M899.844 268.432c-1.74 1.731-4.17 2.144-5.403.918-1.232-1.226-.817-3.644.923-5.375l24.774-24.649c1.74-1.73 4.17-2.143 5.403-.918 1.232 1.225.817 3.645-.923 5.376l-24.774 24.648z" fill="#FFFFFD"/><path d="M924.618 263.975c1.74 1.73 2.155 4.148.923 5.375-1.233 1.225-3.663.813-5.403-.918l-24.774-24.649c-1.74-1.73-2.155-4.148-.923-5.375 1.231-1.225 3.663-.813 5.403.918l24.774 24.649z" fill="#FFFFFD"/><path d="M903.468 254.25c0-3.277 2.67-5.933 5.964-5.933 3.293 0 5.963 2.656 5.963 5.933 0 3.277-2.67 5.933-5.963 5.933-3.294 0-5.964-2.656-5.964-5.933" fill="#F2C100"/><path d="M931.982 320.63l2.515-34.134 2.563 30.925s3.705-29.176 11.905-34.738c0 0-5.615 14.213-6.733 34.98h4.1s11.554-14.113 23.109-18.934c0 0-16.586 14.483-18.729 21.9h-18.73zM918.999 288.243s-1.491-17.058 18.14-19.777c0 0 2.732 17.8-18.14 19.777" fill="#1E8E42"/></g><g><path d="M132.316 294.973s16.192 5.801 23.86-12.383c0 0-16.595-7.185-23.86 12.383" fill="#1E8E42"/><path d="M135.29 320.114c1.201-53.38 10.385-64.646 10.478-64.753l-3.306-2.997c-.423.453-10.385 11.735-11.644 67.65l4.472.1z" fill="#0C6920"/><path d="M139.84 271.308c0 2.448 1.426 4.45 3.17 4.45 1.742 0 3.167-2.002 3.167-4.45V236.45c0-2.447-1.425-4.45-3.168-4.45s-3.168 2.002-3.168 4.45v34.858z" fill="#FFFFFD"/><path d="M125.49 250.727c-2.46 0-4.472 1.418-4.472 3.152 0 1.734 2.013 3.152 4.473 3.152h35.036c2.46 0 4.473-1.418 4.473-3.152 0-1.734-2.013-3.152-4.473-3.152h-35.036z" fill="#FFFFFD"/><path d="M153.156 268.432c1.74 1.731 4.17 2.144 5.403.918 1.232-1.226.817-3.644-.923-5.375l-24.774-24.649c-1.74-1.73-4.17-2.143-5.403-.918-1.232 1.225-.817 3.645.923 5.376l24.774 24.648z" fill="#FFFFFD"/><path d="M128.382 263.975c-1.74 1.73-2.155 4.148-.923 5.375 1.233 1.225 3.663.813 5.403-.918l24.774-24.649c1.74-1.73 2.155-4.148.923-5.375-1.231-1.225-3.663-.813-5.403.918l-24.774 24.649z" fill="#FFFFFD"/><path d="M149.532 254.25c0-3.277-2.67-5.933-5.964-5.933-3.293 0-5.963 2.656-5.963 5.933 0 3.277 2.67 5.933 5.963 5.933 3.294 0 5.964-2.656 5.964-5.933" fill="#F2C100"/><path d="M121.018 320.63l-2.515-34.134-2.563 30.925s-3.705-29.176-11.905-34.738c0 0 5.615 14.213 6.733 34.98h-4.1S95.114 303.55 83.56 298.728c0 0 16.586 14.483 18.729 21.9h18.73zM134.001 288.243s1.491-17.058-18.14-19.777c0 0-2.732 17.8 18.14 19.777" fill="#1E8E42"/></g></g></svg>