<svg width="1023" height="320" xmlns="http://www.w3.org/2000/svg"><g fill="none" fill-rule="evenodd"><g fill="#FFF"><path d="M319.525 168.245c0 1.111.65 2.02 1.447 2.02.796 0 1.447-.909 1.447-2.02v-4.224c0-1.112-.65-2.021-1.447-2.021s-1.447.91-1.447 2.02v4.225z" opacity=".415"/><path d="M319.058 164c-1.132 0-2.058.639-2.058 1.42 0 .783.926 1.421 2.058 1.421h4.302c1.132 0 2.059-.638 2.059-1.42 0-.782-.927-1.421-2.059-1.421h-4.302z" opacity=".415"/><path d="M100.344 137.245c0 1.111.65 2.02 1.447 2.02s1.447-.909 1.447-2.02v-4.224c0-1.112-.65-2.021-1.447-2.021s-1.447.91-1.447 2.02v4.225z"/><path d="M99.64 133.712c-1.132 0-2.059.639-2.059 1.42 0 .783.927 1.421 2.059 1.421h4.302c1.132 0 2.058-.638 2.058-1.42 0-.782-.926-1.421-2.058-1.421H99.64zM44.344 117.245c0 1.111.65 2.02 1.447 2.02s1.447-.909 1.447-2.02v-4.224c0-1.112-.65-2.021-1.447-2.021s-1.447.91-1.447 2.02v4.225z"/><path d="M43.64 113.712c-1.132 0-2.059.639-2.059 1.42 0 .783.927 1.421 2.059 1.421h4.302c1.132 0 2.058-.638 2.058-1.42 0-.782-.926-1.421-2.058-1.421H43.64z"/><path d="M361.525 120.245c0 1.111.65 2.02 1.447 2.02.796 0 1.447-.909 1.447-2.02v-4.224c0-1.112-.65-2.021-1.447-2.021s-1.447.91-1.447 2.02v4.225z" opacity=".415"/><path d="M361.058 116c-1.132 0-2.058.639-2.058 1.42 0 .783.926 1.421 2.058 1.421h4.302c1.132 0 2.059-.638 2.059-1.42 0-.782-.927-1.421-2.059-1.421h-4.302z" opacity=".415"/><path d="M285.525 130.245c0 1.111.65 2.02 1.447 2.02.796 0 1.447-.909 1.447-2.02v-4.224c0-1.112-.65-2.021-1.447-2.021s-1.447.91-1.447 2.02v4.225z"/><path d="M285.058 126c-1.132 0-2.058.639-2.058 1.42 0 .783.926 1.421 2.058 1.421h4.302c1.132 0 2.059-.638 2.059-1.42 0-.782-.927-1.421-2.059-1.421h-4.302zM365.525 178.245c0 1.111.65 2.02 1.447 2.02.796 0 1.447-.909 1.447-2.02v-4.224c0-1.112-.65-2.021-1.447-2.021s-1.447.91-1.447 2.02v4.225z"/><path d="M365.058 174c-1.132 0-2.058.639-2.058 1.42 0 .783.926 1.421 2.058 1.421h4.302c1.132 0 2.059-.638 2.059-1.42 0-.782-.927-1.421-2.059-1.421h-4.302z"/><path d="M66.344 93.245c0 1.111.65 2.02 1.447 2.02s1.447-.909 1.447-2.02V89.02c0-1.112-.65-2.021-1.447-2.021s-1.447.91-1.447 2.02v4.225z" opacity=".415"/><path d="M65.64 89.712c-1.132 0-2.059.639-2.059 1.42 0 .783.927 1.421 2.059 1.421h4.302c1.132 0 2.058-.638 2.058-1.42 0-.782-.926-1.421-2.058-1.421H65.64z" opacity=".415"/></g><g transform="translate(112 165)"><path fill="#7692A8" d="M115.871 42.566h31.667v114.712h-31.667z"/><path fill="#4B6A83" d="M130.985 42.566h16.553v114.712h-16.553z"/><rect fill="#37354A" x="113.712" y="41.123" width="37.424" height="1.443" rx=".721"/><rect fill="#D3D3D3" x="111.553" y="35.352" width="41.023" height="5.05" rx="2.525"/><path d="M131.713 11.543c-.156 4.376 1.844 7.803 5.998 10.283 6.233 3.72 9.827 6.771 9.827 10.18v3.344h-15.825V11.543z" fill="#4B6A83"/><path d="M131.696 11.543c.156 4.376-1.843 7.804-5.998 10.283-6.233 3.72-9.827 6.96-9.827 10.181v3.345h15.825V11.543z" fill="#7692A8"/><path fill="#4B6A83" d="M140.341 114.712h43.182V158h-43.182z"/><path fill="#8490A2" d="M140.341 114.712h19.432V158h-19.432z"/><path d="M159.777 132.027h2.15c5.568 0 10.08 4.513 10.08 10.08V158h-22.31v-15.893c0-5.567 4.513-10.08 10.08-10.08z" fill="#37354A"/><path d="M169.645 158v-15.893c0-5.254-4.02-9.57-9.153-10.038.306-.027.615-.042.927-.042h.509c5.567 0 10.08 4.513 10.08 10.08V158h-2.363z" fill-opacity=".8" fill="#DFEDEB"/><path d="M187.819 110.384c.03-1.43.03-2.381 0-2.854-.533-8.645-3.51-15.332-8.93-20.06-5.865-5.117-12.717-9.984-20.556-14.602v37.516h29.486z" fill="#4B6A83"/><path d="M129.567 110.384c-.029-1.43-.029-2.381 0-2.854.534-8.645 3.51-15.332 8.931-20.06 5.865-5.117 12.716-9.984 20.555-14.602v37.516h-29.486z" fill="#8490A2"/><path fill="#4B6A83" d="M44.621 12.986h62.614v74.311H44.621z"/><path fill="#7692A8" d="M44.621 12.986h31.667v74.311H44.621z"/><path fill="#DCE0E0" d="M29.508 96.676h110.833V158H29.508z"/><rect fill="#53566C" x="29.508" y="93.79" width="114.432" height="3.607" rx="1.804"/><rect fill="#DCE0E0" x="29.508" y="85.854" width="118.75" height="7.936" rx="2.16"/><path fill="#8CA09C" d="M39.583 7.215h36.705v6.493H39.583z"/><path fill="#6A8088" d="M76.288 7.215h35.985v6.493H76.288z"/><path fill="#8CA09C" d="M39.583 0h6.477v7.215h-6.477zM49.659 0h6.477v7.215h-6.477z"/><path fill="#6A8088" d="M96.439 0h6.477v7.215h-6.477zM105.795 0h6.477v7.215h-6.477z"/><path fill="#8CA09C" d="M59.735 0h6.477v7.215h-6.477z"/><path fill="#6A8088" d="M86.364 0h6.477v7.215h-6.477zM76.288 0h6.477v7.215h-6.477z"/><path fill="#8CA09C" d="M69.811 0h6.477v7.215h-6.477z"/><rect fill="#37354A" x="83.485" y="23.808" width="18.712" height="14.429" rx="2.16"/><path d="M116.595 110.384h4.31c5.567 0 10.08 4.513 10.08 10.08v36.815h-24.47v-36.815c0-5.567 4.513-10.08 10.08-10.08zM79.89 110.384h4.31c5.567 0 10.08 4.513 10.08 10.08v36.815H69.81v-36.815c0-5.567 4.514-10.08 10.08-10.08zM45.345 110.384h4.31c5.567 0 10.08 4.513 10.08 10.08v36.815h-24.47v-36.815c0-5.567 4.513-10.08 10.08-10.08z" fill="#37354A"/><path d="M125.65 157.279v-36.815c0-5.467-4.35-9.917-9.779-10.076.1-.003.2-.004.3-.004h4.734c5.567 0 10.08 4.513 10.08 10.08v36.815h-5.334zM89.666 157.279v-36.815c0-5.467-4.352-9.917-9.78-10.076.1-.003.2-.004.301-.004h4.733c5.567 0 10.08 4.513 10.08 10.08v36.815h-5.334zM55.12 157.279v-36.815c0-5.467-4.351-9.917-9.78-10.076.1-.003.201-.004.301-.004h4.734c5.567 0 10.08 4.513 10.08 10.08v36.815H55.12z" fill="#4B6A83"/><rect fill="#788A87" x="2.879" y="61.324" width="46.061" height="1.443" rx=".721"/><rect fill="#D3D3D3" y="56.274" width="50.379" height="5.05" rx="2.525"/><path fill="#E1E6E6" d="M5.038 62.767h41.023v93.79H5.038z"/><path fill-opacity=".3" fill="#8CA09C" style="mix-blend-mode:multiply" d="M26.629 62.767h19.432v93.79H26.629z"/><path d="M36.705 75.753a5.038 5.038 0 0 1 5.037 5.038v6.506H31.667V80.79a5.038 5.038 0 0 1 5.038-5.038z" fill="#344A5C"/><path d="M40.063 87.297v-7.345a4.2 4.2 0 0 0-3.358-4.115 4.198 4.198 0 0 1 5.038 4.114v7.346h-1.68z" fill="#DFEDEB"/><path d="M16.553 75.753a5.038 5.038 0 0 1 5.038 5.038v6.506H11.515V80.79a5.038 5.038 0 0 1 5.038-5.038z" fill="#4B6A83"/><path d="M19.912 87.297v-7.345a4.2 4.2 0 0 0-3.359-4.115 4.198 4.198 0 0 1 5.038 4.114v7.346h-1.68z" fill="#EBFAF8"/><rect fill="#37354A" x="10.076" y="87.297" width="12.955" height="2.886" rx=".72"/><rect fill="#37354A" x="30.227" y="87.297" width="12.955" height="2.886" rx=".72"/><path fill-opacity=".5" fill="#56706C" d="M26.629 105.333h7.197v3.607h-7.197zM26.629 120.484h7.197v3.607h-7.197z"/><path fill-opacity=".5" fill="#FFF" d="M33.106 113.269h7.197v3.607h-7.197z"/><path fill="#415D73" d="M130.985 59.881h-7.197v3.607h7.197zM130.985 73.589h-7.197v3.607h7.197z"/><path fill-opacity=".29" fill="#FFF" d="M126.666 66.374h-7.197v3.607h7.197z"/><path d="M25.92 25.251c-.199 5.701 2.346 10.167 7.634 13.399 7.932 4.846 12.507 8.823 12.507 13.265v4.357H25.92v-31.02z" fill="#4B6A83"/><path d="M25.179 25.251c.198 5.702-2.347 10.168-7.635 13.4C9.612 43.496 5.038 47.72 5.038 51.915v4.358h20.14V25.251z" fill="#8CA09C"/><rect fill="#DCE0E0" x="138.182" y="110.384" width="51.818" height="2.886" rx="1.44"/><path fill="#37354A" d="M140.341 113.269h43.182v1.443h-43.182z"/></g><g fill="#FFF"><path d="M931.656 180.245c0 1.111-.65 2.02-1.447 2.02s-1.447-.909-1.447-2.02v-4.224c0-1.112.65-2.021 1.447-2.021s1.447.91 1.447 2.02v4.225z" opacity=".415"/><path d="M932.36 176.712c1.132 0 2.059.639 2.059 1.42 0 .783-.927 1.421-2.059 1.421h-4.302c-1.132 0-2.058-.638-2.058-1.42 0-.782.926-1.421 2.058-1.421h4.302z" opacity=".415"/><path d="M835.656 170.245c0 1.111-.65 2.02-1.447 2.02s-1.447-.909-1.447-2.02v-4.224c0-1.112.65-2.021 1.447-2.021s1.447.91 1.447 2.02v4.225z" opacity=".291"/><path d="M836.36 166.712c1.132 0 2.059.639 2.059 1.42 0 .783-.927 1.421-2.059 1.421h-4.302c-1.132 0-2.058-.638-2.058-1.42 0-.782.926-1.421 2.058-1.421h4.302z" opacity=".291"/><path d="M811.656 120.245c0 1.111-.65 2.02-1.447 2.02s-1.447-.909-1.447-2.02v-4.224c0-1.112.65-2.021 1.447-2.021s1.447.91 1.447 2.02v4.225z"/><path d="M812.36 116.712c1.132 0 2.059.639 2.059 1.42 0 .783-.927 1.421-2.059 1.421h-4.302c-1.132 0-2.058-.638-2.058-1.42 0-.782.926-1.421 2.058-1.421h4.302z"/><path d="M889.656 132.245c0 1.111-.65 2.02-1.447 2.02s-1.447-.909-1.447-2.02v-4.224c0-1.112.65-2.021 1.447-2.021s1.447.91 1.447 2.02v4.225z" opacity=".415"/><path d="M890.36 128.712c1.132 0 2.059.639 2.059 1.42 0 .783-.927 1.421-2.059 1.421h-4.302c-1.132 0-2.058-.638-2.058-1.42 0-.782.926-1.421 2.058-1.421h4.302z" opacity=".415"/><path d="M965.656 142.245c0 1.111-.65 2.02-1.447 2.02s-1.447-.909-1.447-2.02v-4.224c0-1.112.65-2.021 1.447-2.021s1.447.91 1.447 2.02v4.225z"/><path d="M966.36 138.712c1.132 0 2.059.639 2.059 1.42 0 .783-.927 1.421-2.059 1.421h-4.302c-1.132 0-2.058-.638-2.058-1.42 0-.782.926-1.421 2.058-1.421h4.302zM885.656 190.245c0 1.111-.65 2.02-1.447 2.02s-1.447-.909-1.447-2.02v-4.224c0-1.112.65-2.021 1.447-2.021s1.447.91 1.447 2.02v4.225z"/><path d="M886.36 186.712c1.132 0 2.059.639 2.059 1.42 0 .783-.927 1.421-2.059 1.421h-4.302c-1.132 0-2.058-.638-2.058-1.42 0-.782.926-1.421 2.058-1.421h4.302z"/></g><path d="M725.308 94.584C718.908 101.532 715 110.81 715 121c0 21.54 17.46 39 39 39 8.028 0 15.49-2.426 21.692-6.584C768.565 161.153 758.349 166 747 166c-21.54 0-39-17.46-39-39 0-13.51 6.87-25.417 17.308-32.416z" fill="#EBF0F0"/></g></svg>