<svg width="1023" height="320" xmlns="http://www.w3.org/2000/svg" xmlns:xlink="http://www.w3.org/1999/xlink"><defs><path id="a" d="M0 101.96h86.925V.25H0v101.71z"/><path id="c" d="M87.258.25H0v102.025h87.258V.25z"/><path id="e" d="M0 69.293h59.948V.17H0v69.123z"/><path id="g" d="M59.494.17H0v69.337h59.494V.17z"/><path id="i" d="M0 69.293h59.948V.17H0v69.123z"/><path id="k" d="M59.494.17H0v69.337h59.494V.17z"/><path id="m" d="M0 56.424h48.958V.138H0v56.286z"/><path id="o" d="M48.587.139H0v56.46h48.587V.139z"/><path id="q" d="M0 69.293h59.948V.17H0v69.123z"/><path id="s" d="M59.494.17H0v69.337h59.494V.17z"/><path id="u" d="M0 45.535h38.967V.112H0v45.423z"/><path id="w" d="M38.671.112H0v45.564h38.671V.112z"/><path id="y" d="M0 38.606h32.972V.095H0v38.511z"/><path id="A" d="M32.722.095H0v38.63h32.722V.095z"/></defs><g fill="none" fill-rule="evenodd"><g fill="#FFF"><path d="M124.344 180.245c0 1.111.65 2.02 1.447 2.02s1.447-.909 1.447-2.02v-4.224c0-1.112-.65-2.021-1.447-2.021s-1.447.91-1.447 2.02v4.225z" opacity=".415"/><path d="M123.64 176.712c-1.132 0-2.059.639-2.059 1.42 0 .783.927 1.421 2.059 1.421h4.302c1.132 0 2.058-.638 2.058-1.42 0-.782-.926-1.421-2.058-1.421h-4.302z" opacity=".415"/><path d="M330.344 130.245c0 1.111.65 2.02 1.447 2.02s1.447-.909 1.447-2.02v-4.224c0-1.112-.65-2.021-1.447-2.021s-1.447.91-1.447 2.02v4.225z"/><path d="M329.64 126.712c-1.132 0-2.059.639-2.059 1.42 0 .783.927 1.421 2.059 1.421h4.302c1.132 0 2.058-.638 2.058-1.42 0-.782-.926-1.421-2.058-1.421h-4.302zM244.344 120.245c0 1.111.65 2.02 1.447 2.02s1.447-.909 1.447-2.02v-4.224c0-1.112-.65-2.021-1.447-2.021s-1.447.91-1.447 2.02v4.225z"/><path d="M243.64 116.712c-1.132 0-2.059.639-2.059 1.42 0 .783.927 1.421 2.059 1.421h4.302c1.132 0 2.058-.638 2.058-1.42 0-.782-.926-1.421-2.058-1.421h-4.302z"/><path d="M166.344 132.245c0 1.111.65 2.02 1.447 2.02s1.447-.909 1.447-2.02v-4.224c0-1.112-.65-2.021-1.447-2.021s-1.447.91-1.447 2.02v4.225z" opacity=".415"/><path d="M165.64 128.712c-1.132 0-2.059.639-2.059 1.42 0 .783.927 1.421 2.059 1.421h4.302c1.132 0 2.058-.638 2.058-1.42 0-.782-.926-1.421-2.058-1.421h-4.302z" opacity=".415"/><path d="M90.344 142.245c0 1.111.65 2.02 1.447 2.02s1.447-.909 1.447-2.02v-4.224c0-1.112-.65-2.021-1.447-2.021s-1.447.91-1.447 2.02v4.225z"/><path d="M89.64 138.712c-1.132 0-2.059.639-2.059 1.42 0 .783.927 1.421 2.059 1.421h4.302c1.132 0 2.058-.638 2.058-1.42 0-.782-.926-1.421-2.058-1.421H89.64zM170.344 190.245c0 1.111.65 2.02 1.447 2.02s1.447-.909 1.447-2.02v-4.224c0-1.112-.65-2.021-1.447-2.021s-1.447.91-1.447 2.02v4.225z"/><path d="M169.64 186.712c-1.132 0-2.059.639-2.059 1.42 0 .783.927 1.421 2.059 1.421h4.302c1.132 0 2.058-.638 2.058-1.42 0-.782-.926-1.421-2.058-1.421h-4.302z"/><path d="M266.344 96.245c0 1.111.65 2.02 1.447 2.02s1.447-.909 1.447-2.02V92.02c0-1.112-.65-2.021-1.447-2.021s-1.447.91-1.447 2.02v4.225z" opacity=".415"/><path d="M265.64 92.712c-1.132 0-2.059.639-2.059 1.42 0 .783.927 1.421 2.059 1.421h4.302c1.132 0 2.058-.638 2.058-1.42 0-.782-.926-1.421-2.058-1.421h-4.302z" opacity=".415"/></g><g fill="#FFF"><path d="M907.656 199.245c0 1.111-.65 2.02-1.447 2.02s-1.447-.909-1.447-2.02v-4.224c0-1.112.65-2.021 1.447-2.021s1.447.91 1.447 2.02v4.225z" opacity=".415"/><path d="M908.36 195.712c1.132 0 2.059.639 2.059 1.42 0 .783-.927 1.421-2.059 1.421h-4.302c-1.132 0-2.058-.638-2.058-1.42 0-.782.926-1.421 2.058-1.421h4.302z" opacity=".415"/><path d="M701.656 149.245c0 1.111-.65 2.02-1.447 2.02s-1.447-.909-1.447-2.02v-4.224c0-1.112.65-2.021 1.447-2.021s1.447.91 1.447 2.02v4.225z"/><path d="M702.36 145.712c1.132 0 2.059.639 2.059 1.42 0 .783-.927 1.421-2.059 1.421h-4.302c-1.132 0-2.058-.638-2.058-1.42 0-.782.926-1.421 2.058-1.421h4.302zM787.656 139.245c0 1.111-.65 2.02-1.447 2.02s-1.447-.909-1.447-2.02v-4.224c0-1.112.65-2.021 1.447-2.021s1.447.91 1.447 2.02v4.225z"/><path d="M788.36 135.712c1.132 0 2.059.639 2.059 1.42 0 .783-.927 1.421-2.059 1.421h-4.302c-1.132 0-2.058-.638-2.058-1.42 0-.782.926-1.421 2.058-1.421h4.302z"/><path d="M865.656 151.245c0 1.111-.65 2.02-1.447 2.02s-1.447-.909-1.447-2.02v-4.224c0-1.112.65-2.021 1.447-2.021s1.447.91 1.447 2.02v4.225z" opacity=".415"/><path d="M866.36 147.712c1.132 0 2.059.639 2.059 1.42 0 .783-.927 1.421-2.059 1.421h-4.302c-1.132 0-2.058-.638-2.058-1.42 0-.782.926-1.421 2.058-1.421h4.302z" opacity=".415"/><path d="M941.656 161.245c0 1.111-.65 2.02-1.447 2.02s-1.447-.909-1.447-2.02v-4.224c0-1.112.65-2.021 1.447-2.021s1.447.91 1.447 2.02v4.225z"/><path d="M942.36 157.712c1.132 0 2.059.639 2.059 1.42 0 .783-.927 1.421-2.059 1.421h-4.302c-1.132 0-2.058-.638-2.058-1.42 0-.782.926-1.421 2.058-1.421h4.302zM861.656 209.245c0 1.111-.65 2.02-1.447 2.02s-1.447-.909-1.447-2.02v-4.224c0-1.112.65-2.021 1.447-2.021s1.447.91 1.447 2.02v4.225z"/><path d="M862.36 205.712c1.132 0 2.059.639 2.059 1.42 0 .783-.927 1.421-2.059 1.421h-4.302c-1.132 0-2.058-.638-2.058-1.42 0-.782.926-1.421 2.058-1.421h4.302z"/><path d="M765.656 115.245c0 1.111-.65 2.02-1.447 2.02s-1.447-.909-1.447-2.02v-4.224c0-1.112.65-2.021 1.447-2.021s1.447.91 1.447 2.02v4.225z" opacity=".415"/><path d="M766.36 111.712c1.132 0 2.059.639 2.059 1.42 0 .783-.927 1.421-2.059 1.421h-4.302c-1.132 0-2.058-.638-2.058-1.42 0-.782.926-1.421 2.058-1.421h4.302z" opacity=".415"/></g><g transform="translate(95 261)"><mask id="b" fill="#fff"><use xlink:href="#a"/></mask><path d="M86.925 54.896c0 25.993-6.323 47.064-43.463 47.064C5.112 101.96 0 80.889 0 54.896 0 28.904 19.46.25 43.462.25c24.004 0 43.463 28.655 43.463 54.647" fill="#87D16F" mask="url(#b)"/></g><g transform="translate(95 261)"><mask id="d" fill="#fff"><use xlink:href="#c"/></mask><path d="M43.63 4.425c21.703 0 38.27 26.623 38.27 50.108 0 23.486-9.079 42.524-38.27 42.524-30.754 0-38.272-19.038-38.272-42.524 0-23.485 16.567-50.108 38.271-50.108m0 97.85c37.835 0 43.629-21.136 43.629-47.209C87.258 28.994 67.725.25 43.629.25 19.533.25 0 28.994 0 55.066c0 26.073 5.133 47.209 43.63 47.209" fill="#77B861" mask="url(#d)"/></g><path d="M121 295c0-9.94 8.06-18 18-18s18 8.06 18 18-8.06 18-18 18-18-8.06-18-18" fill="#F3FFFF"/><path d="M129 296.5c0-5.247 4.029-9.5 9-9.5s9 4.253 9 9.5-4.029 9.5-9 9.5-9-4.253-9-9.5" fill="#030403"/><path d="M134 288a5 5 0 1 1 10 0 5 5 0 0 1-10 0" fill="#F3FFFF"/><g transform="translate(171 278)"><mask id="f" fill="#fff"><use xlink:href="#e"/></mask><path d="M59.949 37.308c0 17.665-4.361 31.985-29.975 31.985C3.525 69.293 0 54.973 0 37.308S13.42.17 29.974.17c16.554 0 29.975 19.474 29.975 37.14" fill="#87D16F" mask="url(#f)"/></g><g transform="translate(171 278)"><mask id="h" fill="#fff"><use xlink:href="#g"/></mask><path d="M29.747 3.007c14.798 0 26.094 18.094 26.094 34.054 0 15.962-6.19 28.9-26.094 28.9-20.968 0-26.094-12.938-26.094-28.9 0-15.96 11.296-34.054 26.094-34.054m0 66.5c25.797 0 29.747-14.364 29.747-32.083C59.494 19.704 46.176.17 29.747.17 13.318.17 0 19.704 0 37.424s3.499 32.083 29.747 32.083" fill="#77B861" mask="url(#h)"/></g><path d="M189 301c0-6.627 5.373-12 12-12s12 5.373 12 12-5.373 12-12 12-12-5.373-12-12" fill="#F3FFFF"/><path d="M194 301.5a6.5 6.5 0 1 1 13 0 6.5 6.5 0 1 1-13 0" fill="#030403"/><path d="M198 296.5a3.5 3.5 0 1 1 7 0 3.5 3.5 0 0 1-7 0" fill="#F3FFFF"/><g transform="translate(766 278)"><mask id="j" fill="#fff"><use xlink:href="#i"/></mask><path d="M59.949 37.308c0 17.665-4.361 31.985-29.975 31.985C3.525 69.293 0 54.973 0 37.308S13.42.17 29.974.17c16.554 0 29.975 19.474 29.975 37.14" fill="#87D16F" mask="url(#j)"/></g><g transform="translate(766 278)"><mask id="l" fill="#fff"><use xlink:href="#k"/></mask><path d="M29.747 3.007c14.798 0 26.094 18.094 26.094 34.054 0 15.962-6.19 28.9-26.094 28.9-20.968 0-26.094-12.938-26.094-28.9 0-15.96 11.296-34.054 26.094-34.054m0 66.5c25.797 0 29.747-14.364 29.747-32.083C59.494 19.704 46.176.17 29.747.17 13.318.17 0 19.704 0 37.424s3.499 32.083 29.747 32.083" fill="#77B861" mask="url(#l)"/></g><path d="M784 301c0-6.627 5.373-12 12-12s12 5.373 12 12-5.373 12-12 12-12-5.373-12-12" fill="#F3FFFF"/><path d="M789 301.5a6.5 6.5 0 1 1 13 0 6.5 6.5 0 1 1-13 0" fill="#030403"/><path d="M793 296.5a3.5 3.5 0 1 1 7 0 3.5 3.5 0 0 1-7 0" fill="#F3FFFF"/><g><g transform="translate(228 286)"><mask id="n" fill="#fff"><use xlink:href="#m"/></mask><path d="M48.958 30.38c0 14.384-3.561 26.044-24.48 26.044C2.88 56.424 0 44.764 0 30.38 0 15.995 10.96.138 24.48.138c13.52 0 24.479 15.857 24.479 30.242" fill="#87D16F" mask="url(#n)"/></g><g transform="translate(228 286)"><mask id="p" fill="#fff"><use xlink:href="#o"/></mask><path d="M24.294 2.449c12.085 0 21.31 14.733 21.31 27.73 0 12.996-5.056 23.532-21.31 23.532-17.125 0-21.31-10.536-21.31-23.532 0-12.997 9.224-27.73 21.31-27.73m0 54.15c21.067 0 24.293-11.697 24.293-26.125C48.587 16.045 37.71.138 24.294.138S0 16.045 0 30.474c0 14.428 2.857 26.125 24.294 26.125" fill="#77B861" mask="url(#p)"/></g><path d="M243 305c0-5.523 4.477-10 10-10s10 4.477 10 10-4.477 10-10 10-10-4.477-10-10" fill="#F3FFFF"/><path d="M247 305a5 5 0 1 1 10 0 5 5 0 0 1-10 0" fill="#030403"/><path d="M250 301a3 3 0 1 1 6 0 3 3 0 0 1-6 0" fill="#F3FFFF"/></g><g><g transform="translate(814 280)"><mask id="r" fill="#fff"><use xlink:href="#q"/></mask><path d="M59.949 37.308c0 17.665-4.361 31.985-29.975 31.985C3.525 69.293 0 54.973 0 37.308S13.42.17 29.974.17c16.554 0 29.975 19.474 29.975 37.14" fill="#87D16F" mask="url(#r)"/></g><g transform="translate(814 280)"><mask id="t" fill="#fff"><use xlink:href="#s"/></mask><path d="M29.747 3.007c14.798 0 26.094 18.094 26.094 34.054 0 15.962-6.19 28.9-26.094 28.9-20.968 0-26.094-12.938-26.094-28.9 0-15.96 11.296-34.054 26.094-34.054m0 66.5c25.797 0 29.747-14.364 29.747-32.083C59.494 19.704 46.176.17 29.747.17 13.318.17 0 19.704 0 37.424s3.499 32.083 29.747 32.083" fill="#77B861" mask="url(#t)"/></g><path d="M832 303c0-6.627 5.373-12 12-12s12 5.373 12 12-5.373 12-12 12-12-5.373-12-12" fill="#F3FFFF"/><path d="M837 303.5a6.5 6.5 0 1 1 13 0 6.5 6.5 0 1 1-13 0" fill="#030403"/><path d="M841 298.5a3.5 3.5 0 1 1 7 0 3.5 3.5 0 0 1-7 0" fill="#F3FFFF"/></g><g><g transform="translate(863 291)"><mask id="v" fill="#fff"><use xlink:href="#u"/></mask><path d="M38.967 24.517c0 11.608-2.835 21.019-19.484 21.019C2.291 45.536 0 36.126 0 24.516 0 12.91 8.723.112 19.483.112S38.967 12.91 38.967 24.517" fill="#87D16F" mask="url(#v)"/></g><g transform="translate(863 291)"><mask id="x" fill="#fff"><use xlink:href="#w"/></mask><path d="M19.336 1.976c9.618 0 16.96 11.89 16.96 22.379 0 10.488-4.023 18.99-16.96 18.99-13.63 0-16.962-8.502-16.962-18.99 0-10.489 7.343-22.379 16.962-22.379m0 43.7c16.767 0 19.335-9.439 19.335-21.083 0-11.644-8.656-24.481-19.335-24.481C8.656.112 0 12.949 0 24.592c0 11.645 2.274 21.084 19.336 21.084" fill="#77B861" mask="url(#x)"/></g><path d="M875 306a8 8 0 1 1 16 0 8 8 0 0 1-16 0" fill="#F3FFFF"/><path d="M878 306.5c0-2.485 1.79-4.5 4-4.5s4 2.015 4 4.5-1.79 4.5-4 4.5-4-2.015-4-4.5" fill="#030403"/><path d="M881 303.5a2.5 2.5 0 1 1 5 0 2.5 2.5 0 0 1-5 0" fill="#F3FFFF"/></g><g><g transform="translate(912 298)"><mask id="z" fill="#fff"><use xlink:href="#y"/></mask><path d="M32.972 20.786c0 9.842-2.399 17.82-16.486 17.82C1.939 38.606 0 30.628 0 20.786S7.381.094 16.486.094s16.486 10.85 16.486 20.692" fill="#87D16F" mask="url(#z)"/></g><g transform="translate(912 298)"><mask id="B" fill="#fff"><use xlink:href="#A"/></mask><path d="M16.361 1.675c8.139 0 14.352 10.081 14.352 18.973 0 8.893-3.405 16.102-14.352 16.102-11.533 0-14.352-7.209-14.352-16.102 0-8.892 6.213-18.973 14.352-18.973m0 37.05c14.188 0 16.36-8.002 16.36-17.875 0-9.872-7.324-20.755-16.36-20.755S0 10.978 0 20.85c0 9.873 1.924 17.875 16.361 17.875" fill="#77B861" mask="url(#B)"/></g><path d="M922 311a7 7 0 1 1 14 0 7 7 0 0 1-14 0" fill="#F3FFFF"/><path d="M925 311c0-2.21 1.567-4 3.5-4s3.5 1.79 3.5 4-1.567 4-3.5 4-3.5-1.79-3.5-4" fill="#030403"/><path d="M927 308a2 2 0 1 1 4 0 2 2 0 0 1-4 0" fill="#F3FFFF"/></g><g><path d="M258.903 166.826c6.258-10.416 19.81-13.763 30.272-7.477s13.87 19.824 7.611 30.24c-6.258 10.414-19.81 13.762-30.272 7.476-10.462-6.286-13.87-19.824-7.611-30.24" fill="#87D16F" opacity=".557"/><path d="M287.386 159.207c-9.685-5.82-22.278-2.71-28.071 6.933-5.794 9.642-2.628 22.22 7.057 28.04 9.685 5.819 22.278 2.71 28.071-6.933 5.794-9.642 2.628-22.22-7.057-28.04m-.284.473c9.438 5.67 12.512 17.886 6.866 27.282-5.645 9.396-17.874 12.416-27.312 6.745-9.438-5.671-12.513-17.886-6.867-27.282s17.874-12.416 27.313-6.745" fill="#8DD574"/><path d="M265.683 193.766c-9.685-5.82-12.85-18.398-7.057-28.04 5.793-9.642 18.386-12.752 28.07-6.933 9.686 5.82 12.852 18.398 7.058 28.04-5.793 9.642-18.386 12.752-28.07 6.933" fill="#23232F"/><path d="M288.294 159.753c.446 6.167-1.294 13.36-5.32 20.062-4.027 6.702-9.561 11.615-15.216 14.115 9.404 4.613 20.844 1.478 26.235-7.494 5.39-8.972 2.788-20.544-5.7-26.683" fill="#353547"/></g><g><path d="M698.713 85.856c4.418-7.652 1.796-17.438-5.857-21.856-7.652-4.418-17.438-1.796-21.856 5.856-4.418 7.653-1.796 17.438 5.856 21.857 7.653 4.418 17.438 1.796 21.857-5.857" fill="#87D16F"/><path d="M678.722 90.48c7.163 4.136 16.355 1.673 20.49-5.49 4.136-7.162 1.673-16.355-5.49-20.49-7.162-4.135-16.354-1.672-20.49 5.49-4.135 7.163-1.672 16.355 5.49 20.49" fill="#23232F"/><path d="M693.722 64.5c7.163 4.136 9.626 13.327 5.49 20.49-4.135 7.163-13.327 9.626-20.49 5.49-7.163-4.135-9.625-13.327-5.49-20.49 4.136-7.163 13.327-9.626 20.49-5.49m-.202.351c-6.98-4.03-15.907-1.638-19.937 5.342-4.03 6.98-1.638 15.907 5.342 19.937 6.98 4.03 15.907 1.638 19.937-5.342 4.03-6.98 1.638-15.907-5.342-19.937" fill="#2F1D42"/><path d="M692.541 63.818c-4.115 1.917-8.115 5.604-10.989 10.582-2.874 4.98-4.067 10.286-3.67 14.808-6.289-4.386-8.328-12.847-4.48-19.513 3.849-6.665 12.195-9.13 19.14-5.877" fill="#353547"/></g><g><path d="M923.472 106.035c3.023-8.304 12.204-12.585 20.508-9.563 8.304 3.023 12.585 12.204 9.562 20.508-3.022 8.304-12.203 12.585-20.507 9.562-8.304-3.022-12.585-12.203-9.563-20.507" fill="#87D16F"/><path d="M932.78 124.321c-7.773-2.829-11.794-11.453-8.966-19.226 2.83-7.772 11.454-11.794 19.226-8.965 7.772 2.83 11.794 11.454 8.965 19.226-2.829 7.772-11.453 11.794-19.226 8.965" fill="#23232F"/><path d="M943.04 96.13c-7.772-2.829-16.397 1.193-19.226 8.965-2.829 7.773 1.193 16.397 8.965 19.226 7.773 2.829 16.397-1.193 19.226-8.965 2.829-7.772-1.193-16.397-8.965-19.226m-.139.381c7.575 2.757 11.48 11.132 8.723 18.706-2.757 7.575-11.132 11.48-18.706 8.723-7.574-2.757-11.48-11.132-8.723-18.706 2.757-7.574 11.132-11.48 18.706-8.723" fill="#2F1D42"/><path d="M944.321 96.597c1.177 4.385.924 9.818-1.042 15.22-1.967 5.402-5.265 9.727-8.985 12.33 7.403 1.998 15.195-1.879 17.828-9.111 2.632-7.232-.845-15.21-7.8-18.44" fill="#353547"/></g></g></svg>