<svg width="1023" height="320" xmlns="http://www.w3.org/2000/svg" xmlns:xlink="http://www.w3.org/1999/xlink"><defs><path d="M750.609 193.13H731.39v-33.26h19.218v33.26zm-9.044 6.653c-1.872 0-3.391-.993-3.391-2.218s1.519-2.217 3.391-2.217 3.392.992 3.392 2.217-1.52 2.218-3.392 2.218zM749.517 151h-17.034c-2.466 0-4.483 2.342-4.483 5.204v40.592c0 2.862 2.017 5.204 4.483 5.204h17.034c2.466 0 4.483-2.342 4.483-5.204v-40.592c0-2.862-2.017-5.204-4.483-5.204z" id="b"/><filter x="-9.6%" y="-2.9%" width="119.2%" height="111.8%" filterUnits="objectBoundingBox" id="a"><feOffset dy="2" in="SourceAlpha" result="shadowOffsetOuter1"/><feGaussianBlur stdDeviation=".5" in="shadowOffsetOuter1" result="shadowBlurOuter1"/><feColorMatrix values="0 0 0 0 0.21960034 0 0 0 0 0.21960034 0 0 0 0 0.21960034 0 0 0 0.4 0" in="shadowBlurOuter1"/></filter><path d="M209.375 172.857H183.5v-44.905h25.875v44.905zM197 182.714c-2.485 0-4.5-1.225-4.5-2.738 0-1.512 2.015-2.738 4.5-2.738 2.484 0 4.5 1.226 4.5 2.738 0 1.513-2.016 2.738-4.5 2.738zM208.793 117h-23.586c-3.414 0-6.207 3.168-6.207 7.04v54.92c0 3.872 2.793 7.04 6.207 7.04h23.586c3.414 0 6.207-3.168 6.207-7.04v-54.92c0-3.872-2.793-7.04-6.207-7.04z" id="d"/><filter x="-6.9%" y="-2.2%" width="113.9%" height="108.7%" filterUnits="objectBoundingBox" id="c"><feOffset dy="2" in="SourceAlpha" result="shadowOffsetOuter1"/><feGaussianBlur stdDeviation=".5" in="shadowOffsetOuter1" result="shadowBlurOuter1"/><feColorMatrix values="0 0 0 0 0.21960034 0 0 0 0 0.21960034 0 0 0 0 0.21960034 0 0 0 0.4 0" in="shadowBlurOuter1"/></filter><path d="M752.648 28.648c-4.057 4.057-8.756 7.936-10.613 6.079-2.66-2.66-4.299-4.975-10.16-.264-5.862 4.713-1.36 7.853 1.216 10.43 2.972 2.972 14.053.155 25.006-10.796 10.951-10.953 13.769-22.033 10.794-25.007-2.576-2.576-5.716-7.077-10.427-1.215-4.712 5.86-2.397 7.5.263 10.16 1.857 1.857-2.022 6.555-6.079 10.613" id="f"/><filter x="-6.1%" y="-3.7%" width="112.2%" height="114.6%" filterUnits="objectBoundingBox" id="e"><feOffset dy="2" in="SourceAlpha" result="shadowOffsetOuter1"/><feGaussianBlur stdDeviation=".5" in="shadowOffsetOuter1" result="shadowBlurOuter1"/><feColorMatrix values="0 0 0 0 0.21960034 0 0 0 0 0.21960034 0 0 0 0 0.21960034 0 0 0 0.4 0" in="shadowBlurOuter1"/></filter><path d="M344.303 198.303c-2.968 2.97-6.407 5.807-7.765 4.448-1.946-1.946-3.146-3.64-7.435-.193-4.289 3.449-.994 5.746.89 7.631 2.175 2.175 10.283.115 18.297-7.898 8.013-8.015 10.075-16.122 7.899-18.298-1.885-1.885-4.183-5.178-7.63-.89-3.448 4.289-1.754 5.489.192 7.435 1.359 1.358-1.479 4.796-4.448 7.765" id="h"/><filter x="-8.3%" y="-5%" width="116.7%" height="120%" filterUnits="objectBoundingBox" id="g"><feOffset dy="2" in="SourceAlpha" result="shadowOffsetOuter1"/><feGaussianBlur stdDeviation=".5" in="shadowOffsetOuter1" result="shadowBlurOuter1"/><feComposite in="shadowBlurOuter1" in2="SourceAlpha" operator="out" result="shadowBlurOuter1"/><feColorMatrix values="0 0 0 0 0.21960034 0 0 0 0 0.21960034 0 0 0 0 0.21960034 0 0 0 0.4 0" in="shadowBlurOuter1"/></filter><path d="M876.752 140.72l-1.473 12.723a20.88 20.88 0 0 0-.164 2.572c0 1.221.43 1.828 1.289 1.828 1.373 0 2.688-.959 3.951-2.88 1.262-1.92 1.885-4.25 1.885-6.98 0-3.942-1.391-7.158-4.188-9.617-2.8-2.472-6.183-3.702-10.172-3.702-4.371 0-8.05 1.529-11.022 4.586-2.98 3.058-4.463 6.822-4.463 11.306 0 4.184 1.4 7.82 4.19 10.905 2.8 3.085 6.724 4.633 11.782 4.633 3.934 0 7.94-1.072 12.028-3.225l1.58 3.719c-4.37 2.275-8.917 3.412-13.608 3.412-6.238 0-11.185-1.92-14.862-5.75-3.667-3.83-5.505-8.406-5.505-13.719 0-5.553 1.931-10.195 5.788-13.923 3.858-3.744 8.523-5.608 13.983-5.608 5.15 0 9.477 1.611 12.97 4.818 3.503 3.216 5.259 7.268 5.259 12.163 0 3.55-.988 6.721-2.954 9.497-1.967 2.769-4.354 4.157-7.18 4.157-2.195 0-3.714-.941-4.555-2.832-1.537 1.965-3.411 2.944-5.625 2.944-2.268 0-4.217-.959-5.827-2.897-1.619-1.93-2.423-4.464-2.423-7.614 0-3.243.906-5.872 2.726-7.903 1.83-2.031 3.997-3.05 6.511-3.05 2.434 0 4.179.784 5.251 2.35l.219-1.911h4.609v-.002zm-10.719 16.582c1.427 0 2.715-.71 3.869-2.126 1.152-1.408 1.73-3.243 1.73-5.5 0-1.277-.439-2.412-1.327-3.43-.88-1.006-1.967-1.51-3.255-1.51-1.391 0-2.543.625-3.458 1.873-.905 1.24-1.361 2.862-1.361 4.848 0 1.686.347 3.085 1.06 4.184.702 1.101 1.617 1.66 2.742 1.66z" id="j"/><filter x="-6.6%" y="-3.8%" width="113.2%" height="115.4%" filterUnits="objectBoundingBox" id="i"><feOffset dy="2" in="SourceAlpha" result="shadowOffsetOuter1"/><feGaussianBlur stdDeviation=".5" in="shadowOffsetOuter1" result="shadowBlurOuter1"/><feColorMatrix values="0 0 0 0 0.21960034 0 0 0 0 0.21960034 0 0 0 0 0.21960034 0 0 0 0.4 0" in="shadowBlurOuter1"/></filter><path d="M71.122 184.427l-3.642 30.665a49.055 49.055 0 0 0-.405 6.201c0 2.944 1.062 4.406 3.188 4.406 3.396 0 6.65-2.312 9.773-6.94 3.122-4.629 4.662-10.247 4.662-16.824 0-9.502-3.44-17.254-10.36-23.181-6.924-5.957-15.295-8.922-25.16-8.922-10.815 0-19.914 3.683-27.267 11.054-7.372 7.37-11.038 16.442-11.038 27.25 0 10.084 3.463 18.847 10.365 26.282 6.925 7.436 16.632 11.168 29.144 11.168 9.73 0 19.64-2.585 29.752-7.773l3.912 8.963C73.232 252.26 61.986 255 50.382 255c-15.432 0-27.67-4.628-36.765-13.859C4.547 231.911 0 220.879 0 208.076c0-13.386 4.777-24.574 14.319-33.56C23.862 165.492 35.399 161 48.908 161c12.738 0 23.441 3.884 32.082 11.612C89.655 180.363 94 190.132 94 201.93c0 8.556-2.443 16.198-7.308 22.889-4.865 6.674-10.77 10.018-17.76 10.018-5.429 0-9.188-2.268-11.269-6.825-3.802 4.737-8.437 7.097-13.915 7.097-5.61 0-10.43-2.312-14.414-6.983-4.003-4.651-5.992-10.76-5.992-18.353 0-7.816 2.24-14.153 6.744-19.048 4.524-4.895 9.887-7.348 16.106-7.348 6.02 0 10.337 1.886 12.989 5.661l.541-4.606h11.4v-.005zM45.68 228.435c3.721 0 7.082-1.787 10.092-5.36 3.005-3.548 4.512-8.173 4.512-13.862 0-3.22-1.144-6.08-3.46-8.647-2.294-2.537-5.13-3.805-8.492-3.805-3.628 0-6.631 1.576-9.018 4.721-2.362 3.124-3.552 7.213-3.552 12.22 0 4.25.906 7.776 2.767 10.546 1.83 2.776 4.217 4.187 7.151 4.187z" id="l"/><filter x="-2.7%" y="-1.6%" width="105.3%" height="106.4%" filterUnits="objectBoundingBox" id="k"><feOffset dy="2" in="SourceAlpha" result="shadowOffsetOuter1"/><feGaussianBlur stdDeviation=".5" in="shadowOffsetOuter1" result="shadowBlurOuter1"/><feComposite in="shadowBlurOuter1" in2="SourceAlpha" operator="out" result="shadowBlurOuter1"/><feColorMatrix values="0 0 0 0 0.21960034 0 0 0 0 0.21960034 0 0 0 0 0.21960034 0 0 0 0.4 0" in="shadowBlurOuter1"/></filter><path d="M334.752 98.72l-1.473 12.723a20.88 20.88 0 0 0-.164 2.572c0 1.221.43 1.828 1.289 1.828 1.373 0 2.688-.959 3.951-2.88 1.262-1.92 1.885-4.25 1.885-6.98 0-3.942-1.391-7.158-4.188-9.617-2.8-2.472-6.183-3.702-10.172-3.702-4.371 0-8.05 1.529-11.022 4.586-2.98 3.058-4.463 6.822-4.463 11.306 0 4.184 1.4 7.82 4.19 10.905 2.8 3.085 6.724 4.633 11.782 4.633 3.934 0 7.94-1.072 12.028-3.225l1.58 3.719c-4.37 2.275-8.917 3.412-13.608 3.412-6.238 0-11.185-1.92-14.862-5.75-3.667-3.83-5.505-8.406-5.505-13.719 0-5.553 1.931-10.195 5.788-13.923 3.858-3.744 8.523-5.608 13.983-5.608 5.15 0 9.477 1.611 12.97 4.818 3.503 3.216 5.259 7.268 5.259 12.163 0 3.55-.988 6.721-2.954 9.497-1.967 2.769-4.354 4.157-7.18 4.157-2.195 0-3.714-.941-4.555-2.832-1.537 1.965-3.411 2.944-5.625 2.944-2.268 0-4.217-.959-5.827-2.897-1.619-1.93-2.423-4.464-2.423-7.614 0-3.243.906-5.872 2.726-7.903 1.83-2.031 3.997-3.05 6.511-3.05 2.434 0 4.179.784 5.251 2.35l.219-1.911h4.609v-.002zm-10.719 16.582c1.427 0 2.715-.71 3.869-2.126 1.152-1.408 1.73-3.243 1.73-5.5 0-1.277-.439-2.412-1.327-3.43-.88-1.006-1.967-1.51-3.255-1.51-1.391 0-2.543.625-3.458 1.873-.905 1.24-1.361 2.862-1.361 4.848 0 1.686.347 3.085 1.06 4.184.702 1.101 1.617 1.66 2.742 1.66z" id="n"/><filter x="-6.6%" y="-3.8%" width="113.2%" height="115.4%" filterUnits="objectBoundingBox" id="m"><feOffset dy="2" in="SourceAlpha" result="shadowOffsetOuter1"/><feGaussianBlur stdDeviation=".5" in="shadowOffsetOuter1" result="shadowBlurOuter1"/><feColorMatrix values="0 0 0 0 0.21960034 0 0 0 0 0.21960034 0 0 0 0 0.21960034 0 0 0 0.4 0" in="shadowBlurOuter1"/></filter><path id="p" d="M33.53 0h7.823v22.143h-7.824z"/><filter x="-32%" y="-6.8%" width="163.9%" height="127.1%" filterUnits="objectBoundingBox" id="o"><feOffset dy="2" in="SourceAlpha" result="shadowOffsetOuter1"/><feGaussianBlur stdDeviation=".5" in="shadowOffsetOuter1" result="shadowBlurOuter1"/><feColorMatrix values="0 0 0 0 0.21960034 0 0 0 0 0.21960034 0 0 0 0 0.21960034 0 0 0 0.4 0" in="shadowBlurOuter1"/></filter><path id="r" d="M48.059 0h7.823v22.143H48.06z"/><filter x="-32%" y="-6.8%" width="163.9%" height="127.1%" filterUnits="objectBoundingBox" id="q"><feOffset dy="2" in="SourceAlpha" result="shadowOffsetOuter1"/><feGaussianBlur stdDeviation=".5" in="shadowOffsetOuter1" result="shadowBlurOuter1"/><feColorMatrix values="0 0 0 0 0.21960034 0 0 0 0 0.21960034 0 0 0 0 0.21960034 0 0 0 0.4 0" in="shadowBlurOuter1"/></filter><path id="t" d="M19 0h7.824v22.143H19z"/><filter x="-32%" y="-6.8%" width="163.9%" height="127.1%" filterUnits="objectBoundingBox" id="s"><feOffset dy="2" in="SourceAlpha" result="shadowOffsetOuter1"/><feGaussianBlur stdDeviation=".5" in="shadowOffsetOuter1" result="shadowBlurOuter1"/><feColorMatrix values="0 0 0 0 0.21960034 0 0 0 0 0.21960034 0 0 0 0 0.21960034 0 0 0 0.4 0" in="shadowBlurOuter1"/></filter><path d="M50.667 43.977c-8.445-21.943-16.89 21.945-25.334 0C16.89 22.034 8.444 65.922 0 43.977V62h76V43.977c-8.444-21.943-16.889 21.955-25.333 0z" id="v"/><filter x="-3.3%" y="-6.2%" width="106.6%" height="124.6%" filterUnits="objectBoundingBox" id="u"><feOffset dy="2" in="SourceAlpha" result="shadowOffsetOuter1"/><feGaussianBlur stdDeviation=".5" in="shadowOffsetOuter1" result="shadowBlurOuter1"/><feColorMatrix values="0 0 0 0 0.21960034 0 0 0 0 0.21960034 0 0 0 0 0.21960034 0 0 0 0.4 0" in="shadowBlurOuter1"/></filter><path d="M60.8 18.821H2.533C1.135 18.821 0 20.42 0 22.387v15.406c8.444 22.492 16.889-22.49 25.333 0 8.445 22.492 16.89-22.49 25.334 0 8.444 22.492 16.889-22.49 25.333 0V22.387c0-1.968-1.135-3.566-2.533-3.566H60.8z" id="x"/><filter x="-3.3%" y="-5.9%" width="106.6%" height="123.6%" filterUnits="objectBoundingBox" id="w"><feOffset dy="2" in="SourceAlpha" result="shadowOffsetOuter1"/><feGaussianBlur stdDeviation=".5" in="shadowOffsetOuter1" result="shadowBlurOuter1"/><feColorMatrix values="0 0 0 0 0.21960034 0 0 0 0 0.21960034 0 0 0 0 0.21960034 0 0 0 0.4 0" in="shadowBlurOuter1"/></filter><path id="z" d="M19.161 0h4.258v13.32h-4.258z"/><filter x="-70.5%" y="-15%" width="240.9%" height="160.1%" filterUnits="objectBoundingBox" id="y"><feOffset dy="3" in="SourceAlpha" result="shadowOffsetOuter1"/><feGaussianBlur stdDeviation=".5" in="shadowOffsetOuter1" result="shadowBlurOuter1"/><feColorMatrix values="0 0 0 0 0.21960034 0 0 0 0 0.21960034 0 0 0 0 0.21960034 0 0 0 0.4 0" in="shadowBlurOuter1"/></filter><path id="B" d="M27.677 0h4.258v13.32h-4.258z"/><filter x="-70.5%" y="-15%" width="240.9%" height="160.1%" filterUnits="objectBoundingBox" id="A"><feOffset dy="3" in="SourceAlpha" result="shadowOffsetOuter1"/><feGaussianBlur stdDeviation=".5" in="shadowOffsetOuter1" result="shadowBlurOuter1"/><feColorMatrix values="0 0 0 0 0.21960034 0 0 0 0 0.21960034 0 0 0 0 0.21960034 0 0 0 0.4 0" in="shadowBlurOuter1"/></filter><path id="D" d="M10.645 0h4.258v13.32h-4.258z"/><filter x="-70.5%" y="-15%" width="240.9%" height="160.1%" filterUnits="objectBoundingBox" id="C"><feOffset dy="3" in="SourceAlpha" result="shadowOffsetOuter1"/><feGaussianBlur stdDeviation=".5" in="shadowOffsetOuter1" result="shadowBlurOuter1"/><feColorMatrix values="0 0 0 0 0.21960034 0 0 0 0 0.21960034 0 0 0 0 0.21960034 0 0 0 0.4 0" in="shadowBlurOuter1"/></filter><path d="M28.805 26.036c-4.801-13.29-9.602 13.291-14.403 0-4.8-13.29-9.601 13.291-14.402 0v10.916h43.207V26.036c-4.8-13.29-9.602 13.297-14.402 0z" id="F"/><filter x="-6.9%" y="-13.6%" width="113.9%" height="154.2%" filterUnits="objectBoundingBox" id="E"><feOffset dy="3" in="SourceAlpha" result="shadowOffsetOuter1"/><feGaussianBlur stdDeviation=".5" in="shadowOffsetOuter1" result="shadowBlurOuter1"/><feColorMatrix values="0 0 0 0 0.21960034 0 0 0 0 0.21960034 0 0 0 0 0.21960034 0 0 0 0.4 0" in="shadowBlurOuter1"/></filter><path d="M34.565 11.364H1.44c-.795 0-1.44.944-1.44 2.108v9.103c4.8 13.29 9.602-13.29 14.402 0 4.801 13.29 9.602-13.29 14.403 0 4.8 13.29 9.601-13.29 14.402 0v-9.103c0-1.164-.645-2.108-1.44-2.108h-7.202z" id="H"/><filter x="-6.9%" y="-13.3%" width="113.9%" height="153.2%" filterUnits="objectBoundingBox" id="G"><feOffset dy="3" in="SourceAlpha" result="shadowOffsetOuter1"/><feGaussianBlur stdDeviation=".5" in="shadowOffsetOuter1" result="shadowBlurOuter1"/><feColorMatrix values="0 0 0 0 0.21960034 0 0 0 0 0.21960034 0 0 0 0 0.21960034 0 0 0 0.4 0" in="shadowBlurOuter1"/></filter><path d="M1006.028 212.788l-33.878-34.42a4.31 4.31 0 0 0-6.3 0l-33.878 34.42c-1.733 1.823-1.086 3.316 1.437 3.316h7.061v26.434c0 1.912.081 3.462 3.48 3.462h16.445v-26.51h17.209V246h17.263c2.594 0 2.663-1.55 2.663-3.462v-26.434h7.062c2.522 0 3.168-1.493 1.436-3.316" id="J"/><filter x="-3.3%" y="-2.2%" width="106.6%" height="108.7%" filterUnits="objectBoundingBox" id="I"><feOffset dy="2" in="SourceAlpha" result="shadowOffsetOuter1"/><feGaussianBlur stdDeviation=".5" in="shadowOffsetOuter1" result="shadowBlurOuter1"/><feColorMatrix values="0 0 0 0 0.21960034 0 0 0 0 0.21960034 0 0 0 0 0.21960034 0 0 0 0.4 0" in="shadowBlurOuter1"/></filter><path d="M124.207 58.046L96.57 30.11a3.529 3.529 0 0 0-5.138 0L63.793 58.046c-1.414 1.479-.886 2.69 1.172 2.69h5.76V82.19c0 1.552.067 2.81 2.84 2.81H86.98V63.484h14.04V85h14.082c2.116 0 2.172-1.258 2.172-2.81V60.736h5.762c2.057 0 2.584-1.211 1.171-2.69" id="L"/><filter x="-4%" y="-2.7%" width="108.1%" height="110.7%" filterUnits="objectBoundingBox" id="K"><feOffset dy="2" in="SourceAlpha" result="shadowOffsetOuter1"/><feGaussianBlur stdDeviation=".5" in="shadowOffsetOuter1" result="shadowBlurOuter1"/><feComposite in="shadowBlurOuter1" in2="SourceAlpha" operator="out" result="shadowBlurOuter1"/><feColorMatrix values="0 0 0 0 0.21960034 0 0 0 0 0.21960034 0 0 0 0 0.21960034 0 0 0 0.4 0" in="shadowBlurOuter1"/></filter></defs><g fill="none" fill-rule="evenodd"><g opacity=".8" style="mix-blend-mode:overlay"><g opacity=".908" transform="translate(-12 74)"><use fill="#000" filter="url(#a)" xlink:href="#b"/><use fill="#FFF" xlink:href="#b"/></g><g opacity=".908" transform="translate(-12 74)"><use fill="#000" filter="url(#c)" xlink:href="#d"/><use fill="#FFF" xlink:href="#d"/></g><g transform="matrix(-1 0 0 1 1487 74)"><use fill="#000" filter="url(#e)" xlink:href="#f"/><use fill="#FFF" xlink:href="#f"/></g><g opacity=".908" transform="matrix(-1 0 0 1 672 74)"><use fill="#000" filter="url(#g)" xlink:href="#h"/><use fill-opacity=".5" fill="#FFF" xlink:href="#h"/></g><g opacity=".908" transform="translate(-12 74)"><use fill="#000" filter="url(#i)" xlink:href="#j"/><use fill="#FFF" xlink:href="#j"/></g><g opacity=".908" transform="translate(-12 74)"><use fill="#000" filter="url(#k)" xlink:href="#l"/><use fill-opacity=".3" fill="#FFF" xlink:href="#l"/></g><g opacity=".908" transform="translate(-12 74)"><use fill="#000" filter="url(#m)" xlink:href="#n"/><use fill="#FFF" xlink:href="#n"/></g><g opacity=".32"><g opacity=".908" transform="translate(847 74)"><use fill="#000" filter="url(#o)" xlink:href="#p"/><use fill="#FFF" xlink:href="#p"/></g><g opacity=".908" transform="translate(847 74)"><use fill="#000" filter="url(#q)" xlink:href="#r"/><use fill="#FFF" xlink:href="#r"/></g><g opacity=".908" transform="translate(847 74)"><use fill="#000" filter="url(#s)" xlink:href="#t"/><use fill="#FFF" xlink:href="#t"/></g><g opacity=".908" transform="translate(847 74)"><use fill="#000" filter="url(#u)" xlink:href="#v"/><use fill="#FFF" xlink:href="#v"/></g><g opacity=".908" transform="translate(847 74)"><use fill="#000" filter="url(#w)" xlink:href="#x"/><use fill="#FFF" xlink:href="#x"/></g></g><g opacity=".908"><g transform="translate(221 85)"><use fill="#000" filter="url(#y)" xlink:href="#z"/><use fill="#FFF" xlink:href="#z"/></g><g transform="translate(221 85)"><use fill="#000" filter="url(#A)" xlink:href="#B"/><use fill="#FFF" xlink:href="#B"/></g><g transform="translate(221 85)"><use fill="#000" filter="url(#C)" xlink:href="#D"/><use fill="#FFF" xlink:href="#D"/></g><g transform="translate(221 85)"><use fill="#000" filter="url(#E)" xlink:href="#F"/><use fill="#FFF" xlink:href="#F"/></g><g transform="translate(221 85)"><use fill="#000" filter="url(#G)" xlink:href="#H"/><use fill="#FFF" xlink:href="#H"/></g></g><g opacity=".31" transform="translate(-12 74)"><use fill="#000" filter="url(#I)" xlink:href="#J"/><use fill="#FFF" xlink:href="#J"/></g><g opacity=".908" transform="translate(-12 74)"><use fill="#000" filter="url(#K)" xlink:href="#L"/><use fill-opacity=".4" fill="#FFF" xlink:href="#L"/></g></g></g></svg>