<svg width="1023" height="320" xmlns="http://www.w3.org/2000/svg" xmlns:xlink="http://www.w3.org/1999/xlink"><defs><path id="a" d="M0 0h260v181H0z"/><radialGradient cx="41.905%" cy="35.984%" fx="41.905%" fy="35.984%" r="88.512%" id="b"><stop stop-color="#FFF" offset="0%"/><stop stop-color="#FFF" stop-opacity="0" offset="100%"/></radialGradient></defs><g fill="none" fill-rule="evenodd"><path d="M867.31 322c-5.71-5.13-9.31-12.637-9.31-21 0-15.464 12.312-28 27.5-28a26.99 26.99 0 0 1 12.776 3.199C902.598 259.962 917.402 248 935 248c20.679 0 37.5 16.518 37.989 37.079C986.944 286.029 996 295.48 996 307c0 5.797-2.294 11.07-6.35 15H867.31z" fill="#3C5AA3" opacity=".387"/><path d="M867.568 326A19.496 19.496 0 0 1 861 311.375c0-10.77 8.686-19.5 19.4-19.5 3.222 0 6.261.79 8.936 2.187 2.977-11.54 13.41-20.062 25.822-20.062 14.48 0 26.265 11.596 26.665 26.053 9.809.654 16.177 7.292 16.177 15.384 0 4.086-1.624 7.802-4.494 10.563h-85.938z" opacity=".6" fill="#FFF"/><g opacity=".963" fill="#FFF"><path d="M907.735 348c5.064-4.492 8.265-11.114 8.265-18.5 0-13.531-10.745-24.5-24-24.5-4.022 0-7.813 1.01-11.142 2.795C877.025 293.514 863.99 283 848.5 283c-18.357 0-33.266 14.765-33.497 33.068-12.13.83-20.003 9.213-20.003 19.432 0 4.757 1.706 9.115 4.753 12.5h107.982z" opacity=".387"/><path d="M1079.338 326c7.765-6.94 12.662-17.094 12.662-28.406 0-20.918-16.745-37.875-37.4-37.875a36.864 36.864 0 0 0-17.227 4.248c-5.74-22.415-25.852-38.967-49.781-38.967-27.914 0-50.634 22.523-51.405 50.603-18.91 1.27-31.187 14.164-31.187 29.881 0 7.937 3.13 15.153 8.663 20.516h165.675z"/></g><g opacity=".6"><path d="M54.703 314A19.86 19.86 0 0 1 48 299.094c0-10.977 8.865-19.875 19.8-19.875 3.289 0 6.39.805 9.12 2.229C79.96 269.686 90.606 261 103.275 261c14.778 0 26.806 11.819 27.214 26.554 10.012.667 16.511 7.433 16.511 15.68 0 4.165-1.657 7.952-4.586 10.766h-87.71z" fill="#3C5AA3" opacity=".667"/><path d="M-.297 299A19.86 19.86 0 0 1-7 284.094c0-10.977 8.865-19.875 19.8-19.875 3.289 0 6.39.805 9.12 2.229C24.96 254.686 35.606 246 48.275 246c14.778 0 26.806 11.819 27.214 26.554 10.012.667 16.511 7.433 16.511 15.68 0 4.165-1.657 7.952-4.586 10.766H-.296z" fill="#3C5AA3" opacity=".667"/><path d="M128.958 330A17.593 17.593 0 0 1 123 316.781c0-9.734 7.88-17.625 17.6-17.625 2.924 0 5.68.714 8.107 1.977 2.701-10.43 12.165-18.133 23.426-18.133 13.136 0 23.828 10.481 24.19 23.548 8.9.591 14.677 6.591 14.677 13.905 0 3.693-1.473 7.051-4.077 9.547h-77.965z" fill="#FFF"/></g><path fill="#CFD3D4" d="M375.682 136.603l-6.054 8.135-1.34-10.918z"/><path fill="#FFF" d="M412.448 75l-68.932 45.795 14.9 7.503 11.439 17.261-1.411-11.492 26.8 9.541z"/><path fill="#E2E4E5" d="M358.554 128.394l11.425 17.309-1.415-11.52L412.448 75z"/><path d="M762.568 338A19.496 19.496 0 0 1 756 323.375c0-10.77 8.686-19.5 19.4-19.5 3.222 0 6.261.79 8.936 2.187 2.977-11.54 13.41-20.062 25.822-20.062 14.48 0 26.265 11.596 26.665 26.053 9.809.654 16.177 7.292 16.177 15.385 0 4.085-1.624 7.8-4.494 10.562h-85.938z" fill="#FFF" opacity=".762"/><path d="M679.214 188.067a15.363 15.363 0 0 1-5.214-11.55c0-8.506 6.895-15.4 15.4-15.4 2.558 0 4.97.623 7.093 1.727C698.857 153.73 707.138 147 716.992 147c11.494 0 20.849 9.158 21.166 20.575 7.787.517 12.842 5.76 12.842 12.15 0 3.227-1.289 6.16-3.567 8.342h-68.22z" fill="#FFF" opacity=".441"/><path d="M712.856 199A20.201 20.201 0 0 1 706 183.812c0-11.183 9.066-20.25 20.25-20.25 3.364 0 6.536.82 9.327 2.272C738.685 153.849 749.575 145 762.531 145c15.114 0 27.415 12.042 27.833 27.055 10.239.68 16.886 7.573 16.886 15.976 0 4.243-1.695 8.101-4.69 10.969h-89.704z" fill="#FFF"/><g fill="#FFF"><path d="M-62.776 308A30.377 30.377 0 0 1-73 285.219c0-16.776 13.521-30.375 30.2-30.375a29.93 29.93 0 0 1 13.91 3.407C-24.255 240.274-8.014 227 11.308 227c22.54 0 40.886 18.063 41.509 40.582C68.087 268.602 78 278.942 78 291.547c0 6.365-2.527 12.152-6.995 16.453H-62.776z" opacity=".387"/><path d="M-6.776 347A30.377 30.377 0 0 1-17 324.219c0-16.776 13.521-30.375 30.2-30.375a29.93 29.93 0 0 1 13.91 3.407C31.746 279.274 47.986 266 67.308 266c22.54 0 40.886 18.063 41.509 40.582 15.27 1.02 25.183 11.36 25.183 23.965 0 6.365-2.527 12.152-6.995 16.453H-6.776z"/></g><g transform="translate(344 123)"><mask id="c" fill="#fff"><use xlink:href="#a"/></mask><path d="M168 170c74.558 0 135-60.442 135-135 0-74.558-60.442-135-135-135C93.442-100 33-39.558 33 35c0 74.558 60.442 135 135 135z" stroke="url(#b)" stroke-width="2" stroke-dasharray="3,6" mask="url(#c)"/></g></g></svg>