<svg width="1023" height="320" xmlns="http://www.w3.org/2000/svg"><g fill="none" fill-rule="evenodd"><path fill="#23232F" d="M0 0h1023v320H0z"/><g fill="#FFF"><path d="M271.828 238.122c0 .556-.325 1.01-.724 1.01-.398 0-.723-.454-.723-1.01v-2.112c0-.555.325-1.01.723-1.01.399 0 .724.455.724 1.01v2.112z" opacity=".415"/><path d="M272.18 236.356c.566 0 1.03.32 1.03.71 0 .391-.464.71-1.03.71h-2.15c-.567 0-1.03-.319-1.03-.71 0-.39.463-.71 1.03-.71h2.15z" opacity=".415"/><path d="M168.828 213.122c0 .556-.325 1.01-.724 1.01-.398 0-.723-.454-.723-1.01v-2.112c0-.555.325-1.01.723-1.01.399 0 .724.455.724 1.01v2.112z"/><path d="M169.18 211.356c.566 0 1.03.32 1.03.71 0 .391-.464.71-1.03.71h-2.15c-.567 0-1.03-.319-1.03-.71 0-.39.463-.71 1.03-.71h2.15zM211.828 208.122c0 .556-.325 1.01-.724 1.01-.398 0-.723-.454-.723-1.01v-2.112c0-.555.325-1.01.723-1.01.399 0 .724.455.724 1.01v2.112z"/><path d="M212.18 206.356c.566 0 1.03.32 1.03.71 0 .391-.464.71-1.03.71h-2.15c-.567 0-1.03-.319-1.03-.71 0-.39.463-.71 1.03-.71h2.15z"/><path d="M250.828 214.122c0 .556-.325 1.01-.724 1.01-.398 0-.723-.454-.723-1.01v-2.112c0-.555.325-1.01.723-1.01.399 0 .724.455.724 1.01v2.112z" opacity=".415"/><path d="M251.18 212.356c.566 0 1.03.32 1.03.71 0 .391-.464.71-1.03.71h-2.15c-.567 0-1.03-.319-1.03-.71 0-.39.463-.71 1.03-.71h2.15z" opacity=".415"/><path d="M288.828 219.122c0 .556-.325 1.01-.724 1.01-.398 0-.723-.454-.723-1.01v-2.112c0-.555.325-1.01.723-1.01.399 0 .724.455.724 1.01v2.112z"/><path d="M289.18 217.356c.566 0 1.03.32 1.03.71 0 .391-.464.71-1.03.71h-2.15c-.567 0-1.03-.319-1.03-.71 0-.39.463-.71 1.03-.71h2.15zM248.828 243.122c0 .556-.325 1.01-.724 1.01-.398 0-.723-.454-.723-1.01v-2.112c0-.555.325-1.01.723-1.01.399 0 .724.455.724 1.01v2.112z"/><path d="M249.18 241.356c.566 0 1.03.32 1.03.71 0 .391-.464.71-1.03.71h-2.15c-.567 0-1.03-.319-1.03-.71 0-.39.463-.71 1.03-.71h2.15z"/><path d="M200.828 196.122c0 .556-.325 1.01-.724 1.01-.398 0-.723-.454-.723-1.01v-2.112c0-.555.325-1.01.723-1.01.399 0 .724.455.724 1.01v2.112z" opacity=".415"/><path d="M201.18 194.356c.566 0 1.03.32 1.03.71 0 .391-.464.71-1.03.71h-2.15c-.567 0-1.03-.319-1.03-.71 0-.39.463-.71 1.03-.71h2.15z" opacity=".415"/></g><g fill="#FFF"><path d="M179.828 121.878c0-.556-.325-1.01-.724-1.01-.398 0-.723.454-.723 1.01v2.112c0 .555.325 1.01.723 1.01.399 0 .724-.455.724-1.01v-2.112z" opacity=".415"/><path d="M180.18 123.644c.566 0 1.03-.32 1.03-.71 0-.391-.464-.71-1.03-.71h-2.15c-.567 0-1.03.319-1.03.71 0 .39.463.71 1.03.71h2.15z" opacity=".415"/><path d="M76.828 146.878c0-.556-.325-1.01-.724-1.01-.398 0-.723.454-.723 1.01v2.112c0 .555.325 1.01.723 1.01.399 0 .724-.455.724-1.01v-2.112z"/><path d="M77.18 148.644c.566 0 1.03-.32 1.03-.71 0-.391-.464-.71-1.03-.71h-2.15c-.567 0-1.03.319-1.03.71 0 .39.463.71 1.03.71h2.15zM119.828 151.878c0-.556-.325-1.01-.724-1.01-.398 0-.723.454-.723 1.01v2.112c0 .555.325 1.01.723 1.01.399 0 .724-.455.724-1.01v-2.112z"/><path d="M120.18 153.644c.566 0 1.03-.32 1.03-.71 0-.391-.464-.71-1.03-.71h-2.15c-.567 0-1.03.319-1.03.71 0 .39.463.71 1.03.71h2.15z"/><path d="M158.828 145.878c0-.556-.325-1.01-.724-1.01-.398 0-.723.454-.723 1.01v2.112c0 .555.325 1.01.723 1.01.399 0 .724-.455.724-1.01v-2.112z" opacity=".415"/><path d="M159.18 147.644c.566 0 1.03-.32 1.03-.71 0-.391-.464-.71-1.03-.71h-2.15c-.567 0-1.03.319-1.03.71 0 .39.463.71 1.03.71h2.15z" opacity=".415"/><path d="M196.828 140.878c0-.556-.325-1.01-.724-1.01-.398 0-.723.454-.723 1.01v2.112c0 .555.325 1.01.723 1.01.399 0 .724-.455.724-1.01v-2.112z"/><path d="M197.18 142.644c.566 0 1.03-.32 1.03-.71 0-.391-.464-.71-1.03-.71h-2.15c-.567 0-1.03.319-1.03.71 0 .39.463.71 1.03.71h2.15zM156.828 116.878c0-.556-.325-1.01-.724-1.01-.398 0-.723.454-.723 1.01v2.112c0 .555.325 1.01.723 1.01.399 0 .724-.455.724-1.01v-2.112z"/><path d="M157.18 118.644c.566 0 1.03-.32 1.03-.71 0-.391-.464-.71-1.03-.71h-2.15c-.567 0-1.03.319-1.03.71 0 .39.463.71 1.03.71h2.15z"/><path d="M108.828 163.878c0-.556-.325-1.01-.724-1.01-.398 0-.723.454-.723 1.01v2.112c0 .555.325 1.01.723 1.01.399 0 .724-.455.724-1.01v-2.112z" opacity=".415"/><path d="M109.18 165.644c.566 0 1.03-.32 1.03-.71 0-.391-.464-.71-1.03-.71h-2.15c-.567 0-1.03.319-1.03.71 0 .39.463.71 1.03.71h2.15z" opacity=".415"/></g><g opacity=".784" fill="#FFF"><path d="M275.828 135.122c0 .556-.325 1.01-.724 1.01-.398 0-.723-.454-.723-1.01v-2.112c0-.555.325-1.01.723-1.01.399 0 .724.455.724 1.01v2.112z"/><path d="M276.18 133.356c.566 0 1.03.32 1.03.71 0 .391-.464.71-1.03.71h-2.15c-.567 0-1.03-.319-1.03-.71 0-.39.463-.71 1.03-.71h2.15z"/><g opacity=".393"><path d="M303.828 109.122c0 .556-.325 1.01-.724 1.01-.398 0-.723-.454-.723-1.01v-2.112c0-.555.325-1.01.723-1.01.399 0 .724.455.724 1.01v2.112z"/><path d="M304.18 107.356c.566 0 1.03.32 1.03.71 0 .391-.464.71-1.03.71h-2.15c-.567 0-1.03-.319-1.03-.71 0-.39.463-.71 1.03-.71h2.15z"/></g><path d="M308.828 148.122c0 .556-.325 1.01-.724 1.01-.398 0-.723-.454-.723-1.01v-2.112c0-.555.325-1.01.723-1.01.399 0 .724.455.724 1.01v2.112z"/><path d="M309.18 146.356c.566 0 1.03.32 1.03.71 0 .391-.464.71-1.03.71h-2.15c-.567 0-1.03-.319-1.03-.71 0-.39.463-.71 1.03-.71h2.15z"/><g opacity=".393"><path d="M286.828 165.122c0 .556-.325 1.01-.724 1.01-.398 0-.723-.454-.723-1.01v-2.112c0-.555.325-1.01.723-1.01.399 0 .724.455.724 1.01v2.112z"/><path d="M287.18 163.356c.566 0 1.03.32 1.03.71 0 .391-.464.71-1.03.71h-2.15c-.567 0-1.03-.319-1.03-.71 0-.39.463-.71 1.03-.71h2.15z"/></g></g><g fill="#FFF"><path d="M346.414 144.8c0 .282-.163.513-.362.513-.199 0-.362-.23-.362-.513v-1.073c0-.283.163-.514.362-.514.2 0 .362.231.362.514v1.073z"/><path d="M346.59 143.902c.283 0 .515.162.515.361 0 .199-.232.361-.515.361h-1.075c-.283 0-.515-.162-.515-.36 0-.2.232-.362.515-.362h1.075z"/><g opacity=".393"><path d="M360.414 131.587c0 .282-.163.513-.362.513-.199 0-.362-.23-.362-.513v-1.073c0-.283.163-.514.362-.514.2 0 .362.231.362.514v1.073z"/><path d="M360.59 130.69c.283 0 .515.161.515.36 0 .199-.232.361-.515.361h-1.075c-.283 0-.515-.162-.515-.36 0-.2.232-.362.515-.362h1.075z"/></g><path d="M362.914 151.406c0 .283-.163.514-.362.514-.199 0-.362-.231-.362-.514v-1.073c0-.282.163-.513.362-.513.2 0 .362.23.362.513v1.073z"/><path d="M363.09 150.509c.283 0 .515.162.515.36 0 .2-.232.362-.515.362h-1.075c-.283 0-.515-.163-.515-.361 0-.199.232-.361.515-.361h1.075z"/><g opacity=".393"><path d="M351.914 160.046c0 .282-.163.513-.362.513-.199 0-.362-.23-.362-.513v-1.073c0-.283.163-.514.362-.514.2 0 .362.231.362.514v1.073z"/><path d="M352.09 159.148c.283 0 .515.162.515.361 0 .199-.232.361-.515.361h-1.075c-.283 0-.515-.162-.515-.36 0-.2.232-.362.515-.362h1.075z"/></g></g><g fill="#FFF"><path d="M666.828 212.122c0 .556-.325 1.01-.724 1.01-.398 0-.723-.454-.723-1.01v-2.112c0-.555.325-1.01.723-1.01.399 0 .724.455.724 1.01v2.112z"/><path d="M667.18 210.356c.566 0 1.03.32 1.03.71 0 .391-.464.71-1.03.71h-2.15c-.567 0-1.03-.319-1.03-.71 0-.39.463-.71 1.03-.71h2.15z"/><g opacity=".393"><path d="M694.828 186.122c0 .556-.325 1.01-.724 1.01-.398 0-.723-.454-.723-1.01v-2.112c0-.555.325-1.01.723-1.01.399 0 .724.455.724 1.01v2.112z"/><path d="M695.18 184.356c.566 0 1.03.32 1.03.71 0 .391-.464.71-1.03.71h-2.15c-.567 0-1.03-.319-1.03-.71 0-.39.463-.71 1.03-.71h2.15z"/></g><path d="M699.828 225.122c0 .556-.325 1.01-.724 1.01-.398 0-.723-.454-.723-1.01v-2.112c0-.555.325-1.01.723-1.01.399 0 .724.455.724 1.01v2.112z"/><path d="M700.18 223.356c.566 0 1.03.32 1.03.71 0 .391-.464.71-1.03.71h-2.15c-.567 0-1.03-.319-1.03-.71 0-.39.463-.71 1.03-.71h2.15z"/><g opacity=".393"><path d="M677.828 242.122c0 .556-.325 1.01-.724 1.01-.398 0-.723-.454-.723-1.01v-2.112c0-.555.325-1.01.723-1.01.399 0 .724.455.724 1.01v2.112z"/><path d="M678.18 240.356c.566 0 1.03.32 1.03.71 0 .391-.464.71-1.03.71h-2.15c-.567 0-1.03-.319-1.03-.71 0-.39.463-.71 1.03-.71h2.15z"/></g></g><g fill="#FFF"><path d="M717.828 204.122c0 .556-.325 1.01-.724 1.01-.398 0-.723-.454-.723-1.01v-2.112c0-.555.325-1.01.723-1.01.399 0 .724.455.724 1.01v2.112z"/><path d="M718.18 202.356c.566 0 1.03.32 1.03.71 0 .391-.464.71-1.03.71h-2.15c-.567 0-1.03-.319-1.03-.71 0-.39.463-.71 1.03-.71h2.15z"/><g opacity=".393"><path d="M745.828 178.122c0 .556-.325 1.01-.724 1.01-.398 0-.723-.454-.723-1.01v-2.112c0-.555.325-1.01.723-1.01.399 0 .724.455.724 1.01v2.112z"/><path d="M746.18 176.356c.566 0 1.03.32 1.03.71 0 .391-.464.71-1.03.71h-2.15c-.567 0-1.03-.319-1.03-.71 0-.39.463-.71 1.03-.71h2.15z"/></g><path d="M750.828 217.122c0 .556-.325 1.01-.724 1.01-.398 0-.723-.454-.723-1.01v-2.112c0-.555.325-1.01.723-1.01.399 0 .724.455.724 1.01v2.112z"/><path d="M751.18 215.356c.566 0 1.03.32 1.03.71 0 .391-.464.71-1.03.71h-2.15c-.567 0-1.03-.319-1.03-.71 0-.39.463-.71 1.03-.71h2.15z"/><g opacity=".393"><path d="M728.828 234.122c0 .556-.325 1.01-.724 1.01-.398 0-.723-.454-.723-1.01v-2.112c0-.555.325-1.01.723-1.01.399 0 .724.455.724 1.01v2.112z"/><path d="M729.18 232.356c.566 0 1.03.32 1.03.71 0 .391-.464.71-1.03.71h-2.15c-.567 0-1.03-.319-1.03-.71 0-.39.463-.71 1.03-.71h2.15z"/></g></g><g fill="#FFF"><path d="M861.722 214.293c0-.838.492-1.523 1.094-1.523.603 0 1.095.685 1.095 1.523v3.184c0 .838-.492 1.523-1.095 1.523-.602 0-1.094-.685-1.094-1.523v-3.184z"/><path d="M861.189 216.956c-.856 0-1.557-.481-1.557-1.07 0-.59.7-1.072 1.557-1.072h3.254c.856 0 1.557.482 1.557 1.071 0 .59-.7 1.071-1.557 1.071h-3.254zM800.286 182.636c0-.837.492-1.523 1.094-1.523.603 0 1.095.686 1.095 1.523v3.184c0 .838-.492 1.523-1.095 1.523-.602 0-1.094-.685-1.094-1.523v-3.184z"/><path d="M799.753 185.3c-.856 0-1.557-.482-1.557-1.072 0-.59.7-1.07 1.557-1.07h3.254c.856 0 1.557.48 1.557 1.07 0 .59-.7 1.071-1.557 1.071h-3.254z"/><g opacity=".118"><path d="M839.03 202.233c0-.837.491-1.523 1.094-1.523.603 0 1.095.686 1.095 1.523v3.184c0 .838-.492 1.523-1.095 1.523s-1.095-.685-1.095-1.523v-3.184z"/><path d="M838.497 204.896c-.857 0-1.557-.481-1.557-1.07 0-.59.7-1.071 1.557-1.071h3.254c.856 0 1.557.48 1.557 1.07 0 .59-.7 1.071-1.557 1.071h-3.254z"/></g><g opacity=".381"><path d="M802.286 103.83c0-.837.492-1.523 1.094-1.523.603 0 1.095.686 1.095 1.523v3.184c0 .838-.492 1.523-1.095 1.523-.602 0-1.094-.685-1.094-1.523v-3.184z"/><path d="M801.753 106.493c-.856 0-1.557-.481-1.557-1.07 0-.59.7-1.071 1.557-1.071h3.254c.856 0 1.557.48 1.557 1.07 0 .59-.7 1.071-1.557 1.071h-3.254z"/></g><g><path d="M812.388 150.98c0-.838.492-1.523 1.095-1.523s1.095.685 1.095 1.523v3.183c0 .838-.492 1.524-1.095 1.524s-1.095-.686-1.095-1.524v-3.183z"/><path d="M811.856 153.643c-.857 0-1.557-.482-1.557-1.071 0-.59.7-1.071 1.557-1.071h3.254c.856 0 1.557.481 1.557 1.07 0 .59-.701 1.072-1.557 1.072h-3.254z"/></g><g opacity=".381"><path d="M848.106 172.084c0-.838.492-1.523 1.095-1.523.602 0 1.094.685 1.094 1.523v3.184c0 .838-.492 1.523-1.094 1.523-.603 0-1.095-.685-1.095-1.523v-3.184z"/><path d="M847.574 174.747c-.857 0-1.557-.481-1.557-1.07 0-.59.7-1.072 1.557-1.072h3.254c.856 0 1.557.482 1.557 1.071 0 .59-.701 1.071-1.557 1.071h-3.254z"/></g></g><g opacity=".232" transform="translate(689 81)" fill="#ECECEC"><path d="M4 16h27v2H4z"/><ellipse cx="17" cy="17" rx="8" ry="6"/><path d="M30.523.546c.59-.728 1.217-.728 1.881 0 .737 4.215 1.106 10.626 1.106 19.233 0 8.606-.369 13.82-1.106 15.643-.766 1.115-1.393 1.115-1.881 0-1.583-12.052-2.434-13.293 0-34.876zM.788.786c.705-1.048 1.245-1.048 2.493 0 .831.698 1.291 6.827 1.38 18.387L3.281 34.99c-1.272 1.33-2.103.908-2.493-1.265-.586-3.26-1.433-20.41 0-32.94z"/></g><g opacity=".517" transform="translate(334 57)" fill="#ECECEC"><path d="M4 16h27v2H4z"/><ellipse cx="17" cy="17" rx="8" ry="6"/><path d="M30.523.546c.59-.728 1.217-.728 1.881 0 .737 4.215 1.106 10.626 1.106 19.233 0 8.606-.369 13.82-1.106 15.643-.766 1.115-1.393 1.115-1.881 0-1.583-12.052-2.434-13.293 0-34.876zM.788.786c.705-1.048 1.245-1.048 2.493 0 .831.698 1.291 6.827 1.38 18.387L3.281 34.99c-1.272 1.33-2.103.908-2.493-1.265-.586-3.26-1.433-20.41 0-32.94z"/></g><g opacity=".517" transform="translate(312 253)" fill="#ECECEC"><path d="M2 8h14v1H2z"/><ellipse cx="8" cy="9" rx="4" ry="3"/><path d="M15.675.286c.262-.381.54-.381.835 0 .327 2.209.49 5.568.49 10.078s-.163 7.243-.49 8.198c-.34.584-.618.584-.835 0-.702-6.316-1.079-6.966 0-18.276zM.338.396c.303-.528.535-.528 1.07 0 .356.351.554 3.437.592 9.258l-.592 7.965c-.546.67-.902.457-1.07-.637C.087 15.34-.277 6.704.338.396z"/></g><g transform="translate(63 205)" fill="#353548"><path d="M8 29h49v4H8z"/><ellipse cx="30.5" cy="31" rx="14.5" ry="11"/><path d="M55.701.993c1.047-1.324 2.16-1.324 3.337 0C60.346 8.667 61 20.336 61 36.003c0 15.665-.654 25.157-1.962 28.474-1.359 2.03-2.47 2.03-3.337 0-2.808-21.938-4.317-24.196 0-63.484zM1.352 1.428c1.21-1.904 2.138-1.904 4.279 0C7.058 2.698 7.847 13.843 8 34.862l-2.37 28.76c-2.181 2.42-3.608 1.653-4.278-2.3-1.006-5.928-2.458-37.112 0-59.894z"/></g><g opacity=".625" style="mix-blend-mode:overlay" fill="#ECECEC"><path d="M772 285h38v19h-38zM862 276h38v27h-38zM975 276h50v27h-50z"/><path d="M892 252h89v52h-89zM784 273h15v19h-15zM989 268h15v19h-15z"/><path d="M790 238h3a1 1 0 0 1 1 1v66a1 1 0 0 1-1 1h-3a1 1 0 0 1-1-1v-66a1 1 0 0 1 1-1zM995 234h3a1 1 0 0 1 1 1v66a1 1 0 0 1-1 1h-3a1 1 0 0 1-1-1v-66a1 1 0 0 1 1-1zM876 257h3a1 1 0 0 1 1 1v33a1 1 0 0 1-1 1h-3a1 1 0 0 1-1-1v-33a1 1 0 0 1 1-1zM978 212h3a1 1 0 0 1 1 1v51a1 1 0 0 1-1 1h-3a1 1 0 0 1-1-1v-51a1 1 0 0 1 1-1zM935 121h3a1 1 0 0 1 1 1v61a1 1 0 0 1-1 1h-3a1 1 0 0 1-1-1v-61a1 1 0 0 1 1-1zM810 254h55v50h-55zM916 204h41v111h-41zM836.929 218L865 254h-55z"/><path d="M936.074 168L957 204h-41zM935.576 216L981 252h-89zM737 301h288v22H737z"/></g><path fill="#23232F" opacity=".431" d="M817 262h39v11h-39zM922 220h28v11h-28zM922 242h28v11h-28zM922 263h28v11h-28zM817 282h39v11h-39z"/></g></svg>