<svg width="1023" height="320" xmlns="http://www.w3.org/2000/svg" xmlns:xlink="http://www.w3.org/1999/xlink"><defs><linearGradient x1="28.421%" y1="118.292%" x2="24.447%" y2="21.541%" id="a"><stop stop-color="#FFF" offset="0%"/><stop stop-color="#FFF" stop-opacity="0" offset="100%"/></linearGradient><path id="b" d="M0 0h1024v129H0z"/></defs><g fill="none" fill-rule="evenodd"><path fill-opacity=".2" fill="url(#a)" transform="matrix(1 0 0 -1 0 319.496)" d="M691.564 318.496L560.557 1H210l429.233 317.496z"/><path fill-opacity=".1" fill="url(#a)" transform="rotate(180 523.782 159.748)" d="M764.564 318.496L633.557 1H283l429.233 317.496z"/><g fill="#FFF"><path d="M144.344 190.245c0 1.111.65 2.02 1.447 2.02s1.447-.909 1.447-2.02v-4.224c0-1.112-.65-2.021-1.447-2.021s-1.447.91-1.447 2.02v4.225z" opacity=".415"/><path d="M143.64 186.712c-1.132 0-2.059.639-2.059 1.42 0 .783.927 1.421 2.059 1.421h4.302c1.132 0 2.058-.638 2.058-1.42 0-.782-.926-1.421-2.058-1.421h-4.302z" opacity=".415"/><path d="M350.344 140.245c0 1.111.65 2.02 1.447 2.02s1.447-.909 1.447-2.02v-4.224c0-1.112-.65-2.021-1.447-2.021s-1.447.91-1.447 2.02v4.225z"/><path d="M349.64 136.712c-1.132 0-2.059.639-2.059 1.42 0 .783.927 1.421 2.059 1.421h4.302c1.132 0 2.058-.638 2.058-1.42 0-.782-.926-1.421-2.058-1.421h-4.302zM264.344 130.245c0 1.111.65 2.02 1.447 2.02s1.447-.909 1.447-2.02v-4.224c0-1.112-.65-2.021-1.447-2.021s-1.447.91-1.447 2.02v4.225z"/><path d="M263.64 126.712c-1.132 0-2.059.639-2.059 1.42 0 .783.927 1.421 2.059 1.421h4.302c1.132 0 2.058-.638 2.058-1.42 0-.782-.926-1.421-2.058-1.421h-4.302z"/><path d="M186.344 142.245c0 1.111.65 2.02 1.447 2.02s1.447-.909 1.447-2.02v-4.224c0-1.112-.65-2.021-1.447-2.021s-1.447.91-1.447 2.02v4.225z" opacity=".415"/><path d="M185.64 138.712c-1.132 0-2.059.639-2.059 1.42 0 .783.927 1.421 2.059 1.421h4.302c1.132 0 2.058-.638 2.058-1.42 0-.782-.926-1.421-2.058-1.421h-4.302z" opacity=".415"/><path d="M110.344 152.245c0 1.111.65 2.02 1.447 2.02s1.447-.909 1.447-2.02v-4.224c0-1.112-.65-2.021-1.447-2.021s-1.447.91-1.447 2.02v4.225z"/><path d="M109.64 148.712c-1.132 0-2.059.639-2.059 1.42 0 .783.927 1.421 2.059 1.421h4.302c1.132 0 2.058-.638 2.058-1.42 0-.782-.926-1.421-2.058-1.421h-4.302zM190.344 200.245c0 1.111.65 2.02 1.447 2.02s1.447-.909 1.447-2.02v-4.224c0-1.112-.65-2.021-1.447-2.021s-1.447.91-1.447 2.02v4.225z"/><path d="M189.64 196.712c-1.132 0-2.059.639-2.059 1.42 0 .783.927 1.421 2.059 1.421h4.302c1.132 0 2.058-.638 2.058-1.42 0-.782-.926-1.421-2.058-1.421h-4.302z"/><path d="M286.344 106.245c0 1.111.65 2.02 1.447 2.02s1.447-.909 1.447-2.02v-4.224c0-1.112-.65-2.021-1.447-2.021s-1.447.91-1.447 2.02v4.225z" opacity=".415"/><path d="M285.64 102.712c-1.132 0-2.059.639-2.059 1.42 0 .783.927 1.421 2.059 1.421h4.302c1.132 0 2.058-.638 2.058-1.42 0-.782-.926-1.421-2.058-1.421h-4.302z" opacity=".415"/></g><g fill="#FFF"><path d="M887.656 198.245c0 1.111-.65 2.02-1.447 2.02s-1.447-.909-1.447-2.02v-4.224c0-1.112.65-2.021 1.447-2.021s1.447.91 1.447 2.02v4.225z" opacity=".415"/><path d="M888.36 194.712c1.132 0 2.059.639 2.059 1.42 0 .783-.927 1.421-2.059 1.421h-4.302c-1.132 0-2.058-.638-2.058-1.42 0-.782.926-1.421 2.058-1.421h4.302z" opacity=".415"/><path d="M681.656 148.245c0 1.111-.65 2.02-1.447 2.02s-1.447-.909-1.447-2.02v-4.224c0-1.112.65-2.021 1.447-2.021s1.447.91 1.447 2.02v4.225z"/><path d="M682.36 144.712c1.132 0 2.059.639 2.059 1.42 0 .783-.927 1.421-2.059 1.421h-4.302c-1.132 0-2.058-.638-2.058-1.42 0-.782.926-1.421 2.058-1.421h4.302zM767.656 138.245c0 1.111-.65 2.02-1.447 2.02s-1.447-.909-1.447-2.02v-4.224c0-1.112.65-2.021 1.447-2.021s1.447.91 1.447 2.02v4.225z"/><path d="M768.36 134.712c1.132 0 2.059.639 2.059 1.42 0 .783-.927 1.421-2.059 1.421h-4.302c-1.132 0-2.058-.638-2.058-1.42 0-.782.926-1.421 2.058-1.421h4.302z"/><path d="M845.656 150.245c0 1.111-.65 2.02-1.447 2.02s-1.447-.909-1.447-2.02v-4.224c0-1.112.65-2.021 1.447-2.021s1.447.91 1.447 2.02v4.225z" opacity=".415"/><path d="M846.36 146.712c1.132 0 2.059.639 2.059 1.42 0 .783-.927 1.421-2.059 1.421h-4.302c-1.132 0-2.058-.638-2.058-1.42 0-.782.926-1.421 2.058-1.421h4.302z" opacity=".415"/><path d="M921.656 160.245c0 1.111-.65 2.02-1.447 2.02s-1.447-.909-1.447-2.02v-4.224c0-1.112.65-2.021 1.447-2.021s1.447.91 1.447 2.02v4.225z"/><path d="M922.36 156.712c1.132 0 2.059.639 2.059 1.42 0 .783-.927 1.421-2.059 1.421h-4.302c-1.132 0-2.058-.638-2.058-1.42 0-.782.926-1.421 2.058-1.421h4.302zM841.656 208.245c0 1.111-.65 2.02-1.447 2.02s-1.447-.909-1.447-2.02v-4.224c0-1.112.65-2.021 1.447-2.021s1.447.91 1.447 2.02v4.225z"/><path d="M842.36 204.712c1.132 0 2.059.639 2.059 1.42 0 .783-.927 1.421-2.059 1.421h-4.302c-1.132 0-2.058-.638-2.058-1.42 0-.782.926-1.421 2.058-1.421h4.302z"/><path d="M745.656 114.245c0 1.111-.65 2.02-1.447 2.02s-1.447-.909-1.447-2.02v-4.224c0-1.112.65-2.021 1.447-2.021s1.447.91 1.447 2.02v4.225z" opacity=".415"/><path d="M746.36 110.712c1.132 0 2.059.639 2.059 1.42 0 .783-.927 1.421-2.059 1.421h-4.302c-1.132 0-2.058-.638-2.058-1.42 0-.782.926-1.421 2.058-1.421h4.302z" opacity=".415"/></g><g opacity=".25" transform="translate(0 191)"><mask id="c" fill="#fff"><use xlink:href="#b"/></mask><g opacity=".406" mask="url(#c)"><path d="M808.3 117c-1.073-14.421.732-22.949 5.412-25.583 7.021-3.95 22.104-7.575 22.104-10.806 0-3.23-1.473-9.186-3.64-12.845-2.166-3.66-5.001-14.696 1.02-20.582 6.021-5.885 13.538-2.943 16.755 3.382 3.218 6.325 2.034 11.537 0 21.61-2.034 10.073 2.983 12.058 6.153 12.058 3.17 0 10.483 2.546 12.224 7.183 1.16 3.092 1.717 11.62 1.67 25.583H808.3z" fill="#C9C9C9"/><path d="M911.238 108c-1.074-8.97 1.484-14.424 7.674-16.36 9.285-2.903 12.885-2.378 14.73-3.68 1.844-1.3 5.377-4.045 5.377-7.68 0-3.634-4.292-7.754-4.292-13.34s1.216-10.11 8.453-10.873c7.236-.764 10.701 5.18 10.701 8.027v4.589c-.905 4.517-1.598 7.579-2.08 9.186-.723 2.412-2.228 9.253 2.08 10.091 2.873.56 6.93 1.406 12.172 2.54 5.965 1.313 8.947 4.173 8.947 8.58V108h-63.762z" fill="#646464"/><path d="M681 76.836c4.466-1.244 7.945-2.267 10.438-3.07 3.74-1.206 7.574-6.985 7.574-10.884 0-3.898-5.978-11.226-5.978-17.755 0-6.528-.758-14.096 9.74-16.7 10.5-2.603 15.692 7.294 15.692 13.356s-3.537 17.806-3.537 22.56c0 4.753-1.082 7.874 5.273 9.422 6.354 1.548 17.705 4.23 20.816 6.518C744.13 82.572 747 87.058 747 92.396V131h-66V76.836z" fill="#6D6D6D"/><path d="M776 82.836c4.466-1.244 7.945-2.267 10.438-3.07 3.74-1.206 7.574-6.985 7.574-10.884 0-3.898-5.978-11.226-5.978-17.755 0-6.528-.758-14.096 9.74-16.7 10.5-2.603 15.692 7.294 15.692 13.356s-3.537 17.806-3.537 22.56c0 4.753-1.082 7.874 5.273 9.422 6.354 1.548 17.705 4.23 20.816 6.518C839.13 88.572 842 93.058 842 98.396V137h-66V82.836zM884 90.198c3.857-1.075 6.862-1.96 9.015-2.653 3.23-1.041 6.54-6.035 6.54-9.404 0-3.368-5.162-9.7-5.162-15.342 0-5.64-.654-12.18 8.413-14.43 9.066-2.25 13.55 6.302 13.55 11.54 0 5.239-3.054 15.386-3.054 19.494 0 4.107-.934 6.804 4.554 8.142 5.488 1.337 15.291 3.654 17.978 5.632C938.52 95.154 941 99.03 941 103.643V137h-57V90.198z" fill="#9C9C9C"/><path d="M714.369 130c-1.662-14.836 2.295-23.854 11.87-27.056 14.363-4.801 19.932-3.934 22.784-6.086 2.853-2.152 8.318-6.691 8.318-12.701 0-6.01-6.638-12.825-6.638-22.063 0-9.239 1.88-16.72 13.075-17.983 11.194-1.263 16.554 8.567 16.554 13.275v7.59c-1.4 7.47-2.473 12.534-3.219 15.192-1.118 3.989-3.445 15.303 3.22 16.69 4.442.924 10.718 2.324 18.828 4.2 9.226 2.171 13.839 6.901 13.839 14.19V130h-98.631z" fill="#ECECEC"/><path d="M621.369 130c-1.662-14.836 2.295-23.854 11.87-27.056 14.363-4.801 19.932-3.934 22.784-6.086 2.853-2.152 8.318-6.691 8.318-12.701 0-6.01-6.638-12.825-6.638-22.063 0-9.239 1.88-16.72 13.075-17.983 11.194-1.263 16.554 8.567 16.554 13.275v7.59c-1.4 7.47-2.473 12.534-3.219 15.192-1.118 3.989-3.445 15.303 3.22 16.69 4.442.924 10.718 2.324 18.828 4.2 9.226 2.171 13.839 6.901 13.839 14.19V130h-98.631z" fill="#D0D0D0"/><path d="M823 134c.106-16.19 5.397-25.171 15.873-26.941 15.715-2.656 30.391-5.519 30.391-13.43 0-7.91-14.256-23.68-5.713-33.91 8.544-10.23 19.594-8.75 22.901-4.375 3.308 4.375 9.161 10.662 4.58 24.159-4.58 13.497-4.699 19.15 0 21.541 4.7 2.39 24.545 4.34 29.756 10.324C924.263 115.358 926 122.902 926 134H823z" fill="#757575"/><path d="M930.756 133c-1.463-10.416-.803-17.203 1.98-20.362 4.172-4.737 16.54-7.729 23.909-10.192 7.37-2.463 15.24-3.884 15.24-13.345 0-9.46-6.768-20.477-3.384-33.003s21.117-9.315 24.26-6.65c3.142 2.666 9.294 7.955 4.647 21.845-4.648 13.89-9.067 21.635 0 26.394 9.066 4.759 24.629 5.081 32.163 9.057C1037.105 110.72 1041 122.076 1041 133H930.756z" fill="#ECECEC"/><g><path d="M210.69 118c1.107-14.816-.755-23.577-5.587-26.283-7.247-4.06-22.816-7.783-22.816-11.103 0-3.319 1.52-9.438 3.757-13.197 2.236-3.76 5.162-15.098-1.053-21.145-6.215-6.047-13.974-3.024-17.296 3.474-3.32 6.498-2.1 11.853 0 22.202 2.1 10.349-3.078 12.389-6.351 12.389s-10.821 2.615-12.618 7.38c-1.198 3.176-1.772 11.937-1.723 26.283h63.688z" fill="#7E7C7C"/><path d="M30.69 118c1.107-14.816-.755-23.577-5.587-26.283-7.247-4.06-22.816-7.783-22.816-11.103 0-3.319 1.52-9.438 3.757-13.197 2.236-3.76 5.162-15.098-1.053-21.145-6.215-6.047-13.974-3.024-17.296 3.474-3.32 6.498-2.1 11.853 0 22.202 2.1 10.349-3.078 12.389-6.351 12.389s-10.821 2.615-12.618 7.38c-1.198 3.176-1.772 11.937-1.723 26.283H30.69z" fill="#C9C9C9"/><path d="M103.754 109c1.108-9.143-1.53-14.7-7.913-16.674-9.576-2.96-13.288-2.425-15.19-3.75-1.902-1.327-5.545-4.124-5.545-7.828 0-3.704 4.425-7.904 4.425-13.597 0-5.694-1.254-10.304-8.716-11.083-7.463-.778-11.036 5.28-11.036 8.181v4.678c.933 4.603 1.648 7.724 2.145 9.363.746 2.458 2.298 9.43-2.145 10.285-2.962.57-7.147 1.432-12.553 2.588C41.076 92.502 38 95.417 38 99.908V109h65.754z" fill="#9D9D9D"/><path d="M328 77.258c-4.601-1.28-8.186-2.333-10.755-3.16-3.852-1.24-7.802-7.187-7.802-11.2 0-4.012 6.158-11.553 6.158-18.272 0-6.719.781-14.507-10.036-17.186-10.816-2.68-16.166 7.505-16.166 13.744 0 6.24 3.644 18.325 3.644 23.217 0 4.892 1.114 8.104-5.433 9.697-6.546 1.593-18.242 4.352-21.447 6.708C262.958 83.16 260 87.778 260 93.27V133h68V77.258z" fill="#C3BFBF"/><path d="M244 83.258c-4.601-1.28-8.186-2.333-10.755-3.16-3.852-1.24-7.802-7.187-7.802-11.2 0-4.012 6.158-11.553 6.158-18.272 0-6.719.781-14.507-10.036-17.186-10.816-2.68-16.166 7.505-16.166 13.744 0 6.24 3.644 18.325 3.644 23.217 0 4.892 1.114 8.104-5.433 9.697-6.546 1.593-18.242 4.352-21.447 6.708C178.958 89.16 176 93.778 176 99.27V139h68V83.258z" fill="#929292"/><path d="M133 91.146c-3.992-1.099-7.103-2.003-9.331-2.713-3.343-1.064-6.77-6.17-6.77-9.614 0-3.445 5.343-9.919 5.343-15.687 0-5.768.678-12.454-8.707-14.754-9.385-2.3-14.027 6.443-14.027 11.8 0 5.355 3.162 15.73 3.162 19.93 0 4.2.966 6.958-4.714 8.325-5.68 1.368-15.828 3.737-18.609 5.759-2.78 2.022-5.347 5.985-5.347 10.701V139h59V91.146z" fill="#707070"/><path d="M307.62 131c1.712-15.18-2.365-24.409-12.23-27.685-14.798-4.913-20.536-4.026-23.475-6.228s-8.57-6.846-8.57-12.997c0-6.15 6.84-13.122 6.84-22.575 0-9.454-1.938-17.109-13.471-18.401-11.534-1.293-17.056 8.766-17.056 13.583v7.766c1.443 7.644 2.548 12.826 3.316 15.547 1.152 4.08 3.55 15.658-3.316 17.077-4.578.946-11.044 2.378-19.4 4.298-9.505 2.222-14.258 7.062-14.258 14.52V131h101.62z" fill="#FFF"/><path d="M389.62 131c1.712-15.18-2.365-24.409-12.23-27.685-14.798-4.913-20.536-4.026-23.475-6.228s-8.57-6.846-8.57-12.997c0-6.15 6.84-13.122 6.84-22.575 0-9.454-1.938-17.109-13.471-18.401-11.534-1.293-17.056 8.766-17.056 13.583v7.766c1.443 7.644 2.548 12.826 3.316 15.547 1.152 4.08 3.55 15.658-3.316 17.077-4.578.946-11.044 2.378-19.4 4.298-9.505 2.222-14.258 7.062-14.258 14.52V131h101.62z" fill="gray"/><path d="M196 136c-.109-16.586-5.554-25.785-16.336-27.599-16.172-2.72-31.275-5.652-31.275-13.756 0-8.103 14.67-24.259 5.879-34.738-8.793-10.479-20.165-8.963-23.568-4.481-3.404 4.481-9.428 10.921-4.714 24.748 4.714 13.826 4.836 19.617 0 22.066-4.837 2.45-25.26 4.446-30.623 10.576C91.788 116.904 90 124.631 90 136h106z" fill="#ECECEC"/><path d="M85.224 135c1.502-10.658.824-17.603-2.033-20.835-4.286-4.848-16.988-7.91-24.556-10.43-7.569-2.52-15.652-3.974-15.652-13.654s6.95-20.954 3.475-33.772c-3.475-12.817-21.688-9.531-24.915-6.804-3.227 2.728-9.546 8.14-4.773 22.353 4.773 14.214 9.312 22.138 0 27.008-9.31 4.87-25.294 5.199-33.032 9.267C-23.999 112.202-28 123.822-28 135H85.224z" fill="#676767"/></g></g></g></g></svg>