<svg width="1023" height="320" xmlns="http://www.w3.org/2000/svg" xmlns:xlink="http://www.w3.org/1999/xlink"><defs><path id="b" d="M59.5 70.9L51.775 75l1.475-8.683-6.25-6.15 8.637-1.267L59.5 51l3.863 7.9L72 60.167l-6.25 6.15L67.225 75z"/><filter x="-2%" y="-2.1%" width="104%" height="108.3%" filterUnits="objectBoundingBox" id="a"><feOffset dy="1" in="SourceAlpha" result="shadowOffsetOuter1"/><feColorMatrix values="0 0 0 0 1 0 0 0 0 1 0 0 0 0 1 0 0 0 0.5 0" in="shadowOffsetOuter1"/></filter><path id="d" d="M43.5 41.9L35.775 46l1.475-8.683-6.25-6.15 8.637-1.267L43.5 22l3.863 7.9L56 31.167l-6.25 6.15L51.225 46z"/><filter x="-2%" y="-2.1%" width="104%" height="108.3%" filterUnits="objectBoundingBox" id="c"><feOffset dy="1" in="SourceAlpha" result="shadowOffsetOuter1"/><feColorMatrix values="0 0 0 0 1 0 0 0 0 1 0 0 0 0 1 0 0 0 0.5 0" in="shadowOffsetOuter1"/></filter><path id="f" d="M26.5 70.9L18.775 75l1.475-8.683-6.25-6.15 8.637-1.267L26.5 51l3.863 7.9L39 60.167l-6.25 6.15L34.225 75z"/><filter x="-2%" y="-2.1%" width="104%" height="108.3%" filterUnits="objectBoundingBox" id="e"><feOffset dy="1" in="SourceAlpha" result="shadowOffsetOuter1"/><feColorMatrix values="0 0 0 0 1 0 0 0 0 1 0 0 0 0 1 0 0 0 0.5 0" in="shadowOffsetOuter1"/></filter><path id="h" d="M93.5 70.9L85.775 75l1.475-8.683-6.25-6.15 8.637-1.267L93.5 51l3.863 7.9L106 60.167l-6.25 6.15L101.225 75z"/><filter x="-2%" y="-2.1%" width="104%" height="108.3%" filterUnits="objectBoundingBox" id="g"><feOffset dy="1" in="SourceAlpha" result="shadowOffsetOuter1"/><feColorMatrix values="0 0 0 0 1 0 0 0 0 1 0 0 0 0 1 0 0 0 0.5 0" in="shadowOffsetOuter1"/></filter><path id="j" d="M75.5 41.9L67.775 46l1.475-8.683-6.25-6.15 8.637-1.267L75.5 22l3.863 7.9L88 31.167l-6.25 6.15L83.225 46z"/><filter x="-2%" y="-2.1%" width="104%" height="108.3%" filterUnits="objectBoundingBox" id="i"><feOffset dy="1" in="SourceAlpha" result="shadowOffsetOuter1"/><feColorMatrix values="0 0 0 0 1 0 0 0 0 1 0 0 0 0 1 0 0 0 0.5 0" in="shadowOffsetOuter1"/></filter><path id="l" d="M49.5 38.9L41.775 43l1.475-8.683-6.25-6.15 8.637-1.267L49.5 19l3.863 7.9L62 28.167l-6.25 6.15L57.225 43z"/><filter x="-2%" y="-2.1%" width="104%" height="108.3%" filterUnits="objectBoundingBox" id="k"><feOffset dy="1" in="SourceAlpha" result="shadowOffsetOuter1"/><feColorMatrix values="0 0 0 0 1 0 0 0 0 1 0 0 0 0 1 0 0 0 0.5 0" in="shadowOffsetOuter1"/></filter><path id="n" d="M31.5 70.9L23.775 75l1.475-8.683-6.25-6.15 8.637-1.267L31.5 51l3.863 7.9L44 60.167l-6.25 6.15L39.225 75z"/><filter x="-2%" y="-2.1%" width="104%" height="108.3%" filterUnits="objectBoundingBox" id="m"><feOffset dy="1" in="SourceAlpha" result="shadowOffsetOuter1"/><feColorMatrix values="0 0 0 0 1 0 0 0 0 1 0 0 0 0 1 0 0 0 0.5 0" in="shadowOffsetOuter1"/></filter><path id="p" d="M66.5 70.9L58.775 75l1.475-8.683-6.25-6.15 8.637-1.267L66.5 51l3.863 7.9L79 60.167l-6.25 6.15L74.225 75z"/><filter x="-2%" y="-2.1%" width="104%" height="108.3%" filterUnits="objectBoundingBox" id="o"><feOffset dy="1" in="SourceAlpha" result="shadowOffsetOuter1"/><feColorMatrix values="0 0 0 0 1 0 0 0 0 1 0 0 0 0 1 0 0 0 0.5 0" in="shadowOffsetOuter1"/></filter><path id="r" d="M24.5 30.754L18.629 34l1.121-6.874L15 22.257l6.564-1.003L24.5 15l2.936 6.254L34 22.257l-4.75 4.869L30.371 34z"/><filter x="-2.6%" y="-2.6%" width="105.3%" height="110.5%" filterUnits="objectBoundingBox" id="q"><feOffset dy="1" in="SourceAlpha" result="shadowOffsetOuter1"/><feColorMatrix values="0 0 0 0 1 0 0 0 0 1 0 0 0 0 1 0 0 0 0.5 0" in="shadowOffsetOuter1"/></filter><path id="t" d="M19.5 39.5l-4.996 2.781.954-5.89-4.042-4.172 5.586-.86L19.5 26l2.498 5.36 5.586.859-4.042 4.172.954 5.89z"/><filter x="-3.1%" y="-3.1%" width="106.2%" height="112.3%" filterUnits="objectBoundingBox" id="s"><feOffset dy="1" in="SourceAlpha" result="shadowOffsetOuter1"/><feColorMatrix values="0 0 0 0 1 0 0 0 0 1 0 0 0 0 1 0 0 0 0.5 0" in="shadowOffsetOuter1"/></filter><path id="v" d="M34.5 23.5l-4.996 2.781.954-5.89-4.042-4.172 5.586-.86L34.5 10l2.498 5.36 5.586.859-4.042 4.172.954 5.89z"/><filter x="-3.1%" y="-3.1%" width="106.2%" height="112.3%" filterUnits="objectBoundingBox" id="u"><feOffset dy="1" in="SourceAlpha" result="shadowOffsetOuter1"/><feColorMatrix values="0 0 0 0 1 0 0 0 0 1 0 0 0 0 1 0 0 0 0.5 0" in="shadowOffsetOuter1"/></filter><path d="M.01 36c-.006-.288-.01-.577-.01-.867C0 15.729 16.342 0 36.5 0S73 15.73 73 35.133c0 .29-.004.579-.01.867H.01z" id="w"/><path d="M.02 64A61.642 61.642 0 0 1 0 62.458C0 27.963 28.878 0 64.5 0S129 27.963 129 62.458c0 .515-.006 1.03-.02 1.542H.02z" id="x"/><ellipse id="z" cx="26.977" cy="26" rx="26.138" ry="26"/><ellipse id="B" cx="34.276" cy="33.5" rx="33.614" ry="33.5"/><ellipse id="D" cx="23.674" cy="23" rx="23.134" ry="23"/><ellipse id="F" cx="19.336" cy="18.5" rx="18.664" ry="18.5"/><path d="M.01 36c-.006-.288-.01-.577-.01-.867C0 15.729 16.342 0 36.5 0S73 15.73 73 35.133c0 .29-.004.579-.01.867H.01z" id="H"/><path d="M.02 64A61.642 61.642 0 0 1 0 62.458C0 27.963 28.878 0 64.5 0S129 27.963 129 62.458c0 .515-.006 1.03-.02 1.542H.02z" id="I"/><ellipse id="K" cx="26.977" cy="26" rx="26.138" ry="26"/><ellipse id="M" cx="34.276" cy="33.5" rx="33.614" ry="33.5"/><ellipse id="O" cx="23.674" cy="23" rx="23.134" ry="23"/><ellipse id="Q" cx="19.336" cy="18.5" rx="18.664" ry="18.5"/></defs><g fill="none" fill-rule="evenodd"><path fill="#0267EB" d="M0 0h1023v320H0z"/><g transform="translate(876 251)"><circle fill="#FDC31E" cx="59" cy="59" r="59"/><path d="M93 10.377c-2.812 1.843-5.85 2.495-9.112 1.957-5.556-.915-10.796.916-15.873 3.354s-3.526 8.61-1.247 24.372S47.33 72.05 26.33 67.092C13.117 63.972 5.674 55.032 4 40.267 11.873 16.852 33.856 0 59.742 0A58.242 58.242 0 0 1 93 10.377z" fill="#FED45D" opacity=".676"/><g transform="matrix(-1 0 0 1 119 0)"><use fill="#000" filter="url(#a)" xlink:href="#b"/><use fill="#F08612" xlink:href="#b"/></g><g transform="matrix(-1 0 0 1 87 0)"><use fill="#000" filter="url(#c)" xlink:href="#d"/><use fill="#F08612" xlink:href="#d"/></g><g transform="matrix(-1 0 0 1 53 0)"><use fill="#000" filter="url(#e)" xlink:href="#f"/><use fill="#F08612" xlink:href="#f"/></g><g transform="matrix(-1 0 0 1 187 0)"><use fill="#000" filter="url(#g)" xlink:href="#h"/><use fill="#F08612" xlink:href="#h"/></g><g transform="matrix(-1 0 0 1 151 0)"><use fill="#000" filter="url(#i)" xlink:href="#j"/><use fill="#F08612" xlink:href="#j"/></g><circle stroke="#FFF" stroke-width="2" opacity=".662" cx="59" cy="59" r="58"/></g><g transform="translate(691 96)"><circle fill="#FDC31E" cx="50.5" cy="50.5" r="50.5"/><path d="M80 8.851c-2.401 1.572-4.995 2.128-7.781 1.67-4.744-.781-9.22.78-13.555 2.86-4.335 2.08-3.01 7.344-1.064 20.788 1.946 13.444-16.598 27.285-34.532 23.056C11.785 54.565 5.43 46.938 4 34.345 10.723 14.373 29.495 0 51.6 0 62.14 0 71.92 3.267 80 8.851z" fill="#FED45D" opacity=".676"/><path d="M2 63.107c1.525-1.773 3.695-1.416 6.509 1.071 6.034 5.334 25.777 21.775 41.297 21.775 15.52 0 28.819-10.67 31.485-13.814 2.666-3.144 11.727-10.353 15.646-7.96.809.493 1.492 1.375 2.063 2.499C92.218 86.638 73.305 101 51.034 101 27.455 101 7.64 84.902 2 63.107z" fill="#FFAD02" opacity=".55"/><use fill="#000" filter="url(#k)" xlink:href="#l"/><use fill="#F08612" xlink:href="#l"/><use fill="#000" filter="url(#m)" xlink:href="#n"/><use fill="#F08612" xlink:href="#n"/><g><use fill="#000" filter="url(#o)" xlink:href="#p"/><use fill="#F08612" xlink:href="#p"/></g><circle stroke="#FFF" stroke-width="2" opacity=".662" cx="50.5" cy="50.5" r="49.5"/></g><g transform="translate(883 125)"><circle fill="#FDC31E" cx="25" cy="25" r="25"/><path d="M40 4.426c-1.2.785-2.498 1.064-3.89.834-2.373-.39-4.61.39-6.778 1.43-2.168 1.04-1.505 3.673-.532 10.394.973 6.722-8.299 13.643-17.266 11.529-5.641-1.33-8.82-5.144-9.534-11.44C5.362 7.187 14.747 0 25.8 0 31.07 0 35.96 1.634 40 4.426z" fill="#FED45D" opacity=".676"/><path d="M1 31.54c.755-.865 1.828-.69 3.22.521C7.208 34.66 16.977 42.67 24.657 42.67s14.262-5.198 15.58-6.73c1.32-1.531 5.804-5.043 7.743-3.878.4.24.739.67 1.021 1.218C45.644 43.003 36.285 50 25.264 50 13.596 50 3.791 42.157 1 31.54z" fill="#FFAD02" opacity=".55"/><use fill="#000" filter="url(#q)" xlink:href="#r"/><use fill="#F08612" xlink:href="#r"/><circle stroke="#FFF" stroke-width="2" opacity=".662" cx="25" cy="25" r="24"/></g><g transform="translate(269 91)"><circle fill="#FDC31E" cx="27" cy="27" r="27"/><path d="M42 4.883c-1.295.867-2.695 1.174-4.198.921-2.559-.43-4.973.431-7.312 1.579-2.339 1.147-1.624 4.052-.574 11.469 1.05 7.417-8.954 15.053-18.63 12.72C5.2 30.106 1.772 25.898 1 18.95 4.627 7.93 14.754 0 26.679 0 32.365 0 37.64 1.803 42 4.883z" fill="#FED45D" opacity=".676"/><path d="M1 33.596c.818-.955 1.98-.762 3.49.577 3.234 2.872 13.818 11.725 22.138 11.725 8.32 0 15.45-5.746 16.878-7.439 1.43-1.693 6.287-5.574 8.388-4.286.434.266.8.74 1.106 1.346C49.364 46.266 39.225 54 27.286 54 14.646 54 4.024 45.332 1 33.596z" fill="#FFAD02" opacity=".55"/><use fill="#000" filter="url(#s)" xlink:href="#t"/><use fill="#F08612" xlink:href="#t"/><use fill="#000" filter="url(#u)" xlink:href="#v"/><use fill="#F08612" xlink:href="#v"/><circle stroke="#FFF" stroke-width="2" opacity=".662" cx="27" cy="27" r="26"/></g><g style="mix-blend-mode:multiply" transform="translate(50 119)"><use fill="#D0D0D0" xlink:href="#w" transform="translate(58 165)"/><circle fill="#FFF" cx="48.5" cy="29.5" r="18.5"/><path fill="#E0E0E0" d="M44 46h8v155h-8z"/><path fill="#E3E3E3" d="M119 93h51v108h-51z"/><path fill="#E4E4E4" d="M177 51h42v150h-42z"/><path fill="#E4E4E4" d="M186 48h25v5h-25z"/><path fill="#E4E4E4" d="M190 45h22v5h-22z"/><path fill="#E5E4E4" d="M72 117h10v84H72z"/><circle fill="#E2E1E1" cx="254" cy="119" r="26"/><circle fill="#E5E4E4" cx="77.5" cy="87.5" r="33.5"/><path d="M38.995 79.908c.003-.158.005-.317.005-.477C39 68.147 30.27 59 19.5 59S0 68.147 0 79.431c0 .19.002.38.007.569 1.489 0 36.85-.092 38.988-.092z" fill="#D8D7D7"/><path fill="#E0E0E0" d="M0 78h39v123H0z"/><path fill="#E2E1E1" d="M247 143h10v59h-10z"/><path fill="#ECECEC" d="M253 151h4v5h-4zM253 158h4v5h-4z"/><path d="M233 102c4.772-5.48 12.181-9 20.5-9s15.728 3.52 20.5 9h-41zM141 68h7c12.15 0 22 9.85 22 22v4h-51v-4c0-12.15 9.85-22 22-22z" fill="#D7D7D7"/><path d="M127 59h4a2 2 0 0 1 2 2v11a2 2 0 0 1-2 2h-4a2 2 0 0 1-2-2V61a2 2 0 0 1 2-2z" fill="#D7D7D7"/><rect fill="#C6C6C6" x="146" y="42" width="2" height="24" rx="1"/><path d="M139 62h10a2 2 0 0 1 2 2v4a2 2 0 0 1-2 2h-10a2 2 0 0 1-2-2v-4a2 2 0 0 1 2-2z" fill="#D7D7D7"/><path fill="#ECECEC" d="M127 102h34v3h-34zM127 117h34v3h-34zM127 134h34v3h-34zM127 109h34v3h-34zM127 125h34v3h-34zM127 141h34v3h-34z"/><path fill="#FFF" d="M93 143h10v59H93z"/><g fill="#ECECEC"><path d="M0 79h39v1.547H0zM23.706 93.698h1.53V202h-1.53zM32.882 93.698h1.53V202h-1.53zM0 83.642h39v3.867H0zM0 89.83h39v3.868H0zM0 98.34h19.647a1 1 0 0 1 1 1v2.641a1 1 0 0 1-1 1H0V98.34zM0 106.075h19.647a1 1 0 0 1 1 1v2.642a1 1 0 0 1-1 1H0v-4.642zM0 113.811h19.647a1 1 0 0 1 1 1v2.642a1 1 0 0 1-1 1H0v-4.642zM0 121.547h19.647a1 1 0 0 1 1 1v2.642a1 1 0 0 1-1 1H0v-4.642zM0 129.283h19.647a1 1 0 0 1 1 1v2.642a1 1 0 0 1-1 1H0v-4.642zM0 137.019h19.647a1 1 0 0 1 1 1v2.641a1 1 0 0 1-1 1H0v-4.641zM0 144.755h19.647a1 1 0 0 1 1 1v2.641a1 1 0 0 1-1 1H0v-4.641zM0 152.49h19.647a1 1 0 0 1 1 1v2.642a1 1 0 0 1-1 1H0v-4.641zM0 160.226h19.647a1 1 0 0 1 1 1v2.642a1 1 0 0 1-1 1H0v-4.642zM0 167.962h19.647a1 1 0 0 1 1 1v2.642a1 1 0 0 1-1 1H0v-4.642zM0 175.698h19.647a1 1 0 0 1 1 1v2.642a1 1 0 0 1-1 1H0v-4.642zM0 183.434h19.647a1 1 0 0 1 1 1v2.641a1 1 0 0 1-1 1H0v-4.641zM0 191.17h19.647a1 1 0 0 1 1 1v2.641a1 1 0 0 1-1 1H0v-4.641z"/></g><path fill="#ECECEC" d="M44 135h8v2h-8z"/><g fill="#ECECEC"><path d="M182 62h7.826v3.057H182zM182 66.585h7.826v3.057H182zM191.391 62h7.826v3.057h-7.826zM191.391 66.585h7.826v3.057h-7.826zM200.783 62h7.826v3.057h-7.826zM200.783 66.585h7.826v3.057h-7.826zM210.174 62H218v3.057h-7.826zM210.174 66.585H218v3.057h-7.826zM182 71.17h7.826v3.056H182zM191.391 71.17h7.826v3.056h-7.826zM200.783 71.17h7.826v3.056h-7.826zM210.174 71.17H218v3.056h-7.826zM182 75.755h7.826v3.056H182zM191.391 75.755h7.826v3.056h-7.826zM200.783 75.755h7.826v3.056h-7.826zM210.174 75.755H218v3.056h-7.826zM182 80.34h7.826v3.057H182zM191.391 80.34h7.826v3.056h-7.826zM200.783 80.34h7.826v3.056h-7.826zM210.174 80.34H218v3.056h-7.826zM182 84.925h7.826v3.057H182zM191.391 84.925h7.826v3.056h-7.826zM200.783 84.925h7.826v3.056h-7.826zM210.174 84.925H218v3.056h-7.826zM182 89.51h7.826v3.056H182zM191.391 89.51h7.826v3.056h-7.826zM200.783 89.51h7.826v3.056h-7.826zM210.174 89.51H218v3.056h-7.826zM182 94.094h7.826v3.057H182zM191.391 94.094h7.826v3.057h-7.826zM200.783 94.094h7.826v3.057h-7.826zM210.174 94.094H218v3.057h-7.826zM182 98.68h7.826v3.056H182zM191.391 98.68h7.826v3.056h-7.826zM200.783 98.68h7.826v3.056h-7.826zM210.174 98.68H218v3.056h-7.826zM182 103.264h7.826v3.057H182zM191.391 103.264h7.826v3.057h-7.826zM200.783 103.264h7.826v3.057h-7.826zM210.174 103.264H218v3.057h-7.826zM182 107.85h7.826v3.056H182zM191.391 107.85h7.826v3.056h-7.826zM200.783 107.85h7.826v3.056h-7.826zM210.174 107.85H218v3.056h-7.826zM182 112.434h7.826v3.057H182zM191.391 112.434h7.826v3.057h-7.826zM200.783 112.434h7.826v3.057h-7.826zM210.174 112.434H218v3.057h-7.826zM182 117.019h7.826v3.056H182zM191.391 117.019h7.826v3.056h-7.826zM200.783 117.019h7.826v3.056h-7.826zM210.174 117.019H218v3.056h-7.826zM182 121.604h7.826v3.056H182zM191.391 121.604h7.826v3.056h-7.826zM200.783 121.604h7.826v3.056h-7.826zM210.174 121.604H218v3.056h-7.826zM182 126.189h7.826v3.056H182zM191.391 126.189h7.826v3.056h-7.826zM200.783 126.189h7.826v3.056h-7.826zM210.174 126.189H218v3.056h-7.826zM182 130.774h7.826v3.056H182zM191.391 130.774h7.826v3.056h-7.826zM200.783 130.774h7.826v3.056h-7.826zM210.174 130.774H218v3.056h-7.826zM182 135.358h7.826v3.057H182zM191.391 135.358h7.826v3.057h-7.826zM200.783 135.358h7.826v3.057h-7.826zM210.174 135.358H218v3.057h-7.826zM182 139.943h7.826V143H182zM191.391 139.943h7.826V143h-7.826zM200.783 139.943h7.826V143h-7.826zM210.174 139.943H218V143h-7.826z"/></g><path d="M128.02 202a61.641 61.641 0 0 1-.02-1.542C128 165.963 156.878 138 192.5 138s64.5 27.963 64.5 62.458c0 .515-.006 1.03-.02 1.542H128.02z" fill="#FFF"/><path fill="#ECECEC" d="M93 151h6v5h-6zM93 158h6v5h-6z"/><path d="M98 194h1a2 2 0 0 1 2 2v6h-5v-6a2 2 0 0 1 2-2zM48.5 197a1.5 1.5 0 0 1 1.5 1.5v2.5h-3v-2.5a1.5 1.5 0 0 1 1.5-1.5z" fill="#DEDDDD"/><path fill-opacity=".5" fill="#E2E2E2" d="M39 153.45h111v8.704H39z"/><path fill-opacity=".7" fill="#FFF" d="M39 161.429h111v.725H39z"/><path d="M46.124 152h1.828a1 1 0 0 1 1 1v9.154h-3.828V153a1 1 0 0 1 1-1zM75.214 152h1.827a1 1 0 0 1 1 1v9.154h-3.827V153a1 1 0 0 1 1-1zM132.628 152h1.827a1 1 0 0 1 1 1v9.154h-3.827V153a1 1 0 0 1 1-1z" fill="#ECECEC"/><g transform="translate(128 138)"><mask id="y" fill="#fff"><use xlink:href="#x"/></mask><use fill="#FFF" xlink:href="#x"/><g mask="url(#y)" fill="#ECECEC"><path d="M24.571 10.795h80.625v2.313H24.571zM.768 50.12H129v1.543H.768zM6.91 53.976h18.43v4.626H6.91zM8.446 26.217h18.429v4.626H8.446zM11.518 19.277h18.428v4.627H11.518zM39.16 19.277h7.68v4.627h-7.68zM56.054 19.277h7.678v4.627h-7.678zM71.41 19.277h7.68v4.627h-7.68zM29.946 53.976h18.429v4.626H29.946zM79.857 53.976h18.429v4.626H79.857z"/></g></g><g transform="translate(227 93)"><mask id="A" fill="#fff"><use xlink:href="#z"/></mask><g mask="url(#A)" fill="#ECECEC"><path d="M.07 32.118h39.976v4.588H.07zM-5.311 26H11.6v4.588H-5.31zM32.358 19.882h20.757v4.589H32.358z"/></g></g><path d="M193.5 181h1c5.799 0 10.5 4.701 10.5 10.5v9.5a1 1 0 0 1-1 1h-20a1 1 0 0 1-1-1v-9.5c0-5.799 4.701-10.5 10.5-10.5z" fill="#D2D2D2"/><g transform="translate(44 54)"><mask id="C" fill="#fff"><use xlink:href="#B"/></mask><use fill="#E5E4E4" xlink:href="#B"/><g fill="#F3F3F3" mask="url(#C)"><path d="M-.883 17.713h30.909v6.93H-.884z"/><g transform="translate(.662 40.816)"><rect width="5.409" height="6.931" rx="1"/><path d="M8.727 0h3.41a1 1 0 0 1 1 1v4.931a1 1 0 0 1-1 1h-3.41a1 1 0 0 1-1-1V1a1 1 0 0 1 1-1zM16.455 0h3.409a1 1 0 0 1 1 1v4.931a1 1 0 0 1-1 1h-3.41a1 1 0 0 1-1-1V1a1 1 0 0 1 1-1zM24.182 0h3.409a1 1 0 0 1 1 1v4.931a1 1 0 0 1-1 1h-3.41a1 1 0 0 1-1-1V1a1 1 0 0 1 1-1zM31.91 0h3.408a1 1 0 0 1 1 1v4.931a1 1 0 0 1-1 1H31.91a1 1 0 0 1-1-1V1a1 1 0 0 1 1-1zM39.636 0h3.41a1 1 0 0 1 1 1v4.931a1 1 0 0 1-1 1h-3.41a1 1 0 0 1-1-1V1a1 1 0 0 1 1-1zM47.364 0h3.409a1 1 0 0 1 1 1v4.931a1 1 0 0 1-1 1h-3.41a1 1 0 0 1-1-1V1a1 1 0 0 1 1-1zM55.09 0h3.41a1 1 0 0 1 1 1v4.931a1 1 0 0 1-1 1h-3.41a1 1 0 0 1-1-1V1a1 1 0 0 1 1-1zM62.818 0h3.41a1 1 0 0 1 1 1v4.931a1 1 0 0 1-1 1h-3.41a1 1 0 0 1-1-1V1a1 1 0 0 1 1-1z"/></g><path d="M7.617 10.782h53.318v1.54H7.617zM19.98 33.885H73.3v1.54H19.98z"/></g></g><circle fill="#FFF" cx="97" cy="120" r="23"/><g transform="translate(74 97)"><mask id="E" fill="#fff"><use xlink:href="#D"/></mask><use fill="#FFF" xlink:href="#D"/><g mask="url(#E)" fill="#ECECEC"><path d="M-1.774 15.333h38.557v4.6H-1.774zM40.638 15.333h10.796v4.6H40.638zM25.987 23.767h10.796v4.6H25.987zM25.987 29.9h10.796v4.6H25.987zM3.624 9.967h40.87V11.5H3.624z"/></g></g><g transform="translate(29 11)"><mask id="G" fill="#fff"><use xlink:href="#F"/></mask><use fill="#E0E0E0" xlink:href="#F"/><g mask="url(#G)" fill="#ECECEC"><path d="M-.884 13.875h24.108v5.396H-.884zM8.448 21.583h14.776v1.542H8.448z"/></g></g><path d="M53 0a1 1 0 0 1 1 1v14a1 1 0 0 1-2 0V1a1 1 0 0 1 1-1z" fill="#E4E4E4"/></g><g style="mix-blend-mode:multiply" transform="translate(50 119)"><use fill="#D0D0D0" xlink:href="#H" transform="translate(58 165)"/><circle fill="#FFF" cx="48.5" cy="29.5" r="18.5"/><path fill="#E0E0E0" d="M44 46h8v155h-8z"/><path fill="#E3E3E3" d="M119 93h51v108h-51z"/><path fill="#E4E4E4" d="M177 51h42v150h-42z"/><path fill="#E4E4E4" d="M186 48h25v5h-25z"/><path fill="#E4E4E4" d="M190 45h22v5h-22z"/><path fill="#E5E4E4" d="M72 117h10v84H72z"/><circle fill="#E2E1E1" cx="254" cy="119" r="26"/><circle fill="#E5E4E4" cx="77.5" cy="87.5" r="33.5"/><path d="M38.995 79.908c.003-.158.005-.317.005-.477C39 68.147 30.27 59 19.5 59S0 68.147 0 79.431c0 .19.002.38.007.569 1.489 0 36.85-.092 38.988-.092z" fill="#D8D7D7"/><path fill="#E0E0E0" d="M0 78h39v123H0z"/><path fill="#E2E1E1" d="M247 143h10v59h-10z"/><path fill="#ECECEC" d="M253 151h4v5h-4zM253 158h4v5h-4z"/><path d="M233 102c4.772-5.48 12.181-9 20.5-9s15.728 3.52 20.5 9h-41zM141 68h7c12.15 0 22 9.85 22 22v4h-51v-4c0-12.15 9.85-22 22-22z" fill="#D7D7D7"/><path d="M127 59h4a2 2 0 0 1 2 2v11a2 2 0 0 1-2 2h-4a2 2 0 0 1-2-2V61a2 2 0 0 1 2-2z" fill="#D7D7D7"/><rect fill="#C6C6C6" x="146" y="42" width="2" height="24" rx="1"/><path d="M139 62h10a2 2 0 0 1 2 2v4a2 2 0 0 1-2 2h-10a2 2 0 0 1-2-2v-4a2 2 0 0 1 2-2z" fill="#D7D7D7"/><path fill="#ECECEC" d="M127 102h34v3h-34zM127 117h34v3h-34zM127 134h34v3h-34zM127 109h34v3h-34zM127 125h34v3h-34zM127 141h34v3h-34z"/><path fill="#FFF" d="M93 143h10v59H93z"/><g fill="#ECECEC"><path d="M0 79h39v1.547H0zM23.706 93.698h1.53V202h-1.53zM32.882 93.698h1.53V202h-1.53zM0 83.642h39v3.867H0zM0 89.83h39v3.868H0zM0 98.34h19.647a1 1 0 0 1 1 1v2.641a1 1 0 0 1-1 1H0V98.34zM0 106.075h19.647a1 1 0 0 1 1 1v2.642a1 1 0 0 1-1 1H0v-4.642zM0 113.811h19.647a1 1 0 0 1 1 1v2.642a1 1 0 0 1-1 1H0v-4.642zM0 121.547h19.647a1 1 0 0 1 1 1v2.642a1 1 0 0 1-1 1H0v-4.642zM0 129.283h19.647a1 1 0 0 1 1 1v2.642a1 1 0 0 1-1 1H0v-4.642zM0 137.019h19.647a1 1 0 0 1 1 1v2.641a1 1 0 0 1-1 1H0v-4.641zM0 144.755h19.647a1 1 0 0 1 1 1v2.641a1 1 0 0 1-1 1H0v-4.641zM0 152.49h19.647a1 1 0 0 1 1 1v2.642a1 1 0 0 1-1 1H0v-4.641zM0 160.226h19.647a1 1 0 0 1 1 1v2.642a1 1 0 0 1-1 1H0v-4.642zM0 167.962h19.647a1 1 0 0 1 1 1v2.642a1 1 0 0 1-1 1H0v-4.642zM0 175.698h19.647a1 1 0 0 1 1 1v2.642a1 1 0 0 1-1 1H0v-4.642zM0 183.434h19.647a1 1 0 0 1 1 1v2.641a1 1 0 0 1-1 1H0v-4.641zM0 191.17h19.647a1 1 0 0 1 1 1v2.641a1 1 0 0 1-1 1H0v-4.641z"/></g><path fill="#ECECEC" d="M44 135h8v2h-8z"/><g fill="#ECECEC"><path d="M182 62h7.826v3.057H182zM182 66.585h7.826v3.057H182zM191.391 62h7.826v3.057h-7.826zM191.391 66.585h7.826v3.057h-7.826zM200.783 62h7.826v3.057h-7.826zM200.783 66.585h7.826v3.057h-7.826zM210.174 62H218v3.057h-7.826zM210.174 66.585H218v3.057h-7.826zM182 71.17h7.826v3.056H182zM191.391 71.17h7.826v3.056h-7.826zM200.783 71.17h7.826v3.056h-7.826zM210.174 71.17H218v3.056h-7.826zM182 75.755h7.826v3.056H182zM191.391 75.755h7.826v3.056h-7.826zM200.783 75.755h7.826v3.056h-7.826zM210.174 75.755H218v3.056h-7.826zM182 80.34h7.826v3.057H182zM191.391 80.34h7.826v3.056h-7.826zM200.783 80.34h7.826v3.056h-7.826zM210.174 80.34H218v3.056h-7.826zM182 84.925h7.826v3.057H182zM191.391 84.925h7.826v3.056h-7.826zM200.783 84.925h7.826v3.056h-7.826zM210.174 84.925H218v3.056h-7.826zM182 89.51h7.826v3.056H182zM191.391 89.51h7.826v3.056h-7.826zM200.783 89.51h7.826v3.056h-7.826zM210.174 89.51H218v3.056h-7.826zM182 94.094h7.826v3.057H182zM191.391 94.094h7.826v3.057h-7.826zM200.783 94.094h7.826v3.057h-7.826zM210.174 94.094H218v3.057h-7.826zM182 98.68h7.826v3.056H182zM191.391 98.68h7.826v3.056h-7.826zM200.783 98.68h7.826v3.056h-7.826zM210.174 98.68H218v3.056h-7.826zM182 103.264h7.826v3.057H182zM191.391 103.264h7.826v3.057h-7.826zM200.783 103.264h7.826v3.057h-7.826zM210.174 103.264H218v3.057h-7.826zM182 107.85h7.826v3.056H182zM191.391 107.85h7.826v3.056h-7.826zM200.783 107.85h7.826v3.056h-7.826zM210.174 107.85H218v3.056h-7.826zM182 112.434h7.826v3.057H182zM191.391 112.434h7.826v3.057h-7.826zM200.783 112.434h7.826v3.057h-7.826zM210.174 112.434H218v3.057h-7.826zM182 117.019h7.826v3.056H182zM191.391 117.019h7.826v3.056h-7.826zM200.783 117.019h7.826v3.056h-7.826zM210.174 117.019H218v3.056h-7.826zM182 121.604h7.826v3.056H182zM191.391 121.604h7.826v3.056h-7.826zM200.783 121.604h7.826v3.056h-7.826zM210.174 121.604H218v3.056h-7.826zM182 126.189h7.826v3.056H182zM191.391 126.189h7.826v3.056h-7.826zM200.783 126.189h7.826v3.056h-7.826zM210.174 126.189H218v3.056h-7.826zM182 130.774h7.826v3.056H182zM191.391 130.774h7.826v3.056h-7.826zM200.783 130.774h7.826v3.056h-7.826zM210.174 130.774H218v3.056h-7.826zM182 135.358h7.826v3.057H182zM191.391 135.358h7.826v3.057h-7.826zM200.783 135.358h7.826v3.057h-7.826zM210.174 135.358H218v3.057h-7.826zM182 139.943h7.826V143H182zM191.391 139.943h7.826V143h-7.826zM200.783 139.943h7.826V143h-7.826zM210.174 139.943H218V143h-7.826z"/></g><path d="M128.02 202a61.641 61.641 0 0 1-.02-1.542C128 165.963 156.878 138 192.5 138s64.5 27.963 64.5 62.458c0 .515-.006 1.03-.02 1.542H128.02z" fill="#FFF"/><path fill="#ECECEC" d="M93 151h6v5h-6zM93 158h6v5h-6z"/><path d="M98 194h1a2 2 0 0 1 2 2v6h-5v-6a2 2 0 0 1 2-2zM48.5 197a1.5 1.5 0 0 1 1.5 1.5v2.5h-3v-2.5a1.5 1.5 0 0 1 1.5-1.5z" fill="#DEDDDD"/><path fill-opacity=".5" fill="#E2E2E2" d="M39 153.45h111v8.704H39z"/><path fill-opacity=".7" fill="#FFF" d="M39 161.429h111v.725H39z"/><path d="M46.124 152h1.828a1 1 0 0 1 1 1v9.154h-3.828V153a1 1 0 0 1 1-1zM75.214 152h1.827a1 1 0 0 1 1 1v9.154h-3.827V153a1 1 0 0 1 1-1zM132.628 152h1.827a1 1 0 0 1 1 1v9.154h-3.827V153a1 1 0 0 1 1-1z" fill="#ECECEC"/><g transform="translate(128 138)"><mask id="J" fill="#fff"><use xlink:href="#I"/></mask><use fill="#FFF" xlink:href="#I"/><g mask="url(#J)" fill="#ECECEC"><path d="M24.571 10.795h80.625v2.313H24.571zM.768 50.12H129v1.543H.768zM6.91 53.976h18.43v4.626H6.91zM8.446 26.217h18.429v4.626H8.446zM11.518 19.277h18.428v4.627H11.518zM39.16 19.277h7.68v4.627h-7.68zM56.054 19.277h7.678v4.627h-7.678zM71.41 19.277h7.68v4.627h-7.68zM29.946 53.976h18.429v4.626H29.946zM79.857 53.976h18.429v4.626H79.857z"/></g></g><g transform="translate(227 93)"><mask id="L" fill="#fff"><use xlink:href="#K"/></mask><g mask="url(#L)" fill="#ECECEC"><path d="M.07 32.118h39.976v4.588H.07zM-5.311 26H11.6v4.588H-5.31zM32.358 19.882h20.757v4.589H32.358z"/></g></g><path d="M193.5 181h1c5.799 0 10.5 4.701 10.5 10.5v9.5a1 1 0 0 1-1 1h-20a1 1 0 0 1-1-1v-9.5c0-5.799 4.701-10.5 10.5-10.5z" fill="#D2D2D2"/><g transform="translate(44 54)"><mask id="N" fill="#fff"><use xlink:href="#M"/></mask><use fill="#E5E4E4" xlink:href="#M"/><g fill="#F3F3F3" mask="url(#N)"><path d="M-.883 17.713h30.909v6.93H-.884z"/><g transform="translate(.662 40.816)"><rect width="5.409" height="6.931" rx="1"/><path d="M8.727 0h3.41a1 1 0 0 1 1 1v4.931a1 1 0 0 1-1 1h-3.41a1 1 0 0 1-1-1V1a1 1 0 0 1 1-1zM16.455 0h3.409a1 1 0 0 1 1 1v4.931a1 1 0 0 1-1 1h-3.41a1 1 0 0 1-1-1V1a1 1 0 0 1 1-1zM24.182 0h3.409a1 1 0 0 1 1 1v4.931a1 1 0 0 1-1 1h-3.41a1 1 0 0 1-1-1V1a1 1 0 0 1 1-1zM31.91 0h3.408a1 1 0 0 1 1 1v4.931a1 1 0 0 1-1 1H31.91a1 1 0 0 1-1-1V1a1 1 0 0 1 1-1zM39.636 0h3.41a1 1 0 0 1 1 1v4.931a1 1 0 0 1-1 1h-3.41a1 1 0 0 1-1-1V1a1 1 0 0 1 1-1zM47.364 0h3.409a1 1 0 0 1 1 1v4.931a1 1 0 0 1-1 1h-3.41a1 1 0 0 1-1-1V1a1 1 0 0 1 1-1zM55.09 0h3.41a1 1 0 0 1 1 1v4.931a1 1 0 0 1-1 1h-3.41a1 1 0 0 1-1-1V1a1 1 0 0 1 1-1zM62.818 0h3.41a1 1 0 0 1 1 1v4.931a1 1 0 0 1-1 1h-3.41a1 1 0 0 1-1-1V1a1 1 0 0 1 1-1z"/></g><path d="M7.617 10.782h53.318v1.54H7.617zM19.98 33.885H73.3v1.54H19.98z"/></g></g><circle fill="#FFF" cx="97" cy="120" r="23"/><g transform="translate(74 97)"><mask id="P" fill="#fff"><use xlink:href="#O"/></mask><use fill="#FFF" xlink:href="#O"/><g mask="url(#P)" fill="#ECECEC"><path d="M-1.774 15.333h38.557v4.6H-1.774zM40.638 15.333h10.796v4.6H40.638zM25.987 23.767h10.796v4.6H25.987zM25.987 29.9h10.796v4.6H25.987zM3.624 9.967h40.87V11.5H3.624z"/></g></g><g transform="translate(29 11)"><mask id="R" fill="#fff"><use xlink:href="#Q"/></mask><use fill="#E0E0E0" xlink:href="#Q"/><g mask="url(#R)" fill="#ECECEC"><path d="M-.884 13.875h24.108v5.396H-.884zM8.448 21.583h14.776v1.542H8.448z"/></g></g><path d="M53 0a1 1 0 0 1 1 1v14a1 1 0 0 1-2 0V1a1 1 0 0 1 1-1z" fill="#E4E4E4"/></g></g></svg>