<svg width="136" height="136" xmlns="http://www.w3.org/2000/svg" xmlns:xlink="http://www.w3.org/1999/xlink"><defs><circle id="a" cx="68" cy="68" r="65"/></defs><g fill="none" fill-rule="evenodd"><mask id="b" fill="#fff"><use xlink:href="#a"/></mask><circle stroke="#FFF" stroke-width="3" cx="68" cy="68" r="66.5"/><g mask="url(#b)"><g transform="translate(3 3)"><circle fill="#25C6DA" cx="65.5" cy="65.5" r="65.5"/><path d="M79.26 43.188c0-3.691 3.069-6.683 6.853-6.683 3.785 0 6.854 2.992 6.854 6.683 0 3.692-3.069 6.684-6.854 6.684-3.784 0-6.853-2.992-6.853-6.684" fill="#F2F4F7"/><path d="M81.263 38.452s6.972-6.641 13.58-10.222c6.609-3.58 11.75-1.91 11.016-.239-.735 1.671-6.365 8.832-7.834 10.265-1.469 1.43-9.056 1.193-9.056 1.193l-7.706-.997z" fill="#F2F4F7"/><path d="M85.005 35.241s-2.47-12.405-5.312-13.28c-2.845-.876-5.612 2.991-5.688 4.961-.075 1.97 1.871 6.275 1.871 6.275s-5.163 1.023-6.06 3.577c-.82 2.329-.3 5.691 2.842 6.786 3.143 1.095 7.408-2.92 7.408-2.92l4.939-5.399z" fill="#CBE6F5"/><path fill="#1F58CC" d="M38.032 56.297l-10.198 12.05h75.377l-10.199-12.05z"/><path fill="#2C2C3B" d="M89.613 61.316H41.431l-9.065 10.028h66.312z"/><path fill="#2C2C3B" d="M32.933 92.588h65.179V70.333h-65.18z"/><path d="M82.727 67.988v6.935c0 1.67-1.245 3.533-2.927 3.533H51.245c-1.683 0-2.972-1.864-2.972-3.533v-6.935H27.788v27.167c0 1.67 1.423 3.314 3.105 3.314h69.258c1.683 0 3.061-1.645 3.061-3.314V67.988H82.727z" fill="#4784FF"/><path d="M82.727 73.052v6.89c0 1.67-1.245 3.27-2.927 3.27H51.245c-1.683 0-2.972-1.6-2.972-3.27v-6.89H27.788v27.123c0 1.669 1.423 3.358 3.105 3.358h69.258c1.683 0 3.061-1.689 3.061-3.358V73.052H82.727z" fill="#215ACC"/><g fill="#FFF"><path d="M72.91 51.413c0-.667.562-1.207 1.254-1.207s1.253.54 1.253 1.207c0 .666-.561 1.206-1.253 1.206-.692 0-1.253-.54-1.253-1.206m-4.256 3.831c0-.666.561-1.206 1.253-1.206.692 0 1.253.54 1.253 1.206 0 .667-.56 1.207-1.253 1.207-.692 0-1.253-.54-1.253-1.207M64.4 59.076c0-.666.56-1.206 1.253-1.206.692 0 1.253.54 1.253 1.206 0 .667-.561 1.206-1.253 1.206-.692 0-1.253-.54-1.253-1.206"/><path d="M60.142 63.53c0-.666.56-1.206 1.253-1.206.692 0 1.253.54 1.253 1.207 0 .666-.56 1.206-1.253 1.206-.692 0-1.253-.54-1.253-1.206" opacity=".8"/><path d="M55.576 68.767c0-.667.56-1.207 1.253-1.207.692 0 1.253.54 1.253 1.207 0 .666-.561 1.206-1.253 1.206-.692 0-1.253-.54-1.253-1.206" opacity=".7"/><path d="M53.59 74.721c0-.666.562-1.206 1.254-1.206s1.253.54 1.253 1.206c0 .667-.56 1.206-1.253 1.206-.692 0-1.253-.54-1.253-1.206" opacity=".5"/></g></g></g></g></svg>