<svg width="136" height="136" xmlns="http://www.w3.org/2000/svg" xmlns:xlink="http://www.w3.org/1999/xlink"><defs><circle id="a" cx="65" cy="65" r="65"/><path d="M97.5 97.5v-130c-35.899 0-65 29.101-65 65s29.101 65 65 65z" id="b"/></defs><g transform="translate(3 3)" fill="none" fill-rule="evenodd"><circle stroke="#FFF" stroke-width="3" cx="65" cy="65" r="66.5"/><use fill="#FFC900" xlink:href="#a"/><circle stroke="#FFF" stroke-width="3" cx="65" cy="65" r="66.5"/><g transform="translate(18 18)"><rect fill="#FFC900" width="95" height="95" rx="47.5"/><path d="M34.2 72.418c-3.03 1.611-5.016.151-4.437-3.26l2.43-14.34L21.9 44.668c-2.45-2.416-1.691-4.779 1.693-5.277l14.227-2.092 6.363-13.047c1.513-3.105 3.969-3.105 5.485 0l6.363 13.044 14.227 2.092c3.386.498 4.143 2.86 1.693 5.277L61.655 54.82l2.43 14.34c.577 3.412-1.409 4.872-4.435 3.261l-12.726-6.77L34.2 72.417z" fill="#FFF"/></g><use fill-opacity=".19" fill="#FFF" style="mix-blend-mode:multiply" transform="matrix(0 1 1 0 32.5 -32.5)" xlink:href="#b"/><rect fill="#3F3F54" opacity=".1" x="39.122" y="92" width="51.606" height="1.985" rx=".992"/></g></svg>