<svg width="136" height="136" xmlns="http://www.w3.org/2000/svg" xmlns:xlink="http://www.w3.org/1999/xlink"><defs><circle id="a" cx="68" cy="68" r="65"/><circle id="c" cx="65.5" cy="65.5" r="65.5"/></defs><g fill="none" fill-rule="evenodd"><mask id="b" fill="#fff"><use xlink:href="#a"/></mask><circle stroke="#FFF" stroke-width="3" cx="68" cy="68" r="66.5"/><g mask="url(#b)"><use fill="#2C2C3B" xlink:href="#c" transform="translate(3 3)"/><path fill="#D0D7DB" d="M40.853 37.389l11.174-12.145L68.617 22l17.47 4.178 11.621 11.995 3.168 15.343v16.573l5.096 3.874 2.538 12.977-9.343 18.09-10.957 5.347-19.355-3.616-18.88 3.13-10.484-4.262L29 86.663l3.214-13.3 3.389-3.469 1.35-17.023z"/><path d="M33 84.911l5.211-2.685m-2.544 7.369l5.21-2.685m-6.544.678l5.211-2.686M37 91.603l5.211-2.686M39 93.61l5.211-2.685M104.333 84.911l-5.21-2.685m2.544 7.369l-5.211-2.685m6.544.678l-5.211-2.686m2.544 6.701l-5.21-2.686m3.21 4.693l-5.21-2.685" stroke="#3F3F54"/><path fill="#2C2C3B" d="M36.41 52.883l32.533 3.56 31.735-3.661.324 2.841-6.14 12.288 4.05 5.438v6.669L89.1 94.282 68.49 84.07 48.068 94.274 38.039 79.537v-6.55l3.736-5.773-5.442-11.494z"/><path fill="#D3DADE" d="M44.116 73.191L68.781 62.82 92.99 73.405l2.26 6.683-8.161 10.387-18.597-9.516-18.125 9.329-8.034-10.26z"/><path d="M69 106.788V22.092l17.088 4.086 11.62 11.995 3.168 15.343v16.573l5.096 3.874 2.538 12.977-9.343 18.09-10.957 5.347L69 106.788z" fill-opacity=".2" fill="#000" style="mix-blend-mode:overlay"/></g></g></svg>