<svg width="136" height="136" xmlns="http://www.w3.org/2000/svg" xmlns:xlink="http://www.w3.org/1999/xlink"><defs><circle id="a" cx="68" cy="68" r="65"/><path id="c" d="M0 92.346h79.326V.226H0v92.12z"/><path id="e" d="M79.325.226H0v92.12h79.325V.225z"/></defs><g fill="none" fill-rule="evenodd"><mask id="b" fill="#fff"><use xlink:href="#a"/></mask><circle stroke="#FFF" stroke-width="3" cx="68" cy="68" r="66.5"/><g mask="url(#b)"><g transform="translate(2 3)"><circle fill="#363647" cx="65.5" cy="65.5" r="65.5"/><g transform="translate(25.803 18.58)"><mask id="d" fill="#fff"><use xlink:href="#c"/></mask><path d="M79.326 49.72c0 23.542-5.77 42.626-39.663 42.626C4.665 92.346 0 73.262 0 49.72 0 26.178 17.758.226 39.663.226c21.905 0 39.663 25.952 39.663 49.494" fill="#87D16F" mask="url(#d)"/></g><g transform="translate(25.803 18.58)"><mask id="f" fill="#fff"><use xlink:href="#e"/></mask><path d="M39.663 3.995c19.73 0 34.792 24.039 34.792 45.244s-8.254 38.395-34.792 38.395c-27.958 0-34.792-17.19-34.792-38.395 0-21.205 15.061-45.244 34.792-45.244m0 88.35c34.395 0 39.662-19.083 39.662-42.625C79.325 26.18 61.568.226 39.663.226 17.758.226 0 26.179 0 49.72c0 23.542 4.665 42.625 39.663 42.625" fill="#77B861" mask="url(#f)"/></g><path d="M47.122 81.121s12.303 13.142 23.521 4.38c11.218-8.76 11.942-4.38 9.409-.73-2.533 3.65-15.56 17.159-32.93-3.65" fill="#ADE872"/><path d="M49.294 49.605c0-9.01 7.24-16.315 16.172-16.315 8.931 0 16.172 7.305 16.172 16.315 0 9.01-7.24 16.315-16.172 16.315s-16.172-7.304-16.172-16.315" fill="#F3FFFF"/><path d="M57.13 50.693c0-4.645 3.732-8.41 8.336-8.41s8.335 3.765 8.335 8.41-3.731 8.41-8.335 8.41c-4.604 0-8.336-3.765-8.336-8.41" fill="#030403"/><path d="M61.431 43.113c0-2.474 1.989-4.48 4.44-4.48 2.454 0 4.442 2.006 4.442 4.48 0 2.475-1.988 4.48-4.441 4.48-2.452 0-4.44-2.005-4.44-4.48" fill="#F3FFFF"/><path d="M47.122 79.656S59.425 92.8 70.643 84.037c11.218-8.761 11.942-4.38 9.409-.73-2.533 3.65-15.56 17.158-32.93-3.65" fill="#1F440F"/></g></g></g></svg>