<svg width="136" height="136" xmlns="http://www.w3.org/2000/svg" xmlns:xlink="http://www.w3.org/1999/xlink"><defs><linearGradient x1="50%" y1="0%" x2="50%" y2="96.809%" id="a"><stop stop-color="#FFF" stop-opacity=".1" offset="0%"/><stop stop-color="#FFF" stop-opacity=".03" offset="100%"/></linearGradient><circle id="b" cx="68" cy="68" r="65"/><circle id="d" cx="65.5" cy="65.5" r="65.5"/><path id="f" d="M45.753 82.527h45.753V.443H0v82.084h45.753z"/><path id="g" d="M9.604 82.545h81.902V.46H9.604z"/><filter x="-.6%" y="-.6%" width="101.2%" height="102.4%" filterUnits="objectBoundingBox" id="h"><feOffset dy="1" in="SourceAlpha" result="shadowOffsetOuter1"/><feColorMatrix values="0 0 0 0 0.894117647 0 0 0 0 0.909803922 0 0 0 0 0.921568627 0 0 0 1 0" in="shadowOffsetOuter1"/></filter><path id="i" d="M13.463 71.68h74.05V4.48h-74.05z"/></defs><g fill="none" fill-rule="evenodd"><path fill="url(#a)" d="M31 32h73v51h-4.482L31 37.638z"/><mask id="c" fill="#fff"><use xlink:href="#b"/></mask><circle stroke="#FFF" stroke-width="3" cx="68" cy="68" r="66.5"/><g mask="url(#c)"><g transform="translate(3 3)"><mask id="e" fill="#fff"><use xlink:href="#d"/></mask><use fill="#25C6DA" xlink:href="#d"/><path fill-opacity=".1" fill="#000" mask="url(#e)" transform="rotate(-10 65.55 64.814)" d="M23.45 107.568h84.2V22.06h-84.2z"/><g mask="url(#e)"><g transform="rotate(-6 272.933 -89.609)"><use fill="#000" filter="url(#h)" xlink:href="#g"/><use fill="#FFF" xlink:href="#g"/><mask id="j" fill="#fff"><use xlink:href="#i"/></mask><use fill="#3F3F54" xlink:href="#i"/><g mask="url(#j)"><path fill="#D1AB11" d="M36.875 51.234h59.816v-21.71H36.875z"/><path d="M94.667 15.192v47.505c12.706-29.127 11.143-33.69 10.577-48.353-.487-12.569.096-7.656-10.577.848" fill="#FFCF13"/><path d="M34.602 109.078c-6.51-19.306 3.95-40.205 23.362-46.68 19.411-6.473 40.424 3.93 46.933 23.236 6.51 19.306-3.95 40.205-23.361 46.679-19.412 6.473-40.425-3.93-46.934-23.235" fill="#48C8BC"/><path d="M53.337 73.814c.042-7.179 8.976-12.965 16.194-12.923 7.218.042 16.085 5.895 16.043 13.073-.042 7.18-16.195 12.924-16.195 12.924s-16.084-5.896-16.042-13.074" fill="#F5A17D"/><path d="M61.888 52.272V65.92h.003c.032 3.302 3.43 5.972 7.62 5.972 4.191 0 7.589-2.67 7.62-5.972h.003V52.272H61.888z" fill="#DE7662"/><g><path fill="#B25252" d="M77.134 62.877l-15.246-4.919v-5.686h15.246z"/><path d="M36.502 13.53c0-18.94 15.004-34.296 33.514-34.296 18.51 0 33.514 15.355 33.514 34.297 0 18.941-15.005 42.098-33.514 42.098-18.51 0-33.514-23.157-33.514-42.098" fill="#F5A17D"/><path d="M70.016 53.354c-16.673 0-30.188-23.133-30.188-40.194 0-17.062 13.515-30.893 30.188-30.893 16.672 0 29.47 17.362 29.47 34.424 0 17.061-12.798 36.663-29.47 36.663m0-74.12c-18.51 0-33.514 15.355-33.514 34.297 0 18.941 15.005 42.097 33.514 42.097s33.514-23.156 33.514-42.097c0-18.942-15.005-34.296-33.514-34.296" fill-opacity=".5" fill="#DE7662"/><path d="M28.854 11.856c0-26.697 12.451-29.565 20.71-32.173 22.289-7.039 43.007 1.97 43.007 13.75S68.748 14.765 45.117 14.765c0 0-7.369-.14-10.673-1.333" fill-opacity=".5" fill="#DE7662"/><path d="M52.232 20.176c0-1.117.91-2.022 2.033-2.022 1.122 0 2.032.905 2.032 2.022 0 1.117-.91 2.022-2.032 2.022a2.028 2.028 0 0 1-2.033-2.022M81.962 20.176c0-1.117.91-2.022 2.033-2.022 1.122 0 2.033.905 2.033 2.022 0 1.117-.91 2.022-2.033 2.022a2.028 2.028 0 0 1-2.033-2.022" fill="#42210B"/><path d="M71.417-22.03c17.29-4.927 32.78 2.275 33.542 20.85.146 3.562 1.143 11.752.89 17.312-.03.623-3.133-3.963-3.442-4.116 0 0-4.674-15.235-17.166-15.463" fill="#FFCF13"/><path d="M46.26-22.787c21.788-8.803 42.69-4.55 43.262 12.669.414 12.48-23.823 22.608-47.454 22.608L39.78 62.886S25.805 39.977 25.805 11.682c0-13.999 8.258-29.541 20.455-34.47" fill="#FC0"/><path fill="#DE7662" d="M73.085 33.59h-6.67l1.524-1.1h3.621z"/><path d="M62.917 41.658c0 .89 3.723 3.047 6.774 3.047 3.052 0 7.176-2.015 7.176-2.805 0-.61-1.86-1.83-4.357-1.83-1.316 0-1.449.437-2.479.422-.91-.012-1.204-.504-2.219-.504-3.05 0-4.895.85-4.895 1.67" fill="#F06758"/><path d="M79.853 13.457s6.206-2.992 9.93-.499l1.689 1.246s-2.379-1.329-4.275-1.37c-1.035-.023-5.758.997-6.827 1.786-1.069.79-1.723-.582-.517-1.163M58.803 13.477s-6.303-2.213-9.938-.004l-1.677.339s2.363-.436 4.256-.548c1.033-.061 5.787.587 6.882 1.194 1.095.607 1.703-.55.477-.98" fill-opacity=".6" fill="#5E3D38"/><path d="M93.855-.597s5.094 4.776 6.116 13.592c.426 3.672.795 12.74.795 12.74l2.478-15.92S96.904-.788 93.855-.598" fill="#FFD016"/><path fill="#B25252" d="M75.39 42.17l-5.547.576-5.067-.576-1.399-.453 6.467.746 7.028-.661z"/></g></g></g></g></g></g></g></svg>