<svg width="30" height="30" xmlns="http://www.w3.org/2000/svg"><path d="M20.132 9.483l-.775 7.177c-.058.505-.086.988-.086 1.451 0 .69.226 1.031.678 1.031.723 0 1.415-.54 2.08-1.624.664-1.083.992-2.398.992-3.937 0-2.224-.732-4.039-2.204-5.426-1.474-1.394-3.255-2.088-5.354-2.088-2.3 0-4.237.862-5.801 2.587-1.569 1.725-2.349 3.848-2.349 6.378 0 2.36.737 4.41 2.206 6.151 1.473 1.74 3.538 2.614 6.2 2.614 2.07 0 4.18-.605 6.33-1.82l.833 2.098C20.582 25.36 18.188 26 15.72 26c-3.284 0-5.888-1.083-7.823-3.244C5.967 20.596 5 18.014 5 15.018c0-3.133 1.016-5.752 3.047-7.855C10.077 5.051 12.532 4 15.406 4c2.71 0 4.987.909 6.826 2.718C24.076 8.532 25 10.818 25 13.579c0 2.003-.52 3.791-1.555 5.357-1.035 1.562-2.292 2.345-3.779 2.345-1.155 0-1.954-.53-2.397-1.597-.81 1.108-1.795 1.66-2.96 1.66-1.194 0-2.22-.54-3.068-1.634-.852-1.088-1.275-2.518-1.275-4.295 0-1.83.477-3.312 1.435-4.458.963-1.146 2.104-1.72 3.427-1.72 1.281 0 2.2.442 2.764 1.325l.115-1.078h2.425v-.001zm-5.64 9.354c.75 0 1.428-.4 2.035-1.2.607-.794.91-1.829.91-3.102 0-.72-.23-1.36-.698-1.935-.462-.567-1.035-.851-1.713-.851-.732 0-1.338.352-1.82 1.056-.476.7-.716 1.614-.716 2.735 0 .95.183 1.74.558 2.36.37.621.851.937 1.443.937z" fill="#FFF" fill-rule="evenodd"/></svg>