<svg width="60" height="60" viewBox="0 0 60 60" xmlns="http://www.w3.org/2000/svg"><title>icn-niveau</title><g fill="none" fill-rule="evenodd"><ellipse cx="30" cy="30" rx="30" ry="30" fill="#48C8BC"/><g fill="#FFF"><path d="M35.963 23.307c-1.035-1.036-2.682-1.074-3.67-.086-.989.989-.95 2.635.085 3.671 1.036 1.036 2.682 1.074 3.67.085.988-.99.95-2.636-.085-3.67zm-2.597 2.598c-.466-.466-.484-1.208-.039-1.653.444-.444 1.186-.427 1.652.04.466.465.483 1.206.038 1.65-.444.446-1.186.428-1.651-.037z"/><path d="M35.097 33.103c.008-.037.009-.074.01-.112 5.403-5.89 5.365-12.968 5.335-13.902a.757.757 0 0 0-.724-.724c-.936-.03-8.035-.069-13.928 5.357-.023.002-.044.002-.067.007-.236.048-5.835 1.237-10.31 6.614a.712.712 0 0 0 .064.965.731.731 0 0 0 .805.163c1.318-.58 3.556-1.354 4.996-1.442-.233.65-.404 1.32-.51 2.01a.737.737 0 0 0 .104.494c.361.582.761 1.14 1.192 1.674-.76 1.078-1.386 2.216-1.676 3.307a.737.737 0 0 0 .198.707.735.735 0 0 0 .707.198c1.093-.29 2.232-.919 3.311-1.68.533.43 1.09.833 1.67 1.194.15.094.325.13.493.105.696-.105 1.373-.281 2.03-.516-.083 1.437-.86 3.697-1.444 5.022a.732.732 0 0 0 .235.87.71.71 0 0 0 .891-.002c5.383-4.472 6.57-10.073 6.618-10.309zm-16.384-4.04a19.46 19.46 0 0 1 5.015-3.133c-.461.57-.909 1.182-1.335 1.844-.178.277-.34.56-.494.848-.929-.086-2.101.137-3.186.442zm3.692 7.343c1.437-2.674 4.46-5.426 5.427-6.264.169.08.36.193.502.335.134.133.249.33.333.506-.847.968-3.594 3.986-6.262 5.423zm4.35.176a13.762 13.762 0 0 1-.998-.716c2.332-1.895 4.168-4.106 4.288-4.252a.694.694 0 0 0 .123-.648c-.03-.092-.29-.918-.85-1.477-.588-.588-1.402-.828-1.492-.853a.694.694 0 0 0-.631.128c-.147.12-2.36 1.958-4.254 4.292-.251-.326-.49-.658-.712-1.002a9.456 9.456 0 0 1 1.376-3.468c5.04-7.802 12.875-8.709 15.41-8.79-.08 2.537-.986 10.372-8.788 15.412a9.464 9.464 0 0 1-3.472 1.374zm3.45.319c.282-.149.559-.31.83-.484.677-.437 1.302-.895 1.885-1.369a19.387 19.387 0 0 1-3.156 5.067c.31-1.095.531-2.282.44-3.214z"/></g></g></svg>