<svg width="76" height="76" viewBox="0 0 76 76" xmlns="http://www.w3.org/2000/svg"><title>icn-sauvegardes</title><g fill="none" fill-rule="evenodd"><g transform="translate(-23 -20)"><ellipse fill="#25C6DA" cx="60" cy="60" rx="60" ry="60"/><path d="M46.946 54.899a1.699 1.699 0 0 1 0-2.406 1.696 1.696 0 0 1 2.406 0l9.72 9.719V25.704c0-.943.762-1.704 1.704-1.704s1.704.761 1.704 1.704v36.508l9.72-9.719a1.696 1.696 0 0 1 2.405 0 1.699 1.699 0 0 1 0 2.406L61.981 67.523a1.937 1.937 0 0 1-.263.217c-.077.055-.163.09-.244.131l-.05.028a1.577 1.577 0 0 1-.277.081l-.04.014a2.118 2.118 0 0 1-.331.027h-.023c-.103 0-.203-.01-.308-.031l-.045-.014a1.884 1.884 0 0 1-.272-.082h-.004a.01.01 0 0 1-.01-.009 1.653 1.653 0 0 1-.372-.221c-.03-.024-.058-.05-.09-.074-.027-.022-.055-.04-.081-.067L46.946 54.9zm42.902 5.364c-.942 0-1.703.761-1.703 1.703V78.04c0 4.405-3.584 7.988-7.989 7.988h-38.76c-4.405 0-7.99-3.583-7.99-7.988V61.704c0-.943-.76-1.704-1.702-1.704-.943 0-1.704.761-1.704 1.704v16.34c0 6.28 5.111 11.391 11.391 11.391h38.76c6.28 0 11.392-5.111 11.392-11.391V61.966a1.693 1.693 0 0 0-1.695-1.703z" fill="#FFF"/></g></g></svg>