<svg width="30" height="30" xmlns="http://www.w3.org/2000/svg"><g fill="#FFF" fill-rule="evenodd"><path d="M10.668 2l-.902 3.772h-.092L8.73 2H7.26l1.734 5.696v3.74h1.457V7.52L12.148 2zM12.606 4.777c.348-.318.816-.479 1.404-.479.535 0 .975.17 1.317.506.342.336.51.77.51 1.301V9.7c0 .598-.167 1.064-.501 1.404-.335.338-.798.508-1.384.508-.567 0-1.022-.175-1.36-.525-.34-.35-.51-.82-.51-1.412l-.001-3.609c0-.538.175-.968.525-1.288zm.947 5.472a.502.502 0 0 0 .395.156.56.56 0 0 0 .418-.16c.103-.107.154-.253.154-.44V6.012a.474.474 0 0 0-.16-.369.6.6 0 0 0-.412-.138.54.54 0 0 0-.385.138.482.482 0 0 0-.148.37v3.79c0 .192.045.34.138.445zM19.336 4.475v5.283a1.816 1.816 0 0 1-.398.375c-.147.098-.268.147-.362.147-.123 0-.209-.036-.263-.111-.055-.073-.082-.192-.082-.358V4.475h-1.293v5.818c0 .414.074.725.226.933.152.206.377.31.676.31.244 0 .494-.075.752-.222a2.83 2.83 0 0 0 .744-.647v.769h1.295V4.475h-1.295zM20 20.588h1v-1h-1zM16 23.588h1v-4h-1z"/><path d="M22 19.588v2h-2v2h1v-1h1v2h-3v-6h3v1zm-4 0v5h-3v-8h1v2h2v1zm-4 5h-3v-6h1v5h1v-5h1v6zm-4 0H9v-7H7v-1h5v1h-2v7zm15.188-8.18c0-1.68-1.379-2.861-3.08-2.861-2.307-.096-4.665.04-7.067.04h-.752c-2.402 0-4.76-.136-7.066-.04-1.702 0-3.078 1.27-3.078 2.953A48.257 48.257 0 0 0 4 20.448c-.004 1.332.041 2.64.145 3.974 0 1.68 1.376 3.03 3.078 3.03 2.425.105 4.91.142 7.443.138 2.531.004 5.014-.042 7.441-.146 1.702 0 3.081-1.364 3.081-3.044.101-1.333.144-2.665.142-3.997a51.803 51.803 0 0 0-.142-3.995z"/></g></svg>