<svg width="280" height="275" viewBox="0 0 280 275" xmlns="http://www.w3.org/2000/svg"><title>img-spock</title><g fill="none" fill-rule="evenodd"><path fill="#F6A17D" d="M251.937 259.873l-32.684 4.593-6.778-48.228 32.684-4.594z"/><path fill-opacity=".4" fill="#DE7662" d="M218.353 261.245l-6.871-48.893 33.188-4.665 6.871 48.893z"/><path fill="#000" style="mix-blend-mode:multiply" opacity=".26" d="M251.692 258.124l-32.685 4.594-4.176-29.715 32.685-4.594z"/><path d="M237.12 169.837l-.893-34.046s-.128-5.384-4.647-5.377c-4.518.008-5.212 4-5.212 4s.517 28.695.584 30.068c.068 1.373-.08 4.786-2.912 5.184-2.83.398-4.054-2.949-4.054-2.949l-10.178-33.997s-1.78-5.529-7.233-4.134c-5.454 1.394-2.99 8.209-2.99 8.209l11.561 35.814-11.56-35.814s-1.541-2.924-5.71-2.213c-4.169.712-3.547 6.027-3.547 6.027s7.572 27.077 9.667 33.944c2.095 6.866 3.136 12.498 1.161 15.414-1.975 2.916-4.61 2.03-4.61 2.03l-9.742-7.676s-7.213-5.77-10.595-3.034c-3.381 2.737-.756 8.021-.756 8.021l18.79 18.465c16.684 16.876 23.909 17.368 23.909 17.368s7.477 2.525 18.293-1.817c6.863-2.755 11.46-12.258 11.46-12.258s4.173-7.15 2.2-21.194c-1.975-14.045-3.924-23.445-3.924-23.445l-.528-23.418s-.518-4.575-4.827-3.97c-4.308.606-4.301 5.128-4.301 5.128" fill="#F6A17D"/><path d="M252.766 230.293l6.202 44.13.78-.11c1.267 9.666-7.412 18.636-19.325 20.31-11.914 1.675-22.798-4.396-24.135-13.905l-6.243-44.421 42.721-6.004z" fill="#3F3F54"/><path fill="#FFD75E" d="M256.969 259.906l-42.75 6.032-1-7.22 42.718-5.968zM255.344 248.625l-42.75 6.094-.969-7.125 42.75-6.094z"/><path fill="#000" opacity=".8" style="mix-blend-mode:overlay" d="M240.764 294.576l-1.294.181-8.483-60.365 1.294-.182z"/><g opacity=".4" stroke-linecap="round" stroke="#B25252" stroke-linejoin="round"><g stroke-width=".536"><path d="M204.158 160.138s-2.616-.823-4.788 1.507M200.546 147.832s-2.616-.824-4.789 1.507M210.05 143.104s-2.616-.823-4.788 1.507M214.188 156.467s-2.616-.823-4.789 1.507M233.97 144.517s-2.3-1.493-5.016.171M234.601 157.34s-2.301-1.494-5.017.17M244.717 162.325s-2.3-1.493-5.017.171M244.527 152.93s-2.301-1.494-5.017.17"/></g><path d="M206.45 174.022s20.686-4.667 31.034-1.598M189.57 187.785s-3.119.676-3.643 3.728" stroke-width=".804"/></g><path d="M250.417 197.07a25.431 25.431 0 0 1-.215 7.946c-2.565 13.813-15.837 22.926-29.64 20.355a25.343 25.343 0 0 1-6.137-1.97c17.994 2.75 32.726-4.973 35.992-26.332" fill-opacity=".6" fill="#FFC79B"/><g opacity=".6" fill="#B25252"><path d="M199.69 130.656l13.07 41.583-1.614.37-11.56-35.813s-1.313-3.635.105-6.14M238.966 169.143l-1.845.694-.595-25.67s-.002-2.475 1.742-4.008l.698 28.984z"/></g><path d="M194.095 301.242c14.435-43.005-8.76-89.557-51.803-103.978-43.045-14.421-89.641 8.75-104.074 51.755-14.435 43.005 8.758 89.558 51.803 103.979 43.044 14.421 89.64-8.75 104.074-51.756" fill="#2C2C3B"/><path fill="#ED8E66" d="M102.43 191.66v-28.313h28.339v28.313"/><path fill="#B25252" opacity=".7" d="M102.43 186.705l28.339-11.325v-6.37H102.43z"/><path d="M175.83 91.117c0-38.682-26.94-70.042-60.17-70.042-33.228 0-60.167 31.36-60.167 70.042s26.939 81.328 60.168 81.328c33.23 0 60.169-42.646 60.169-81.328" fill="#F6A17D"/><path d="M115.661 169.083c31.166 0 54.955-41.128 54.955-77.407 0-36.28-13.037-65.69-54.955-65.69-31.165 0-54.954 29.41-54.954 65.69 0 36.279 23.789 77.407 54.954 77.407m0-148.008c33.23 0 60.168 31.36 60.168 70.042 0 38.684-26.937 81.328-60.168 81.328-33.23 0-60.169-42.644-60.169-81.328 0-38.682 26.94-70.042 60.17-70.042" fill="#DE7662" opacity=".7"/><path d="M169.149 101.594c-4.611 9.605-5.478 18.767-1.936 20.464 3.543 1.698 10.151-4.712 14.762-14.317 4.612-9.605 1.935-20.466 1.935-20.466s-10.15 4.714-14.761 14.319" fill="#F6A17D"/><path d="M168.342 107.487c-3.43 7.144-4.074 13.958-1.44 15.22 2.634 1.263 7.55-3.505 10.978-10.649 3.43-7.143 1.44-15.22 1.44-15.22s-7.55 3.506-10.978 10.65" fill="#B25252" opacity=".42"/><path d="M62.962 101.594c4.61 9.605 5.478 18.767 1.935 20.464-3.542 1.698-10.15-4.712-14.761-14.317-4.612-9.605-1.936-20.466-1.936-20.466s10.151 4.714 14.762 14.319" fill="#F6A17D"/><path d="M63.77 107.487c3.428 7.144 4.073 13.958 1.439 15.22-2.634 1.263-7.55-3.505-10.979-10.649-3.43-7.143-1.44-15.22-1.44-15.22s7.55 3.506 10.98 10.65" fill="#B25252" opacity=".42"/><path d="M171.55 61.794c0-23.269-25.658-42.132-57.31-42.132-31.65 0-57.308 18.863-57.308 42.132s14.417 25.144 57.308 25.144c45.055 0 57.31-1.875 57.31-25.144" fill="#DE7662" opacity=".49"/><path fill-opacity=".8" fill="#FFC79B" d="M108.186 130.433h15.94l-4.994-2.83h-5.951z"/><path d="M128.856 147.266c0 1.199-6.92 3.553-12.591 3.553-5.672 0-13.338-2.71-13.338-3.774 0-.82 3.456-2.46 8.098-2.46 2.446 0 2.694.586 4.608.567 1.693-.017 2.239-.68 4.125-.68 5.67 0 9.098 1.69 9.098 2.794" fill="#DE7662"/><path fill="#B25252" d="M105.707 147.365h20.28l2.833-.708h-25.947z"/><path d="M148.717 104.598a3.54 3.54 0 0 0-3.542-3.54 3.54 3.54 0 1 0 0 7.08 3.54 3.54 0 0 0 3.542-3.54M83.538 104.598a3.54 3.54 0 0 1 3.542-3.54 3.54 3.54 0 1 1 0 7.08 3.54 3.54 0 0 1-3.542-3.54" fill="#472305"/><path fill="#020001" d="M93.67 195.994l22.577 7.078 21.607-7.078v-13.3l-21.25 7.078-22.933-7.078z"/><g><path d="M77.896 255.491s3.098-14.648 9.495-11.607c5.112 2.43 12.796 7.108 12.796 7.108l-16.57-22.775-5.72 27.274z" fill-opacity=".2" fill="#000" style="mix-blend-mode:multiply"/><path d="M79.313 254.075s3.097-14.647 9.495-11.606c5.112 2.43 12.796 7.107 12.796 7.107l-16.57-22.774-5.721 27.273z" fill="#FFD75E"/></g><path d="M100.305 98.935L73.383 91.15M130.06 98.935l26.922-7.786" stroke="#020001" stroke-width="2" stroke-linecap="round" stroke-linejoin="round"/><path d="M171.55 57.547c0-23.269-25.658-42.132-57.31-42.132-31.65 0-57.308 18.863-57.308 42.132s14.417 25.145 57.308 25.145c45.055 0 57.31-1.876 57.31-25.145" fill="#020001"/><path d="M165.062 38.102s22.167 23.226 9.192 62.118l-11.485 24.902s10.089-44.144 3.6-49.544c-6.487-5.402-1.307-37.476-1.307-37.476M64.774 38.102s-22.166 23.226-9.191 62.118l11.484 24.902S56.8 80.624 63.287 75.224c6.488-5.402 1.487-37.122 1.487-37.122" fill="#020001"/></g></svg>