<?xml version="1.0" encoding="UTF-8"?>
<svg width="84px" height="84px" viewBox="0 0 84 84" version="1.1" xmlns="http://www.w3.org/2000/svg" xmlns:xlink="http://www.w3.org/1999/xlink">
    <!-- Generator: Sketch 49.3 (51167) - http://www.bohemiancoding.com/sketch -->
    <title>img-level-2-big</title>
    <desc>Created with Sketch.</desc>
    <defs>
        <path d="M0.146069841,5.43049539 C7.82404774,13.6039013 18.8544712,18.7281402 31.1111111,18.7281402 C42.4652556,18.7281402 52.7671159,14.3307464 60.3264102,7.18557219 L60.3264102,0.474572216 L0.146069841,0.474572216 L0.146069841,5.43049539 L0.146069841,5.43049539 Z" id="path-1"></path>
        <path d="M42,0.0025304878 C18.8040741,0.0025304878 0,18.3561585 0,40.9964329 L0,40.9964329 C0,63.6372134 18.8040741,81.9903354 42,81.9903354 L42,81.9903354 C65.1959259,81.9903354 84,63.6372134 84,40.9964329 L84,40.9964329 C84,18.3561585 65.1959259,0.0025304878 42,0.0025304878 L42,0.0025304878 Z" id="path-3"></path>
    </defs>
    <g id="img-level-2-big" stroke="none" stroke-width="1" fill="none" fill-rule="evenodd">
        <g id="Page-1-Copy-4">
            <g>
                <path d="M0,41.5001518 C0,18.8598774 18.8040741,0.50624939 42,0.50624939 C65.1959259,0.50624939 84,18.8598774 84,41.5001518 C84,64.1404262 65.1959259,82.4940543 42,82.4940543 C18.8040741,82.4940543 0,64.1404262 0,41.5001518" id="Fill-1" fill="#48C8BC"></path>
                <g id="Group-401" transform="translate(0.000000, 0.503567)">
                    <g id="Group-5" transform="translate(10.888889, 63.262195)">
                        <mask id="mask-2" fill="white">
                            <use xlink:href="#path-1"></use>
                        </mask>
                        <g id="Clip-4"></g>
                        <path d="M1.7151037,39.1789354 C-3.56704444,23.8041976 4.92058519,7.16168537 20.6721407,2.00606951 C36.4242148,-3.14954634 53.4756963,5.13425854 58.7573259,20.5089963 C64.0394741,35.883228 55.552363,52.5262463 39.8002889,57.6818622 C24.0487333,62.837478 6.99725185,54.5536732 1.7151037,39.1789354" id="Fill-3" fill="#08183A" mask="url(#mask-2)"></path>
                    </g>
                    <path d="M32.4966444,74.8863957 C30.9359037,70.3431579 33.4439778,65.4249018 38.0987185,63.9010421 C42.7534593,62.3776884 47.7924222,64.8256823 49.3536815,69.3689201 C50.9144222,73.912664 48.4063481,78.8309201 43.7516074,80.3542738 C39.0963481,81.8776274 34.0573852,79.4296335 32.4966444,74.8863957" id="Fill-6" fill="#F5A17D"></path>
                    <path d="M35.7777778,56.6856091 L35.7777778,66.8075604 L35.7798519,66.8075604 C35.8011111,69.0126274 38.1126667,70.795103 40.962963,70.795103 C43.8132593,70.795103 46.1248148,69.0126274 46.1460741,66.8075604 L46.1481481,66.8075604 L46.1481481,56.6856091 L35.7777778,56.6856091 Z" id="Fill-8" fill="#ED8E66"></path>
                    <polygon id="Fill-10" fill="#B25252" points="46.1481481 65.0362189 35.7777778 60.9874384 35.7777778 58.7099994 46.1481481 58.7099994"></polygon>
                    <path d="M62.0835185,25.308775 C58.2018889,12.4215067 45.6724074,5.47784817 34.0975185,9.79890915 C22.5221111,14.1204762 16.2853704,28.0710555 20.167,40.9583238 C24.0486296,53.8455921 36.5781111,60.7897567 48.153,56.4681896 C59.7278889,52.1466226 65.9651481,38.1960433 62.0835185,25.308775" id="Fill-12" fill="#DE7662"></path>
                    <path d="M19.288163,33.355625 C19.288163,20.7117896 29.146237,10.4617957 41.3065333,10.4617957 C53.4663111,10.4617957 63.3243852,20.7117896 63.3243852,33.355625 C63.3243852,45.9994604 53.4663111,59.9383994 41.3065333,59.9383994 C29.146237,59.9383994 19.288163,45.9994604 19.288163,33.355625" id="Fill-14" fill="#F5A17D"></path>
                    <path d="M41.3062741,58.9851646 C30.6735333,58.9851646 22.0536815,46.7968171 22.0536815,35.7411159 C22.0536815,24.6854146 30.6735333,24.5735671 41.3062741,24.5735671 C51.9390148,24.5735671 60.5588667,24.6854146 60.5588667,35.7411159 C60.5588667,46.7968171 51.9390148,58.9851646 41.3062741,58.9851646 M41.3539778,9.67203049 C29.0547185,9.6497622 19.0628667,20.4185061 19.0374593,33.7248232 C19.0120519,47.0306341 28.955163,61.7180915 41.2549407,61.7403598 C53.5547185,61.762628 63.5538296,47.1116098 63.579237,33.8052927 C63.6041259,20.4994817 53.6537556,9.69429878 41.3539778,9.67203049" id="Fill-16" fill="#DE7662"></path>
                    <path d="M41.3062741,57.9139079 C30.3530889,57.9139079 21.9919778,45.002853 21.9919778,33.6141396 C21.9919778,22.2249201 26.5741259,12.9926884 41.3062741,12.9926884 C52.2594593,12.9926884 60.6205704,22.2249201 60.6205704,33.6141396 C60.6205704,45.002853 52.2594593,57.9139079 41.3062741,57.9139079 M41.3062741,10.4622006 C29.1459778,10.4622006 19.2884222,20.7116884 19.2884222,33.3555238 C19.2884222,45.9993591 29.1459778,59.9382982 41.3062741,59.9382982 C53.4665704,59.9382982 63.3246444,45.9993591 63.3246444,33.3555238 C63.3246444,20.7116884 53.4665704,10.4622006 41.3062741,10.4622006" id="Fill-18" fill="#DE7662"></path>
                    <polygon id="Fill-20" fill="#FFC79B" points="44.0418741 45.931036 38.2085407 45.931036 40.0363185 44.9188409 42.2140963 44.9188409"></polygon>
                    <path d="M36.4779333,50.9365433 C36.4779333,51.3652079 39.0103778,52.2068482 41.0854889,52.2068482 C43.1611185,52.2068482 45.9663037,51.2376713 45.9663037,50.8575921 C45.9663037,50.5645616 44.701637,49.9779945 43.0029704,49.9779945 C42.1080074,49.9779945 42.0172667,50.1875189 41.3167481,50.1809396 C40.6971185,50.1748665 40.4974889,49.9380128 39.8073407,49.9380128 C37.7322296,49.9380128 36.4779333,50.5417872 36.4779333,50.9365433" id="Fill-22" fill="#DE7662"></path>
                    <g id="Group-360" transform="translate(20.740741, 40.487805)"></g>
                    <path d="M61.8333333,29.0400299 C61.8333333,28.8654262 61.9785185,28.7237189 62.1574074,28.7237189 C62.3362963,28.7237189 62.4814815,28.8654262 62.4814815,29.0400299 C62.4814815,29.2146335 62.3362963,29.3563409 62.1574074,29.3563409 C61.9785185,29.3563409 61.8333333,29.2146335 61.8333333,29.0400299" id="Fill-361" fill="#998077"></path>
                    <path d="M61.8333333,30.052225 C61.8333333,29.8776213 61.9785185,29.735914 62.1574074,29.735914 C62.3362963,29.735914 62.4814815,29.8776213 62.4814815,30.052225 C62.4814815,30.2268287 62.3362963,30.368536 62.1574074,30.368536 C61.9785185,30.368536 61.8333333,30.2268287 61.8333333,30.052225" id="Fill-363" fill="#998077"></path>
                    <path d="M41.3062741,59.2992488 C30.6735333,59.2992488 22.0536815,46.6579439 22.0536815,35.1917976 C22.0536815,23.7251451 30.6735333,23.6092488 41.3062741,23.6092488 C51.9390148,23.6092488 60.5588667,23.7251451 60.5588667,35.1917976 C60.5588667,46.6579439 51.9390148,59.2992488 41.3062741,59.2992488 M41.3539778,8.15404146 C29.0547185,8.13076098 19.0628667,19.299322 19.0374593,33.1000963 C19.0120519,46.9008707 28.955163,62.1339012 41.2549407,62.1566756 C53.5547185,62.1799561 63.5538296,46.9843768 63.579237,33.1841085 C63.6041259,19.3833341 53.6537556,8.17681585 41.3539778,8.15404146" id="Fill-365" fill="#08183A"></path>
                    <path d="M36.3827333,52.1307311 C36.3827333,49.4752372 38.5879926,47.3228043 41.3086593,47.3228043 C44.0293259,47.3228043 46.2345852,49.4752372 46.2345852,52.1307311 C46.2345852,54.786225 44.0293259,56.9386579 41.3086593,56.9386579 C38.5879926,56.9386579 36.3827333,54.786225 36.3827333,52.1307311" id="Fill-367" fill="#444445"></path>
                    <path d="M37.5061556,52.1307311 C37.5061556,50.081036 39.2084519,48.4195177 41.3084519,48.4195177 C43.4084519,48.4195177 45.1112667,50.081036 45.1112667,52.1307311 C45.1112667,54.1804262 43.4084519,55.8419445 41.3084519,55.8419445 C39.2084519,55.8419445 37.5061556,54.1804262 37.5061556,52.1307311" id="Fill-369" fill="#2C2C3A"></path>
                    <mask id="mask-4" fill="white">
                        <use xlink:href="#path-3"></use>
                    </mask>
                    <g id="Clip-372"></g>
                    <polygon id="Fill-371" fill="#3F3F54" mask="url(#mask-4)" points="60.2539259 30.3749634 67.0387407 30.3749634 67.0387407 1.01472561 60.2539259 1.01472561"></polygon>
                    <polygon id="Fill-373" fill="#2C2C3A" mask="url(#mask-4)" points="63.7031111 30.3749634 67.0387407 30.3749634 67.0387407 1.01472561 63.7031111 1.01472561"></polygon>
                    <polygon id="Fill-374" fill="#656587" mask="url(#mask-4)" points="60.8025185 30.891689 67.5873333 30.891689 67.5873333 29.3025427 60.8025185 29.3025427"></polygon>
                    <path d="M38.7515852,32.645975 C38.7515852,26.3197555 44.0057333,21.191975 50.4866963,21.191975 C56.9681778,21.191975 62.2223259,26.3197555 62.2223259,32.645975 C62.2223259,38.9721945 56.9681778,44.099975 50.4866963,44.099975 C44.0057333,44.099975 38.7515852,38.9721945 38.7515852,32.645975" id="Fill-375" fill="#656587" mask="url(#mask-4)"></path>
                    <path d="M18.0108444,32.645975 C18.0108444,26.3197555 23.2649926,21.191975 29.7459556,21.191975 C36.227437,21.191975 41.4815852,26.3197555 41.4815852,32.645975 C41.4815852,38.9721945 36.227437,44.099975 29.7459556,44.099975 C23.2649926,44.099975 18.0108444,38.9721945 18.0108444,32.645975" id="Fill-376" fill="#656587" mask="url(#mask-4)"></path>
                    <polygon id="Fill-377" fill="#656587" mask="url(#mask-4)" points="29.6737778 33.6281585 51.5101481 33.6281585 51.5101481 21.1918232 29.6737778 21.1918232"></polygon>
                    <path d="M50.8148148,24.8397238 L50.8148148,24.8012604 L30.5708148,24.8012604 C25.548963,24.8012604 21.2291852,28.8105652 21.2592593,33.7121201 C21.2893333,38.5797665 25.3405185,42.6411994 30.3333333,42.6411994 C34.0122222,42.6411994 37.1715556,40.2969555 38.5943704,37.4957055 C38.767037,37.1566201 39.1253333,36.8504311 39.5131852,36.8504311 L40.8571852,36.8504311 C41.245037,36.8504311 41.6038519,37.1576323 41.776,37.4967177 C43.4228148,40.7357421 47.3894815,43.3639067 51.7979259,42.4620409 C55.9434815,41.6138213 59.0312593,38.022047 59.1095556,33.8887482 C59.1987407,29.1795104 55.5172593,25.2304311 50.8148148,24.8397238" id="Fill-378" fill="#000000" mask="url(#mask-4)"></path>
                    <path d="M38.2330667,34.1642677 C38.2330667,27.8380482 43.4872148,22.7102677 49.9681778,22.7102677 C56.4496593,22.7102677 61.7038074,27.8380482 61.7038074,34.1642677 C61.7038074,40.4904872 56.4496593,45.6182677 49.9681778,45.6182677 C43.4872148,45.6182677 38.2330667,40.4904872 38.2330667,34.1642677" id="Fill-379" fill="#2C2C3A" mask="url(#mask-4)"></path>
                    <path d="M18.529363,34.1642677 C18.529363,27.8380482 23.7835111,22.7102677 30.2644741,22.7102677 C36.7459556,22.7102677 42.0001037,27.8380482 42.0001037,34.1642677 C42.0001037,40.4904872 36.7459556,45.6182677 30.2644741,45.6182677 C23.7835111,45.6182677 18.529363,40.4904872 18.529363,34.1642677" id="Fill-380" fill="#2C2C3A" mask="url(#mask-4)"></path>
                    <polygon id="Fill-381" fill="#2C2C3A" mask="url(#mask-4)" points="31.5181481 35.1464512 49.6657778 35.1464512 49.6657778 22.7101159 31.5181481 22.7101159"></polygon>
                    <path d="M50.8148148,24.8397238 L50.8148148,24.8012604 L30.5708148,24.8012604 C25.548963,24.8012604 21.2291852,28.8105652 21.2592593,33.7121201 C21.2893333,38.5797665 25.3405185,42.6411994 30.3333333,42.6411994 C34.0122222,42.6411994 37.1715556,40.2969555 38.5943704,37.4957055 C38.767037,37.1566201 39.1253333,36.8504311 39.5131852,36.8504311 L40.8571852,36.8504311 C41.245037,36.8504311 41.6038519,37.1576323 41.776,37.4967177 C43.4228148,40.7357421 47.3894815,43.3639067 51.7979259,42.4620409 C55.9434815,41.6138213 59.0312593,38.022047 59.1095556,33.8887482 C59.1987407,29.1795104 55.5172593,25.2304311 50.8148148,24.8397238" id="Fill-382" fill="#25C6DA" mask="url(#mask-4)"></path>
                    <path d="M59.0894889,33.4051213 C58.8447481,28.8502433 55.297563,25.2119079 50.8149704,24.8399262 L50.8149704,24.8014628 L30.5709704,24.8014628 C25.7134889,24.8014628 21.5254148,28.3441457 21.2827481,33.4051213 L59.0894889,33.4051213 Z" id="Fill-383" fill-opacity="0.799999952" fill="#21ADBF" mask="url(#mask-4)"></path>
                    <g id="Group-386" mask="url(#mask-4)" fill="#08183A">
                        <g transform="translate(29.555556, 32.390244)">
                            <path d="M0.172822222,1.35224207 C0.172822222,0.606760366 0.791933333,0.00247987805 1.55571111,0.00247987805 C2.31897037,0.00247987805 2.93808148,0.606760366 2.93808148,1.35224207 C2.93808148,2.09772378 2.31897037,2.70200427 1.55571111,2.70200427 C0.791933333,2.70200427 0.172822222,2.09772378 0.172822222,1.35224207" id="Fill-384"></path>
                            <path d="M21.086437,1.35224207 C21.086437,0.606760366 20.4673259,0.00247987805 19.7035481,0.00247987805 C18.9402889,0.00247987805 18.3211778,0.606760366 18.3211778,1.35224207 C18.3211778,2.09772378 18.9402889,2.70200427 19.7035481,2.70200427 C20.4673259,2.70200427 21.086437,2.09772378 21.086437,1.35224207" id="Fill-385"></path>
                        </g>
                    </g>
                    <polygon id="Fill-387" fill="#333333" mask="url(#mask-4)" points="60.8025185 37.3722683 67.5873333 37.3722683 67.5873333 30.3142317 60.8025185 30.3142317"></polygon>
                    <path d="M51.1822889,66.5779945 C48.2018444,66.5779945 45.4127333,65.7849396 43.1986593,64.2367872 C40.8186593,62.5717262 37.9813259,59.2962628 37.9813259,53.1431287 C37.9813259,51.3262384 39.4902148,49.8534945 41.3516963,49.8534945 C43.2131778,49.8534945 44.7220667,51.3262384 44.7220667,53.1431287 C44.7220667,55.8406287 45.530437,57.7734152 47.1248815,58.8883482 C48.9728815,60.1804152 51.8371778,60.3681774 54.7865111,59.390903 C59.6216963,57.7880921 60.1106593,52.5778177 60.1479926,52.0433787 L60.1479926,33.9114213 C60.1479926,32.0945311 61.6568815,30.6217872 63.518363,30.6217872 C65.3798444,30.6217872 66.8887333,32.0945311 66.8887333,33.9114213 L66.8887333,52.1309335 C66.8887333,52.1744579 66.8882148,52.2179823 66.8861407,52.2615067 C66.8690296,52.6785311 66.3614,62.5023909 56.954437,65.6204579 C55.0188074,66.2621896 53.062437,66.5779945 51.1822889,66.5779945" id="Fill-388" fill="#2C2C3A" mask="url(#mask-4)"></path>
                    <path d="M31.3605704,27.3260293 L24.3496815,33.155261" id="Stroke-389" stroke="#FFFFFF" opacity="0.51329291" stroke-linecap="round" stroke-linejoin="round" mask="url(#mask-4)"></path>
                    <path d="M33.953163,29.8565171 L26.9422741,35.6857488" id="Stroke-390" stroke="#FFFFFF" opacity="0.51329291" stroke-linecap="round" stroke-linejoin="round" mask="url(#mask-4)"></path>
                    <path d="M11.2608741,59.0492872 C11.2608741,56.4115067 13.4516148,54.2737506 16.1536148,54.2737506 C18.8561333,54.2737506 21.0468741,56.4115067 21.0468741,59.0492872 C21.0468741,61.6870677 18.8561333,63.8248238 16.1536148,63.8248238 C13.4516148,63.8248238 11.2608741,61.6870677 11.2608741,59.0492872" id="Fill-391" fill-opacity="0.400000006" fill="#FFFFFF" mask="url(#mask-4)"></path>
                    <path d="M11.2608741,59.0492872 C11.2608741,56.4115067 13.4516148,54.2737506 16.1536148,54.2737506 C18.8561333,54.2737506 21.0468741,56.4115067 21.0468741,59.0492872 C21.0468741,61.6870677 18.8561333,63.8248238 16.1536148,63.8248238 C13.4516148,63.8248238 11.2608741,61.6870677 11.2608741,59.0492872 L11.2608741,59.0492872 Z" id="Stroke-392" stroke-opacity="0.8" stroke="#FFFFFF" stroke-width="0.5" mask="url(#mask-4)"></path>
                    <path d="M10.9151259,48.6742872 C10.9151259,47.9465189 11.5192,47.3569152 12.2648296,47.3569152 C13.0104593,47.3569152 13.6145333,47.9465189 13.6145333,48.6742872 C13.6145333,49.4020555 13.0104593,49.9916591 12.2648296,49.9916591 C11.5192,49.9916591 10.9151259,49.4020555 10.9151259,48.6742872" id="Fill-393" fill-opacity="0.599999964" fill="#FFFFFF" mask="url(#mask-4)"></path>
                    <path d="M10.9151259,48.6742872 C10.9151259,47.9465189 11.5192,47.3569152 12.2648296,47.3569152 C13.0104593,47.3569152 13.6145333,47.9465189 13.6145333,48.6742872 C13.6145333,49.4020555 13.0104593,49.9916591 12.2648296,49.9916591 C11.5192,49.9916591 10.9151259,49.4020555 10.9151259,48.6742872 L10.9151259,48.6742872 Z" id="Stroke-394" stroke="#FFFFFF" stroke-width="0.5" mask="url(#mask-4)"></path>
                    <path d="M73.6558667,33.4913604 C73.6558667,32.7635921 74.2599407,32.1739884 75.0055704,32.1739884 C75.7512,32.1739884 76.3552741,32.7635921 76.3552741,33.4913604 C76.3552741,34.2191287 75.7512,34.8087323 75.0055704,34.8087323 C74.2599407,34.8087323 73.6558667,34.2191287 73.6558667,33.4913604" id="Fill-395" fill-opacity="0.599999964" fill="#FFFFFF" mask="url(#mask-4)"></path>
                    <path d="M73.6558667,33.4913604 C73.6558667,32.7635921 74.2599407,32.1739884 75.0055704,32.1739884 C75.7512,32.1739884 76.3552741,32.7635921 76.3552741,33.4913604 C76.3552741,34.2191287 75.7512,34.8087323 75.0055704,34.8087323 C74.2599407,34.8087323 73.6558667,34.2191287 73.6558667,33.4913604 L73.6558667,33.4913604 Z" id="Stroke-396" stroke="#FFFFFF" stroke-width="0.5" mask="url(#mask-4)"></path>
                    <path d="M17.4500148,48.8752079 C18.1956444,48.8752079 18.7997185,49.4648116 18.7997185,50.1925799 C18.7997185,50.9203482 18.1956444,51.5099518 17.4500148,51.5099518 C16.7043852,51.5099518 16.1003111,50.9203482 16.1003111,50.1925799 C16.1003111,49.4648116 16.7043852,48.8752079 17.4500148,48.8752079 Z" id="Fill-397" fill="#FFFFFF" opacity="0.480000019" mask="url(#mask-4)"></path>
                    <path d="M16.1003111,50.1925799 C16.1003111,49.4648116 16.7043852,48.8752079 17.4500148,48.8752079 C18.1956444,48.8752079 18.7997185,49.4648116 18.7997185,50.1925799 C18.7997185,50.9203482 18.1956444,51.5099518 17.4500148,51.5099518 C16.7043852,51.5099518 16.1003111,50.9203482 16.1003111,50.1925799 L16.1003111,50.1925799 Z" id="Stroke-398" stroke="#FFFFFF" stroke-width="0.5" opacity="0.600000024" mask="url(#mask-4)"></path>
                    <path d="M69.195,55.2535555 C69.195,53.798525 70.4036667,52.6188116 71.8944074,52.6188116 C73.3856667,52.6188116 74.5943333,53.798525 74.5943333,55.2535555 C74.5943333,56.708586 73.3856667,57.8882994 71.8944074,57.8882994 C70.4036667,57.8882994 69.195,56.708586 69.195,55.2535555" id="Fill-399" fill-opacity="0.599999964" fill="#FFFFFF" mask="url(#mask-4)"></path>
                    <path d="M69.195,55.2535555 C69.195,53.798525 70.4036667,52.6188116 71.8944074,52.6188116 C73.3856667,52.6188116 74.5943333,53.798525 74.5943333,55.2535555 C74.5943333,56.708586 73.3856667,57.8882994 71.8944074,57.8882994 C70.4036667,57.8882994 69.195,56.708586 69.195,55.2535555 L69.195,55.2535555 Z" id="Stroke-400" stroke="#FFFFFF" stroke-width="0.5" mask="url(#mask-4)"></path>
                </g>
                <circle id="Oval-31" stroke="#FFFFFF" stroke-width="2" cx="42" cy="42" r="41"></circle>
            </g>
        </g>
    </g>
</svg>