<?xml version="1.0" encoding="UTF-8"?>
<svg width="84px" height="84px" viewBox="0 0 84 84" version="1.1" xmlns="http://www.w3.org/2000/svg" xmlns:xlink="http://www.w3.org/1999/xlink">
    <!-- Generator: Sketch 49.3 (51167) - http://www.bohemiancoding.com/sketch -->
    <title>img-level-3-big</title>
    <desc>Created with Sketch.</desc>
    <defs>
        <polygon id="path-1" points="84 82.9780406 84 0.00279356109 -2.38002685e-05 0.00279356109 -2.38002685e-05 82.9780406"></polygon>
        <path d="M0.119622222,11.2251789 C7.26045407,16.7259938 16.246931,19.9962692 26.0042222,19.9781707 C36.5077848,19.958647 46.103565,16.1323698 53.4559926,9.82345588 L53.4559926,0.4683 L0.119622222,0.4683 L0.119622222,11.2251789 L0.119622222,11.2251789 Z" id="path-3"></path>
        <path d="M0.146069841,5.03619045 C7.74140443,12.3957731 18.1541421,16.9262933 29.6338519,16.905 C41.7594284,16.8824613 52.6752059,11.7866722 60.3264102,3.65478553 L60.3264102,0.480289953 L0.146069841,0.480289953 L0.146069841,5.03619045 L0.146069841,5.03619045 Z" id="path-5"></path>
        <path d="M0.0829604967,11.8574771 C2.36870868,12.9349056 4.76841469,13.8141952 7.25925926,14.4728875 L7.25925926,0.0788740267 L0.082962963,0.0788740267 L0.082962963,11.8574783 L0.0829604967,11.8574771 Z" id="path-7"></path>
        <path d="M0.40343019,16.0730194 C3.145899,16.6237338 5.98527552,16.9103936 8.89311111,16.905 C12.0877899,16.8990618 15.1984911,16.540967 18.1876365,15.8679717 L18.1876365,0.188612748 L0.40343019,0.188612748 L0.40343019,16.0730194 L0.40343019,16.0730194 Z" id="path-9"></path>
        <path d="M0.0829604967,11.345282 C2.36870868,12.4227104 4.76841469,13.3020001 7.25925926,13.9606924 L7.25925926,0.0788740267 L0.082962963,0.0788740267 L0.082962963,11.3452832 L0.0829604967,11.345282 Z" id="path-11"></path>
        <path d="M0.226074074,14.2684119 C2.72140443,13.559378 5.12128355,12.628036 7.40237402,11.497523 L7.40237037,0.0788740267 L0.226074074,0.0788740267 L0.226074074,14.2684119 L0.226074074,14.2684119 Z" id="path-13"></path>
        <path d="M0.226074074,13.7562167 C2.72140443,13.0471829 5.12128355,12.1158409 7.40237402,10.9853279 L7.40237037,0.0788740267 L0.226074074,0.0788740267 L0.226074074,13.7562167 L0.226074074,13.7562167 Z" id="path-15"></path>
    </defs>
    <g id="img-level-3-big" stroke="none" stroke-width="1" fill="none" fill-rule="evenodd">
        <g id="Page-1-Copy-6">
            <g>
                <g id="Group-3" transform="translate(0.000000, 0.509634)">
                    <mask id="mask-2" fill="white">
                        <use xlink:href="#path-1"></use>
                    </mask>
                    <g id="Clip-2"></g>
                    <path d="M5.18518515e-05,41.5680146 C-0.0435037037,18.6549659 18.7258296,0.0453804878 41.9217556,0.00286829268 C65.117163,-0.0401560976 83.9564963,18.4997707 84.0000519,41.4128195 C84.0430889,64.3258683 65.2742741,82.9354537 42.0783481,82.9779659 C18.8824222,83.0209902 0.0436074074,64.4810634 5.18518515e-05,41.5680146" id="Fill-1" fill="#2DCC82" mask="url(#mask-2)"></path>
                </g>
                <g id="Group-65" transform="translate(12.444444, 10.729146)">
                    <g id="Group-6" transform="translate(3.629630, 52.780488)">
                        <mask id="mask-4" fill="white">
                            <use xlink:href="#path-3"></use>
                        </mask>
                        <g id="Clip-5"></g>
                        <path d="M53.4559926,42.0027146 C53.4559926,47.636861 48.7893259,52.2466171 43.0856222,52.2466171 L10.4899926,52.2466171 C4.78628889,52.2466171 0.119622222,47.636861 0.119622222,42.0027146 L0.119622222,10.7122024 C0.119622222,5.0780561 4.78628889,0.4683 10.4899926,0.4683 L43.0856222,0.4683 C48.7893259,0.4683 53.4559926,5.0780561 53.4559926,10.7122024 L53.4559926,42.0027146 Z" id="Fill-4" fill="#2E2E3D" mask="url(#mask-4)"></path>
                    </g>
                    <path d="M51.8672519,23.8914024 C51.7842889,23.8806463 51.7018444,23.8791098 51.6188815,23.8739878 C51.8008815,27.3558902 51.3902148,30.7829878 50.4771037,33.9995732 C50.4905852,34.001622 50.5035481,34.0057195 50.5170296,34.0072561 C52.8731778,34.314061 55.0851778,32.298061 55.4579926,29.505061 C55.8308074,26.7115488 54.2228815,24.1982073 51.8672519,23.8914024" id="Fill-7" fill="#DE7662"></path>
                    <path d="M51.6588593,25.0061951 C51.7008593,27.683439 51.3954519,30.3181707 50.7841185,32.8386829 C52.4044889,32.4028049 53.6831556,31.0480488 53.9159704,29.3040244 C54.156563,27.4980244 53.2030074,25.811878 51.6588593,25.0061951" id="Fill-9" fill="#B25252"></path>
                    <path d="M7.97315556,23.8914024 C8.05611852,23.8806463 8.13856296,23.8791098 8.22152593,23.8739878 C8.03952593,27.3558902 8.45019259,30.7829878 9.3633037,33.9995732 C9.34982222,34.001622 9.33685926,34.0057195 9.32337778,34.0072561 C6.96722963,34.314061 4.75522963,32.298061 4.38241481,29.505061 C4.0096,26.7115488 5.61752593,24.1982073 7.97315556,23.8914024" id="Fill-11" fill="#DE7662"></path>
                    <path d="M8.1816,25.0061951 C8.1396,27.683439 8.44500741,30.3181707 9.05634074,32.8386829 C7.43597037,32.4028049 6.1573037,31.0480488 5.92448889,29.3040244 C5.6838963,27.4980244 6.63745185,25.811878 8.1816,25.0061951" id="Fill-13" fill="#B25252"></path>
                    <g id="Group-17" transform="translate(0.000000, 55.853659)">
                        <mask id="mask-6" fill="white">
                            <use xlink:href="#path-5"></use>
                        </mask>
                        <g id="Clip-16"></g>
                        <path d="M1.7151037,39.6509707 C-3.56704444,24.0909951 4.92058519,7.24797073 20.6721407,2.03023902 C36.4242148,-3.18749268 53.4756963,5.19611707 58.7573259,20.7560927 C64.0394741,36.3155561 55.552363,53.1590927 39.8002889,58.3768244 C24.0487333,63.5945561 6.99725185,55.2109463 1.7151037,39.6509707" id="Fill-15" fill="#25C6DA" mask="url(#mask-6)"></path>
                    </g>
                    <g id="Group-20" transform="translate(11.407407, 56.878049)">
                        <mask id="mask-8" fill="white">
                            <use xlink:href="#path-7"></use>
                        </mask>
                        <g id="Clip-19"></g>
                        <path d="M7.25925926,43.0271049 C7.25925926,43.8722268 6.55925926,44.5636902 5.7037037,44.5636902 L1.63851852,44.5636902 C0.782962963,44.5636902 0.082962963,43.8722268 0.082962963,43.0271049 L0.082962963,5.12466585 C0.082962963,4.2795439 0.689111111,3.24183659 1.43007407,2.81927561 L5.91266667,0.25932439 C6.65311111,-0.163236585 7.25925926,0.181982927 7.25925926,1.02710488 L7.25925926,43.0271049 Z" id="Fill-18" fill="#626282" mask="url(#mask-8)"></path>
                    </g>
                    <g id="Group-23" transform="translate(20.740741, 55.853659)">
                        <mask id="mask-10" fill="white">
                            <use xlink:href="#path-9"></use>
                        </mask>
                        <g id="Clip-22"></g>
                        <path d="M0.867014815,11.7642512 C-0.693725926,7.16627561 1.81434815,2.18876341 6.46908889,0.646543902 C11.1238296,-0.895163415 16.1627926,1.58232439 17.7240519,6.1803 C19.2847926,10.7787878 16.7767185,15.7563 12.1219778,17.2980073 C7.46671852,18.8397146 2.42775556,16.3622268 0.867014815,11.7642512" id="Fill-21" fill="#F5A17D" mask="url(#mask-10)"></path>
                    </g>
                    <path d="M24.8888889,49.1978366 L24.8888889,59.441739 L24.890963,59.441739 C24.9122222,61.6733732 27.2237778,63.4773244 30.0740741,63.4773244 C32.9243704,63.4773244 35.2359259,61.6733732 35.2571852,59.441739 L35.2592593,59.441739 L35.2592593,49.1978366 L24.8888889,49.1978366 Z" id="Fill-24" fill="#ED8E66"></path>
                    <polygon id="Fill-26" fill-opacity="0.799999952" fill="#B25252" points="35.2592593 57.6490561 24.8888889 53.5514951 24.8888889 51.2466171 35.2592593 51.2466171"></polygon>
                    <path d="M51.1946296,17.4429683 C47.313,4.40043171 34.7835185,-2.62688537 23.2086296,1.74623659 C11.6332222,6.11987073 5.39648148,20.2385293 9.27811111,33.2810659 C13.1597407,46.3236024 25.6892222,53.3514317 37.2641111,48.9777976 C48.8395185,44.6041634 55.0762593,30.4855049 51.1946296,17.4429683" id="Fill-28" fill="#DE7662"></path>
                    <path d="M8.39927407,25.5867683 C8.39927407,12.7905976 18.2573481,2.41710976 30.4176444,2.41710976 C42.5774222,2.41710976 52.4354963,12.7905976 52.4354963,25.5867683 C52.4354963,38.382939 42.5774222,52.4898171 30.4176444,52.4898171 C18.2573481,52.4898171 8.39927407,38.382939 8.39927407,25.5867683" id="Fill-30" fill="#F5A17D"></path>
                    <path d="M8.28478519,20.8596171 C8.28478519,20.8596171 17.3189333,16.3507634 31.3204889,16.3507634 C45.3220444,16.3507634 53.3362667,20.9886902 53.3362667,20.9886902 C53.3362667,20.9886902 52.4293778,31.217739 39.6364889,25.8781049 C36.6451556,24.6298854 26.2820444,24.4926171 22.1090074,26.0005195 C12.690637,29.4045683 7.70404444,25.0667878 8.28478519,20.8596171" id="Fill-32" fill-opacity="0.699999988" fill="#DE7662"></path>
                    <path d="M30.4173852,50.4409341 C19.4642,50.4409341 11.1030889,37.3743244 11.1030889,25.8483976 C11.1030889,14.3219585 15.685237,4.97849512 30.4173852,4.97849512 C41.3705704,4.97849512 49.7316815,14.3219585 49.7316815,25.8483976 C49.7316815,37.3743244 41.3705704,50.4409341 30.4173852,50.4409341 M30.4173852,2.41751951 C18.2570889,2.41751951 8.39953333,12.7904951 8.39953333,25.5866659 C8.39953333,38.3828366 18.2570889,52.4897146 30.4173852,52.4897146 C42.5776815,52.4897146 52.4357556,38.3828366 52.4357556,25.5866659 C52.4357556,12.7904951 42.5776815,2.41751951 30.4173852,2.41751951" id="Fill-34" fill-opacity="0.699999988" fill="#DE7662"></path>
                    <path d="M10.3189852,31.1617049 C10.3189852,32.0068268 9.82068889,32.5830463 9.21194815,32.4421927 C8.60320741,32.301339 8.10491111,31.4946317 8.10491111,30.6495098 L8.10491111,20.3584854 C8.10491111,19.5133634 8.60320741,18.8219 9.21194815,18.8219 C9.82068889,18.8219 10.3189852,19.5133634 10.3189852,20.3584854 L10.3189852,31.1617049 Z" id="Fill-36" fill="#363132"></path>
                    <path d="M52.7470741,31.1617049 C52.7470741,32.0068268 52.2487778,32.6982902 51.640037,32.6982902 C51.0312963,32.6982902 50.533,32.0068268 50.533,31.1617049 L50.533,20.3584854 C50.533,19.5133634 51.0312963,18.8219 51.640037,18.8219 C52.2487778,18.8219 52.7470741,19.5133634 52.7470741,20.3584854 L52.7470741,31.1617049 Z" id="Fill-38" fill="#363132"></path>
                    <path d="M25.5890444,43.8917 C25.5890444,44.3255293 28.1214889,45.1773098 30.1966,45.1773098 C32.2722296,45.1773098 35.0774148,44.1964561 35.0774148,43.8117976 C35.0774148,43.5152366 33.8127481,42.9216024 32.1140815,42.9216024 C31.2191185,42.9216024 31.1283778,43.1336512 30.4278593,43.1269927 C29.8082296,43.1208463 29.6086,42.881139 28.9184519,42.881139 C26.8433407,42.881139 25.5890444,43.4921878 25.5890444,43.8917" id="Fill-40" fill="#F5A17D"></path>
                    <polygon id="Fill-42" fill="#363132" points="34.0601852 43.9274 26.6386296 43.9274 25.6021111 43.6713024 35.0972222 43.6713024"></polygon>
                    <polygon id="Fill-44" fill="#FFC79B" points="33.1529852 38.3136902 27.3196519 38.3136902 29.1474296 37.2893 31.3252074 37.2893"></polygon>
                    <path d="M19.3580074,28.5392659 C19.3580074,27.7848024 19.9771185,27.1732415 20.7408963,27.1732415 C21.5041556,27.1732415 22.1232667,27.7848024 22.1232667,28.5392659 C22.1232667,29.2937293 21.5041556,29.9052902 20.7408963,29.9052902 C19.9771185,29.9052902 19.3580074,29.2937293 19.3580074,28.5392659" id="Fill-46" fill="#451500"></path>
                    <path d="M41.3086593,28.5392659 C41.3086593,27.7848024 40.6895481,27.1732415 39.9257704,27.1732415 C39.1625111,27.1732415 38.5434,27.7848024 38.5434,28.5392659 C38.5434,29.2937293 39.1625111,29.9052902 39.9257704,29.9052902 C40.6895481,29.9052902 41.3086593,29.2937293 41.3086593,28.5392659" id="Fill-48" fill="#451500"></path>
                    <g id="Group-52" transform="translate(11.407407, 57.390244)">
                        <mask id="mask-12" fill="white">
                            <use xlink:href="#path-11"></use>
                        </mask>
                        <g id="Clip-51"></g>
                        <path d="M7.25925926,43.0271049 C7.25925926,43.8722268 6.55925926,44.5636902 5.7037037,44.5636902 L1.63851852,44.5636902 C0.782962963,44.5636902 0.082962963,43.8722268 0.082962963,43.0271049 L0.082962963,5.12466585 C0.082962963,4.2795439 0.689111111,3.24183659 1.43007407,2.81927561 L5.91266667,0.25932439 C6.65311111,-0.163236585 7.25925926,0.181982927 7.25925926,1.02710488 L7.25925926,43.0271049 Z" id="Fill-50" fill="#47475E" mask="url(#mask-12)"></path>
                    </g>
                    <g id="Group-55" transform="translate(40.962963, 56.878049)">
                        <mask id="mask-14" fill="white">
                            <use xlink:href="#path-13"></use>
                        </mask>
                        <g id="Clip-54"></g>
                        <path d="M0.226074074,43.0271049 C0.226074074,43.8722268 0.926074074,44.5636902 1.78162963,44.5636902 L5.84681481,44.5636902 C6.70237037,44.5636902 7.40237037,43.8722268 7.40237037,43.0271049 L7.40237037,5.12466585 C7.40237037,4.2795439 6.79622222,3.24183659 6.05525926,2.81927561 L1.57266667,0.25932439 C0.832222222,-0.163236585 0.226074074,0.181982927 0.226074074,1.02710488 L0.226074074,43.0271049 Z" id="Fill-53" fill="#626282" mask="url(#mask-14)"></path>
                    </g>
                    <g id="Group-58" transform="translate(40.962963, 57.390244)">
                        <mask id="mask-16" fill="white">
                            <use xlink:href="#path-15"></use>
                        </mask>
                        <g id="Clip-57"></g>
                        <path d="M0.226074074,43.0271049 C0.226074074,43.8722268 0.926074074,44.5636902 1.78162963,44.5636902 L5.84681481,44.5636902 C6.70237037,44.5636902 7.40237037,43.8722268 7.40237037,43.0271049 L7.40237037,5.12466585 C7.40237037,4.2795439 6.79622222,3.24183659 6.05525926,2.81927561 L1.57266667,0.25932439 C0.832222222,-0.163236585 0.226074074,0.181982927 0.226074074,1.02710488 L0.226074074,43.0271049 Z" id="Fill-56" fill="#47475E" mask="url(#mask-16)"></path>
                    </g>
                    <path d="M53.3360074,18.9783244 C51.4091926,8.73442195 42.0297111,0.326739024 30.741563,0.326739024 C19.4528963,0.326739024 10.0734148,8.73442195 8.1466,18.9783244 C8.1466,18.9783244 17.0827481,14.3685683 31.4529704,14.3685683 C45.8231926,14.3685683 53.3360074,18.9783244 53.3360074,18.9783244" id="Fill-59" fill="#328A81"></path>
                    <path d="M8.28478519,18.8108366 C8.28478519,18.8108366 17.3189333,14.3019829 31.3204889,14.3019829 C45.3220444,14.3019829 53.3362667,18.9399098 53.3362667,18.9399098 C53.3362667,18.9399098 52.4293778,29.1689585 39.6364889,23.8293244 C36.6451556,22.5811049 26.2820444,22.4438366 22.1090074,23.951739 C12.690637,27.3557878 7.70404444,23.0180073 8.28478519,18.8108366" id="Fill-63" fill="#48C8BC"></path>
                </g>
                <path d="M37.8,54.1937183 C37.8,54.6203171 40.3324444,55.4579012 42.4075556,55.4579012 C44.4831852,55.4579012 47.2883704,54.4933951 47.2883704,54.1151476 C47.2883704,53.8235293 46.0237037,53.239789 44.325037,53.239789 C43.4300741,53.239789 43.3393333,53.4483037 42.6388148,53.4417561 C42.0191852,53.4357122 41.8195556,53.2 41.1294074,53.2 C39.0542963,53.2 37.8,53.8008646 37.8,54.1937183" id="Fill-39" fill="#DE7662"></path>
                <circle id="Oval-31" stroke="#FFFFFF" stroke-width="2" cx="42" cy="42" r="41"></circle>
            </g>
        </g>
    </g>
</svg>