<?xml version="1.0" encoding="UTF-8"?>
<svg width="84px" height="85px" viewBox="0 0 84 85" version="1.1" xmlns="http://www.w3.org/2000/svg" xmlns:xlink="http://www.w3.org/1999/xlink">
    <!-- Generator: Sketch 49.3 (51167) - http://www.bohemiancoding.com/sketch -->
    <title>img-level-4-big</title>
    <desc>Created with Sketch.</desc>
    <defs>
        <polygon id="path-1" points="84 41.4908012 84 0.00307317073 0 0.00307317073 0 41.4908012 0 82.9785293 84 82.9785293 84 41.4908012"></polygon>
        <path d="M0.145503706,4.0124282 C7.76349365,11.6548805 18.3585558,16.3933171 30.0735556,16.3933171 C41.9562316,16.3933171 52.6863763,11.5187036 60.3265035,3.68354135 L60.3265035,0.480033855 L0.145503706,0.480033855 L0.145503706,4.0124282 L0.145503706,4.0124282 Z" id="path-3"></path>
        <path d="M0,41.490878 C0,64.4034146 18.8045926,82.9786829 41.9994815,82.9786829 C65.1954074,82.9786829 83.9994815,64.4034146 83.9994815,41.490878 C83.9994815,18.5773171 65.1954074,0.00307317073 41.9994815,0.00307317073 C18.8045926,0.00307317073 0,18.5773171 0,41.490878 Z" id="path-5"></path>
        <path d="M4.44939602,0.130257186 C2.7000241,1.85310819 1.20020435,3.85311783 0.0131669377,6.06374978 L10.5433795,6.06375551 L10.5433795,0.130257186 L4.44939602,0.130257186 L4.44939602,0.130257186 Z" id="path-7"></path>
        <path d="M10.5252373,6.06387805 C9.38692712,3.94400035 7.96097796,2.01780376 6.30314008,0.343961098 L0.0613148148,0.343961098 L0.0613148148,6.06387805 L10.5252373,6.06387805 L10.5252373,6.06387805 Z" id="path-9"></path>
    </defs>
    <g id="img-level-4-big" stroke="none" stroke-width="1" fill="none" fill-rule="evenodd">
        <g id="Page-1">
            <g>
                <g id="Group-3" transform="translate(0.000000, 0.509122)">
                    <mask id="mask-2" fill="white">
                        <use xlink:href="#path-1"></use>
                    </mask>
                    <g id="Clip-2"></g>
                    <path d="M0,41.4907244 C0,18.5771634 18.8040741,0.0029195122 42,0.0029195122 C65.1954074,0.0029195122 84,18.5771634 84,41.4907244 C84,64.403261 65.1954074,82.9785293 42,82.9785293 C18.8040741,82.9785293 0,64.403261 0,41.4907244" id="Fill-1" fill="#5CE1F2" mask="url(#mask-2)"></path>
                </g>
                <g id="Group-161" transform="translate(0.000000, 0.509122)">
                    <g id="Group-6" transform="translate(11.925926, 66.585366)">
                        <mask id="mask-4" fill="white">
                            <use xlink:href="#path-3"></use>
                        </mask>
                        <g id="Clip-5"></g>
                        <path d="M1.71453333,39.6512268 C-3.56761481,24.0912512 4.92001481,7.24771463 20.6720889,2.02998293 C36.424163,-3.18774878 53.4751259,5.19586098 58.7572741,20.7558366 C64.0399407,36.3158122 55.5517926,53.1593488 39.7997185,58.3770805 C24.0486815,63.5948122 6.99668148,55.2106902 1.71453333,39.6512268" id="Fill-4" fill="#EE3727" mask="url(#mask-4)"></path>
                    </g>
                    <path d="M36.8145556,59.9297488 L36.8145556,70.173139 L36.8171481,70.173139 C36.8384074,72.4047732 39.1494444,74.2087244 41.9997407,74.2087244 C44.8505556,74.2087244 47.1610741,72.4047732 47.1828519,70.173139 L47.1849259,70.173139 L47.1849259,59.9297488 L36.8145556,59.9297488" id="Fill-7" fill="#ED8E66"></path>
                    <path d="M36.8145556,62.2375976 L36.8145556,64.2833049 L47.1849259,68.3808659 L47.1849259,62.4685976 C45.6272963,62.9572317 44.0064074,63.2210122 42.343,63.2210122 C40.4332963,63.2210122 38.5816667,62.8737439 36.8145556,62.2375976" id="Fill-9" fill="#CA6A5A"></path>
                    <path d="M22.0755111,46.4971244 C22.631363,47.8646854 23.2878074,49.1523439 24.0308444,50.3529293 C23.4122519,49.2086854 22.8621037,48.0224415 22.3871407,46.8070024 C22.281363,46.7055878 22.1776593,46.6021244 22.0755111,46.4971244" id="Fill-11" fill="#B4A29C"></path>
                    <path d="M20.3252519,36.3184756 C20.3252519,23.5228171 30.1828074,13.1488171 42.3431037,13.1488171 C54.5034,13.1488171 64.3609556,23.5228171 64.3609556,36.3184756 C64.3609556,49.1141341 54.5034,63.2210122 42.3431037,63.2210122 C30.1828074,63.2210122 20.3252519,49.1141341 20.3252519,36.3184756" id="Fill-13" fill="#F5A17D"></path>
                    <path d="M53.4074074,28.0628634 L53.0926667,28.0644 C53.1574815,28.1002537 53.2228148,28.1371317 53.2871111,28.1734976 L53.4074074,28.1734976 L53.4074074,28.0628634" id="Fill-15" fill="#E7876D"></path>
                    <path d="M62.805037,45.4189537 C61.7052593,46.8428561 60.3073333,48.0306366 58.7040741,48.8880512 C58.6988889,48.8993195 58.6926667,48.9105878 58.6874815,48.9218561 C58.6983704,48.9187829 58.7102963,48.9172463 58.7217037,48.9172463 C58.7937778,48.9172463 58.8513333,48.9746122 58.8513333,49.0452951 C58.8513333,49.115978 58.7937778,49.1733439 58.7217037,49.1733439 C58.6677778,49.1733439 58.6221481,49.1405634 58.6024444,49.0944659 C57.9646667,50.375978 57.2371852,51.6021732 56.4303704,52.7500024 C56.4531852,52.7290024 56.4842963,52.7161976 56.5185185,52.7161976 C56.5900741,52.7161976 56.6476296,52.7730512 56.6476296,52.8437341 C56.6476296,52.9144171 56.5900741,52.9717829 56.5185185,52.9717829 C56.446963,52.9717829 56.3888889,52.9144171 56.3888889,52.8437341 C56.3888889,52.8263195 56.3925185,52.8099293 56.3987407,52.7945634 C55.886963,53.5193195 55.343037,54.2128317 54.7700741,54.8674171 C54.7825185,54.8873927 54.7897778,54.9104415 54.7897778,54.9360512 C54.7897778,55.006222 54.7322222,55.0635878 54.6601481,55.0635878 C54.6414815,55.0635878 54.6228148,55.0594902 54.6062222,55.0523195 C54.3412593,55.3493927 54.0705926,55.6367341 53.7931852,55.9174171 C53.7942222,55.9169049 53.7952593,55.9169049 53.7957778,55.9169049 C53.8673333,55.9169049 53.9254074,55.9752951 53.9254074,56.0449537 C53.9254074,56.1161488 53.8673333,56.1730024 53.7957778,56.1730024 C53.7242222,56.1730024 53.6661481,56.1161488 53.6661481,56.0449537 L53.6661481,56.0439293 C52.2588889,57.4427341 50.7022963,58.6166854 49.0285185,59.4863927 C49.085037,59.4991976 49.1296296,59.5483683 49.1296296,59.6082951 C49.1296296,59.6820512 49.068963,59.7368561 48.9994815,59.7368561 C48.9294815,59.7368561 48.8688148,59.6820512 48.8688148,59.6082951 C48.8688148,59.5924171 48.8719259,59.5775634 48.8776296,59.5637341 C48.0179259,59.9996122 47.1286667,60.3545634 46.2119259,60.6193683 C46.2124444,60.6250024 46.212963,60.6306366 46.212963,60.6362707 C46.212963,60.7054171 46.1528148,60.760222 46.0828148,60.760222 C46.032,60.760222 45.9858519,60.731539 45.9640741,60.6885146 C44.7963704,61.0040268 43.5866667,61.172539 42.3432593,61.172539 C41.3601481,61.172539 40.3988148,61.067539 39.4618519,60.8677829 C39.4385185,60.8949293 39.4032593,60.9128561 39.3622963,60.9128561 C39.3042222,60.9128561 39.2528889,60.8713683 39.2368148,60.8175878 C38.8686667,60.7325634 38.5036296,60.6331976 38.1437778,60.5194902 C38.15,60.5353683 38.1536296,60.5527829 38.1536296,60.571222 C38.1536296,60.6403683 38.0981481,60.6961976 38.0234815,60.6961976 C37.9534815,60.6961976 37.8928148,60.6403683 37.8928148,60.571222 C37.8928148,60.5220512 37.9192593,60.4815878 37.9581481,60.4595634 C34.5499259,59.3363195 31.528,56.9633195 29.1080741,53.8947585 C29.1174074,53.9126854 29.1231111,53.932661 29.1231111,53.953661 C29.1231111,54.0243439 29.065037,54.0817098 28.9934815,54.0817098 C28.9219259,54.0817098 28.8638519,54.0243439 28.8638519,53.953661 C28.8638519,53.882978 28.9219259,53.8261244 28.9934815,53.8261244 C29.0266667,53.8261244 29.0572593,53.8379049 29.0795556,53.8583927 C27.9937778,52.475978 27.0298519,50.9537341 26.2085185,49.3423683 C24.7805185,48.7297829 23.4873333,47.8657098 22.387037,46.8070024 C25.8958519,55.7811732 33.5123704,63.2213195 42.3432593,63.2213195 C47.7721481,63.2213195 52.7431852,60.4088561 56.5817778,56.1566122 C56.5631111,56.1668561 56.5413333,56.1730024 56.5185185,56.1730024 C56.446963,56.1730024 56.3888889,56.1161488 56.3888889,56.0449537 C56.3888889,55.9752951 56.446963,55.9169049 56.5185185,55.9169049 C56.5900741,55.9169049 56.6476296,55.9752951 56.6476296,56.0449537 C56.6476296,56.0623683 56.6445185,56.0787585 56.6382963,56.0941244 C59.3361481,53.0870268 61.4698519,49.3690024 62.805037,45.4189537 M60.537037,48.1489537 C60.464963,48.1489537 60.4068889,48.0915878 60.4068889,48.0209049 C60.4068889,47.950222 60.464963,47.8928561 60.537037,47.8928561 C60.6085926,47.8928561 60.6666667,47.950222 60.6666667,48.0209049 C60.6666667,48.0915878 60.6085926,48.1489537 60.537037,48.1489537 M60.2772593,49.3013927 C60.2057037,49.3013927 60.1476296,49.2440268 60.1476296,49.1733439 C60.1476296,49.102661 60.2057037,49.0452951 60.2772593,49.0452951 C60.3498519,49.0452951 60.4068889,49.102661 60.4068889,49.1733439 C60.4068889,49.2440268 60.3498519,49.3013927 60.2772593,49.3013927 M24.3698519,49.5580024 C24.2982963,49.5580024 24.2402222,49.5006366 24.2402222,49.4294415 C24.2402222,49.3582463 24.2982963,49.3013927 24.3698519,49.3013927 C24.4414074,49.3013927 24.4994815,49.3582463 24.4994815,49.4294415 C24.4994815,49.5006366 24.4414074,49.5580024 24.3698519,49.5580024 M25.7097037,49.9841488 C25.6381481,49.9841488 25.5800741,49.9267829 25.5800741,49.8561 C25.5800741,49.7854171 25.6381481,49.7285634 25.7097037,49.7285634 C25.7812593,49.7285634 25.8393333,49.7854171 25.8393333,49.8561 C25.8393333,49.9267829 25.7812593,49.9841488 25.7097037,49.9841488 M59.1971852,50.2407585 C59.1256296,50.2407585 59.0675556,50.1828805 59.0675556,50.113222 C59.0675556,50.0415146 59.1256296,49.9841488 59.1971852,49.9841488 C59.2687407,49.9841488 59.3268148,50.0415146 59.3268148,50.113222 C59.3268148,50.1828805 59.2687407,50.2407585 59.1971852,50.2407585 M60.0833333,50.7104415 C60.0117778,50.7104415 59.9537037,50.6530756 59.9537037,50.5823927 C59.9537037,50.5106854 60.0117778,50.4538317 60.0833333,50.4538317 C60.1548889,50.4538317 60.212963,50.5106854 60.212963,50.5823927 C60.212963,50.6530756 60.1548889,50.7104415 60.0833333,50.7104415 M25.1481481,50.8384902 C25.0765926,50.8384902 25.0185185,50.7811244 25.0185185,50.7104415 C25.0185185,50.6387341 25.0765926,50.5823927 25.1481481,50.5823927 C25.2197037,50.5823927 25.2772593,50.6387341 25.2772593,50.7104415 C25.2772593,50.7811244 25.2197037,50.8384902 25.1481481,50.8384902 M58.3333333,51.3501732 C58.2612593,51.3501732 58.2031852,51.2928073 58.2031852,51.2221244 C58.2031852,51.1514415 58.2612593,51.0940756 58.3333333,51.0940756 C58.4048889,51.0940756 58.462963,51.1514415 58.462963,51.2221244 C58.462963,51.2928073 58.4048889,51.3501732 58.3333333,51.3501732 M59.2402222,51.7773439 C59.1686667,51.7773439 59.1105926,51.719978 59.1105926,51.6492951 C59.1105926,51.5786122 59.1686667,51.5212463 59.2402222,51.5212463 C59.3122963,51.5212463 59.3698519,51.5786122 59.3698519,51.6492951 C59.3698519,51.719978 59.3122963,51.7773439 59.2402222,51.7773439 M26.4008889,51.9473927 C26.3298519,51.9473927 26.2712593,51.8900268 26.2712593,51.8193439 C26.2712593,51.748661 26.3298519,51.6918073 26.4008889,51.6918073 C26.472963,51.6918073 26.5305185,51.748661 26.5305185,51.8193439 C26.5305185,51.8900268 26.472963,51.9473927 26.4008889,51.9473927 M57.6846667,52.6311732 C57.6136296,52.6311732 57.5555556,52.5738073 57.5555556,52.5026122 C57.5555556,52.4314171 57.6136296,52.3745634 57.6846667,52.3745634 C57.7567407,52.3745634 57.8142963,52.4314171 57.8142963,52.5026122 C57.8142963,52.5738073 57.7567407,52.6311732 57.6846667,52.6311732 M27.1356296,53.3139293 C27.0640741,53.3139293 27.006,53.2560512 27.006,53.1853683 C27.006,53.1146854 27.0640741,53.0573195 27.1356296,53.0573195 C27.2071852,53.0573195 27.2647407,53.1146854 27.2647407,53.1853683 C27.2647407,53.2560512 27.2071852,53.3139293 27.1356296,53.3139293 M57.7712593,53.8261244 C57.7002222,53.8261244 57.6416296,53.7687585 57.6416296,53.6980756 C57.6416296,53.6273927 57.7002222,53.5700268 57.7712593,53.5700268 C57.8433333,53.5700268 57.9008889,53.6273927 57.9008889,53.6980756 C57.9008889,53.7687585 57.8433333,53.8261244 57.7712593,53.8261244 M28.1296296,55.1916366 C28.0580741,55.1916366 28,55.1342707 28,55.0635878 C28,54.9929049 28.0580741,54.9360512 28.1296296,54.9360512 C28.2011852,54.9360512 28.2592593,54.9929049 28.2592593,55.0635878 C28.2592593,55.1342707 28.2011852,55.1916366 28.1296296,55.1916366 M56.6045926,55.2341488 C56.5335556,55.2341488 56.474963,55.1767829 56.474963,55.1061 C56.474963,55.0354171 56.5335556,54.9780512 56.6045926,54.9780512 C56.6766667,54.9780512 56.7342222,55.0354171 56.7342222,55.1061 C56.7342222,55.1767829 56.6766667,55.2341488 56.6045926,55.2341488 M29.4684444,55.3196854 C29.3968889,55.3196854 29.3388148,55.2623195 29.3388148,55.1916366 C29.3388148,55.1209537 29.3968889,55.0635878 29.4684444,55.0635878 C29.54,55.0635878 29.5991111,55.1209537 29.5991111,55.1916366 C29.5991111,55.2623195 29.54,55.3196854 29.4684444,55.3196854 M55.1356296,56.3015634 C55.0640741,56.3015634 55.006,56.2441976 55.006,56.1730024 C55.006,56.1028317 55.0640741,56.0449537 55.1356296,56.0449537 C55.2071852,56.0449537 55.2652593,56.1028317 55.2652593,56.1730024 C55.2652593,56.2441976 55.2071852,56.3015634 55.1356296,56.3015634 M29.6846667,56.3440756 C29.6131111,56.3440756 29.555037,56.2867098 29.555037,56.2160268 C29.555037,56.1453439 29.6131111,56.087978 29.6846667,56.087978 C29.7562222,56.087978 29.8142963,56.1453439 29.8142963,56.2160268 C29.8142963,56.2867098 29.7562222,56.3440756 29.6846667,56.3440756 M30.9379259,57.3684659 C30.8663704,57.3684659 30.8082963,57.3111 30.8082963,57.2404171 C30.8082963,57.1697341 30.8663704,57.1128805 30.9379259,57.1128805 C31.0094815,57.1128805 31.0675556,57.1697341 31.0675556,57.2404171 C31.0675556,57.3111 31.0094815,57.3684659 30.9379259,57.3684659 M53.9254074,57.6245634 C53.8538519,57.6245634 53.7957778,57.5671976 53.7957778,57.4965146 C53.7957778,57.4258317 53.8538519,57.3684659 53.9254074,57.3684659 C53.996963,57.3684659 54.055037,57.4258317 54.055037,57.4965146 C54.055037,57.5671976 53.996963,57.6245634 53.9254074,57.6245634 M52.1541481,58.4783927 C52.0825926,58.4783927 52.0245185,58.4210268 52.0245185,58.3503439 C52.0245185,58.279661 52.0825926,58.2217829 52.1541481,58.2217829 C52.2257037,58.2217829 52.2832593,58.279661 52.2832593,58.3503439 C52.2832593,58.4210268 52.2257037,58.4783927 52.1541481,58.4783927 M31.2407407,58.5854415 C31.1686667,58.5854415 31.1111111,58.5280756 31.1111111,58.4573927 C31.1111111,58.3856854 31.1686667,58.3293439 31.2407407,58.3293439 C31.3122963,58.3293439 31.3703704,58.3856854 31.3703704,58.4573927 C31.3703704,58.5280756 31.3122963,58.5854415 31.2407407,58.5854415 M50.9874815,59.2461732 C50.9159259,59.2461732 50.8578519,59.1888073 50.8578519,59.1181244 C50.8578519,59.0474415 50.9159259,58.9900756 50.9874815,58.9900756 C51.059037,58.9900756 51.1171111,59.0474415 51.1171111,59.1181244 C51.1171111,59.1888073 51.059037,59.2461732 50.9874815,59.2461732 M32.7957778,59.5452951 C32.7242222,59.5452951 32.6661481,59.4879293 32.6661481,59.4172463 C32.6661481,59.3465634 32.7242222,59.2891976 32.7957778,59.2891976 C32.8673333,59.2891976 32.9254074,59.3465634 32.9254074,59.4172463 C32.9254074,59.4879293 32.8673333,59.5452951 32.7957778,59.5452951 M34.9574815,59.5437585 C34.8874815,59.5437585 34.8262963,59.4879293 34.8262963,59.4187829 C34.8262963,59.3450268 34.8874815,59.290222 34.9574815,59.290222 C35.0274815,59.290222 35.0876296,59.3450268 35.0876296,59.4187829 C35.0876296,59.4879293 35.0274815,59.5437585 34.9574815,59.5437585 M51.0740741,60.4416366 C51.002,60.4416366 50.9439259,60.3842707 50.9439259,60.3135878 C50.9439259,60.2429049 51.002,60.1860512 51.0740741,60.1860512 C51.1456296,60.1860512 51.2037037,60.2429049 51.2037037,60.3135878 C51.2037037,60.3842707 51.1456296,60.4416366 51.0740741,60.4416366 M35.4334815,60.8662463 C35.3588148,60.8662463 35.3022963,60.8114415 35.3022963,60.7422951 C35.3022963,60.668539 35.3588148,60.6127098 35.4334815,60.6127098 C35.5034815,60.6127098 35.558963,60.668539 35.558963,60.7422951 C35.558963,60.8114415 35.5034815,60.8662463 35.4334815,60.8662463 M49.5174815,61.0188805 C49.4474815,61.0188805 49.3862963,60.9589537 49.3862963,60.8892951 C49.3862963,60.8201488 49.4474815,60.760222 49.5174815,60.760222 C49.5921481,60.760222 49.6476296,60.8201488 49.6476296,60.8892951 C49.6476296,60.9589537 49.5921481,61.0188805 49.5174815,61.0188805 M36.8988148,61.2124902 C36.8288148,61.2124902 36.7722963,61.1520512 36.7722963,61.0829049 C36.7722963,61.0091488 36.8288148,60.9543439 36.8988148,60.9543439 C36.9734815,60.9543439 37.0294815,61.0091488 37.0294815,61.0829049 C37.0294815,61.1520512 36.9734815,61.2124902 36.8988148,61.2124902 M47.5761481,61.2534659 C47.5014815,61.2534659 47.444963,61.193539 47.444963,61.1249049 C47.444963,61.0552463 47.5014815,60.9953195 47.5761481,60.9953195 C47.6461481,60.9953195 47.7016296,61.0552463 47.7016296,61.1249049 C47.7016296,61.193539 47.6461481,61.2534659 47.5761481,61.2534659 M43.986963,61.5951 C43.9174815,61.5951 43.8568148,61.5351732 43.8568148,61.4655146 C43.8568148,61.3963683 43.9174815,61.3364415 43.986963,61.3364415 C44.056963,61.3364415 44.1176296,61.3963683 44.1176296,61.4655146 C44.1176296,61.5351732 44.056963,61.5951 43.986963,61.5951 M41.6541481,61.6365878 C41.5841481,61.6365878 41.522963,61.5807585 41.522963,61.5070024 C41.522963,61.4378561 41.5841481,61.382539 41.6541481,61.382539 C41.7241481,61.382539 41.7842963,61.4378561 41.7842963,61.5070024 C41.7842963,61.5807585 41.7241481,61.6365878 41.6541481,61.6365878 M46.4514815,61.8066366 C46.3768148,61.8066366 46.3202963,61.7518317 46.3202963,61.6780756 C46.3202963,61.6089293 46.3768148,61.5531 46.4514815,61.5531 C46.5214815,61.5531 46.5816296,61.6089293 46.5816296,61.6780756 C46.5816296,61.7518317 46.5214815,61.8066366 46.4514815,61.8066366 M38.4994815,62.0186854 C38.4294815,62.0186854 38.3688148,61.9638805 38.3688148,61.8947341 C38.3688148,61.820978 38.4294815,61.7651488 38.4994815,61.7651488 C38.568963,61.7651488 38.6296296,61.820978 38.6296296,61.8947341 C38.6296296,61.9638805 38.568963,62.0186854 38.4994815,62.0186854 M45.4756296,62.1708073 C45.4056296,62.1708073 45.3501481,62.1113927 45.3501481,62.0417341 C45.3501481,61.9731 45.4056296,61.912661 45.4756296,61.912661 C45.5502963,61.912661 45.6068148,61.9731 45.6068148,62.0417341 C45.6068148,62.1113927 45.5502963,62.1708073 45.4756296,62.1708073 M44.3742963,62.4059049 C44.3042963,62.4059049 44.2488148,62.345978 44.2488148,62.2768317 C44.2488148,62.2076854 44.3042963,62.1482707 44.3742963,62.1482707 C44.448963,62.1482707 44.5054815,62.2076854 44.5054815,62.2768317 C44.5054815,62.345978 44.448963,62.4059049 44.3742963,62.4059049 M40.4454815,62.4888805 C40.3708148,62.4888805 40.3142963,62.4340756 40.3142963,62.3649293 C40.3142963,62.2911732 40.3708148,62.2353439 40.4454815,62.2353439 C40.5154815,62.2353439 40.5756296,62.2911732 40.5756296,62.3649293 C40.5756296,62.4340756 40.5154815,62.4888805 40.4454815,62.4888805 M42.908963,62.5534171 C42.8348148,62.5534171 42.7782963,62.4981 42.7782963,62.4243439 C42.7782963,62.3551976 42.8348148,62.3003927 42.908963,62.3003927 C42.9794815,62.3003927 43.0354815,62.3551976 43.0354815,62.4243439 C43.0354815,62.4981 42.9794815,62.5534171 42.908963,62.5534171" id="Fill-17" fill="#E7876D"></path>
                    <polygon id="Fill-19" fill="#FFC79B" points="45.0784444 49.0453463 39.2451111 49.0453463 41.0734074 48.0209561 43.2506667 48.0209561"></polygon>
                    <polygon id="Fill-21" fill="#B25252" points="45.9858519 54.1467585 38.5642963 54.1467585 37.5277778 53.890661 47.0228889 53.890661"></polygon>
                    <path d="M50.2962963,50.5179073 C50.2247407,50.5179073 50.1666667,50.5752732 50.1666667,50.6459561 C50.1666667,50.716639 50.2247407,50.7740049 50.2962963,50.7740049 C50.3678519,50.7740049 50.4259259,50.716639 50.4259259,50.6459561 C50.4259259,50.5752732 50.3678519,50.5179073 50.2962963,50.5179073" id="Fill-23" fill="#90561C"></path>
                    <path d="M25.709963,49.7283585 C25.6384074,49.7283585 25.5803333,49.7857244 25.5803333,49.8564073 C25.5803333,49.9270902 25.6384074,49.9844561 25.709963,49.9844561 C25.7815185,49.9844561 25.8395926,49.9270902 25.8395926,49.8564073 C25.8395926,49.7857244 25.7815185,49.7283585 25.709963,49.7283585" id="Fill-25" fill="#8D5119"></path>
                    <path d="M26.4011481,51.6916024 C26.3295926,51.6916024 26.271,51.7489683 26.271,51.8196512 C26.271,51.8903341 26.3295926,51.9477 26.4011481,51.9477 C26.4727037,51.9477 26.5307778,51.8903341 26.5307778,51.8196512 C26.5307778,51.7489683 26.4727037,51.6916024 26.4011481,51.6916024" id="Fill-27" fill="#8D5119"></path>
                    <path d="M27.9134074,51.6490902 C27.8418519,51.6490902 27.7837778,51.7064561 27.7837778,51.777139 C27.7837778,51.847822 27.8418519,51.9051878 27.9134074,51.9051878 C27.984963,51.9051878 28.043037,51.847822 28.043037,51.777139 C28.043037,51.7064561 27.984963,51.6490902 27.9134074,51.6490902" id="Fill-29" fill="#90561C"></path>
                    <path d="M27.1356296,53.0573707 C27.0640741,53.0573707 27.006,53.1147366 27.006,53.1854195 C27.006,53.2561024 27.0640741,53.3139805 27.1356296,53.3139805 C27.2071852,53.3139805 27.2652593,53.2561024 27.2652593,53.1854195 C27.2652593,53.1147366 27.2071852,53.0573707 27.1356296,53.0573707" id="Fill-31" fill="#8D5119"></path>
                    <path d="M29.6849259,56.0880293 C29.6133704,56.0880293 29.5552963,56.1453951 29.5552963,56.216078 C29.5552963,56.286761 29.6133704,56.3441268 29.6849259,56.3441268 C29.7564815,56.3441268 29.8145556,56.286761 29.8145556,56.216078 C29.8145556,56.1453951 29.7564815,56.0880293 29.6849259,56.0880293" id="Fill-33" fill="#8D5119"></path>
                    <path d="M29.037037,52.6311732 C28.964963,52.6311732 28.9068889,52.6875146 28.9068889,52.759222 C28.9068889,52.8299049 28.964963,52.8872707 29.037037,52.8872707 C29.1085926,52.8872707 29.1666667,52.8299049 29.1666667,52.759222 C29.1666667,52.6875146 29.1085926,52.6311732 29.037037,52.6311732" id="Fill-35" fill="#90561C"></path>
                    <path d="M29.4687037,51.5210415 C29.3971481,51.5210415 29.3390741,51.5784073 29.3390741,51.6490902 C29.3390741,51.7197732 29.3971481,51.777139 29.4687037,51.777139 C29.5402593,51.777139 29.5988519,51.7197732 29.5988519,51.6490902 C29.5988519,51.5784073 29.5402593,51.5210415 29.4687037,51.5210415" id="Fill-37" fill="#90561C"></path>
                    <path d="M29.0798148,53.8583927 C29.0891481,53.8701732 29.099,53.882978 29.1083333,53.8947585 C29.1010741,53.8809293 29.0912222,53.8686366 29.0798148,53.8583927" id="Fill-39" fill="#90561C"></path>
                    <path d="M28.9934815,53.8259195 C28.9219259,53.8259195 28.8638519,53.8832854 28.8638519,53.9539683 C28.8638519,54.0246512 28.9219259,54.0820171 28.9934815,54.0820171 C29.065037,54.0820171 29.1231111,54.0246512 29.1231111,53.9539683 C29.1231111,53.9324561 29.1174074,53.9124805 29.1080741,53.8945537 C29.0992593,53.8827732 29.0888889,53.8699683 29.0800741,53.8581878 C29.0572593,53.8382122 29.0266667,53.8259195 28.9934815,53.8259195" id="Fill-41" fill="#8D5119"></path>
                    <path d="M29.4687037,55.063639 C29.3971481,55.063639 29.3390741,55.1210049 29.3390741,55.1916878 C29.3390741,55.2623707 29.3971481,55.3197366 29.4687037,55.3197366 C29.5402593,55.3197366 29.5988519,55.2623707 29.5988519,55.1916878 C29.5988519,55.1210049 29.5402593,55.063639 29.4687037,55.063639" id="Fill-43" fill="#8D5119"></path>
                    <path d="M28.1296296,54.9358463 C28.0580741,54.9358463 28,54.9932122 28,55.0638951 C28,55.134578 28.0580741,55.1919439 28.1296296,55.1919439 C28.2011852,55.1919439 28.2592593,55.134578 28.2592593,55.0638951 C28.2592593,54.9932122 28.2011852,54.9358463 28.1296296,54.9358463" id="Fill-45" fill="#8D5119"></path>
                    <path d="M30.9379259,57.1126756 C30.8663704,57.1126756 30.8082963,57.1700415 30.8082963,57.2407244 C30.8082963,57.3114073 30.8663704,57.3687732 30.9379259,57.3687732 C31.0094815,57.3687732 31.0675556,57.3114073 31.0675556,57.2407244 C31.0675556,57.1700415 31.0094815,57.1126756 30.9379259,57.1126756" id="Fill-47" fill="#8D5119"></path>
                    <path d="M32.796037,59.2892488 C32.7244815,59.2892488 32.6664074,59.3466146 32.6664074,59.4172976 C32.6664074,59.4879805 32.7244815,59.5453463 32.796037,59.5453463 C32.8675926,59.5453463 32.9256667,59.4879805 32.9256667,59.4172976 C32.9256667,59.3466146 32.8675926,59.2892488 32.796037,59.2892488" id="Fill-49" fill="#8D5119"></path>
                    <path d="M30.8513333,51.7346268 C30.7797778,51.7346268 30.7217037,51.7919927 30.7217037,51.8626756 C30.7217037,51.9333585 30.7797778,51.9907244 30.8513333,51.9907244 C30.9228889,51.9907244 30.980963,51.9333585 30.980963,51.8626756 C30.980963,51.7919927 30.9228889,51.7346268 30.8513333,51.7346268" id="Fill-51" fill="#90561C"></path>
                    <path d="M32.1484074,52.6311732 C32.0758148,52.6311732 32.0182593,52.6875146 32.0182593,52.759222 C32.0182593,52.8299049 32.0758148,52.8872707 32.1484074,52.8872707 C32.219963,52.8872707 32.278037,52.8299049 32.278037,52.759222 C32.278037,52.6875146 32.219963,52.6311732 32.1484074,52.6311732" id="Fill-53" fill="#90561C"></path>
                    <path d="M33.4006296,51.6490902 C33.3290741,51.6490902 33.271,51.7064561 33.271,51.777139 C33.271,51.847822 33.3290741,51.9051878 33.4006296,51.9051878 C33.4721852,51.9051878 33.5302593,51.847822 33.5302593,51.777139 C33.5302593,51.7064561 33.4721852,51.6490902 33.4006296,51.6490902" id="Fill-55" fill="#90561C"></path>
                    <path d="M33.4872222,52.8437854 C33.4156667,52.8437854 33.3575926,52.9016634 33.3575926,52.9718341 C33.3575926,53.0430293 33.4156667,53.1003951 33.4872222,53.1003951 C33.5587778,53.1003951 33.6168519,53.0430293 33.6168519,52.9718341 C33.6168519,52.9016634 33.5587778,52.8437854 33.4872222,52.8437854" id="Fill-57" fill="#90561C"></path>
                    <path d="M32.6236296,53.9537122 C32.5520741,53.9537122 32.4934815,54.011078 32.4934815,54.081761 C32.4934815,54.1524439 32.5520741,54.2098098 32.6236296,54.2098098 C32.6951852,54.2098098 32.7532593,54.1524439 32.7532593,54.081761 C32.7532593,54.011078 32.6951852,53.9537122 32.6236296,53.9537122" id="Fill-59" fill="#90561C"></path>
                    <path d="M32.4932222,55.7466512 C32.4221852,55.7466512 32.3635926,55.8040171 32.3635926,55.8747 C32.3635926,55.9453829 32.4221852,56.0027488 32.4932222,56.0027488 C32.5652963,56.0027488 32.6233704,55.9453829 32.6233704,55.8747 C32.6233704,55.8040171 32.5652963,55.7466512 32.4932222,55.7466512" id="Fill-61" fill="#90561C"></path>
                    <path d="M32.9692222,57.0693951 C32.8976667,57.0693951 32.8395926,57.1272732 32.8395926,57.1974439 C32.8395926,57.268639 32.8976667,57.3260049 32.9692222,57.3260049 C33.0407778,57.3260049 33.0988519,57.268639 33.0988519,57.1974439 C33.0988519,57.1272732 33.0407778,57.0693951 32.9692222,57.0693951" id="Fill-63" fill="#90561C"></path>
                    <path d="M31.2407407,58.3293439 C31.1686667,58.3293439 31.1111111,58.3856854 31.1111111,58.4573927 C31.1111111,58.5280756 31.1686667,58.5854415 31.2407407,58.5854415 C31.3122963,58.5854415 31.3703704,58.5280756 31.3703704,58.4573927 C31.3703704,58.3856854 31.3122963,58.3293439 31.2407407,58.3293439" id="Fill-65" fill="#8D5119"></path>
                    <path d="M30.9379259,53.9962244 C30.8663704,53.9962244 30.8082963,54.0541024 30.8082963,54.1247854 C30.8082963,54.1954683 30.8663704,54.2528341 30.9379259,54.2528341 C31.0094815,54.2528341 31.0675556,54.1954683 31.0675556,54.1247854 C31.0675556,54.0541024 31.0094815,53.9962244 30.9379259,53.9962244" id="Fill-67" fill="#90561C"></path>
                    <path d="M30.8513333,54.9358463 C30.7797778,54.9358463 30.7217037,54.9932122 30.7217037,55.0638951 C30.7217037,55.134578 30.7797778,55.1919439 30.8513333,55.1919439 C30.9228889,55.1919439 30.980963,55.134578 30.980963,55.0638951 C30.980963,54.9932122 30.9228889,54.9358463 30.8513333,54.9358463" id="Fill-69" fill="#90561C"></path>
                    <path d="M27.7402222,49.8986634 C27.6686667,49.8986634 27.6105926,49.9565415 27.6105926,50.0272244 C27.6105926,50.0979073 27.6686667,50.1552732 27.7402222,50.1552732 C27.8117778,50.1552732 27.8698519,50.0979073 27.8698519,50.0272244 C27.8698519,49.9565415 27.8117778,49.8986634 27.7402222,49.8986634" id="Fill-71" fill="#90561C"></path>
                    <path d="M24.3701111,49.3011878 C24.2985556,49.3011878 24.2404815,49.3585537 24.2404815,49.4292366 C24.2404815,49.5004317 24.2985556,49.5577976 24.3701111,49.5577976 C24.4416667,49.5577976 24.4997407,49.5004317 24.4997407,49.4292366 C24.4997407,49.3585537 24.4416667,49.3011878 24.3701111,49.3011878" id="Fill-73" fill="#8D5119"></path>
                    <path d="M60.537037,47.8929073 C60.464963,47.8929073 60.4068889,47.9502732 60.4068889,48.0209561 C60.4068889,48.091639 60.464963,48.1490049 60.537037,48.1490049 C60.6085926,48.1490049 60.6666667,48.091639 60.6666667,48.0209561 C60.6666667,47.9502732 60.6085926,47.8929073 60.537037,47.8929073" id="Fill-75" fill="#8D5119"></path>
                    <path d="M25.1481481,50.5823927 C25.0765926,50.5823927 25.0185185,50.6387341 25.0185185,50.7104415 C25.0185185,50.7811244 25.0765926,50.8384902 25.1481481,50.8384902 C25.2197037,50.8384902 25.2777778,50.7811244 25.2777778,50.7104415 C25.2777778,50.6387341 25.2197037,50.5823927 25.1481481,50.5823927" id="Fill-77" fill="#8D5119"></path>
                    <path d="M53.5798148,52.6311732 C53.5082593,52.6311732 53.4501852,52.6875146 53.4501852,52.759222 C53.4501852,52.8299049 53.5082593,52.8872707 53.5798148,52.8872707 C53.6513704,52.8872707 53.709963,52.8299049 53.709963,52.759222 C53.709963,52.6875146 53.6513704,52.6311732 53.5798148,52.6311732" id="Fill-79" fill="#90561C"></path>
                    <path d="M54.7034444,53.6123341 C54.6318889,53.6123341 54.5738148,53.6697 54.5738148,53.7403829 C54.5738148,53.8110659 54.6318889,53.8684317 54.7034444,53.8684317 C54.775,53.8684317 54.8330741,53.8110659 54.8330741,53.7403829 C54.8330741,53.6697 54.775,53.6123341 54.7034444,53.6123341" id="Fill-81" fill="#90561C"></path>
                    <path d="M55.1356296,52.5024073 C55.0640741,52.5024073 55.006,52.5597732 55.006,52.6309683 C55.006,52.7016512 55.0640741,52.7590171 55.1356296,52.7590171 C55.2071852,52.7590171 55.2652593,52.7016512 55.2652593,52.6309683 C55.2652593,52.5597732 55.2071852,52.5024073 55.1356296,52.5024073" id="Fill-83" fill="#90561C"></path>
                    <path d="M57.8573333,49.7706146 C57.7857778,49.7706146 57.7277037,49.8284927 57.7277037,49.8986634 C57.7277037,49.9698585 57.7857778,50.0272244 57.8573333,50.0272244 C57.9288889,50.0272244 57.9874815,49.9698585 57.9874815,49.8986634 C57.9874815,49.8284927 57.9288889,49.7706146 57.8573333,49.7706146" id="Fill-85" fill="#90561C"></path>
                    <path d="M59.1971852,49.9842 C59.1256296,49.9842 59.0675556,50.0415659 59.0675556,50.112761 C59.0675556,50.1829317 59.1256296,50.2408098 59.1971852,50.2408098 C59.2687407,50.2408098 59.3268148,50.1829317 59.3268148,50.112761 C59.3268148,50.0415659 59.2687407,49.9842 59.1971852,49.9842" id="Fill-87" fill="#8D5119"></path>
                    <path d="M58.6875333,48.922061 C58.6330889,48.9369146 58.5926444,48.9865976 58.5926444,49.0455 C58.5926444,49.0624024 58.5962741,49.0793049 58.6024963,49.0941585 C58.6310148,49.0367927 58.6590148,48.979939 58.6875333,48.922061" id="Fill-89" fill="#90561C"></path>
                    <path d="M58.721963,48.9172976 C58.710037,48.9172976 58.6986296,48.9188341 58.6877407,48.9219073 C58.6592222,48.9797854 58.6312222,49.036639 58.6027037,49.0945171 C58.6218889,49.1406146 58.668037,49.1733951 58.721963,49.1733951 C58.7935185,49.1733951 58.8515926,49.1160293 58.8515926,49.0453463 C58.8515926,48.9746634 58.7935185,48.9172976 58.721963,48.9172976" id="Fill-91" fill="#8D5119"></path>
                    <path d="M60.2772593,49.0453463 C60.2057037,49.0453463 60.1476296,49.1027122 60.1476296,49.1733951 C60.1476296,49.244078 60.2057037,49.3014439 60.2772593,49.3014439 C60.3498519,49.3014439 60.4068889,49.244078 60.4068889,49.1733951 C60.4068889,49.1027122 60.3498519,49.0453463 60.2772593,49.0453463" id="Fill-93" fill="#8D5119"></path>
                    <path d="M60.0833333,50.4536268 C60.0117778,50.4536268 59.9537037,50.5109927 59.9537037,50.5821878 C59.9537037,50.6528707 60.0117778,50.7102366 60.0833333,50.7102366 C60.1548889,50.7102366 60.212963,50.6528707 60.212963,50.5821878 C60.212963,50.5109927 60.1548889,50.4536268 60.0833333,50.4536268" id="Fill-95" fill="#8D5119"></path>
                    <path d="M51.2464815,54.4664195 C51.1749259,54.4664195 51.1168519,54.5237854 51.1168519,54.5944683 C51.1168519,54.6651512 51.1749259,54.7225171 51.2464815,54.7225171 C51.318037,54.7225171 51.3761111,54.6651512 51.3761111,54.5944683 C51.3761111,54.5237854 51.318037,54.4664195 51.2464815,54.4664195" id="Fill-97" fill="#90561C"></path>
                    <path d="M52.4997407,53.4842854 C52.4281852,53.4842854 52.3701111,53.5416512 52.3701111,53.6123341 C52.3701111,53.6830171 52.4281852,53.7403829 52.4997407,53.7403829 C52.5712963,53.7403829 52.6293704,53.6830171 52.6293704,53.6123341 C52.6293704,53.5416512 52.5712963,53.4842854 52.4997407,53.4842854" id="Fill-99" fill="#90561C"></path>
                    <path d="M52.5863333,54.6789805 C52.5147778,54.6789805 52.4561852,54.7363463 52.4561852,54.8075415 C52.4561852,54.8787366 52.5147778,54.9355902 52.5863333,54.9355902 C52.6578889,54.9355902 52.715963,54.8787366 52.715963,54.8075415 C52.715963,54.7363463 52.6578889,54.6789805 52.5863333,54.6789805" id="Fill-101" fill="#90561C"></path>
                    <path d="M58.3335926,51.0941268 C58.261,51.0941268 58.2034444,51.1514927 58.2034444,51.2221756 C58.2034444,51.2928585 58.261,51.3502244 58.3335926,51.3502244 C58.4051481,51.3502244 58.4632222,51.2928585 58.4632222,51.2221756 C58.4632222,51.1514927 58.4051481,51.0941268 58.3335926,51.0941268" id="Fill-103" fill="#8D5119"></path>
                    <path d="M59.2402222,51.5210415 C59.1686667,51.5210415 59.1105926,51.5784073 59.1105926,51.6490902 C59.1105926,51.7197732 59.1686667,51.777139 59.2402222,51.777139 C59.3122963,51.777139 59.3698519,51.7197732 59.3698519,51.6490902 C59.3698519,51.5784073 59.3122963,51.5210415 59.2402222,51.5210415" id="Fill-105" fill="#8D5119"></path>
                    <path d="M54.6604074,54.8077976 C54.5888519,54.8077976 54.5302593,54.8651634 54.5302593,54.9358463 C54.5302593,54.987578 54.5618889,55.0316268 54.6064815,55.0521146 C54.6609259,54.9911634 54.7158889,54.9291878 54.7698148,54.8672122 C54.747,54.8313585 54.7065556,54.8077976 54.6604074,54.8077976" id="Fill-107" fill="#90561C"></path>
                    <path d="M54.7700222,54.8673146 C54.7160963,54.9292902 54.6611333,54.9912659 54.6066889,55.0522171 C54.622763,55.0593878 54.6414296,55.0634854 54.6606148,55.0634854 C54.7321704,55.0634854 54.7902444,55.0061195 54.7902444,54.9359488 C54.7902444,54.910339 54.7824667,54.8872902 54.7700222,54.8673146" id="Fill-109" fill="#8D5119"></path>
                    <path d="M55.1356296,56.0450049 C55.0640741,56.0450049 55.006,56.1028829 55.006,56.1730537 C55.006,56.2442488 55.0640741,56.3016146 55.1356296,56.3016146 C55.2071852,56.3016146 55.2652593,56.2442488 55.2652593,56.1730537 C55.2652593,56.1028829 55.2071852,56.0450049 55.1356296,56.0450049" id="Fill-111" fill="#8D5119"></path>
                    <path d="M53.793237,55.9172122 C53.723237,55.9182366 53.6667185,55.9756024 53.6662,56.0442366 C53.7087185,56.0022366 53.751237,55.9597244 53.793237,55.9172122" id="Fill-113" fill="#90561C"></path>
                    <path d="M53.7957778,55.9169561 L53.7931852,55.9169561 C53.7511852,55.9594683 53.7086667,56.0024927 53.6661481,56.0439805 L53.6661481,56.0450049 C53.6661481,56.1162 53.7242222,56.1730537 53.7957778,56.1730537 C53.8673333,56.1730537 53.9254074,56.1162 53.9254074,56.0450049 C53.9254074,55.9753463 53.8673333,55.9169561 53.7957778,55.9169561" id="Fill-115" fill="#8D5119"></path>
                    <path d="M56.6478889,51.1363829 C56.5763333,51.1363829 56.5182593,51.1937488 56.5182593,51.2649439 C56.5182593,51.3351146 56.5763333,51.3929927 56.6478889,51.3929927 C56.7194444,51.3929927 56.7775185,51.3351146 56.7775185,51.2649439 C56.7775185,51.1937488 56.7194444,51.1363829 56.6478889,51.1363829" id="Fill-117" fill="#90561C"></path>
                    <path d="M56.430163,52.7502585 C56.4166815,52.7625512 56.4063111,52.7779171 56.3985333,52.7943073 C56.4089037,52.7799659 56.4197926,52.7651122 56.430163,52.7502585" id="Fill-119" fill="#90561C"></path>
                    <path d="M56.5185185,52.7159927 C56.4842963,52.7159927 56.4531852,52.7287976 56.4303704,52.7503098 C56.42,52.7651634 56.4091111,52.7800171 56.3987407,52.7943585 C56.3925185,52.8097244 56.3888889,52.8261146 56.3888889,52.8440415 C56.3888889,52.9147244 56.446963,52.9720902 56.5185185,52.9720902 C56.5900741,52.9720902 56.6481481,52.9147244 56.6481481,52.8440415 C56.6481481,52.7733585 56.5900741,52.7159927 56.5185185,52.7159927" id="Fill-121" fill="#8D5119"></path>
                    <path d="M57.6849259,52.3743585 C57.6133704,52.3743585 57.5552963,52.4317244 57.5552963,52.5024073 C57.5552963,52.5736024 57.6133704,52.6309683 57.6849259,52.6309683 C57.7564815,52.6309683 57.8145556,52.5736024 57.8145556,52.5024073 C57.8145556,52.4317244 57.7564815,52.3743585 57.6849259,52.3743585" id="Fill-123" fill="#8D5119"></path>
                    <path d="M57.7715185,53.569822 C57.699963,53.569822 57.6413704,53.6271878 57.6413704,53.6978707 C57.6413704,53.7685537 57.699963,53.8259195 57.7715185,53.8259195 C57.8430741,53.8259195 57.9011481,53.7685537 57.9011481,53.6978707 C57.9011481,53.6271878 57.8430741,53.569822 57.7715185,53.569822" id="Fill-125" fill="#8D5119"></path>
                    <path d="M50.9874815,58.9901268 C50.9159259,58.9901268 50.8578519,59.0474927 50.8578519,59.1181756 C50.8578519,59.1888585 50.9159259,59.2462244 50.9874815,59.2462244 C51.059037,59.2462244 51.1171111,59.1888585 51.1171111,59.1181756 C51.1171111,59.0474927 51.059037,58.9901268 50.9874815,58.9901268" id="Fill-127" fill="#8D5119"></path>
                    <path d="M51.0740741,60.1858463 C51.002,60.1858463 50.9439259,60.2432122 50.9439259,60.3138951 C50.9439259,60.384578 51.002,60.4419439 51.0740741,60.4419439 C51.1456296,60.4419439 51.2037037,60.384578 51.2037037,60.3138951 C51.2037037,60.2432122 51.1456296,60.1858463 51.0740741,60.1858463" id="Fill-129" fill="#8D5119"></path>
                    <path d="M56.6043333,54.9781024 C56.5332963,54.9781024 56.4747037,55.0354683 56.4747037,55.1061512 C56.4747037,55.1768341 56.5332963,55.2342 56.6043333,55.2342 C56.6764074,55.2342 56.7344815,55.1768341 56.7344815,55.1061512 C56.7344815,55.0354683 56.6764074,54.9781024 56.6043333,54.9781024" id="Fill-131" fill="#8D5119"></path>
                    <path d="M56.6382963,56.094022 C56.6191111,56.115022 56.600963,56.136022 56.5817778,56.157022 C56.6071852,56.1426805 56.6274074,56.1206561 56.6382963,56.094022" id="Fill-133" fill="#766334"></path>
                    <path d="M56.5185185,55.9169561 C56.446963,55.9169561 56.3888889,55.9753463 56.3888889,56.0450049 C56.3888889,56.1162 56.446963,56.1730537 56.5185185,56.1730537 C56.5413333,56.1730537 56.5631111,56.1669073 56.5817778,56.1566634 C56.600963,56.1356634 56.6191111,56.1151756 56.6382963,56.0941756 C56.6445185,56.0788098 56.6481481,56.0624195 56.6481481,56.0450049 C56.6481481,55.9753463 56.5900741,55.9169561 56.5185185,55.9169561" id="Fill-135" fill="#8D5119"></path>
                    <path d="M52.0675556,56.216078 C51.996,56.216078 51.9379259,56.2734439 51.9379259,56.3441268 C51.9379259,56.4148098 51.996,56.4721756 52.0675556,56.4721756 C52.1391111,56.4721756 52.1971852,56.4148098 52.1971852,56.3441268 C52.1971852,56.2734439 52.1391111,56.216078 52.0675556,56.216078" id="Fill-137" fill="#90561C"></path>
                    <path d="M52.1541481,58.2218341 C52.0825926,58.2218341 52.0245185,58.2797122 52.0245185,58.3503951 C52.0245185,58.421078 52.0825926,58.4784439 52.1541481,58.4784439 C52.2257037,58.4784439 52.2837778,58.421078 52.2837778,58.3503951 C52.2837778,58.2797122 52.2257037,58.2218341 52.1541481,58.2218341" id="Fill-139" fill="#8D5119"></path>
                    <path d="M50.9439259,56.9846268 C50.8723704,56.9846268 50.8142963,57.0419927 50.8142963,57.1126756 C50.8142963,57.1833585 50.8723704,57.2407244 50.9439259,57.2407244 C51.016,57.2407244 51.0740741,57.1833585 51.0740741,57.1126756 C51.0740741,57.0419927 51.016,56.9846268 50.9439259,56.9846268" id="Fill-141" fill="#90561C"></path>
                    <path d="M50.7284815,55.7891634 C50.6569259,55.7891634 50.5988519,55.8465293 50.5988519,55.9172122 C50.5988519,55.9878951 50.6569259,56.045261 50.7284815,56.045261 C50.800037,56.045261 50.8581111,55.9878951 50.8581111,55.9172122 C50.8581111,55.8465293 50.800037,55.7891634 50.7284815,55.7891634" id="Fill-143" fill="#90561C"></path>
                    <path d="M53.9254074,57.3685171 C53.8538519,57.3685171 53.7957778,57.4258829 53.7957778,57.4965659 C53.7957778,57.5672488 53.8538519,57.6246146 53.9254074,57.6246146 C53.996963,57.6246146 54.055037,57.5672488 54.055037,57.4965659 C54.055037,57.4258829 53.996963,57.3685171 53.9254074,57.3685171" id="Fill-145" fill="#8D5119"></path>
                    <path d="M51.6789259,51.6490902 C51.6073704,51.6490902 51.5492963,51.7064561 51.5492963,51.777139 C51.5492963,51.847822 51.6073704,51.9051878 51.6789259,51.9051878 C51.7504815,51.9051878 51.8085556,51.847822 51.8085556,51.777139 C51.8085556,51.7064561 51.7504815,51.6490902 51.6789259,51.6490902" id="Fill-147" fill="#90561C"></path>
                    <path d="M51.1171111,52.6311732 C51.0455556,52.6311732 50.9874815,52.6875146 50.9874815,52.759222 C50.9874815,52.8299049 51.0455556,52.8872707 51.1171111,52.8872707 C51.1886667,52.8872707 51.2467407,52.8299049 51.2467407,52.759222 C51.2467407,52.6875146 51.1886667,52.6311732 51.1171111,52.6311732" id="Fill-149" fill="#90561C"></path>
                    <path d="M62.8701111,31.9508341 C62.8701111,31.7741268 63.0152963,31.6307122 63.1941852,31.6307122 C63.3730741,31.6307122 63.5182593,31.7741268 63.5182593,31.9508341 C63.5182593,32.1275415 63.3730741,32.2709561 63.1941852,32.2709561 C63.0152963,32.2709561 62.8701111,32.1275415 62.8701111,31.9508341" id="Fill-151" fill="#998077"></path>
                    <path d="M62.8701111,32.9752244 C62.8701111,32.7985171 63.0152963,32.6551024 63.1941852,32.6551024 C63.3730741,32.6551024 63.5182593,32.7985171 63.5182593,32.9752244 C63.5182593,33.1519317 63.3730741,33.2953463 63.1941852,33.2953463 C63.0152963,33.2953463 62.8701111,33.1519317 62.8701111,32.9752244" id="Fill-153" fill="#998077"></path>
                    <path d="M42.3430519,24.6935415 C52.8176444,24.6935415 61.752237,30.596078 65.2454963,40.3318829 C65.6919407,38.2723463 65.9330519,36.1887366 65.9330519,34.1363707 C65.9330519,20.4264439 55.3718667,9.31283415 42.3430519,9.31283415 C29.3147556,9.31283415 18.7530519,20.4264439 18.7530519,34.1363707 C18.7530519,36.1887366 18.994163,38.2723463 19.4406074,40.3318829 C22.9338667,30.596078 31.8679407,24.6935415 42.3430519,24.6935415" id="Fill-155" fill="#EE3727"></path>
                    <mask id="mask-6" fill="white">
                        <use xlink:href="#path-5"></use>
                    </mask>
                    <g id="Clip-158"></g>
                    <polygon id="Fill-157" fill="#CC2F21" mask="url(#mask-6)" points="41.1413333 98.471561 43.4746667 98.471561 43.4746667 73.1189268 41.1413333 73.1189268"></polygon>
                    <polygon id="Fill-159" fill="#EE3727" mask="url(#mask-6)" points="33.8971111 74.741561 49.7684444 74.741561 49.7684444 65.4826098 33.8971111 65.4826098"></polygon>
                    <polygon id="Fill-160" fill="#CC2F21" mask="url(#mask-6)" points="33.8971111 66.3640976 49.7684444 66.3640976 49.7684444 65.4826098 33.8971111 65.4826098"></polygon>
                </g>
                <g id="Group-172" transform="translate(21.777778, 15.874976)">
                    <g id="Group-164" transform="translate(0.000000, 0.512195)">
                        <mask id="mask-8" fill="white">
                            <use xlink:href="#path-7"></use>
                        </mask>
                        <g id="Clip-163"></g>
                        <path d="M10.4111259,5.20963902 L5.96016296,0.300760976 C5.7874963,0.110736585 5.49971852,0.0748829268 5.28557037,0.216760976 L0.0568296296,3.67459024 C-0.18117037,3.83183415 -0.244948148,4.15041951 -0.085762963,4.38551707 C0.0734222222,4.62010244 0.395940741,4.68310244 0.633940741,4.52585854 L5.48831111,1.31541951 L9.63853333,5.89290732 C9.82934815,6.10393171 10.1575704,6.12185854 10.3706815,5.93337073 C10.5837926,5.74437073 10.6024593,5.42066341 10.4111259,5.20963902 L10.4111259,5.20963902 Z" id="Fill-162" fill="#FCF13D" mask="url(#mask-8)"></path>
                    </g>
                    <path d="M20.9698741,5.70129512 L15.6980963,0.493807317 C15.494837,0.293539024 15.1671333,0.293026829 14.9643926,0.493807317 L9.69261481,5.70129512 C9.48987407,5.90156341 9.48987407,6.22578293 9.69261481,6.42605122 C9.89535556,6.62631951 10.2235778,6.62631951 10.4263185,6.42605122 L15.3309852,1.58017317 L20.2361704,6.42605122 C20.4389111,6.62580732 20.7671333,6.62580732 20.9698741,6.42605122 C21.1726148,6.22578293 21.1726148,5.90156341 20.9698741,5.70129512 L20.9698741,5.70129512 Z" id="Fill-165" fill="#FCF13D"></path>
                    <path d="M31.5481185,5.70129512 L26.2763407,0.493807317 C26.0730815,0.293539024 25.7453778,0.293026829 25.542637,0.493807317 L20.2708593,5.70129512 C20.0681185,5.90156341 20.0681185,6.22578293 20.2708593,6.42605122 C20.4736,6.62631951 20.8018222,6.62631951 21.004563,6.42605122 L25.9092296,1.58017317 L30.8144148,6.42605122 C31.0171556,6.62580732 31.3453778,6.62580732 31.5481185,6.42605122 C31.7508593,6.22578293 31.7508593,5.90156341 31.5481185,5.70129512 L31.5481185,5.70129512 Z" id="Fill-167" fill="#FCF13D"></path>
                    <g id="Group-171" transform="translate(30.592593, 0.512195)">
                        <mask id="mask-10" fill="white">
                            <use xlink:href="#path-9"></use>
                        </mask>
                        <g id="Clip-170"></g>
                        <path d="M10.3597407,4.39232927 L5.6687037,0.465329268 C5.46285185,0.293231707 5.15640741,0.30552439 4.96662963,0.4935 L0.21337037,5.18930488 C0.0106296296,5.38906098 0.0106296296,5.71379268 0.21337037,5.91406098 C0.415592593,6.11381707 0.744333333,6.11381707 0.947074074,5.91406098 L5.36225926,1.55169512 L9.6892963,5.17393902 C9.90707407,5.35679268 10.2347778,5.33015854 10.4198889,5.11452439 C10.605,4.89889024 10.578037,4.57518293 10.3597407,4.39232927 L10.3597407,4.39232927 Z" id="Fill-169" fill="#FCF13D" mask="url(#mask-10)"></path>
                    </g>
                </g>
                <g id="Group-203" transform="translate(16.592593, 25.094488)">
                    <path d="M38.0640296,22.345178 C33.273437,23.3373 28.9624741,20.5560805 27.1730667,16.9942756 C26.9864,16.6203732 26.5959556,16.3924463 26.1749185,16.3924463 L24.7142519,16.3924463 C24.2932148,16.3924463 23.9027704,16.6203732 23.7161037,16.9932512 C22.1698815,20.0735927 18.7367704,22.597178 14.7389926,22.597178 C9.3126963,22.597178 4.91099259,18.1794951 4.87884444,12.8265439 C4.84617778,7.43620244 9.53928889,3.07537317 14.9972148,3.07537317 L36.8149185,2.96473902 C42.0001037,3.39395854 46.0155111,7.73737317 45.9185481,12.9166902 C45.8335111,17.462422 42.5684,21.4124707 38.0640296,22.345178 M36.0905481,0.00220243902 L14.6876593,0.00220243902 C7.64462222,0.00220243902 1.92380741,5.6967878 1.92380741,12.6539341 C1.92380741,19.6105683 7.62751111,25.2780073 14.6705481,25.2780073 C19.1588444,25.2780073 23.1006222,22.9972024 25.3727704,19.5352756 C27.6459556,22.9972024 31.5882519,25.2974707 36.0770667,25.2974707 C43.1201037,25.2974707 48.8362519,19.6069829 48.8362519,12.6498366 C48.8362519,5.69320244 43.1341037,0.00220243902 36.0905481,0.00220243902" id="Fill-173" fill="#15151C"></path>
                    <path d="M38.0640296,22.8571171 C33.273437,23.849239 28.9624741,21.0690439 27.1730667,17.5067268 C26.9864,17.1328244 26.5959556,16.9054098 26.1749185,16.9054098 L24.7142519,16.9054098 C24.2932148,16.9054098 23.9027704,17.1323122 23.7161037,17.5051902 C22.1698815,20.5860439 18.7367704,23.1096293 14.7389926,23.1096293 C9.3126963,23.1096293 4.91099259,18.6919463 4.87884444,13.3384829 C4.84617778,7.94814146 9.53928889,3.58782439 14.9972148,3.58782439 L36.8149185,3.47770244 C42.0001037,3.90692195 46.0155111,8.24982439 45.9185481,13.4286293 C45.8335111,17.974361 42.5684,21.9244098 38.0640296,22.8571171 M36.0905481,0.514653659 L14.6876593,0.514653659 C7.64462222,0.514653659 1.92380741,6.20821463 1.92380741,13.1658732 C1.92380741,20.1230195 7.62751111,25.7899463 14.6705481,25.7899463 C19.1588444,25.7899463 23.1006222,23.5101659 25.3727704,20.0477268 C27.6459556,23.5101659 31.5882519,25.809922 36.0770667,25.809922 C43.1201037,25.809922 48.8362519,20.1199463 48.8362519,13.1622878 C48.8362519,6.20514146 43.1341037,0.514653659 36.0905481,0.514653659" id="Fill-175" fill="#2C2C3A"></path>
                    <path d="M36.6943111,3.58802927 L14.9969037,3.58802927 C14.9326074,3.58802927 14.8677926,3.58854146 14.8034963,3.59007805 C11.4160148,5.5164439 8.5372,8.3094439 6.4372,11.6863463 C6.43668148,11.7882732 6.43616296,11.8917366 6.43616296,11.9946878 C6.43616296,14.4557854 6.81779259,16.9885902 7.52401481,19.4486634 C9.32431111,21.379639 11.8904593,22.5971268 14.7386815,22.5971268 C18.7369778,22.5971268 22.1695704,20.0735415 23.7163111,16.9932 C23.9029778,16.620322 24.2929037,16.3929073 24.7144593,16.3929073 L26.1746074,16.3929073 C26.596163,16.3929073 26.9860889,16.620322 27.1732741,16.9942244 C28.7137926,20.0607366 32.1225333,22.5484683 36.0974963,22.5484683 C36.7399407,22.5484683 37.3974222,22.4834195 38.064237,22.3451268 C40.7211259,21.7950293 42.9476444,20.1944195 44.3434963,18.0411512 C44.8143111,16.0302732 45.0652741,13.9886634 45.0652741,11.9946878 C45.0652741,11.8912244 45.064237,11.787761 45.0632,11.6848098 C42.9616444,8.30688293 40.0838667,5.51439512 36.6943111,3.58802927 M18.5383852,10.394078 C18.4714963,10.394078 18.4046074,10.3910049 18.336163,10.3843463 L11.3574222,9.73283415 C10.5054963,9.65293171 9.86668148,9.09259024 9.9372,8.48615122 C10.0030519,7.92939512 10.6470519,7.52015122 11.4123852,7.52015122 C11.4792741,7.52015122 11.5472,7.52322439 11.6156444,7.52937073 L18.5943852,8.18190732 C19.4463111,8.26129756 20.0851259,8.82163902 20.0146074,9.42756585 C19.9487556,9.98534634 19.304237,10.394078 18.5383852,10.394078 M32.1686815,10.8232976 C31.3644593,10.8232976 30.6680889,10.2762732 30.5954963,9.56432195 C30.5187556,8.81754146 31.1549778,8.16039512 32.0084593,8.10405366 L39.2687556,7.62515122 C39.308163,7.62259024 39.3475704,7.62156585 39.3864593,7.62156585 C40.1912,7.62156585 40.8870519,8.16756585 40.9596444,8.88054146 C41.0363852,9.62732195 40.400163,10.2839561 39.5466815,10.3397854 L32.2869037,10.8192 C32.2469778,10.8222732 32.2080889,10.8232976 32.1686815,10.8232976 M34.2214963,15.539078 C33.458237,15.539078 32.8391259,14.9280293 32.8391259,14.1735659 C32.8391259,13.4191024 33.458237,12.8075415 34.2214963,12.8075415 C34.9852741,12.8075415 35.6043852,13.4191024 35.6043852,14.1735659 C35.6043852,14.9280293 34.9852741,15.539078 34.2214963,15.539078 M16.0738667,15.539078 C15.3100889,15.539078 14.6909778,14.9280293 14.6909778,14.1735659 C14.6909778,13.4191024 15.3100889,12.8075415 16.0738667,12.8075415 C16.8376444,12.8075415 17.456237,13.4191024 17.456237,14.1735659 C17.456237,14.9280293 16.8376444,15.539078 16.0738667,15.539078" id="Fill-177" fill="#F2981E"></path>
                    <path d="M39.3864074,7.62130976 C39.3475185,7.62130976 39.3081111,7.62233415 39.2687037,7.62540732 L32.0084074,8.10379756 C31.1549259,8.16065122 30.5187037,8.81779756 30.5954444,9.56406585 C30.6685556,10.2765293 31.3644074,10.8230415 32.1691481,10.8230415 C32.208037,10.8230415 32.2469259,10.8220171 32.2868519,10.8194561 L39.5471481,10.3400415 C40.4006296,10.2842122 41.0363333,9.62706585 40.9595926,8.88028537 C40.887,8.16782195 40.1911481,7.62130976 39.3864074,7.62130976" id="Fill-179" fill="#ED7416"></path>
                    <path d="M11.4122296,7.51999756 C10.6468963,7.51999756 10.0034148,7.92924146 9.93756296,8.48650976 C9.86652593,9.09243659 10.5053407,9.65277805 11.3577852,9.73268049 L18.3365259,10.3841927 C18.4044519,10.3908512 18.4718593,10.3939244 18.5382296,10.3939244 C19.3046,10.3939244 19.9486,9.98519268 20.0144519,9.4274122 C20.0854889,8.82148537 19.4466741,8.2611439 18.5947481,8.18175366 L11.6160074,7.52972927 C11.5470444,7.52307073 11.4791185,7.51999756 11.4122296,7.51999756" id="Fill-181" fill="#ED7416"></path>
                    <path d="M36.8148148,3.47749756 L36.8148148,3.58813171 L36.6945185,3.58813171 C40.0835556,5.51449756 42.9618519,8.30698537 45.0628889,11.6844 C45.050963,10.7501561 44.9835556,9.83179024 44.8648148,8.93083902 C43.3486667,7.03622927 41.5561481,5.41359512 39.5494815,4.09674146 C38.6902963,3.76944878 37.7725185,3.5568878 36.8148148,3.47749756 M14.8031852,3.59018049 C13.8651852,3.60759512 12.951037,3.75408293 12.080963,4.01171707 C9.98096296,5.37057073 8.11118519,7.06235122 6.54318519,9.04761951 C6.47785185,9.91169268 6.44362963,10.7916439 6.43740741,11.6859366 C8.53740741,8.30954634 11.4157037,5.51654634 14.8031852,3.59018049" id="Fill-183" fill="#E4801A"></path>
                    <path d="M45.0629926,11.6846049 C45.0640296,11.7875561 45.0650667,11.8910195 45.0650667,11.9944829 C45.0650667,13.9889707 44.8146222,16.0300683 44.3438074,18.0409463 C45.2719556,16.609361 45.8329926,14.9334585 45.9107704,13.1592146 C45.6447704,12.656239 45.3616593,12.1645317 45.0629926,11.6846049 M6.43699259,11.6861415 C5.90965926,12.5343366 5.43054815,13.419922 5.00536296,14.3372634 C5.32373333,16.286678 6.2244,18.0537512 7.52432593,19.4484585 C6.81758519,16.9883854 6.43595556,14.4560927 6.43595556,11.9944829 C6.43595556,11.8915317 6.43647407,11.7885805 6.43699259,11.6861415" id="Fill-185" fill="#E4801A"></path>
                    <path d="M44.864763,8.9307878 C44.9835037,9.83173902 45.0509111,10.7501049 45.062837,11.6843488 C45.3615037,12.1642756 45.6446148,12.6564951 45.9111333,13.1589585 C45.9132074,13.1026171 45.9152815,13.0462756 45.916837,12.989422 C45.8800222,11.5895927 45.5435037,10.2578854 44.9658741,9.05832439 L44.864763,8.9307878 M6.54313333,9.04808049 C6.05676296,9.66373902 5.59942963,10.3075683 5.17320741,10.9795683 C5.00157778,11.6387634 4.9015037,12.3240805 4.8818,13.0283488 C4.89372593,13.472422 4.93572593,13.9093244 5.00520741,14.3375195 C5.43091111,13.420178 5.9095037,12.5340805 6.43735556,11.6858854 C6.44357778,10.7915927 6.4778,9.91164146 6.54313333,9.04808049" id="Fill-187" fill="#DF7618"></path>
                    <path d="M12.0811185,4.01192195 C8.73045185,5.00506829 6.03985926,7.65362927 5.1728963,10.9798244 C5.59963704,10.3078244 6.05697037,9.66399512 6.54334074,9.04782439 C8.11134074,7.0620439 9.9806,5.37026341 12.0811185,4.01192195 M39.549637,4.09694634 C41.5563037,5.4138 43.3488222,7.03643415 44.8649704,8.9310439 C44.8986741,8.9735561 44.9318593,9.0155561 44.9660815,9.05858049 C43.8792667,6.7992878 41.9410444,5.00609268 39.549637,4.09694634" id="Fill-189" fill="#EB3409"></path>
                    <path d="M16.0738148,12.8077976 C15.310037,12.8077976 14.6909259,13.4193585 14.6909259,14.173822 C14.6909259,14.9277732 15.310037,15.5393341 16.0738148,15.5393341 C16.8375926,15.5393341 17.4567037,14.9277732 17.4567037,14.173822 C17.4567037,13.4193585 16.8375926,12.8077976 16.0738148,12.8077976" id="Fill-191" fill="#E9500D"></path>
                    <path d="M34.2217037,12.8077976 C33.4579259,12.8077976 32.8388148,13.4193585 32.8388148,14.173822 C32.8388148,14.9277732 33.4579259,15.5393341 34.2217037,15.5393341 C34.9854815,15.5393341 35.6045926,14.9277732 35.6045926,14.173822 C35.6045926,13.4193585 34.9854815,12.8077976 34.2217037,12.8077976" id="Fill-193" fill="#E9500D"></path>
                    <path d="M45.9167333,12.9893707 C45.9151778,13.0462244 45.9136222,13.1025659 45.9110296,13.1594195 C45.8332519,14.9331512 45.2716963,16.6095659 44.3435481,18.0411512 C42.9471778,20.1944195 40.7211778,21.7950293 38.0637704,22.3451268 C37.3974741,22.4834195 36.7399926,22.5484683 36.0975481,22.5484683 C32.1220667,22.5484683 28.7138444,20.0607366 27.1733259,16.9942244 C26.9861407,16.620322 26.5962148,16.3929073 26.1746593,16.3929073 L24.7139926,16.3929073 C24.2929556,16.3929073 23.9030296,16.620322 23.716363,16.9932 C22.1696222,20.0735415 18.7370296,22.5971268 14.7387333,22.5971268 C11.8899926,22.5971268 9.32436296,21.379639 7.52406667,19.4486634 C6.22414074,18.0539561 5.32399259,16.2868829 5.00562222,14.3374683 C4.93562222,13.9092732 4.89362222,13.4723707 4.8816963,13.0288098 C4.87962222,13.110761 4.87806667,13.1927122 4.87806667,13.2751756 C4.87806667,13.2961756 4.87806667,13.3171756 4.87858519,13.3381756 C4.91073333,18.6921512 9.31295556,23.1098341 14.7387333,23.1098341 C18.7370296,23.1098341 22.1696222,20.5862488 23.716363,17.5048829 C23.9030296,17.1320049 24.2929556,16.9056146 24.7139926,16.9056146 L26.1746593,16.9056146 C26.5962148,16.9056146 26.9861407,17.1330293 27.1733259,17.5064195 C28.7133259,20.5729317 32.1220667,23.0601512 36.0970296,23.0601512 C36.7394741,23.0601512 37.3974741,22.9951024 38.0637704,22.857322 C42.5681407,21.9246146 45.8332519,17.9745659 45.9182889,13.428322 C45.9193259,13.3678829 45.920363,13.3074439 45.920363,13.2470049 C45.920363,13.1604439 45.9188074,13.0749073 45.9167333,12.9893707" id="Fill-195" fill="#151407"></path>
                    <path d="M36.8148148,3.47749756 L36.8148148,3.47749756 C37.7725185,3.5568878 38.6902963,3.76944878 39.5494815,4.09674146 C41.9408889,5.0064 43.8796296,6.79959512 44.9659259,9.05837561 C45.543037,10.2579366 45.8800741,11.5896439 45.9168889,12.9894732 C45.918963,13.0750098 45.9205185,13.1605463 45.9205185,13.2471073 C45.921037,8.14871707 41.9393333,3.90210732 36.8148148,3.47749756 M14.9971111,3.58813171 L14.9971111,3.58813171 C9.56044444,3.58813171 4.88288889,7.91413171 4.87822222,13.275278 C4.87822222,13.1928146 4.87977778,13.1108634 4.88185185,13.0284 C4.90155556,12.3241317 5.00162963,11.6388146 5.17325926,10.9796195 C6.0397037,7.65393659 8.7302963,5.00537561 12.080963,4.01171707 C12.951037,3.75408293 13.8651852,3.60759512 14.8031852,3.59018049 C14.868,3.5886439 14.9322963,3.58813171 14.9971111,3.58813171" id="Fill-197" fill="#2B2A0E"></path>
                    <path d="M2.7202,14.7132659 C2.7202,15.5583878 2.18612593,16.2498512 1.53382963,16.2498512 C0.881014815,16.2498512 0.346940741,15.5583878 0.346940741,14.7132659 L0.346940741,11.0992171 C0.346940741,10.2540951 0.881014815,9.56263171 1.53382963,9.56263171 C2.18612593,9.56263171 2.7202,10.2540951 2.7202,11.0992171 L2.7202,14.7132659 Z" id="Fill-199" fill="#2C2C3A"></path>
                    <path d="M50.4697407,14.7132659 C50.4697407,15.5583878 49.9356667,16.2498512 49.2833704,16.2498512 C48.6305556,16.2498512 48.0964815,15.5583878 48.0964815,14.7132659 L48.0964815,11.0992171 C48.0964815,10.2540951 48.6305556,9.56263171 49.2833704,9.56263171 C49.9356667,9.56263171 50.4697407,10.2540951 50.4697407,11.0992171 L50.4697407,14.7132659 Z" id="Fill-201" fill="#2C2C3A"></path>
                </g>
                <circle id="Oval-31" stroke="#FFFFFF" stroke-width="2" cx="42" cy="42" r="41"></circle>
            </g>
        </g>
    </g>
</svg>