<?xml version="1.0" encoding="UTF-8"?>
<svg width="84px" height="84px" viewBox="0 0 84 84" version="1.1" xmlns="http://www.w3.org/2000/svg" xmlns:xlink="http://www.w3.org/1999/xlink">
    <!-- Generator: Sketch 49.3 (51167) - http://www.bohemiancoding.com/sketch -->
    <title>img-level-6-big</title>
    <desc>Created with Sketch.</desc>
    <defs>
        <polygon id="path-1" points="84 0.489236364 0 0.489236364 0 41.7255745 0 82.9619127 84 82.9619127 84 0.489236364"></polygon>
        <path d="M0.474694185,0.304141666 C7.74671607,12.5914008 21.2981307,20.8528727 36.8148148,20.8528727 C52.3314989,20.8528727 65.8829136,12.5914008 73.1549354,0.304141666 L0.474694185,0.304141666 L0.474694185,0.304141666 Z" id="path-3"></path>
        <path d="M-3.86535248e-12,8.96898084 C3.07611818,10.864534 6.42023156,12.3794859 9.96385185,13.4465933 L9.96385185,0.489185455 L-7.42122413e-14,0.489185455 L-7.42122413e-14,8.96898084 L-3.86535248e-12,8.96898084 Z" id="path-5"></path>
        <path d="M0.406518519,13.4465933 C3.95013881,12.3794859 7.29425219,10.864534 10.3703704,8.96898084 L10.3703704,0.489185455 L0.406518519,0.489185455 L0.406518519,13.4465933 L0.406518519,13.4465933 Z" id="path-7"></path>
        <path d="M0,41.7256 C0,64.4997818 18.8040741,82.9619636 42,82.9619636 C65.1959259,82.9619636 84,64.4997818 84,41.7256 C84,18.9509091 65.1959259,0.489236364 42,0.489236364 C18.8040741,0.489236364 0,18.9509091 0,41.7256 Z" id="path-9"></path>
    </defs>
    <g id="img-level-6-big" stroke="none" stroke-width="1" fill="none" fill-rule="evenodd">
        <g id="Page-1">
            <g>
                <g id="Group-28" transform="translate(0.000000, 0.019855)">
                    <g id="Group-3">
                        <mask id="mask-2" fill="white">
                            <use xlink:href="#path-1"></use>
                        </mask>
                        <g id="Clip-2"></g>
                        <path d="M0,41.7255491 C0,18.9513673 18.8040741,0.489185455 42,0.489185455 C65.1959259,0.489185455 84,18.9513673 84,41.7255491 C84,64.4997309 65.1959259,82.9619127 42,82.9619127 C18.8040741,82.9619127 0,64.4997309 0,41.7255491" id="Fill-1" fill="#2B2B3B" mask="url(#mask-2)"></path>
                    </g>
                    <path d="M67.7898667,16.2315491 C67.7898667,16.5115491 67.6260148,16.74064 67.4253481,16.74064 C67.2246815,16.74064 67.0608296,16.5115491 67.0608296,16.2315491 L67.0608296,15.1675491 C67.0608296,14.8875491 67.2246815,14.6584582 67.4253481,14.6584582 C67.6260148,14.6584582 67.7898667,14.8875491 67.7898667,15.1675491 L67.7898667,16.2315491 Z" id="Fill-4" fill="#FFFFFF"></path>
                    <path d="M67.9672519,15.3415564 C68.252437,15.3415564 68.4857704,15.5024291 68.4857704,15.6994473 C68.4857704,15.8964655 68.252437,16.0573382 67.9672519,16.0573382 L66.8835481,16.0573382 C66.598363,16.0573382 66.3650296,15.8964655 66.3650296,15.6994473 C66.3650296,15.5024291 66.598363,15.3415564 66.8835481,15.3415564 L67.9672519,15.3415564 Z" id="Fill-6" fill="#FFFFFF"></path>
                    <path d="M6.93865926,36.3595273 C6.93865926,36.6395273 6.77480741,36.8686182 6.57414074,36.8686182 C6.37347407,36.8686182 6.20962222,36.6395273 6.20962222,36.3595273 L6.20962222,35.2955273 C6.20962222,35.0155273 6.37347407,34.7864364 6.57414074,34.7864364 C6.77480741,34.7864364 6.93865926,35.0155273 6.93865926,35.2955273 L6.93865926,36.3595273 Z" id="Fill-8" fill="#FFFFFF"></path>
                    <path d="M7.11604444,35.4695345 C7.40122963,35.4695345 7.63456296,35.6304073 7.63456296,35.8274255 C7.63456296,36.0244436 7.40122963,36.1853164 7.11604444,36.1853164 L6.03234074,36.1853164 C5.74715556,36.1853164 5.51382222,36.0244436 5.51382222,35.8274255 C5.51382222,35.6304073 5.74715556,35.4695345 6.03234074,35.4695345 L7.11604444,35.4695345 Z" id="Fill-10" fill="#FFFFFF"></path>
                    <path d="M13.1612444,61.4397891 C13.1612444,61.7197891 12.9973926,61.94888 12.7967259,61.94888 C12.5960593,61.94888 12.4322074,61.7197891 12.4322074,61.4397891 L12.4322074,60.3757891 C12.4322074,60.0957891 12.5960593,59.8666982 12.7967259,59.8666982 C12.9973926,59.8666982 13.1612444,60.0957891 13.1612444,60.3757891 L13.1612444,61.4397891 Z" id="Fill-12" fill="#FFFFFF"></path>
                    <path d="M13.3386296,60.5498473 C13.6238148,60.5498473 13.8571481,60.71072 13.8571481,60.9077382 C13.8571481,61.1047564 13.6238148,61.2656291 13.3386296,61.2656291 L12.2549259,61.2656291 C11.9697407,61.2656291 11.7364074,61.1047564 11.7364074,60.9077382 C11.7364074,60.71072 11.9697407,60.5498473 12.2549259,60.5498473 L13.3386296,60.5498473 Z" id="Fill-14" fill="#FFFFFF"></path>
                    <path d="M70.039563,22.0649164 C70.039563,22.3449164 69.8757111,22.5740073 69.6750444,22.5740073 C69.4743778,22.5740073 69.3105259,22.3449164 69.3105259,22.0649164 L69.3105259,21.0009164 C69.3105259,20.7209164 69.4743778,20.4918255 69.6750444,20.4918255 C69.8757111,20.4918255 70.039563,20.7209164 70.039563,21.0009164 L70.039563,22.0649164 Z" id="Fill-16" fill="#FFFFFF"></path>
                    <path d="M70.2169481,21.1749236 C70.5021333,21.1749236 70.7354667,21.3357964 70.7354667,21.5328145 C70.7354667,21.7298327 70.5021333,21.8907055 70.2169481,21.8907055 L69.1332444,21.8907055 C68.8480593,21.8907055 68.6147259,21.7298327 68.6147259,21.5328145 C68.6147259,21.3357964 68.8480593,21.1749236 69.1332444,21.1749236 L70.2169481,21.1749236 Z" id="Fill-18" fill="#FFFFFF"></path>
                    <path d="M71.774837,53.4891127 C71.774837,53.7691127 71.6109852,53.9982036 71.4103185,53.9982036 C71.2096519,53.9982036 71.0458,53.7691127 71.0458,53.4891127 L71.0458,52.4251127 C71.0458,52.1451127 71.2096519,51.9160218 71.4103185,51.9160218 C71.6109852,51.9160218 71.774837,52.1451127 71.774837,52.4251127 L71.774837,53.4891127 Z" id="Fill-20" fill="#FFFFFF"></path>
                    <path d="M71.9522222,52.59912 C72.2374074,52.59912 72.4707407,52.7599927 72.4707407,52.9570109 C72.4707407,53.1540291 72.2374074,53.3149018 71.9522222,53.3149018 L70.8685185,53.3149018 C70.5833333,53.3149018 70.35,53.1540291 70.35,52.9570109 C70.35,52.7599927 70.5833333,52.59912 70.8685185,52.59912 L71.9522222,52.59912 Z" id="Fill-22" fill="#FFFFFF"></path>
                    <path d="M9.3212,25.6685164 C9.3212,25.9485164 9.15734815,26.1776073 8.95668148,26.1776073 C8.75601481,26.1776073 8.59216296,25.9485164 8.59216296,25.6685164 L8.59216296,24.6045164 C8.59216296,24.3245164 8.75601481,24.0954255 8.95668148,24.0954255 C9.15734815,24.0954255 9.3212,24.3245164 9.3212,24.6045164 L9.3212,25.6685164 Z" id="Fill-24" fill="#FFFFFF"></path>
                    <path d="M9.49863704,24.7785745 C9.78382222,24.7785745 10.0171556,24.9394473 10.0171556,25.1364655 C10.0171556,25.3334836 9.78382222,25.4943564 9.49863704,25.4943564 L8.41493333,25.4943564 C8.12974815,25.4943564 7.89641481,25.3334836 7.89641481,25.1364655 C7.89641481,24.9394473 8.12974815,24.7785745 8.41493333,24.7785745 L9.49863704,24.7785745 Z" id="Fill-26" fill="#FFFFFF"></path>
                </g>
                <g id="Group-64" transform="translate(0.000000, 0.019855)">
                    <g id="Group-31" transform="translate(5.185185, 62.109091)">
                        <mask id="mask-4" fill="white">
                            <use xlink:href="#path-3"></use>
                        </mask>
                        <g id="Clip-30"></g>
                        <path d="M-2.16642222,54.4469164 C-9.51175556,32.9398618 2.29128148,9.65862545 24.1966148,2.44633455 C46.1019481,-4.76544727 69.8143185,6.82298909 77.1601704,28.3300436 C84.5055037,49.8370982 72.7024667,73.1183345 50.7971333,80.3306255 C28.8918,87.5424073 5.17891111,75.9539709 -2.16642222,54.4469164" id="Fill-29" fill="#E8F2FB" mask="url(#mask-4)"></path>
                    </g>
                    <path d="M20.7712296,68.4593891 C26.6133778,72.2770618 34.0743407,74.5608436 42.2062667,74.5608436 C50.3381926,74.5608436 57.7991556,72.2816436 63.6407852,68.4634618 L60.4161185,59.54368 L23.9958963,59.54368 L20.7712296,68.4593891 Z" id="Fill-32" fill="#C4DEED"></path>
                    <path d="M43.5555556,74.5294836 C51.3333333,74.2988655 58.1368148,72.0726109 63.6657778,68.4595927 L60.4162222,59.5438836 L43.5555556,59.5438836 L43.5555556,74.5294836 Z" id="Fill-34" fill="#A6CDE3"></path>
                    <path d="M11.0605185,38.9176073 C11.0605185,33.2651709 15.7271852,28.6833527 21.4842963,28.6833527 C27.2408889,28.6833527 31.9080741,33.2651709 31.9080741,38.9176073 C31.9080741,44.5700436 27.2408889,49.1518618 21.4842963,49.1518618 C15.7271852,49.1518618 11.0605185,44.5700436 11.0605185,38.9176073" id="Fill-36" fill="#FFFFFF"></path>
                    <path d="M52.2530815,38.9176073 C52.2530815,33.2651709 56.9197481,28.6833527 62.6768593,28.6833527 C68.4334519,28.6833527 73.100637,33.2651709 73.100637,38.9176073 C73.100637,44.5700436 68.4334519,49.1518618 62.6768593,49.1518618 C56.9197481,49.1518618 52.2530815,44.5700436 52.2530815,38.9176073" id="Fill-38" fill="#C4DEED"></path>
                    <path d="M42.2148741,59.1700582 C30.6954667,59.1700582 21.3569481,52.4444582 21.3569481,41.1344945 C21.3569481,29.8245309 30.6954667,29.7120218 42.2148741,29.7120218 C53.7342815,29.7120218 63.0722815,29.8245309 63.0722815,41.1344945 C63.0722815,52.4444582 53.7342815,59.1700582 42.2148741,59.1700582 M42.2060593,12.4070036 C26.9470963,12.4070036 14.5768,24.5523855 14.5768,39.5339127 C14.5768,54.5159491 26.9470963,66.6608218 42.2060593,66.6608218 C57.4650222,66.6608218 69.8353185,54.5159491 69.8353185,39.5339127 C69.8353185,24.5523855 57.4650222,12.4070036 42.2060593,12.4070036" id="Fill-40" fill="#E8F2FB"></path>
                    <path d="M42.0767407,59.1405309 C42.4915556,59.1583491 42.9084444,59.1700582 43.328963,59.1700582 C54.8483704,59.1700582 64.1868889,52.4444582 64.1868889,41.1344945 C64.1868889,29.8245309 54.8483704,29.7120218 43.328963,29.7120218 C42.9084444,29.7120218 42.4915556,29.7125309 42.0767407,29.71304 C53.0128148,29.73544 61.6824444,30.2374036 61.6824444,41.1344945 C61.6824444,52.0310764 53.0128148,58.6696218 42.0767407,59.1405309" id="Fill-42" fill="#FFFFFF"></path>
                    <path d="M21.3571556,41.1343418 C21.3571556,29.8243782 30.6956741,29.7118691 42.2150815,29.7118691 C53.7344889,29.7118691 63.0724889,29.8243782 63.0724889,41.1343418 C63.0724889,52.4443055 53.7344889,59.1699055 42.2150815,59.1699055 C30.6956741,59.1699055 21.3571556,52.4443055 21.3571556,41.1343418" id="Fill-44" fill="#3DABA0"></path>
                    <path d="M21.3571556,43.4094182 C21.3571556,32.0994545 30.6956741,31.9869455 42.2150815,31.9869455 C53.7344889,31.9869455 63.0724889,32.0994545 63.0724889,43.4094182 C63.0724889,54.7193818 53.7344889,61.4449818 42.2150815,61.4449818 C30.6956741,61.4449818 21.3571556,54.7193818 21.3571556,43.4094182" id="Fill-46" fill="#48C8BC"></path>
                    <path d="M31.7612815,35.0788073 L24.3205407,41.0489164" id="Stroke-48" stroke-opacity="0.8" stroke="#FFFFFF" stroke-width="2" stroke-linecap="round" stroke-linejoin="round"></path>
                    <path d="M36.3830963,36.2606109 L25.3702815,45.3606109" id="Stroke-50" stroke-opacity="0.8" stroke="#FFFFFF" stroke-width="2" stroke-linecap="round" stroke-linejoin="round"></path>
                    <g id="Group-54" transform="translate(19.703704, 67.709091)">
                        <mask id="mask-6" fill="white">
                            <use xlink:href="#path-5"></use>
                        </mask>
                        <g id="Clip-53"></g>
                        <path d="M0,0.489185455 L0,16.0974036 C0,16.0974036 0.231777778,24.4459855 9.96385185,24.4459855" id="Stroke-52" stroke="#94BDD4" stroke-width="4" stroke-linecap="round" stroke-linejoin="round" mask="url(#mask-6)"></path>
                    </g>
                    <g id="Group-57" transform="translate(53.925926, 67.709091)">
                        <mask id="mask-8" fill="white">
                            <use xlink:href="#path-7"></use>
                        </mask>
                        <g id="Clip-56"></g>
                        <path d="M10.3703704,0.489185455 L10.3703704,16.0974036 C10.3703704,16.0974036 10.1385926,24.4459855 0.406518519,24.4459855" id="Stroke-55" stroke="#94BDD4" stroke-width="4" stroke-linecap="round" stroke-linejoin="round" mask="url(#mask-8)"></path>
                    </g>
                    <path d="M17.0814,39.5341164 C17.0814,24.9649527 28.7807333,13.0817527 43.458437,12.4382618 C43.0431037,12.4199345 42.6262148,12.4072073 42.2062148,12.4072073 C26.9467333,12.4072073 14.5769556,24.5525891 14.5769556,39.5341164 C14.5769556,54.5156436 26.9467333,66.6610255 42.2062148,66.6610255 C42.6262148,66.6610255 43.0431037,66.6477891 43.458437,66.6299709 C28.7807333,65.98648 17.0814,54.10328 17.0814,39.5341164" id="Fill-58" fill="#FFFFFF"></path>
                    <mask id="mask-10" fill="white">
                        <use xlink:href="#path-9"></use>
                    </mask>
                    <g id="Clip-61"></g>
                    <polygon id="Fill-60" fill="#E8F2FB" mask="url(#mask-10)" points="57.6763704 20.9343273 58.6636296 20.9343273 58.6636296 12.6381818 57.6763704 12.6381818"></polygon>
                    <polygon id="Fill-62" fill="#C4DEED" mask="url(#mask-10)" points="57.6764741 17.0356073 58.6637333 17.6806255 58.6637333 20.9342255 57.6764741 20.9342255"></polygon>
                    <path d="M57.0205481,12.6379782 C57.0205481,12.0311418 57.5219556,11.5388509 58.1400296,11.5388509 C58.7581037,11.5388509 59.2595111,12.0311418 59.2595111,12.6379782 C59.2595111,13.2448145 58.7581037,13.7371055 58.1400296,13.7371055 C57.5219556,13.7371055 57.0205481,13.2448145 57.0205481,12.6379782" id="Fill-63" fill="#48C8BC" mask="url(#mask-10)"></path>
                </g>
                <circle id="Oval-31" stroke="#FFFFFF" stroke-width="2" cx="42" cy="42" r="41"></circle>
            </g>
        </g>
    </g>
</svg>