<?xml version="1.0" encoding="UTF-8"?>
<svg width="84px" height="84px" viewBox="0 0 84 84" version="1.1" xmlns="http://www.w3.org/2000/svg" xmlns:xlink="http://www.w3.org/1999/xlink">
    <!-- Generator: Sketch 49.3 (51167) - http://www.bohemiancoding.com/sketch -->
    <title>img-level-5-big</title>
    <desc>Created with Sketch.</desc>
    <defs>
        <path d="M0.146069841,2.49160931 C7.7640065,10.1804084 18.3589072,14.947362 30.0740741,14.947362 C41.956433,14.947362 52.686322,10.0433752 60.3264102,2.1606392 L60.3264102,0.483236517 L0.146069841,0.483236517 L0.146069841,2.49160931 L0.146069841,2.49160931 Z" id="path-1"></path>
        <path d="M0.450022222,13.8975178 C3.47269377,14.5844971 6.61963497,14.947362 9.85185185,14.947362 C13.3637466,14.947362 16.7749696,14.5189842 20.0355037,13.7119337 L20.0355037,0.202069512 L0.450022222,0.202069512 L0.450022222,13.8975178 L0.450022222,13.8975178 Z" id="path-3"></path>
        <path d="M0.443437037,4.52230112 C1.49517427,4.60070491 2.55771256,4.6406135 3.62962963,4.6406135 C4.71359715,4.6406135 5.78797383,4.59980257 6.85128889,4.51964229 L6.85128889,0.00252515337 L0.443437037,0.00252515337 L0.443437037,4.52230112 L0.443437037,4.52230112 Z" id="path-5"></path>
        <path d="M0.307948148,8.69347988 C5.9354754,11.6106079 12.3110119,13.2979151 19.0736519,13.3967484 L19.0736519,0.496579141 L0.307948148,0.496579141 L0.307948148,8.69347988 L0.307948148,8.69347988 Z" id="path-7"></path>
        <path d="M0.308155556,13.4002497 C6.94501915,13.3528529 13.2158748,11.7755609 18.7814185,9.00555959 L18.7814148,0.233293252 L0.308155556,0.233293252 L0.308155556,13.4002497 L0.308155556,13.4002497 Z" id="path-9"></path>
    </defs>
    <g id="img-level-5-big" stroke="none" stroke-width="1" fill="none" fill-rule="evenodd">
        <g id="Page-1">
            <g>
                <path d="M0,41.7424859 C0,18.6888663 18.8040741,0.000154601227 42,0.000154601227 C65.1959259,0.000154601227 84,18.6888663 84,41.7424859 C84,64.7961055 65.1959259,83.4848172 42,83.4848172 C18.8040741,83.4848172 0,64.7961055 0,41.7424859" id="Fill-1" fill="#FFD75E"></path>
                <g id="Group-58" transform="translate(11.925926, 7.727485)">
                    <path d="M8.61922963,29.6821472 C8.70219259,29.6713252 8.78463704,29.6702945 8.8676,29.6656564 C8.70893333,33.3461963 9.14397037,36.9731411 10.0798963,40.3810675 C10.0658963,40.3831288 10.0529333,40.3872515 10.0394519,40.3887975 C7.6833037,40.6974847 5.45574815,38.5511043 5.06374815,35.5946135 C4.67122963,32.6376074 6.2636,29.9908344 8.61922963,29.6821472" id="Fill-3" fill="#DE7662"></path>
                    <path d="M8.8354,30.8624761 C8.81154815,33.6932245 9.1351037,36.4817153 9.76458519,39.1511632 C8.13902963,38.6796294 6.85051111,37.2382307 6.60577037,35.392292 C6.35221481,33.4809055 7.2954,31.7040221 8.8354,30.8624761" id="Fill-5" fill="#B25252"></path>
                    <g id="Group-9" transform="translate(0.000000, 60.809816)">
                        <mask id="mask-2" fill="white">
                            <use xlink:href="#path-1"></use>
                        </mask>
                        <g id="Clip-8"></g>
                        <path d="M1.7151037,39.8942282 C-3.56704444,24.2387926 4.92058519,7.29243681 20.6721407,2.04269448 C36.4242148,-3.20704785 53.4756963,5.22799509 58.7573259,20.8834307 C64.0394741,36.5383509 55.552363,53.4852221 39.8002889,58.7349644 C24.0487333,63.9847067 6.99725185,55.5496638 1.7151037,39.8942282" id="Fill-7" fill="#102042" mask="url(#mask-2)"></path>
                    </g>
                    <g id="Group-12" transform="translate(20.222222, 60.809816)">
                        <mask id="mask-4" fill="white">
                            <use xlink:href="#path-3"></use>
                        </mask>
                        <g id="Clip-11"></g>
                        <path d="M0.450022222,2.04259141 L9.74031852,33.195254 L20.0355037,2.29665276 C20.0355037,2.29665276 8.91224444,-2.24192393 0.450022222,2.04259141" id="Fill-10" fill="#ECECEC" mask="url(#mask-4)"></path>
                    </g>
                    <g id="Group-15" transform="translate(26.444444, 71.116564)">
                        <mask id="mask-6" fill="white">
                            <use xlink:href="#path-5"></use>
                        </mask>
                        <g id="Clip-14"></g>
                        <polygon id="Fill-13" fill="#102042" mask="url(#mask-6)" points="0.443437037 10.6710405 3.51825185 21.7966601 6.85128889 10.6710405 5.69706667 0.00252515337 1.5624 0.00252515337"></polygon>
                    </g>
                    <path d="M27.2115407,69.9425742 C27.2115407,68.3713104 28.4933185,67.0973963 30.0742815,67.0973963 C31.6552444,67.0973963 32.9365037,68.3713104 32.9365037,69.9425742 C32.9365037,71.513838 31.6552444,72.2724147 30.0742815,72.2724147 C28.4933185,72.2724147 27.2115407,71.513838 27.2115407,69.9425742" id="Fill-16" fill="#102042"></path>
                    <path d="M27.2115407,69.9425742 C27.2115407,68.3713104 28.4933185,67.0973963 30.0742815,67.0973963 C31.6552444,67.0973963 32.9365037,68.3713104 32.9365037,69.9425742 C32.9365037,71.513838 31.6552444,72.2724147 30.0742815,72.2724147 C28.4933185,72.2724147 27.2115407,71.513838 27.2115407,69.9425742 L27.2115407,69.9425742 Z" id="Stroke-18" stroke="#FFFFFF"></path>
                    <path d="M24.8888889,55.1438356 L24.8888889,64.4199092 L24.890963,64.4199092 C24.9122222,66.6652344 27.2237778,68.4802528 30.0740741,68.4802528 C32.9243704,68.4802528 35.2359259,66.6652344 35.2571852,64.4199092 L35.2592593,64.4199092 L35.2592593,55.1438356 L24.8888889,55.1438356 Z" id="Fill-20" fill="#ED8E66"></path>
                    <polygon id="Fill-22" fill="#B25252" points="35.2592593 62.6162282 24.8888889 58.4935288 24.8888889 57.2051853 35.2592593 57.2051853"></polygon>
                    <path d="M51.1946296,23.1941521 C47.313,10.0716 34.7835185,3.00117055 23.2086296,7.40112147 C11.6332222,11.8015877 5.39648148,26.0068638 9.27811111,39.129416 C13.1597407,52.2519681 25.6892222,59.3229129 37.2641111,54.9224466 C48.839,50.5219804 55.0762593,36.3167043 51.1946296,23.1941521" id="Fill-24" fill="#DE7662"></path>
                    <path d="M8.39927407,31.3879141 C8.39927407,18.5132393 18.2573481,8.07611043 30.4176444,8.07611043 C42.5774222,8.07611043 52.4354963,18.5132393 52.4354963,31.3879141 C52.4354963,44.262589 42.5774222,58.4560123 30.4176444,58.4560123 C18.2573481,58.4560123 8.39927407,44.262589 8.39927407,31.3879141" id="Fill-26" fill="#F5A17D"></path>
                    <path d="M8.15183704,20.3469644 C9.16502222,26.3460074 18.7348,31.051038 30.4071704,31.051038 C42.4943556,31.051038 52.3161333,26.003308 52.7236889,19.6997006" id="Fill-28" fill-opacity="0.599999964" fill="#DE7662"></path>
                    <path d="M10.2839333,20.6432319 C10.2839333,20.6432319 30.1929704,14.0474282 33.4041556,10.8559436 C33.4041556,10.8559436 27.1959333,17.4517472 24.8413407,17.877416 C24.8413407,17.877416 38.3280074,12.3452687 39.8265259,10.4307902 C41.3250444,8.51579632 17.5623778,7.87729325 17.5623778,7.87729325 L10.2839333,20.6432319 Z" id="Fill-30" fill="#DE7662"></path>
                    <path d="M30.4173852,56.3945595 C19.4642,56.3945595 11.1030889,43.2477865 11.1030889,31.6511485 C11.1030889,20.0539951 15.685237,10.6532098 30.4173852,10.6532098 C41.3705704,10.6532098 49.7316815,20.0539951 49.7316815,31.6511485 C49.7316815,43.2477865 41.3705704,56.3945595 30.4173852,56.3945595 M30.4173852,8.0765227 C18.2570889,8.0765227 8.39953333,18.5131362 8.39953333,31.387811 C8.39953333,44.2624859 18.2570889,58.4559092 30.4173852,58.4559092 C42.5776815,58.4559092 52.4357556,44.2624859 52.4357556,31.387811 C52.4357556,18.5131362 42.5776815,8.0765227 30.4173852,8.0765227" id="Fill-32" fill-opacity="0.599999964" fill="#DE7662"></path>
                    <polygon id="Fill-34" fill="#FFC79B" points="33.1529852 44.1929153 27.3196519 44.1929153 29.1474296 43.1622405 31.3252074 43.1622405"></polygon>
                    <path d="M25.5890444,49.2898086 C25.5890444,49.7262994 28.1214889,50.5833055 30.1966,50.5833055 C32.2722296,50.5833055 35.0774148,49.5964344 35.0774148,49.209416 C35.0774148,48.9110356 33.8127481,48.3137595 32.1140815,48.3137595 C31.2191185,48.3137595 31.1283778,48.5271092 30.4278593,48.5204098 C29.8082296,48.5142258 29.6086,48.2730479 28.9184519,48.2730479 C26.8433407,48.2730479 25.5890444,48.8878454 25.5890444,49.2898086" id="Fill-36" fill="#DE7662"></path>
                    <polygon id="Fill-38" fill="#B25252" points="34.0601852 49.3257276 26.6386296 49.3257276 25.6021111 49.0680589 35.0972222 49.0680589"></polygon>
                    <path d="M50.6419926,29.2910577 C50.6419926,20.1865914 47.012363,17.5671313 44.7656222,14.8188368 C42.518363,12.070027 38.8887333,10.3096344 38.8887333,10.3096344 L19.1850296,10.3096344 C19.1850296,10.3096344 13.9998444,17.0517939 11.4938444,19.5424196 C8.98784444,22.0335607 9.41977037,29.8063951 9.41977037,29.8063951 L8.68502963,32.7268123 C8.25414074,32.7262969 8.16028889,30.0924074 7.77762222,25.7697571 C7.33636296,20.7807755 8.29614074,16.8368982 8.29614074,16.8368982 L12.4442889,9.62217423 L46.8396963,7.81849325 L48.7405852,9.27895951 L52.7160667,8.93522945 L50.4693259,12.5425914 L55.3086593,14.0886037 L51.1605111,16.4936834 L54.0989556,23.0209472 L52.7160667,22.5056098 L52.6294741,30.0212908 L52.3702148,32.5979779 L50.5554,29.2910577" id="Fill-40" fill="#774304"></path>
                    <path d="M10.2839333,19.0972196 C10.2839333,19.0972196 30.1929704,12.501416 33.4041556,9.30993129 C33.4041556,9.30993129 27.1959333,15.905735 24.8413407,16.3314037 C24.8413407,16.3314037 38.3280074,10.7992564 39.8265259,8.88477791 C41.3250444,6.96978405 17.5623778,6.33128098 17.5623778,6.33128098 L10.2839333,19.0972196 Z" id="Fill-42" fill="#774304"></path>
                    <path d="M18.3209704,32.2971755 C18.3209704,31.5380834 18.9400815,30.9227706 19.7038593,30.9227706 C20.4671185,30.9227706 21.0862296,31.5380834 21.0862296,32.2971755 C21.0862296,33.0562675 20.4671185,33.6715804 19.7038593,33.6715804 C18.9400815,33.6715804 18.3209704,33.0562675 18.3209704,32.2971755" id="Fill-44" fill="#132729"></path>
                    <path d="M42.3456963,32.2971755 C42.3456963,31.5380834 41.7265852,30.9227706 40.9628074,30.9227706 C40.1995481,30.9227706 39.580437,31.5380834 39.580437,32.2971755 C39.580437,33.0562675 40.1995481,33.6715804 40.9628074,33.6715804 C41.7265852,33.6715804 42.3456963,33.0562675 42.3456963,32.2971755" id="Fill-46" fill="#132729"></path>
                    <path d="M57.448637,10.6029129 C57.448637,5.75925644 45.1234519,0.10755092 29.9194519,0.10755092 C14.7149333,0.10755092 2.38974815,5.75925644 2.38974815,10.6029129 C2.38974815,13.4980785 4.54367407,16.1618577 8.15204444,18.2855632 C9.16522963,24.2846061 18.7350074,28.9896368 30.4068593,28.9896368 C42.494563,28.9896368 52.3163407,23.9419067 52.7238963,17.6382994 C55.7058963,15.6315755 57.448637,13.2100049 57.448637,10.6029129" id="Fill-48" fill="#0F1F40"></path>
                    <path d="M30.4919481,14.5844098 C30.4919481,14.5844098 30.4919481,10.6085816 35.1881704,9.7438454 C39.8843926,8.87962454 43.884763,9.22541595 43.884763,9.22541595 C43.884763,9.22541595 39.8843926,15.9675755 30.4919481,14.5844098" id="Fill-50" fill="#F8F64C"></path>
                    <path d="M29.2212667,14.5844098 C29.2212667,14.5844098 29.2212667,10.6085816 24.5250444,9.7438454 C19.8288222,8.87962454 15.8284519,9.22541595 15.8284519,9.22541595 C15.8284519,9.22541595 19.8288222,15.9675755 29.2212667,14.5844098" id="Fill-52" fill="#F8F64C"></path>
                    <path d="M26.3142444,10.3132933 C26.3142444,8.49930552 27.7940963,7.02853252 29.6192815,7.02853252 C31.4439481,7.02853252 32.9238,8.49930552 32.9238,10.3132933 C32.9238,12.127281 31.4439481,13.598054 29.6192815,13.598054 C27.7940963,13.598054 26.3142444,12.127281 26.3142444,10.3132933" id="Fill-54" fill="#F8F64C"></path>
                    <path d="M26.3142444,10.3132933 C26.3142444,8.49930552 27.7940963,7.02853252 29.6192815,7.02853252 C31.4439481,7.02853252 32.9238,8.49930552 32.9238,10.3132933 C32.9238,12.127281 31.4439481,13.598054 29.6192815,13.598054 C27.7940963,13.598054 26.3142444,12.127281 26.3142444,10.3132933 L26.3142444,10.3132933 Z" id="Stroke-56" stroke="#0F1F40"></path>
                </g>
                <path d="M19.1851852,26.2823632 C19.1851852,26.2823632 42.0865926,33.3254798 65.2467407,25.5954184" id="Stroke-59" stroke="#F8F64C" stroke-width="2" stroke-linecap="round" stroke-linejoin="round"></path>
                <g id="Group-69" transform="translate(22.296296, 70.083313)">
                    <g id="Group-63">
                        <mask id="mask-8" fill="white">
                            <use xlink:href="#path-7"></use>
                        </mask>
                        <g id="Clip-62"></g>
                        <path d="M10.3018741,0.496579141 C10.3018741,0.496579141 2.65528148,3.47832147 0.307948148,6.27763436 L6.17602222,9.54332761 L2.42039259,14.9085055 L19.0736519,31.6492417 L10.3018741,0.496579141 Z" id="Fill-61" fill="#1B294C" mask="url(#mask-8)"></path>
                    </g>
                    <g id="Group-66" transform="translate(19.703704, 0.000000)">
                        <mask id="mask-10" fill="white">
                            <use xlink:href="#path-9"></use>
                        </mask>
                        <g id="Clip-65"></g>
                        <path d="M8.79941481,0.233293252 C8.79941481,0.233293252 16.0006,2.50077791 18.7814148,5.61908466 L12.6872667,9.54337914 L16.4428963,14.9085571 L0.308155556,31.6492933 L8.79941481,0.233293252 Z" id="Fill-64" fill="#1B294C" mask="url(#mask-10)"></path>
                    </g>
                    <polygon id="Fill-67" fill="#FFFFFF" points="10.3018741 0.496579141 19.1825407 4.7965546 28.5029111 0.233241718 25.9600963 9.11456687 19.7036519 6.12457914 12.7518741 9.28720491"></polygon>
                </g>
                <circle id="Oval-31" stroke="#FFFFFF" stroke-width="2" cx="42" cy="42" r="41"></circle>
            </g>
        </g>
    </g>
</svg>