<?xml version="1.0" encoding="UTF-8"?>
<svg width="84px" height="84px" viewBox="0 0 84 84" version="1.1" xmlns="http://www.w3.org/2000/svg" xmlns:xlink="http://www.w3.org/1999/xlink">
    <!-- Generator: Sketch 49.3 (51167) - http://www.bohemiancoding.com/sketch -->
    <title>img-level-1-big</title>
    <desc>Created with Sketch.</desc>
    <defs>
        <path d="M0.146069841,6.00036026 C7.7640065,13.5651481 18.3589072,18.2553067 30.0740741,18.2553067 C41.956433,18.2553067 52.686322,13.4303224 60.3264102,5.67472837 L60.3264102,0.168082146 L0.146069841,0.168082146 L0.146069841,6.00036026 L0.146069841,6.00036026 Z" id="path-1"></path>
        <path d="M0.146069841,6.00036026 C7.7640065,13.5651481 18.3589072,18.2553067 30.0740741,18.2553067 C41.956433,18.2553067 52.686322,13.4303224 60.3264102,5.67472837 L60.3264102,0.475438539 L0.146069841,0.475438539 L0.146069841,6.00036026 L0.146069841,6.00036026 Z" id="path-3"></path>
        <path d="M42,0.00253510717 C18.8040741,0.00253510717 0,18.3896674 0,41.0712712 L0,41.0712712 C0,63.7528751 18.8040741,82.1400074 42,82.1400074 L42,82.1400074 C65.1959259,82.1400074 84,63.7528751 84,41.0712712 L84,41.0712712 C84,18.3896674 65.1959259,0.00253510717 42,0.00253510717 L42,0.00253510717 Z" id="path-5"></path>
    </defs>
    <g id="img-level-1-big" stroke="none" stroke-width="1" fill="none" fill-rule="evenodd">
        <g id="Page-1">
            <g>
                <path d="M0,41.5759097 C0,18.8943058 18.8040741,0.50717354 42,0.50717354 C65.1959259,0.50717354 84,18.8943058 84,41.5759097 C84,64.2575135 65.1959259,82.6446458 42,82.6446458 C18.8040741,82.6446458 0,64.2575135 0,41.5759097" id="Fill-1" fill="#34203E"></path>
                <g id="Group-58" transform="translate(0.000000, 0.504486)">
                    <path d="M63.7931778,34.2733814 C63.7102148,34.2627339 63.6277704,34.2612129 63.5448074,34.2561426 C63.7268074,37.7028744 63.3161407,41.0953548 62.4030296,44.2794494 C62.4165111,44.2814775 62.4294741,44.2855336 62.4429556,44.2870547 C64.7991037,44.5907605 67.0111037,42.5951242 67.3839185,39.8303363 C67.7567333,37.0650414 66.1488074,34.5770872 63.7931778,34.2733814 L63.7931778,34.2733814 Z" id="Fill-3" fill="#DE7662"></path>
                    <path d="M63.5847852,35.3769135 C63.6267852,38.0271146 63.3213778,40.6352328 62.7100444,43.1302853 C64.3304148,42.6988101 65.6090815,41.3577384 65.8418963,39.6313304 C66.0824889,37.8435728 65.1289333,36.1744582 63.5847852,35.3769135" id="Fill-5" fill="#B25252"></path>
                    <path d="M20.5451556,34.2733814 C20.6281185,34.2627339 20.710563,34.2617199 20.7935259,34.2571567 C20.6348593,37.8783038 21.0698963,41.4467206 22.0058222,44.7996534 C21.9918222,44.8016814 21.9788593,44.8057376 21.9653778,44.8072587 C19.6092296,45.1109645 17.3816741,42.9992203 16.9896741,40.0904383 C16.5971556,37.1811493 18.1895259,34.5770872 20.5451556,34.2733814" id="Fill-7" fill="#DE7662"></path>
                    <path d="M20.7613259,35.4346633 C20.7374741,38.219732 21.0610296,40.963225 21.6905111,43.589596 C20.0649556,43.1256714 18.776437,41.7075324 18.5316963,39.8913817 C18.2781407,38.0108392 19.2213259,36.2626293 20.7613259,35.4346633" id="Fill-9" fill="#B25252"></path>
                    <g id="Group-13" transform="translate(11.925926, 63.884701)">
                        <mask id="mask-2" fill="white">
                            <use xlink:href="#path-1"></use>
                        </mask>
                        <g id="Clip-12"></g>
                        <path d="M1.7151037,38.9430995 C-3.56704444,23.5402953 4.92058519,6.86740251 20.6721407,1.70237517 C36.4242148,-3.46265218 53.4756963,4.83627465 58.7573259,20.2390788 C64.0394741,35.6413759 55.552363,52.3147758 39.8002889,57.4798031 C24.0487333,62.6448305 6.99725185,54.3459036 1.7151037,38.9430995" id="Fill-11" fill="#8181AB" mask="url(#mask-2)"></path>
                    </g>
                    <g id="Group-16" transform="translate(11.925926, 63.884701)">
                        <mask id="mask-4" fill="white">
                            <use xlink:href="#path-3"></use>
                        </mask>
                        <g id="Clip-15"></g>
                        <path d="M1.7151037,39.2504559 C-3.56704444,23.8476517 4.92058519,7.17475891 20.6721407,2.00973156 C36.4242148,-3.15529579 53.4756963,5.14363104 58.7573259,20.5464352 C64.0394741,35.9487323 55.552363,52.6221322 39.8002889,57.7871595 C24.0487333,62.9521868 6.99725185,54.65326 1.7151037,39.2504559" id="Fill-14" fill="#3F3F54" mask="url(#mask-4)"></path>
                    </g>
                    <path d="M33.5336815,75.5301211 C31.9729407,70.9785897 34.4810148,66.0513554 39.1357556,64.5247138 C43.7904963,62.9985793 48.8294593,65.451042 50.3907185,70.0025734 C51.9514593,74.5546118 49.4433852,79.4818461 44.7886444,81.0079806 C40.1333852,82.5341152 35.0944222,80.0816525 33.5336815,75.5301211" id="Fill-17" fill="#F5A17D"></path>
                    <path d="M44.788437,77.0786152 C40.1336963,78.6047497 35.0947333,76.1522871 33.5334741,71.6007557 C33.4442889,71.3396396 33.3716963,71.0775095 33.308437,70.8148724 C32.9501407,72.3273174 32.9916222,73.950293 33.5334741,75.5301718 C35.0947333,80.0817032 40.1336963,82.5341659 44.788437,81.0080313 C49.1766593,79.5691045 51.6536222,75.1083299 50.6155481,70.7885073 C49.9414741,73.6334046 47.8274741,76.0823181 44.788437,77.0786152" id="Fill-19" fill="#25C6DA"></path>
                    <path d="M36.8148148,59.324195 L36.8148148,67.4365379 L36.8168889,67.4365379 C36.8381481,69.6456303 39.1497037,71.4313598 42,71.4313598 C44.8502963,71.4313598 47.1618519,69.6456303 47.1831111,67.4365379 L47.1851852,67.4365379 L47.1851852,59.324195 L36.8148148,59.324195 Z" id="Fill-21" fill="#ED8E66"></path>
                    <polygon id="Fill-23" fill="#B25252" points="47.1851852 65.6619629 36.8148148 63.6338772 36.8148148 61.3522807 47.1851852 61.3522807"></polygon>
                    <path d="M63.1205556,27.8900829 C59.2389259,14.9792891 46.7094444,8.02295506 35.1345556,12.3519041 C23.5591481,16.6813601 17.3224074,30.6574059 21.204037,43.5681997 C25.0856667,56.4789935 37.6151481,63.4358346 49.190037,59.1063786 C60.7649259,54.7769225 67.0021852,40.8008767 63.1205556,27.8900829" id="Fill-25" fill="#DE7662"></path>
                    <path d="M20.3252,35.9516223 C20.3252,23.2847058 30.1832741,13.0160007 42.3435704,13.0160007 C54.5033481,13.0160007 64.3614222,23.2847058 64.3614222,35.9516223 C64.3614222,48.6185388 54.5033481,62.5829231 42.3435704,62.5829231 C30.1832741,62.5829231 20.3252,48.6185388 20.3252,35.9516223" id="Fill-27" fill="#F5A17D"></path>
                    <path d="M62.2222222,26.083312 C57.037037,27.4588612 45.4118519,30.5719728 39.4867407,30.8036816 C33.685037,31.0303202 25.9259259,27.7478634 22.2962963,26.1649425 L22.2962963,33.1238117 C26.962963,35.3957747 34.0832593,36.8661369 42.2297037,36.8661369 C50.398963,36.8661369 57.5555556,35.3876624 62.2222222,33.1045449 L62.2222222,26.083312 Z" id="Fill-29" fill="#DE7662"></path>
                    <path d="M42.3433111,60.554736 C31.3901259,60.554736 23.0290148,47.6201122 23.0290148,36.2106089 C23.0290148,24.8005985 27.611163,15.5515135 42.3433111,15.5515135 C53.2964963,15.5515135 61.6576074,24.8005985 61.6576074,36.2106089 C61.6576074,47.6201122 53.2964963,60.554736 42.3433111,60.554736 M42.3433111,13.0164064 C30.1830148,13.0164064 20.3254593,23.2846044 20.3254593,35.9515209 C20.3254593,48.6184374 30.1830148,62.5828217 42.3433111,62.5828217 C54.5036074,62.5828217 64.3616815,48.6184374 64.3616815,35.9515209 C64.3616815,23.2846044 54.5036074,13.0164064 42.3433111,13.0164064" id="Fill-31" fill-opacity="0.699999988" fill="#DE7662"></path>
                    <polyline id="Fill-33" fill="#783900" points="62.7334296 27.0150146 65.612763 33.3076576 64.7763926 32.8102696 64.6918741 40.0556059 63.9192815 42.5400109 62.140763 39.3513531"></polyline>
                    <path d="M62.848437,27.3546176 L60.3621407,20.0930566 L58.4991037,18.7215636 L58.6681407,16.2275252 L56.8051037,16.2275252 L54.9420667,10.8546191 L55.6197704,15.253537 L50.0301407,10.782115 L51.046437,12.438047 L44.6100667,9.62255698 L46.3040667,11.1132 L39.8676963,8.96038699 L42.2388815,10.616826 L35.8025111,9.45828204 L37.6655481,10.9499391 L31.3987333,10.6208822 L33.7699185,11.7844964 C33.7699185,11.7844964 31.7373259,12.9531808 29.0275481,13.2842658 L24.7928074,20.3835799 L20.7281407,27.3358578 C19.7512519,31.2754143 19.5469556,31.3418341 19.9861407,36.2224225 C20.3610296,40.3901387 20.6866593,42.6311734 21.1092519,42.6316804 L21.8289556,39.783234 C21.8289556,39.783234 21.4053259,32.2240514 23.8615481,29.8227979 C26.3172519,27.4210374 31.3987333,20.7907181 31.3987333,20.7907181 L50.7078444,20.7907181 C50.7078444,20.7907181 54.222363,22.6180234 56.4239926,25.2682244 C58.6261407,27.9179184 62.1406593,30.5736967 62.1406593,39.3512517" id="Fill-35" fill="#783900"></path>
                    <polygon id="Fill-37" fill="#FFC79B" points="45.0789111 48.0429681 39.2455778 48.0429681 41.0733556 47.0289252 43.2511333 47.0289252"></polygon>
                    <path d="M37.5149704,53.5646343 C37.5149704,53.9940814 40.0474148,54.8372581 42.1225259,54.8372581 C44.1981556,54.8372581 47.0033407,53.866312 47.0033407,53.485539 C47.0033407,53.1919735 45.7386741,52.6043357 44.0400074,52.6043357 C43.1450444,52.6043357 43.0543037,52.8142426 42.3537852,52.8076513 C41.7341556,52.801567 41.5345259,52.564281 40.8443778,52.564281 C38.7692667,52.564281 37.5149704,53.1691576 37.5149704,53.5646343" id="Fill-39" fill="#DE7662"></path>
                    <path d="M30.2468963,38.8742967 C30.2468963,38.1274541 30.8660074,37.5220705 31.6297852,37.5220705 C32.3930444,37.5220705 33.0121556,38.1274541 33.0121556,38.8742967 C33.0121556,39.6211392 32.3930444,40.2265228 31.6297852,40.2265228 C30.8660074,40.2265228 30.2468963,39.6211392 30.2468963,38.8742967" id="Fill-43" fill="#000000"></path>
                    <path d="M54.2716222,38.8742967 C54.2716222,38.1274541 53.6525111,37.5220705 52.8887333,37.5220705 C52.1254741,37.5220705 51.506363,38.1274541 51.506363,38.8742967 C51.506363,39.6211392 52.1254741,40.2265228 52.8887333,40.2265228 C53.6525111,40.2265228 54.2716222,39.6211392 54.2716222,38.8742967" id="Fill-45" fill="#000000"></path>
                    <mask id="mask-6" fill="white">
                        <use xlink:href="#path-5"></use>
                    </mask>
                    <g id="Clip-48"></g>
                    <polygon id="Fill-47" fill="#4C4C66" mask="url(#mask-6)" points="41.3762222 122.694624 42.6725185 122.694624 42.6725185 81.4149667 41.3762222 81.4149667"></polygon>
                    <path d="M64.9725481,27.4589626 C64.9725481,15.1332715 54.7541037,5.14140015 42.1489185,5.14140015 C29.5437333,5.14140015 19.3247704,15.1332715 19.3247704,27.4589626" id="Fill-49" fill="#EEAAA4" mask="url(#mask-6)"></path>
                    <path d="M65.1123926,28.0343305 C65.1123926,15.6330933 54.8312074,5.57987228 42.148763,5.57987228 C29.4663185,5.57987228 19.1851333,15.6330933 19.1851333,28.0343305" id="Fill-50" fill="#EE3727" mask="url(#mask-6)"></path>
                    <path d="M64.4095926,24.4224112 C66.5443333,24.5217874 67.0198148,26.5164098 67.0198148,26.5164098 C67.0198148,31.6723107 55.8846296,35.8521954 42.1485556,35.8521954 C28.4124815,35.8521954 17.2767778,31.6723107 17.2767778,26.5164098 C17.2767778,26.5164098 17.7558889,24.819916 20.4998889,24.323035 C20.4998889,24.323035 31.7823333,30.0873617 39.4055926,29.7892331 C47.0288519,29.4911045 64.4095926,24.4224112 64.4095926,24.4224112" id="Fill-51" fill="#CC2F21" mask="url(#mask-6)"></path>
                    <path d="M36.5516667,30.0934967 L39.2884074,35.8319653 C39.2884074,35.8319653 49.778037,36.0013104 51.8521111,34.9872676 L47.815963,26.6087384 L36.5516667,30.0934967 Z" id="Fill-52" fill="#B0281D" mask="url(#mask-6)"></path>
                    <path d="M63.9162741,20.6069735 C59.8184222,23.6369336 51.8710889,25.7861975 42.173237,25.7861975 C32.4707185,25.7861975 24.5617556,23.550233 20.4659778,20.5172307 C20.1107926,21.8076003 19.3827926,23.2997644 19.2687185,24.6712574 C23.0450889,28.0084724 31.8780519,30.3493904 42.173237,30.3493904 C52.4653111,30.3493904 61.2967185,28.0094865 65.0746444,24.6742995 C64.9595333,23.3033135 64.5115333,21.9946912 63.9162741,20.6069735" id="Fill-53" fill="#323236" mask="url(#mask-6)"></path>
                    <path d="M36.2962963,28.0578563 C36.2962963,24.8844092 38.9272593,22.3117824 42.1726667,22.3117824 C45.4185926,22.3117824 48.0495556,24.8844092 48.0495556,28.0578563 C48.0495556,31.2313035 45.4185926,33.8039302 42.1726667,33.8039302 C38.9272593,33.8039302 36.2962963,31.2313035 36.2962963,28.0578563" id="Fill-54" fill="#4D4D54" mask="url(#mask-6)"></path>
                    <path d="M37.2372519,28.0578563 C37.2372519,25.3924446 39.4471778,23.2315193 42.1730296,23.2315193 C44.8988815,23.2315193 47.1082889,25.3924446 47.1082889,28.0578563 C47.1082889,30.723268 44.8988815,32.8841933 42.1730296,32.8841933 C39.4471778,32.8841933 37.2372519,30.723268 37.2372519,28.0578563" id="Fill-55" fill="#FDF13D" mask="url(#mask-6)"></path>
                    <path d="M41.1064889,28.0578563 C41.1064889,27.48188 41.5840444,27.0149132 42.1730815,27.0149132 C42.7616,27.0149132 43.2391556,27.48188 43.2391556,28.0578563 C43.2391556,28.6338327 42.7616,29.1002924 42.1730815,29.1002924 C41.5840444,29.1002924 41.1064889,28.6338327 41.1064889,28.0578563" id="Fill-56" fill="#FDFBDA" mask="url(#mask-6)"></path>
                    <path d="M37.7557704,28.5648271 C37.7557704,25.8994154 39.9656963,23.73849 42.6915481,23.73849 C43.9225111,23.73849 45.0451037,24.1821338 45.9094741,24.9107236 C45.0046593,23.8840052 43.6679185,23.2314686 42.1730296,23.2314686 C39.4471778,23.2314686 37.2372519,25.3923939 37.2372519,28.0578056 C37.2372519,29.5195484 37.9045852,30.8266497 38.9545852,31.7119091 C38.2094741,30.8667044 37.7557704,29.7684959 37.7557704,28.5648271" id="Fill-57" fill="#FFFFFF" mask="url(#mask-6)"></path>
                </g>
                <circle id="Oval-31" stroke="#FFFFFF" stroke-width="2" cx="42" cy="42" r="41"></circle>
            </g>
        </g>
    </g>
</svg>