<svg width="136" height="136" xmlns="http://www.w3.org/2000/svg" xmlns:xlink="http://www.w3.org/1999/xlink"><defs><circle id="a" cx="68" cy="68" r="65"/><circle id="c" cx="65.5" cy="65.5" r="65.5"/></defs><g fill="none" fill-rule="evenodd"><mask id="b" fill="#fff"><use xlink:href="#a"/></mask><circle stroke="#FFF" stroke-width="3" cx="68" cy="68" r="66.5"/><g mask="url(#b)"><g transform="translate(3 3)"><mask id="d" fill="#fff"><use xlink:href="#c"/></mask><use fill="#48C8BC" xlink:href="#c"/><path stroke="#FFF" fill-opacity=".52" fill="#FFF" opacity=".52" mask="url(#d)" d="M61.177-11.38L55.059 20.81 29.144.757l12.257 30.39-32.643-2.86L35.5 47.225 6.493 62.469l32.734 1.473-16.16 28.506L51.401 75.99l1.815 32.718 14.94-29.164 19.216 26.542-3.2-32.61 30.516 11.94L94.366 59.71l32.126-6.453L95.5 42.62l23.538-22.8-31.825 7.81 7.476-31.904L72.138 19.5z"/><g mask="url(#d)"><path d="M53.43 83.715s-4.046 1.684-6.571 1.535c0 0-2.713 2.862-5.39 3.322-2.565.44-8.343.899-8.343.899s-14.285 11.515-17.433 14.834c-3.147 3.32-9.164 10.831-12.981 12.634-3.816 1.804-15.738 3.904-15.738 3.904l-8.807-31.5s5.001-6.801 8.378-7.886C-10.08 80.372-2.181 82.738-.54 82.5c1.64-.238 10.375-2.467 13.692-5.554 3.315-3.085 9.438-9.957 9.438-9.957s-.284-4.525 1.296-6.764l5.229-6.391s2.966-2.684 5.829-2.067c0 0 3.44.625 5.234-.335 1.795-.962 18.161-8.913 18.161-8.913s3.352-1.463 5.029 2.038c1.678 3.499-9.338 10.885-9.338 10.885s4.685 2.15 3.238 7.23c0 0 5.228 4.475 1.083 9.461 0 0 4.095 7.532-4.922 11.583" fill="#FFB392"/><path d="M46.838 85.27c-.22.227-2.247 2.28-4.467 3.062 2.22-.783 4.247-2.835 4.467-3.062m.145-.015a.11.11 0 0 0 .013 0h-.013M-12.664 120.778c1.702-.308 8.989-1.668 13.301-3.054-4.312 1.386-11.6 2.746-13.3 3.054m15.274-3.792" fill="#F0DCDC"/><path d="M46.056 82.711s-2.24 2.364-4.657 3.14c-.243.078-.487.14-.732.183-1.28.22-3.36.444-5.122.613a23.076 23.076 0 0 1-.128 2.626c1.903-.174 4.537-.44 6.052-.701.241-.042.483-.103.723-.18l.01-.003.17-.057c2.219-.783 4.246-2.834 4.466-3.062l.02-.02a4.584 4.584 0 0 0 .138.006c1.309.043 2.983-.37 4.295-.78l.232-.072.026-.009a27.2 27.2 0 0 0 1.88-.68l-.709-.23a14.799 14.799 0 0 1-1.291-.29c-.926-.249-1.81-.56-2.458-.795a1.838 1.838 0 0 1-.306.127c-.42.134-1.204.268-2.609.184M22.281 95.2c-3.156 2.658-6.145 5.254-7.39 6.567-3.147 3.319-9.164 10.83-12.98 12.634-.546.258-1.258.522-2.076.785-4.63 1.488-12.689 2.945-13.575 3.104l.714 2.553.362-.065c1.702-.309 8.989-1.668 13.301-3.054l.01-.004a18.514 18.514 0 0 0 2.065-.781c3.817-1.803 9.834-9.314 12.98-12.634 1.156-1.218 3.809-3.538 6.707-5.989a95.145 95.145 0 0 0-.118-3.116" fill="#E89174"/><path d="M9.94 78.554s6.316-1.741 9.447 2.735c3.129 4.475 3.028 18.644 3.028 18.644s4.145-.466 6.245-2.872c2.1-2.406 6.548-6.431 6.548-6.431s1.462-6.241-1.706-14.455c-3.166-8.214-13.684-8.007-13.684-8.007l-2.454 3.097s-5.857-.426-7.437 1.812c-1.582 2.24.014 5.477.014 5.477" fill="#3D3BB3"/><path d="M20.977 85.42a.789.789 0 0 0-.204.1h-.001s-.133.092-.376.256c-.846.574-3.01 2.027-5.263 3.43a74.983 74.983 0 0 1-3.288 1.949c-1 .551-1.884.98-2.408 1.148a11.114 11.114 0 0 0 1.89.924c1.85-.91 4.415-2.498 6.54-3.868a185.607 185.607 0 0 0 3.507-2.32 31.552 31.552 0 0 0-.353-1.631.694.694 0 0 0-.044.012" fill="#E89174"/><path d="M21.021 85.407c.13.526.248 1.072.354 1.632l.29-.197a.802.802 0 0 0 .212-1.11.796.796 0 0 0-.856-.325" fill="#4D398B"/><path d="M9.941 78.554s6.315-1.74 9.445 2.735 3.03 18.644 3.03 18.644 4.144-.466 6.244-2.872c0 0 2.449-15.79-11.296-25.797 0 0-5.857-.425-7.437 1.814-1.581 2.239.014 5.476.014 5.476" fill="#2B2B80"/><path d="M39.434 64.535a.803.803 0 0 0-.049.94v.001h.001c.025.04.533.85.94 2.137.363 1.15.644 2.677.457 4.386-.19 1.71-.838 3.608-2.387 5.567a.805.805 0 0 0 .124 1.124.79.79 0 0 0 1.115-.125c1.733-2.186 2.507-4.403 2.723-6.39.218-1.988-.11-3.737-.524-5.046-.237-.751-.503-1.36-.716-1.791-.56-.157-1.114-.382-1.6-.739a3.18 3.18 0 0 1-.084-.064m-.049.941h.001" fill="#E18970"/><path d="M54.03 55.441s11.016-7.386 9.338-10.885c-1.677-3.5-5.028-2.038-5.028-2.038s-16.368 7.95-18.162 8.913c-1.794.96-5.234.335-5.234.335L45.466 62.03l8.565-6.588" fill="#FFB392"/><path d="M48.813 74.664c-.52.2-.957.448-1.315.748a3.109 3.109 0 0 0-1.106 1.955c-.103.7.014 1.37.201 1.967.23.728.575 1.36.862 1.821.287.461.518.75.534.769a.779.779 0 0 0 .354.25c.167.058.38.137.628.226.097-.053.133-.09.133-.09l3.616 1.175a9.591 9.591 0 0 0 .959.116 13.51 13.51 0 0 0 2.19-1.273.79.79 0 0 0-.969-.453c-.02.006-.038.014-.058.021l-.082.03-.012.004c-.262.083-.7.11-1.21.056-.78-.077-1.722-.321-2.573-.591-.73-.23-1.392-.475-1.873-.649a8 8 0 0 1-.318-.478 6.597 6.597 0 0 1-.67-1.42 3.368 3.368 0 0 1-.164-.86c-.014-.408.065-.736.282-1.041.22-.304.625-.624 1.403-.877a.798.798 0 0 0 .551-.725 8.703 8.703 0 0 1-1.363-.68" fill="#E89174"/><path d="M49.104 82.31s-.036.038-.133.09c.648.234 1.532.546 2.458.796.425.113.86.215 1.291.29l-3.616-1.176" fill="#DD846D"/><path d="M47.486 68.524l-.584 3.986a.805.805 0 0 0 .157.607 6.57 6.57 0 0 0 1.754 1.547c.107-.04.217-.08.332-.116a.79.79 0 0 1 1.031.797 8.828 8.828 0 0 0 2.494.606c.596.047 1.122.026 1.6-.122.07-.023.142-.05.214-.082.341-.154.782-.401 1.303-.728a23.464 23.464 0 0 0 2.889-2.147c-.178-.468-.325-.74-.325-.74.751-.904 1.194-1.791 1.417-2.638a.786.786 0 0 0-.483.351c-.256.413-.664.889-1.146 1.357-.725.704-1.617 1.399-2.422 1.954-.8.554-1.54.98-1.879 1.131l-.05.019-.013.005c-.16.05-.529.087-.972.047-.69-.057-1.574-.273-2.398-.65-.72-.328-1.39-.777-1.884-1.32l.498-3.401a4.188 4.188 0 0 1-1.533-.463" fill="#E89174"/><path d="M49.145 74.555c-.115.044-.225.09-.332.138.44.324.902.592 1.363.81a1.11 1.11 0 0 0-.037-.331c-.132-.5-.578-.776-.994-.617" fill="#DD846D"/><path d="M45.224 65.645c.249.76.599 1.393 1.033 1.896.362.422.781.747 1.229.983l.037-.255a.789.789 0 0 1 .9-.675.799.799 0 0 1 .667.908l-.071.485a5.456 5.456 0 0 0 2.262-.25 6.25 6.25 0 0 0 1.867-.97c1.04-.795 2.202-1.924 3.12-2.867a58.422 58.422 0 0 0 1.564-1.666c-.33-.363-.564-.563-.564-.563a7.68 7.68 0 0 0 .18-.778.781.781 0 0 0-.768.244h-.002l-.113.125c-.26.289-.944 1.035-1.77 1.868-.825.831-1.8 1.75-2.603 2.362-.39.3-.873.555-1.382.718l-.01.004a.026.026 0 0 0-.006.002c-.817.262-1.675.281-2.374-.015a2.557 2.557 0 0 1-.966-.71 3.749 3.749 0 0 1-.66-1.157c-.09.037-.18.068-.268.097a4.697 4.697 0 0 1-1.302.214" fill="#E89174"/><path d="M48.066 67.623a.796.796 0 0 0-.543.646l-.037.255a4.19 4.19 0 0 0 1.533.463l.07-.485a.8.8 0 0 0-.667-.907.788.788 0 0 0-.356.028" fill="#DD846D"/><path d="M32.9 51.997c2.503-.227 5.578.227 5.578.227s4.899 1.022 5.821 3.034c.921 2.011 4.653 6.582 3.52 7.523 0 0-2.618 4.689-6.744-.526l-8.174-10.258" fill="#FFB392"/><path d="M39.605999999999995 51.67a1052.862 1052.862 0 0 0 0 0m8.386 9.043l-.236.168a.755.755 0 0 1-.103.062c.391.852.532 1.534.167 1.838 0 0-.703 1.257-1.952 1.745a.793.793 0 0 1 .838.553c.028.088.057.173.089.255a3.038 3.038 0 0 0 1.066-.71c.41-.423.707-1.048.75-1.79a.779.779 0 0 0-.026-.26c-.003-.01-.088-.326-.251-.844-.09-.284-.204-.63-.342-1.017" fill="#E89174"/><path d="M37.73 51.96a.797.797 0 0 0-.039.166c.488.054.786.098.786.098s4.9 1.022 5.822 3.034c.472 1.03 1.683 2.735 2.599 4.277l.501-.356a28.278 28.278 0 0 0-.26-.597c-.565-1.259-1.294-2.629-2.217-3.817a8.642 8.642 0 0 0-4.166-2.912 9.31 9.31 0 0 0-.943-.256 4.132 4.132 0 0 1-.217.077 4.73 4.73 0 0 1-.313.088 7.732 7.732 0 0 1-1.553.197" fill="#F09778"/><path d="M37.805 58.151a.83.83 0 0 0-.06.112 4.07 4.07 0 0 0-.349 1.772c.012.573.124 1.108.275 1.586a8.145 8.145 0 0 0 1.072 2.153c.189.303.428.554.691.761a.795.795 0 0 1 .375-.258.79.79 0 0 1 .903.325c.014.022.18.28.405.736.052.014.103.028.155.04.921.235 1.863.294 2.587.303.602.008 1.051-.024 1.196-.036h.169a3.67 3.67 0 0 1-.026-.082.802.802 0 0 1 .36-.935c-.733.193-1.628.107-2.658-.594a11.403 11.403 0 0 1-.264-.028c-.567-.067-1.146-.192-1.608-.383a2.728 2.728 0 0 1-.59-.326 1.41 1.41 0 0 1-.359-.382l-.04-.06a6.622 6.622 0 0 1-.857-1.72 4.107 4.107 0 0 1-.202-1.132c-.002-.121.003-.24.015-.358l-1.19-1.494" fill="#E89174"/><path d="M39.81 64.277a.799.799 0 0 0-.376.258c.027.022.056.043.084.064.486.357 1.04.582 1.6.739-.225-.455-.392-.714-.406-.736a.789.789 0 0 0-.902-.325" fill="#D87E6A"/><path d="M45.868 64.526a3.013 3.013 0 0 1-.31.102.802.802 0 0 0-.36.935l.026.082c.275-.005.76-.042 1.302-.214.088-.029.178-.06.269-.097a4.78 4.78 0 0 1-.089-.255.793.793 0 0 0-.838-.553" fill="#DD846D"/><path d="M37.691 52.126a.794.794 0 0 0 .78.897c.047.001.857.026 1.894.383 1.04.36 2.293 1.037 3.31 2.345.807 1.038 1.49 2.307 2.021 3.49a28.283 28.283 0 0 1 1.32 3.609c-.044.33-.154.51-.298.667-.163.173-.405.305-.673.391a3.106 3.106 0 0 1-.912.14h-.054l-.009-.002-.113.003h-.007a12.57 12.57 0 0 1-2.05-.015c1.03.701 1.925.787 2.658.594a2.561 2.561 0 0 0 .31-.101c1.25-.489 1.951-1.746 1.951-1.746.366-.304.225-.986-.166-1.838a.79.79 0 0 1-1.002-.255.803.803 0 0 1 .192-1.114l.055-.039c-.916-1.543-2.126-3.246-2.6-4.277-.921-2.012-5.82-3.034-5.82-3.034s-.3-.044-.787-.098m.535 5.704a.795.795 0 0 0-.421.321l1.19 1.494a2.36 2.36 0 0 1 .192-.723.802.802 0 0 0-.394-1.057.784.784 0 0 0-.567-.035M54.683 54.989c-.408.289-.653.452-.653.452l-6.217 4.782c.064.17.123.334.179.49l6.496-4.619a.787.787 0 0 0 .23-.252 5.48 5.48 0 0 0-.688-.4s.245-.164.653-.453" fill="#E89174"/><path d="M53.79 54.68a.797.797 0 0 0-.216.108l-6.175 4.391c.153.365.29.716.414 1.044l6.218-4.782s.244-.163.653-.452a.788.788 0 0 0-.893-.31" fill="#F09778"/><path d="M48.112 60.223l-.67.394c.138.206.267.405.381.599.065-.024.126-.053.186-.085l.426-.232c-.1-.216-.208-.442-.323-.676" fill="#DD846D"/><path d="M47.44 59.179l-.542.356c.215.335.416.663.59.974l.402-.286c-.134-.328-.283-.68-.45-1.044" fill="#E48970"/><path d="M46.898 59.535l-.055.039a.803.803 0 0 0-.192 1.114.79.79 0 0 0 1.002.255 10.45 10.45 0 0 0-.211-.434c-.16-.312-.345-.639-.544-.974" fill="#DD846D"/><g><path d="M77.57 83.715s4.046 1.684 6.571 1.535c0 0 2.713 2.862 5.39 3.322 2.565.44 8.343.899 8.343.899s14.285 11.515 17.433 14.834c3.147 3.32 9.164 10.831 12.981 12.634 3.816 1.804 15.738 3.904 15.738 3.904l8.807-31.5s-5.001-6.801-8.378-7.886c-3.375-1.085-11.274 1.281-12.915 1.042-1.64-.238-10.375-2.467-13.692-5.554-3.315-3.085-9.438-9.957-9.438-9.957s.284-4.525-1.296-6.764l-5.229-6.391s-2.966-2.684-5.829-2.067c0 0-3.44.625-5.234-.335-1.795-.962-18.161-8.913-18.161-8.913s-3.352-1.463-5.029 2.038C65.954 48.055 76.97 55.44 76.97 55.44s-4.685 2.15-3.238 7.23c0 0-5.228 4.475-1.083 9.461 0 0-4.095 7.532 4.922 11.583" fill="#FFB392"/><path d="M84.162 85.27c.22.227 2.247 2.28 4.467 3.062-2.22-.783-4.247-2.835-4.467-3.062m-.145-.015h-.013.013M143.664 120.778c-1.702-.308-8.989-1.668-13.301-3.054 4.312 1.386 11.6 2.746 13.3 3.054m-15.274-3.792" fill="#F0DCDC"/><path d="M84.944 82.711s2.24 2.364 4.657 3.14c.243.078.487.14.732.183 1.28.22 3.36.444 5.122.613a23.076 23.076 0 0 0 .128 2.626c-1.903-.174-4.537-.44-6.052-.701a5.397 5.397 0 0 1-.723-.18l-.01-.003a5.325 5.325 0 0 1-.17-.057c-2.219-.783-4.246-2.834-4.466-3.062l-.02-.02-.125.005h-.013c-1.309.044-2.983-.369-4.295-.778l-.232-.073-.026-.009a27.2 27.2 0 0 1-1.88-.68l.709-.23c.432-.074.866-.176 1.291-.29.926-.249 1.81-.56 2.458-.795.069.037.167.082.306.127.42.134 1.204.268 2.609.184M108.719 95.2c3.156 2.658 6.145 5.254 7.39 6.567 3.147 3.319 9.164 10.83 12.98 12.634.546.258 1.258.522 2.076.785 4.63 1.488 12.689 2.945 13.575 3.104l-.714 2.553-.362-.065c-1.702-.309-8.989-1.668-13.301-3.054l-.01-.004a18.514 18.514 0 0 1-2.065-.781c-3.817-1.803-9.834-9.314-12.98-12.634-1.156-1.218-3.809-3.538-6.707-5.989.017-.815.052-1.892.118-3.116" fill="#E89174"/><path d="M121.06 78.554s-6.316-1.741-9.447 2.735c-3.129 4.475-3.028 18.644-3.028 18.644s-4.145-.466-6.245-2.872c-2.1-2.406-6.548-6.431-6.548-6.431s-1.462-6.241 1.706-14.455c3.166-8.214 13.684-8.007 13.684-8.007l2.454 3.097s5.857-.426 7.437 1.812c1.582 2.24-.014 5.477-.014 5.477" fill="#F25600"/><path d="M110.023 85.42c.071.023.14.056.204.1h.001s.133.092.376.256c.846.574 3.01 2.027 5.263 3.43a74.983 74.983 0 0 0 3.288 1.949c1 .551 1.884.98 2.408 1.148l.014.004a.8.8 0 0 1-.481 1.523c-.42-.136-.89-.342-1.422-.603-1.852-.91-4.416-2.498-6.54-3.868a185.607 185.607 0 0 1-3.508-2.32c.106-.56.224-1.106.353-1.631.015.003.03.008.044.012" fill="#E89174"/><path d="M109.979 85.407c-.13.526-.248 1.072-.354 1.632l-.29-.197a.802.802 0 0 1-.212-1.11.796.796 0 0 1 .856-.325" fill="#4D398B"/><path d="M121.059 78.554s-6.315-1.74-9.445 2.735-3.03 18.644-3.03 18.644-4.144-.466-6.244-2.872c0 0-2.449-15.79 11.296-25.797 0 0 5.857-.425 7.437 1.814 1.581 2.239-.014 5.476-.014 5.476" fill="#D14900"/><path d="M91.566 64.535a.803.803 0 0 1 .049.94v.001h-.001c-.025.04-.533.85-.94 2.137-.363 1.15-.644 2.677-.457 4.386.19 1.71.838 3.608 2.387 5.567a.805.805 0 0 1-.124 1.124.79.79 0 0 1-1.115-.125c-1.733-2.186-2.507-4.403-2.723-6.39-.218-1.988.11-3.737.524-5.046.237-.751.503-1.36.716-1.791.56-.157 1.114-.382 1.6-.739a3.18 3.18 0 0 0 .084-.064m.049.941h-.001" fill="#E18970"/><path d="M76.97 55.441s-11.016-7.386-9.338-10.885c1.677-3.5 5.028-2.038 5.028-2.038s16.368 7.95 18.162 8.913c1.794.96 5.234.335 5.234.335L85.534 62.03 76.97 55.44" fill="#FFB392"/><path d="M82.187 74.664c.52.2.957.448 1.315.748a3.109 3.109 0 0 1 1.106 1.955c.103.7-.014 1.37-.201 1.967a8.135 8.135 0 0 1-.862 1.821c-.287.461-.518.75-.534.769a.779.779 0 0 1-.354.25c-.167.058-.38.137-.628.226-.097-.053-.133-.09-.133-.09l-3.616 1.175a9.591 9.591 0 0 1-.959.116 13.51 13.51 0 0 1-2.19-1.273.79.79 0 0 1 .969-.453c.02.006.038.014.058.021l.082.03.012.004c.262.083.7.11 1.21.056.78-.077 1.722-.321 2.573-.591.73-.23 1.392-.475 1.873-.649a8 8 0 0 0 .318-.478c.236-.381.507-.897.67-1.42.094-.294.153-.59.164-.86.014-.408-.065-.736-.282-1.041-.22-.304-.625-.624-1.403-.877a.798.798 0 0 1-.551-.725 8.703 8.703 0 0 0 1.363-.68" fill="#E89174"/><path d="M81.896 82.31s.036.038.133.09c-.648.234-1.532.546-2.458.796-.425.113-.86.215-1.291.29l3.616-1.176" fill="#DD846D"/><path d="M83.514 68.524l.584 3.986a.805.805 0 0 1-.157.607 6.57 6.57 0 0 1-1.754 1.547 6.347 6.347 0 0 0-.332-.116.79.79 0 0 0-1.031.797 8.828 8.828 0 0 1-2.494.606c-.596.047-1.122.026-1.6-.122a2.121 2.121 0 0 1-.214-.082 11.603 11.603 0 0 1-1.303-.728 23.464 23.464 0 0 1-2.889-2.147c.178-.468.325-.74.325-.74-.751-.904-1.194-1.791-1.417-2.638l.054.016c.172.055.327.17.43.335.255.413.663.889 1.145 1.357.725.704 1.617 1.399 2.422 1.954.8.554 1.54.98 1.879 1.131l.05.019.013.005c.16.05.529.087.972.047.69-.057 1.574-.273 2.398-.65.72-.328 1.39-.777 1.884-1.32l-.498-3.401a4.188 4.188 0 0 0 1.533-.463" fill="#E89174"/><path d="M81.855 74.555c.115.044.225.09.332.138-.44.324-.902.592-1.363.81a1.11 1.11 0 0 1 .037-.331c.132-.5.578-.776.994-.617" fill="#DD846D"/><path d="M85.776 65.645c-.249.76-.599 1.393-1.033 1.896-.362.422-.781.747-1.229.983l-.037-.255a.789.789 0 0 0-.9-.675.799.799 0 0 0-.667.908l.071.485a5.456 5.456 0 0 1-2.262-.25 6.25 6.25 0 0 1-1.867-.97c-1.04-.795-2.202-1.924-3.12-2.867a58.422 58.422 0 0 1-1.564-1.666c.33-.363.564-.563.564-.563a7.68 7.68 0 0 1-.18-.778.781.781 0 0 1 .768.244h.002l.113.125c.26.289.944 1.035 1.77 1.868.825.831 1.8 1.75 2.603 2.362.39.3.873.555 1.382.718l.01.004c.002 0 .004 0 .006.002.817.262 1.675.281 2.374-.015.352-.147.675-.372.966-.71.248-.288.477-.665.66-1.157.09.037.18.068.268.097a4.697 4.697 0 0 0 1.302.214" fill="#E89174"/><path d="M82.934 67.623c.28.09.498.334.543.646l.037.255a4.19 4.19 0 0 1-1.533.463l-.07-.485a.8.8 0 0 1 .667-.907.788.788 0 0 1 .356.028" fill="#DD846D"/><path d="M98.1 51.997c-2.503-.227-5.578.227-5.578.227s-4.899 1.022-5.821 3.034c-.921 2.011-4.653 6.582-3.52 7.523 0 0 2.618 4.689 6.744-.526l8.174-10.258" fill="#FFB392"/><path d="M91.39399999999999 51.67a1052.862 1052.862 0 0 1 0 0m-8.386 9.043l.236.168a.755.755 0 0 0 .103.062c-.391.852-.532 1.534-.167 1.838 0 0 .703 1.257 1.952 1.745a.793.793 0 0 0-.838.553 4.78 4.78 0 0 1-.089.255 3.038 3.038 0 0 1-1.066-.71c-.41-.423-.707-1.048-.75-1.79a.779.779 0 0 1 .026-.26c.003-.01.088-.326.251-.844.09-.284.204-.63.342-1.017" fill="#E89174"/><path d="M93.27 51.96c.019.053.032.109.039.166-.488.054-.786.098-.786.098s-4.9 1.022-5.822 3.034c-.472 1.03-1.683 2.735-2.599 4.277l-.501-.356c.082-.196.169-.394.26-.597.565-1.259 1.294-2.629 2.217-3.817a8.642 8.642 0 0 1 4.166-2.912 9.31 9.31 0 0 1 .943-.256 4.132 4.132 0 0 0 .217.077c.102.032.207.062.313.088.492.122 1.03.179 1.553.197" fill="#F09778"/><path d="M93.195 58.151a.83.83 0 0 1 .06.112c.268.59.361 1.202.349 1.772a5.665 5.665 0 0 1-.275 1.586 8.145 8.145 0 0 1-1.072 2.153c-.189.303-.428.554-.691.761a.795.795 0 0 0-.375-.258.79.79 0 0 0-.903.325c-.014.022-.18.28-.405.736-.052.014-.103.028-.155.04-.921.235-1.863.294-2.587.303a12.996 12.996 0 0 1-1.196-.036h-.169a3.67 3.67 0 0 0 .026-.082.802.802 0 0 0-.36-.935c.733.193 1.628.107 2.658-.594l.264-.028c.567-.067 1.146-.192 1.608-.383.23-.095.43-.207.59-.326a1.41 1.41 0 0 0 .359-.382l.04-.06c.009-.008.56-.774.857-1.72.116-.365.194-.755.202-1.132a2.878 2.878 0 0 0-.015-.358l1.19-1.494" fill="#E89174"/><path d="M91.19 64.277a.799.799 0 0 1 .376.258 3.18 3.18 0 0 1-.084.064c-.486.357-1.04.582-1.6.739.225-.455.392-.714.406-.736a.789.789 0 0 1 .902-.325" fill="#D87E6A"/><path d="M85.132 64.526a3.013 3.013 0 0 0 .31.102c.317.183.476.57.36.935l-.026.082a4.702 4.702 0 0 1-1.302-.214 4.112 4.112 0 0 1-.269-.097 4.78 4.78 0 0 0 .089-.255.793.793 0 0 1 .838-.553" fill="#DD846D"/><path d="M93.309 52.126a.794.794 0 0 1-.78.897c-.047.001-.857.026-1.894.383-1.04.36-2.293 1.037-3.31 2.345-.807 1.038-1.49 2.307-2.021 3.49a28.283 28.283 0 0 0-1.32 3.609c.044.33.154.51.298.667.163.173.405.305.673.391a3.106 3.106 0 0 0 .912.14h.054l.009-.002.113.003h.007c.091.01 1.016.081 2.05-.015-1.03.701-1.925.787-2.658.594a2.561 2.561 0 0 1-.31-.101c-1.25-.489-1.951-1.746-1.951-1.746-.366-.304-.225-.986.166-1.838a.79.79 0 0 0 1.002-.255.803.803 0 0 0-.192-1.114l-.055-.039c.916-1.543 2.126-3.246 2.6-4.277.921-2.012 5.82-3.034 5.82-3.034s.3-.044.787-.098m-.535 5.704c.169.055.32.166.421.321l-1.19 1.494a2.36 2.36 0 0 0-.192-.723.802.802 0 0 1 .394-1.057.784.784 0 0 1 .567-.035M76.317 54.989c.408.289.653.452.653.452l6.217 4.782c-.064.17-.123.334-.179.49l-6.496-4.619a.787.787 0 0 1-.23-.252c.405-.271.688-.4.688-.4s-.245-.164-.653-.453" fill="#E89174"/><path d="M77.21 54.68c.075.024.148.06.216.108l6.175 4.391c-.153.365-.29.716-.414 1.044l-6.218-4.782s-.244-.163-.653-.452a.788.788 0 0 1 .893-.31" fill="#F09778"/><path d="M82.888 60.223l.67.394c-.138.206-.267.405-.381.599a1.497 1.497 0 0 1-.186-.085l-.426-.232c.1-.216.208-.442.323-.676" fill="#DD846D"/><path d="M83.56 59.179l.542.356c-.215.335-.416.663-.59.974l-.402-.286c.134-.328.283-.68.45-1.044" fill="#E48970"/><path d="M84.102 59.535l.055.039a.803.803 0 0 1 .192 1.114.79.79 0 0 1-1.002.255c.064-.14.135-.285.211-.434.16-.312.345-.639.544-.974" fill="#DD846D"/></g></g></g></g></g></svg>