<svg width="136" height="136" xmlns="http://www.w3.org/2000/svg" xmlns:xlink="http://www.w3.org/1999/xlink"><defs><circle id="a" cx="68" cy="68" r="65"/></defs><g fill="none" fill-rule="evenodd"><mask id="b" fill="#fff"><use xlink:href="#a"/></mask><circle stroke="#FFF" stroke-width="3" cx="68" cy="68" r="66.5"/><g mask="url(#b)"><g transform="translate(3 3)"><circle fill="#363647" cx="65.5" cy="65.5" r="65.5"/><path d="M19.098 65.477c0-25.86 20.882-46.825 46.64-46.825s46.64 20.964 46.64 46.825c0 25.861-20.882 46.826-46.64 46.826s-46.64-20.965-46.64-46.826" fill="#02C9E8"/><path d="M20.218 55.363s.746-5.62 2.238-5.994c1.493-.374 2.985 3.372 3.732 4.12.746.75 2.238 1.5 2.238 2.623 0 1.124 0 3.746-1.865 5.62-1.866 1.872-4.248 4.36-5.597.748-1.12-2.996-.746-7.117-.746-7.117M53.425 20.9c-.746-.375-8.955 2.621-14.178 8.24-5.224 5.62-1.866 6.369 0 6.743 1.865.375 3.731.75 3.358 4.121-.373 3.372 1.865 7.118 2.239 9.365.373 2.248.746 5.245-2.24 7.118-2.984 1.873-8.58 4.495-8.954 7.866-.373 3.372.746 10.115 4.104 13.86 3.358 3.747 5.224 7.118 7.836 4.121 2.612-2.996.746-5.244 4.85-8.615 4.105-3.372 1.582-14.91 3.732-17.607 2.984-3.746 9.328-7.492 14.178-7.492 6.354 0 5.224 4.87 9.701 1.873 5.278-3.532.373-6.368-1.492-7.117-1.866-.75-3.732-5.245-.747-8.616 0 0 5.224-5.994 14.925-3.746 0 0 7.463 2.247 9.701 3.746 0 0-4.477-5.245-10.074-8.99 0 0-11.253-2.157-19.216-.937-11.007 1.685-12.312 3.746-18.655 7.492-6.344 3.746-7.836 0-4.851-3.372 2.985-3.371 5.783-8.054 5.783-8.054M35.35 101.002c-.653-.568-3.566-5.182-1.327-5.556 2.239-.375 1.12 2.996 13.06 8.241 11.94 5.244 13.058 6.743 20.148 7.117 0 0 3.358-3.371 8.208-4.87 4.85-1.498 9.701-5.618 8.955-7.866-.746-2.248-5.597-4.12-11.94-5.994-6.343-1.873-10.82-8.241-4.477-13.111 6.343-4.87 24.253-14.61 30.223-17.232 5.97-2.622 8.954-2.247 9.328-6.368 0 0 .373-8.241.746-8.616s4.104 7.117 4.104 18.356c0 0-2.612 1.123-3.731 5.993-1.12 4.87-2.239 12.362-6.343 16.108-4.104 3.746-5.224 5.62-1.493 5.994 0 0 2.24 0 1.12 1.873s-10.686 12.656-26.119 16.108c-15.432 3.452-29.904-1.459-39.49-9.377l-.972-.8z" stroke-opacity=".9" stroke="#FFF" stroke-width=".5" fill="#AFEB73"/><path d="M72.914 19.203c16.84 5.483 29.017 21.36 29.017 40.093 0 23.275-18.794 42.143-41.976 42.143-19.56 0-35.996-13.432-40.654-31.61 2.186 23.82 22.14 42.474 46.437 42.474 25.759 0 46.64-20.965 46.64-46.826 0-23.41-17.112-42.808-39.464-46.274" fill="#454545" opacity=".1"/></g></g></g></svg>