<svg width="136" height="136" xmlns="http://www.w3.org/2000/svg" xmlns:xlink="http://www.w3.org/1999/xlink"><defs><circle id="a" cx="68" cy="68" r="65"/><path id="c" d="M0 .503l67 10.938V73H0z"/></defs><g fill="none" fill-rule="evenodd"><mask id="b" fill="#fff"><use xlink:href="#a"/></mask><circle stroke="#FFF" stroke-width="3" cx="68" cy="68" r="66.5"/><g mask="url(#b)"><g transform="translate(3 3)"><circle fill="#363647" cx="65.5" cy="65.5" r="65.5"/><path d="M51.685 107.511H32L51.637 43h25.235l19.447 64.511H75.07l-2.798-12.193H54.578l-2.893 12.193zm12.38-48.112h-.996L57.85 81.376h11.242l-5.028-21.977z" fill="#48C8BC"/><g transform="translate(29 47)"><mask id="d" fill="#fff"><use xlink:href="#c"/></mask><path d="M22.685 60.511H3L22.637-4h25.235l19.447 64.511H46.07l-2.798-12.193H25.578L22.685 60.51zm12.38-48.112h-.996L28.85 34.376h11.242l-5.028-21.977z" fill="#52E3D4" mask="url(#d)"/></g><path d="M38.851 45.677s33.834 3.796 50.92 10.683l6.502-27.366-15.405 11.462-8.7-25.873L54.174 34.42 44.18 17.656l-5.328 28.02z" fill="#F2C100"/><path d="M38.851 45.677s13.12 1.472 27.147 4.246c.078.015 6.17-35.34 6.17-35.34L54.174 34.42 44.18 17.656l-5.328 28.02z" fill="#FFE064"/></g></g></g></svg>