<svg width="1023" height="320" xmlns="http://www.w3.org/2000/svg"><g fill="none" fill-rule="evenodd"><path d="M677.078 211A14.964 14.964 0 0 1 672 199.75c0-8.284 6.716-15 15-15 2.492 0 4.841.608 6.91 1.682 2.3-8.877 10.367-15.432 19.964-15.432 11.195 0 20.308 8.92 20.617 20.04 7.584.504 12.508 5.61 12.508 11.835 0 3.143-1.255 6-3.475 8.125h-66.447z" fill="#FFF" opacity=".387"/><path d="M89.442 319.97C83.04 314.32 79 306.05 79 296.839c0-17.035 13.81-30.845 30.844-30.845 4.37 0 8.527.909 12.294 2.547 6.3-14.631 21.529-24.95 39.315-24.95 21.74 0 39.66 15.415 42.123 35.279.455-.016.912-.024 1.372-.024 17.035 0 28.274 10.933 28.274 24.419 0 6.462-2.581 12.339-7.145 16.707H89.442z" fill="#FFF" opacity=".48"/><g opacity=".6" fill="#FFF"><path d="M819.078 119A14.964 14.964 0 0 1 814 107.75c0-8.284 6.716-15 15-15 2.492 0 4.841.608 6.91 1.682C838.21 85.555 846.277 79 855.874 79c11.195 0 20.308 8.92 20.617 20.04 7.584.504 12.508 5.61 12.508 11.835 0 3.143-1.255 6-3.475 8.125h-66.447z" opacity=".387"/><path d="M846.078 138A14.964 14.964 0 0 1 841 126.75c0-8.284 6.716-15 15-15 2.492 0 4.841.608 6.91 1.682C865.21 104.555 873.277 98 882.874 98c11.195 0 20.308 8.92 20.617 20.04 7.584.504 12.508 5.61 12.508 11.835 0 3.143-1.255 6-3.475 8.125h-66.447z"/></g><g transform="translate(87 138)"><path d="M22.504 34.259c4.304.681 8.367-2.384 9.073-6.847.707-4.463-5.859-11.666-10.782-14.514C16.2 10.238 5.782 6.38 4.7 7.548c-.999 1.077.866 10.427 4.934 16.389 3.73 5.466 8.566 9.64 12.87 10.322z" fill="#DADADA"/><ellipse fill="#FD9E0F" cx="26.867" cy="34.488" rx="18.896" ry="13.679"/><g transform="translate(35.364 9.695)"><path fill="#1F2A4A" d="M21.995 7.455l9.462-1.161L23.14 16.79z"/><path fill="#1F2A4A" d="M21.128 18.193l9.462 1.162-8.316-10.496z"/><ellipse fill="#FDB70F" cx="12.133" cy="11.969" rx="12.133" ry="11.969"/><path d="M12.133 10.931c0-1.656 1.363-2.997 3.045-2.997s3.047 1.341 3.047 2.997-1.365 2.998-3.047 2.998c-1.682 0-3.045-1.342-3.045-2.998" fill="#FFF"/><path d="M14.728 11.146c0-.704.58-1.274 1.294-1.274.715 0 1.295.57 1.295 1.274 0 .703-.58 1.274-1.295 1.274s-1.294-.57-1.294-1.274" fill="#1F2A4A"/></g><path d="M20.952 31.828c3.917 1.91 8.698.167 10.679-3.894 1.98-4.061-2.193-12.87-6.068-17.033C21.946 7.014 13.112.28 11.736 1.08c-1.27.739-2.221 10.225-.073 17.116 1.969 6.318 5.372 11.723 9.29 13.633z" fill="#FFF"/></g><path d="M1024 204v116h-39.347C969.637 308.1 960 289.669 960 268.979c0-35.635 28.587-64.567 64-64.979z" fill="#F2C100"/></g></svg>