<svg width="1023" height="320" xmlns="http://www.w3.org/2000/svg" xmlns:xlink="http://www.w3.org/1999/xlink"><defs><path id="a" d="M4.362.395H0v4.342h4.362V.395z"/><path id="c" d="M5.155 5.326V.984H.793v4.342h4.362z"/><path id="e" d="M5.155 4.934V.592H.793v4.342h4.362z"/><path id="g" d="M6.107.553H0V6.63h6.107V.553z"/><path id="i" d="M5.874 6.102V.312H.058v5.79h5.816z"/><path id="k" d="M5.874 6.908V.828H.058v6.08h5.816z"/><path id="m" d="M0 .05v5.566h13.152V.05H0z"/><path id="o" d="M0 .025v2.783h5.636V.025H0z"/><path id="q" d="M0 .074v8.35h19.727V.073H0z"/><path id="s" d="M13.853.476H.172v16.9h13.68V.475z"/><path id="u" d="M9.57.317H.118v11.267h9.45V.317z"/><path id="w" d="M0 .05v5.636h13.852V.05H0z"/></defs><g fill="none" fill-rule="evenodd"><path d="M666.772 83.854c.605-1.577 2.383-2.36 3.971-1.75 1.59.61 2.387 2.382 1.782 3.958s-2.384 2.36-3.972 1.75c-1.589-.61-2.387-2.382-1.781-3.958" fill-opacity=".4" fill="#FFF" style="mix-blend-mode:overlay"/><path d="M666.772 83.854c.605-1.577 2.383-2.36 3.971-1.75 1.59.61 2.387 2.382 1.782 3.958s-2.384 2.36-3.972 1.75c-1.589-.61-2.387-2.382-1.781-3.958h0z" stroke="#FFF" stroke-width=".3"/><path d="M675.03 88.172a2.046 2.046 0 0 1 2.648-1.166 2.046 2.046 0 0 1 1.187 2.638 2.046 2.046 0 0 1-2.648 1.167 2.046 2.046 0 0 1-1.187-2.64" fill-opacity=".4" fill="#FFF" style="mix-blend-mode:overlay"/><path d="M675.03 88.172a2.046 2.046 0 0 1 2.648-1.166 2.046 2.046 0 0 1 1.187 2.638 2.046 2.046 0 0 1-2.648 1.167 2.046 2.046 0 0 1-1.187-2.64h0z" stroke="#FFF" stroke-width=".3"/><path d="M231.582 162.695a2.165 2.165 0 0 1 .441 3.04 2.188 2.188 0 0 1-3.053.437 2.165 2.165 0 0 1-.441-3.038 2.188 2.188 0 0 1 3.053-.439" fill="#D8F133"/><path d="M241.181 133.25a.788.788 0 0 1-.787-.889c1.893-14.695-6.45-20.714-6.806-20.964a.792.792 0 0 1 .909-1.295c.355.247 8.056 5.746 7.755 18.782 3.11-5.403 9.466-15.37 13.998-15.37.438 0 .793.353.793.789 0 .435-.355.79-.793.79-3.694 0-10.772 10.876-14.366 17.732a.793.793 0 0 1-.703.425" fill="#1F223D"/><path d="M241.181 133.25a.806.806 0 0 1-.388-.101l-19.431-10.855a.79.79 0 0 1-.303-1.076.796.796 0 0 1 1.08-.301l19.19 10.72 17.175-2.72a.792.792 0 0 1 .91.656.792.792 0 0 1-.66.904l-17.447 2.764a.853.853 0 0 1-.126.009" fill="#1F223D"/><path d="M243.165 161.671a.793.793 0 0 1-.7-.415c-2.844-5.26-2.11-27.862-2.076-28.822a.793.793 0 0 1 1.332-.551l17.449 16.184c.32.298.339.797.04 1.116a.795.795 0 0 1-1.12.04l-16.16-14.99c-.118 5.476-.28 22.185 1.933 26.274a.788.788 0 0 1-.698 1.164" fill="#1F223D"/><path d="M230.077 163.645a.792.792 0 0 1-.79-.723c-1.523-17.885 5.6-26.407 9.35-29.598-5.007.297-16.028 1.735-19.759 8.591a.797.797 0 0 1-1.075.32.788.788 0 0 1-.319-1.071c5.325-9.785 22.967-9.507 23.715-9.493a.788.788 0 0 1 .364 1.481c-.127.07-12.606 7.194-10.695 29.637a.79.79 0 0 1-.724.853c-.023.003-.045.003-.067.003" fill="#1F223D"/><path d="M235.729 132.46c0-2.996 2.44-5.428 5.453-5.428 3.01 0 5.452 2.432 5.452 5.429 0 2.996-2.441 5.428-5.452 5.428-3.012 0-5.453-2.432-5.453-5.428" fill="#1F223D"/><g transform="translate(231.862 108.184)"><mask id="b" fill="#fff"><use xlink:href="#a"/></mask><path d="M0 2.566C0 1.367.977.395 2.181.395c1.204 0 2.181.972 2.181 2.17a2.177 2.177 0 0 1-2.18 2.172A2.177 2.177 0 0 1 0 2.566" fill="#D8F133" mask="url(#b)"/></g><path d="M257.556 111.182a2.165 2.165 0 0 1 .441 3.04 2.188 2.188 0 0 1-3.053.437 2.165 2.165 0 0 1-.441-3.038 2.188 2.188 0 0 1 3.053-.439" fill="#D8F133"/><g transform="translate(255.655 127.132)"><mask id="d" fill="#fff"><use xlink:href="#c"/></mask><path d="M4.28 1.416a2.165 2.165 0 0 1 .441 3.04 2.188 2.188 0 0 1-3.053.437 2.165 2.165 0 0 1-.441-3.038 2.188 2.188 0 0 1 3.053-.439" fill="#D8F133" mask="url(#d)"/></g><path d="M242.382 125.294a2.165 2.165 0 0 1 .441 3.04 2.188 2.188 0 0 1-3.053.437 2.165 2.165 0 0 1-.441-3.038 2.188 2.188 0 0 1 3.053-.439M238.45 133.52c.685.51.826 1.477.312 2.16a1.553 1.553 0 0 1-2.168.312 1.538 1.538 0 0 1-.313-2.16 1.554 1.554 0 0 1 2.169-.311M246.075 135.064c.685.51.826 1.476.312 2.158a1.553 1.553 0 0 1-2.168.313 1.538 1.538 0 0 1-.313-2.16 1.554 1.554 0 0 1 2.169-.311" fill="#D8F133"/><g transform="translate(255.655 146.08)"><mask id="f" fill="#fff"><use xlink:href="#e"/></mask><path d="M4.28 1.024a2.165 2.165 0 0 1 .441 3.04 2.188 2.188 0 0 1-3.053.437 2.165 2.165 0 0 1-.441-3.038 2.188 2.188 0 0 1 3.053-.439" fill="#D8F133" mask="url(#f)"/></g><path d="M219.487 140.4a2.165 2.165 0 0 1 .441 3.04 2.188 2.188 0 0 1-3.053.438 2.165 2.165 0 0 1-.441-3.038 2.188 2.188 0 0 1 3.053-.44M223.597 119.146a3.062 3.062 0 0 1 .624 4.298 3.095 3.095 0 0 1-4.318.62 3.062 3.062 0 0 1-.623-4.297 3.095 3.095 0 0 1 4.317-.62M245.39 158.182a3.36 3.36 0 0 1 .684 4.718 3.395 3.395 0 0 1-4.738.68 3.36 3.36 0 0 1-.686-4.717 3.397 3.397 0 0 1 4.74-.68" fill="#D8F133"/><g><path d="M772.204 181.402a3 3 0 1 1 3.591-4.804 3 3 0 0 1-3.591 4.804" fill="#D8F133"/><path d="M759.001 222c.11 0 .22.015.33.05.508.156.83.65.761 1.171-2.624 20.191 8.946 28.461 9.441 28.804.495.345.616 1.02.268 1.51-.345.49-1.03.614-1.529.27-.492-.34-11.174-7.895-10.756-25.806-4.314 7.423-13.13 21.12-19.416 21.12-.607 0-1.1-.487-1.1-1.086 0-.598.493-1.084 1.1-1.084 5.124 0 14.941-14.946 19.926-24.365.194-.367.575-.584.975-.584" fill="#1F223D"/><path d="M758.609 222c.189 0 .376.047.545.138l27.278 14.841c.535.292.726.95.426 1.47s-.982.704-1.517.413l-26.94-14.658-24.111 3.72c-.62.09-1.178-.31-1.276-.896-.096-.59.318-1.142.924-1.237l24.495-3.778a1.23 1.23 0 0 1 .176-.013" fill="#1F223D"/><path d="M755.93 182c.4 0 .786.21.987.581 4.012 7.364 2.976 39.007 2.93 40.35a1.103 1.103 0 0 1-.69.984c-.405.166-.87.084-1.19-.212l-24.61-22.657a1.095 1.095 0 0 1-.056-1.563 1.127 1.127 0 0 1 1.58-.055l22.793 20.984c.165-7.666.393-31.058-2.728-36.783a1.099 1.099 0 0 1 .457-1.496c.168-.091.349-.133.528-.133" fill="#1F223D"/><path d="M774.452 180c.564 0 1.044.428 1.092.995 2.106 24.61-7.745 36.335-12.931 40.726 6.925-.409 22.166-2.388 27.326-11.821.29-.528.956-.724 1.487-.44.531.287.73.946.441 1.474-7.364 13.463-31.761 13.081-32.797 13.061a1.089 1.089 0 0 1-1.037-.827c-.121-.478.1-.974.535-1.21.175-.096 17.433-9.899 14.79-40.78a1.09 1.09 0 0 1 1.002-1.174c.03-.004.061-.004.092-.004" fill="#1F223D"/><path d="M767 223.5a7.5 7.5 0 1 1-14.998-.002A7.5 7.5 0 0 1 767 223.5" fill="#1F223D"/><g transform="rotate(180 386 128.5)"><mask id="h" fill="#fff"><use xlink:href="#g"/></mask><path d="M0 3.592A3.048 3.048 0 0 1 3.054.552a3.048 3.048 0 0 1 3.053 3.04 3.048 3.048 0 0 1-3.053 3.04A3.048 3.048 0 0 1 0 3.591" fill="#D8F133" mask="url(#h)"/></g><path d="M736.204 252.402a3 3 0 1 1 3.591-4.804 3 3 0 0 1-3.591 4.804" fill="#D8F133"/><g transform="rotate(180 369 114.5)"><mask id="j" fill="#fff"><use xlink:href="#i"/></mask><path d="M4.707.889a2.887 2.887 0 0 1 .588 4.052 2.918 2.918 0 0 1-4.071.583 2.886 2.886 0 0 1-.588-4.05A2.918 2.918 0 0 1 4.707.889" fill="#D8F133" mask="url(#j)"/></g><path d="M757.204 233.402a3 3 0 1 1 3.591-4.804 3 3 0 0 1-3.591 4.804M762.803 221.602a1.997 1.997 0 0 1-.404-2.798 2 2 0 1 1 .403 2.798M752.803 219.602a1.997 1.997 0 0 1-.404-2.798 2 2 0 1 1 .403 2.798" fill="#D8F133"/><g transform="rotate(180 369 102)"><mask id="l" fill="#fff"><use xlink:href="#k"/></mask><path d="M4.707 1.434c1.286 1.006 1.55 2.91.588 4.255-.962 1.344-2.785 1.619-4.071.613C-.062 5.298-.324 3.392.636 2.049 1.598.705 3.42.429 4.707 1.434" fill="#D8F133" mask="url(#l)"/></g><path d="M789.204 212.402a3 3 0 1 1 3.591-4.804 3 3 0 0 1-3.591 4.804M782.805 241.104a4.5 4.5 0 1 1 5.392-7.208 4.5 4.5 0 0 1-5.392 7.208M753.805 187.104a4.5 4.5 0 1 1 5.391-7.208 4.5 4.5 0 0 1-5.391 7.208" fill="#D8F133"/></g><g><path d="M313.292 325.284a2.225 2.225 0 0 1-2.216 2.222c-1.218 0-2.215-1-2.215-2.222v-95.062c0-1.222.997-2.222 2.215-2.222 1.219 0 2.216 1 2.216 2.222v95.062z" fill="#1F223D"/><path d="M314.62 244.379a2.217 2.217 0 0 1-3.134 0 2.235 2.235 0 0 1 0-3.143l6.55-6.57a2.218 2.218 0 0 1 3.133 0 2.234 2.234 0 0 1 0 3.143l-6.55 6.57z" fill="#1F223D"/><path d="M311.076 241.236a2.234 2.234 0 0 1 0 3.143 2.218 2.218 0 0 1-3.133 0l-6.55-6.57a2.235 2.235 0 0 1 0-3.143 2.217 2.217 0 0 1 3.134 0l6.55 6.57zM302.103 252.87a2.225 2.225 0 0 1 2.298 2.137 2.226 2.226 0 0 1-2.129 2.305l-7.506.287a2.225 2.225 0 0 1-2.298-2.136 2.226 2.226 0 0 1 2.13-2.305l7.505-.287zM314.62 263.144a2.217 2.217 0 0 1-3.134 0 2.235 2.235 0 0 1 0-3.143l14.242-14.285a2.217 2.217 0 0 1 3.133 0 2.234 2.234 0 0 1 0 3.142l-14.242 14.286z" fill="#1F223D"/><path d="M311.076 260.001a2.234 2.234 0 0 1 0 3.143 2.218 2.218 0 0 1-3.133 0l-14.569-14.614a2.234 2.234 0 0 1 0-3.143 2.216 2.216 0 0 1 3.133 0L311.077 260z" fill="#1F223D"/><path d="M301.183 246.82a2.223 2.223 0 0 1 2.496-1.9 2.228 2.228 0 0 1 1.895 2.502l-.842 6.18a2.223 2.223 0 0 1-2.495 1.901 2.227 2.227 0 0 1-1.895-2.502l.841-6.18zM299.91 268.57a2.225 2.225 0 0 1 2.298 2.137l.017.446a2.227 2.227 0 0 1-2.13 2.306l-8.706.332a2.225 2.225 0 0 1-2.298-2.135l-.017-.447a2.226 2.226 0 0 1 2.13-2.305l8.706-.334z" fill="#1F223D"/><path d="M310.459 278.066a2.234 2.234 0 0 1 0 3.143l-.316.316a2.216 2.216 0 0 1-3.132 0l-16.35-16.4a2.234 2.234 0 0 1 0-3.143l.315-.317a2.217 2.217 0 0 1 3.132 0l16.35 16.401z" fill="#1F223D"/><path d="M298.705 261.7a2.223 2.223 0 0 1 2.495-1.902l.441.061a2.227 2.227 0 0 1 1.896 2.502l-.988 7.245a2.223 2.223 0 0 1-2.494 1.9l-.442-.06a2.227 2.227 0 0 1-1.895-2.503l.987-7.244z" fill="#1F223D"/><g transform="translate(287 283.802)"><mask id="n" fill="#fff"><use xlink:href="#m"/></mask><path d="M10.73.056A2.224 2.224 0 0 1 13.11 2.1l.035.445a2.227 2.227 0 0 1-2.037 2.388L2.42 5.61a2.223 2.223 0 0 1-2.38-2.043L.006 3.12A2.227 2.227 0 0 1 2.044.733L10.73.056z" fill="#1F223D" mask="url(#n)"/></g><path d="M311.251 297.509c.864.861.868 2.276.009 3.143l-.315.316a2.216 2.216 0 0 1-3.132.009l-19.924-19.873a2.234 2.234 0 0 1-.008-3.143l.314-.316a2.217 2.217 0 0 1 3.133-.009l19.923 19.873z" fill="#1F223D"/><path d="M295.519 277.78a2.224 2.224 0 0 1 2.418-1.997l.444.043a2.227 2.227 0 0 1 1.992 2.426l-.703 7.278a2.224 2.224 0 0 1-2.418 1.997l-.444-.043a2.226 2.226 0 0 1-1.991-2.426l.702-7.277zM321.816 254.788a2.226 2.226 0 0 1-2.13 2.305 2.225 2.225 0 0 1-2.298-2.136l-.286-7.53a2.226 2.226 0 0 1 2.13-2.304 2.224 2.224 0 0 1 2.297 2.136l.287 7.529z" fill="#1F223D"/><path d="M327.847 253.865a2.227 2.227 0 0 1 1.895 2.503 2.223 2.223 0 0 1-2.494 1.901l-6.161-.844a2.228 2.228 0 0 1-1.895-2.503 2.223 2.223 0 0 1 2.494-1.901l6.161.844zM314.296 282.16a2.217 2.217 0 0 1-3.133 0 2.235 2.235 0 0 1 0-3.142l16.78-16.832a2.218 2.218 0 0 1 3.133 0 2.234 2.234 0 0 1 0 3.143l-16.78 16.832z" fill="#1F223D"/><path d="M324.03 271.258a2.226 2.226 0 0 1-2.129 2.305 2.225 2.225 0 0 1-2.298-2.135l-.286-7.53a2.226 2.226 0 0 1 2.13-2.305 2.224 2.224 0 0 1 2.297 2.136l.287 7.53z" fill="#1F223D"/><path d="M329.73 269.069a2.225 2.225 0 0 1 2.274 2.161 2.227 2.227 0 0 1-2.154 2.282l-6.216.168a2.224 2.224 0 0 1-2.275-2.161 2.226 2.226 0 0 1 2.155-2.282l6.216-.168zM314.174 300.8a2.217 2.217 0 0 1-3.133 0 2.235 2.235 0 0 1 0-3.142l18.282-18.339a2.217 2.217 0 0 1 3.134 0 2.234 2.234 0 0 1 0 3.143L314.174 300.8z" fill="#1F223D"/><path d="M326.888 286.91a2.226 2.226 0 0 1-2.13 2.305 2.225 2.225 0 0 1-2.297-2.136l-.286-7.53a2.226 2.226 0 0 1 2.129-2.304 2.224 2.224 0 0 1 2.298 2.136l.286 7.529z" fill="#1F223D"/><path d="M332.587 284.72a2.225 2.225 0 0 1 2.275 2.162 2.227 2.227 0 0 1-2.155 2.282l-6.216.168a2.224 2.224 0 0 1-2.274-2.162 2.226 2.226 0 0 1 2.155-2.281l6.215-.168z" fill="#1F223D"/></g><g opacity=".592"><path d="M347 326.973c0 .565-.45 1.027-1 1.027s-1-.462-1-1.027v-43.946c0-.565.45-1.027 1-1.027s1 .462 1 1.027v43.946z" fill="#1F223D"/><path d="M347.722 289.706a1.012 1.012 0 0 1-1.428 0 1.013 1.013 0 0 1 0-1.428l2.984-2.984a1.013 1.013 0 0 1 1.428 0 1.012 1.012 0 0 1 0 1.428l-2.984 2.984z" fill="#1F223D"/><path d="M345.706 288.278a1.012 1.012 0 0 1 0 1.428 1.013 1.013 0 0 1-1.428 0l-2.984-2.984a1.013 1.013 0 0 1 0-1.428 1.012 1.012 0 0 1 1.428 0l2.984 2.984zM342.037 293c.51-.019.943.387.962.904a.938.938 0 0 1-.891.974l-3.145.121a.936.936 0 0 1-.962-.902.937.937 0 0 1 .892-.975l3.144-.121zM347.822 298.688a1.071 1.071 0 0 1-1.51 0 1.072 1.072 0 0 1 0-1.51l6.866-6.866a1.071 1.071 0 0 1 1.51 0 1.071 1.071 0 0 1 0 1.51l-6.866 6.866z" fill="#1F223D"/><path d="M346.694 297.21a1.053 1.053 0 0 1 0 1.484 1.053 1.053 0 0 1-1.485 0l-6.903-6.903a1.053 1.053 0 0 1 0-1.485 1.052 1.052 0 0 1 1.484 0l6.904 6.903z" fill="#1F223D"/><path d="M341.327 290.904c.063-.57.489-.972.947-.894.457.077.78.608.718 1.177l-.319 2.909c-.063.57-.489.972-.947.894-.457-.077-.78-.608-.718-1.177l.319-2.909zM340.943 301c.556-.017 1.027.35 1.049.819l.007.17c.021.468-.416.865-.97.883l-3.972.127c-.556.018-1.027-.35-1.049-.817l-.007-.171c-.021-.468.416-.865.971-.883l3.971-.127z" fill="#1F223D"/><path d="M345.694 305.059a1.054 1.054 0 0 1 0 1.485l-.15.15a1.053 1.053 0 0 1-1.485 0l-7.753-7.753a1.054 1.054 0 0 1 0-1.485l.15-.15a1.054 1.054 0 0 1 1.485 0l7.753 7.753z" fill="#1F223D"/><path d="M340.516 297.818c.084-.516.66-.88 1.277-.81l.226.027c.618.07 1.055.55.97 1.064l-.505 3.083c-.084.516-.66.88-1.277.81l-.226-.027c-.618-.07-1.055-.55-.97-1.065l.505-3.082z" fill="#1F223D"/><g transform="translate(335 308)"><mask id="p" fill="#fff"><use xlink:href="#o"/></mask><path d="M4.599.028c.52-.047.98.413 1.02 1.022l.015.223c.04.61-.353 1.146-.874 1.194l-3.722.337c-.521.048-.98-.412-1.02-1.021L.003 1.56C-.037.95.355.413.876.366L4.599.028z" fill="#1F223D" mask="url(#p)"/></g><path d="M345.71 314.163a.999.999 0 0 1 .004 1.404l-.14.141a.987.987 0 0 1-1.398.004l-8.886-8.875a.999.999 0 0 1-.004-1.404l.14-.141a.988.988 0 0 1 1.398-.004l8.886 8.875z" fill="#1F223D"/><path d="M339.383 304.853c.064-.516.649-.899 1.301-.849l.24.019c.651.05 1.134.514 1.07 1.03l-.377 3.094c-.064.516-.649.899-1.301.849l-.24-.019c-.651-.05-1.134-.514-1.07-1.031l.377-3.093zM351 294.844c.019.612-.387 1.132-.903 1.155-.517.024-.955-.458-.975-1.07l-.121-3.773c-.02-.612.386-1.132.902-1.155.517-.024.955.458.975 1.07l.121 3.773z" fill="#1F223D"/><path d="M354.096 294.327c.57.063.972.489.894.947-.077.457-.608.78-1.177.718l-2.909-.319c-.57-.063-.972-.489-.894-.947.077-.457.608-.78 1.177-.718l2.909.319zM347.782 306.695a1.048 1.048 0 0 1-1.477 0 1.048 1.048 0 0 1 0-1.477l7.913-7.913a1.048 1.048 0 0 1 1.477 0 1.048 1.048 0 0 1 0 1.477l-7.913 7.913z" fill="#1F223D"/><path d="M352 301.844c.019.612-.387 1.132-.904 1.155-.516.024-.954-.458-.974-1.07l-.121-3.773c-.02-.612.386-1.132.902-1.155.517-.024.955.458.975 1.07l.121 3.773z" fill="#1F223D"/><path d="M354.931 301c.572-.014 1.053.408 1.069.938.015.53-.44.974-1.012.989l-2.92.073c-.572.014-1.052-.408-1.068-.938-.015-.53.44-.974 1.012-.989l2.92-.073zM347.664 314.715c-.38.38-1 .38-1.38 0-.379-.38-.379-1 0-1.38l8.052-8.05c.38-.38 1-.38 1.38 0 .379.379.379 1 0 1.38l-8.052 8.05z" fill="#1F223D"/><path d="M353 309.844c.019.612-.387 1.132-.904 1.155-.516.024-.954-.458-.974-1.07l-.121-3.773c-.02-.612.386-1.132.902-1.155.517-.024.955.458.975 1.07l.121 3.773z" fill="#1F223D"/><path d="M355.938 308.071c.554-.013 1.02.376 1.034.865.015.488-.426.899-.98.912l-2.825.067c-.553.014-1.019-.375-1.033-.864-.016-.489.426-.9.98-.913l2.824-.067z" fill="#1F223D"/></g><g><path d="M83 323.65c0 1.843-1.575 3.35-3.5 3.35s-3.5-1.507-3.5-3.35v-143.3c0-1.843 1.575-3.35 3.5-3.35s3.5 1.507 3.5 3.35v143.3z" fill="#1F223D"/><path d="M84.51 201.999a3.106 3.106 0 0 1-4.569 0c-1.255-1.335-1.255-3.519 0-4.854L89.49 187a3.108 3.108 0 0 1 4.568 0c1.256 1.335 1.256 3.519 0 4.854l-9.549 10.145z" fill="#1F223D"/><path d="M79.058 197.146c1.256 1.335 1.256 3.519 0 4.854a3.108 3.108 0 0 1-4.568 0l-9.549-10.145c-1.255-1.335-1.255-3.519 0-4.854a3.106 3.106 0 0 1 4.568 0l9.549 10.145zM65.532 215.002c1.836-.069 3.395 1.354 3.466 3.161.07 1.806-1.376 3.341-3.21 3.41l-11.32.425c-1.835.069-3.395-1.354-3.466-3.16-.07-1.807 1.376-3.342 3.212-3.41l11.318-.426zM84.669 230.03a3.333 3.333 0 0 1-4.7 0 3.335 3.335 0 0 1 0-4.7l21.362-21.36a3.333 3.333 0 0 1 4.7 0 3.333 3.333 0 0 1 0 4.698L84.67 230.031z" fill="#1F223D"/><path d="M79.047 225.23c1.27 1.316 1.27 3.468 0 4.784a3.198 3.198 0 0 1-4.618 0L52.953 207.77c-1.27-1.315-1.27-3.468 0-4.783a3.194 3.194 0 0 1 4.617 0l21.477 22.243z" fill="#1F223D"/><path d="M64.308 205.894c.25-1.824 1.954-3.113 3.786-2.863 1.83.249 3.125 1.946 2.875 3.768l-1.277 9.307c-.251 1.824-1.954 3.113-3.786 2.863-1.832-.249-3.125-1.946-2.875-3.768l1.277-9.307zM62.478 238.002c1.851-.071 3.423 1.401 3.494 3.272l.026.683c.07 1.87-1.387 3.46-3.238 3.531l-13.238.51c-1.851.071-3.423-1.401-3.494-3.27l-.026-.685c-.07-1.87 1.387-3.46 3.239-3.53l13.237-.51z" fill="#1F223D"/><path d="M79.02 252.788a3.371 3.371 0 0 1 0 4.754l-.48.477a3.37 3.37 0 0 1-4.752 0l-24.807-24.807a3.371 3.371 0 0 1 0-4.754l.478-.478a3.372 3.372 0 0 1 4.753 0l24.807 24.808z" fill="#1F223D"/><path d="M60.547 227.944a3.413 3.413 0 0 1 3.833-2.912l.677.093a3.414 3.414 0 0 1 2.912 3.833l-1.517 11.099a3.414 3.414 0 0 1-3.832 2.912l-.678-.093a3.414 3.414 0 0 1-2.91-3.835l1.515-11.097z" fill="#1F223D"/><g transform="translate(43 261)"><mask id="r" fill="#fff"><use xlink:href="#q"/></mask><path d="M16.095.084c1.823-.142 3.429 1.238 3.57 3.066l.053.668c.14 1.829-1.234 3.44-3.057 3.582L3.631 8.413A3.335 3.335 0 0 1 .062 5.35L.01 4.68c-.141-1.828 1.233-3.44 3.056-3.581L16.096.084z" fill="#1F223D" mask="url(#r)"/></g><path d="M79.024 281.822a3.36 3.36 0 0 1 .013 4.722l-.472.475a3.321 3.321 0 0 1-4.7.014l-29.89-29.855a3.359 3.359 0 0 1-.011-4.722l.47-.475a3.323 3.323 0 0 1 4.701-.014l29.89 29.855z" fill="#1F223D"/><path d="M56.022 252.072c.169-1.86 1.73-3.236 3.47-3.056l.636.066c1.74.18 3.026 1.85 2.857 3.711l-1.007 11.135c-.169 1.86-1.73 3.236-3.47 3.056l-.636-.067c-1.74-.179-3.026-1.85-2.857-3.711l1.007-11.134zM94.998 217.532c.069 1.836-1.354 3.395-3.16 3.466-1.807.07-3.342-1.376-3.411-3.21l-.425-11.32c-.069-1.835 1.354-3.395 3.16-3.466 1.807-.07 3.342 1.376 3.41 3.212l.426 11.318z" fill="#1F223D"/><path d="M104.106 216.308c1.824.25 3.113 1.954 2.863 3.786-.249 1.83-1.946 3.125-3.768 2.875l-9.307-1.277c-1.824-.251-3.113-1.954-2.863-3.786.249-1.832 1.946-3.125 3.768-2.875l9.307 1.277zM83.703 259.025a3.353 3.353 0 0 1-4.728 0 3.355 3.355 0 0 1 0-4.729l25.321-25.321c1.3-1.3 3.428-1.3 4.729 0 1.3 1.3 1.3 3.427 0 4.728l-25.322 25.322z" fill="#1F223D"/><path d="M97.998 242.532c.069 1.836-1.354 3.395-3.161 3.466-1.806.07-3.341-1.376-3.41-3.21l-.425-11.32c-.069-1.835 1.353-3.395 3.16-3.466 1.807-.07 3.342 1.376 3.41 3.212l.426 11.318z" fill="#1F223D"/><path d="M107.58 239.001c1.83-.05 3.369 1.427 3.419 3.28.049 1.854-1.409 3.412-3.239 3.463l-9.34.255c-1.832.05-3.37-1.426-3.419-3.28-.05-1.854 1.409-3.412 3.239-3.463l9.34-.255zM83.658 287.032a3.327 3.327 0 0 1-4.691 0 3.329 3.329 0 0 1 0-4.691l27.375-27.373a3.327 3.327 0 0 1 4.691 0 3.327 3.327 0 0 1 0 4.69l-27.375 27.374z" fill="#1F223D"/><path d="M102.998 265.532c.069 1.836-1.354 3.395-3.161 3.466-1.806.07-3.341-1.376-3.41-3.21l-.425-11.32c-.069-1.835 1.353-3.395 3.16-3.466 1.807-.07 3.342 1.376 3.41 3.212l.426 11.318z" fill="#1F223D"/><path d="M111.39 262.284c1.882-.053 3.464 1.504 3.515 3.459.05 1.954-1.448 3.597-3.33 3.65l-9.606.269c-1.883.053-3.465-1.503-3.515-3.458-.051-1.955 1.448-3.597 3.33-3.65l9.606-.27z" fill="#1F223D"/></g><g><path d="M355.143 150.259c0-5.114 4.215-9.259 9.414-9.259 5.2 0 9.416 4.145 9.416 9.259 0 5.114-4.215 9.258-9.416 9.258-5.199 0-9.414-4.144-9.414-9.258" fill-opacity=".4" fill="#FFF" style="mix-blend-mode:overlay"/><path d="M355.143 150.259c0-5.114 4.215-9.259 9.414-9.259 5.2 0 9.416 4.145 9.416 9.259 0 5.114-4.215 9.258-9.416 9.258-5.199 0-9.414-4.144-9.414-9.258h0z" stroke="#FFF" stroke-width=".3"/><path d="M350 127.05c0-2.79 2.3-5.05 5.135-5.05 2.837 0 5.136 2.26 5.136 5.05s-2.3 5.05-5.136 5.05c-2.836 0-5.135-2.26-5.135-5.05" fill-opacity=".4" fill="#FFF" style="mix-blend-mode:overlay"/><path d="M350 127.05c0-2.79 2.3-5.05 5.135-5.05 2.837 0 5.136 2.26 5.136 5.05s-2.3 5.05-5.136 5.05c-2.836 0-5.135-2.26-5.135-5.05h0z" stroke="#FFF" stroke-width=".3"/><g><path d="M365.429 128.821c0-1.86 1.532-3.366 3.423-3.366s3.424 1.507 3.424 3.366c0 1.86-1.533 3.367-3.424 3.367-1.89 0-3.423-1.507-3.423-3.367" fill-opacity=".4" fill="#FFF" style="mix-blend-mode:overlay"/><path d="M365.429 128.821c0-1.86 1.532-3.366 3.423-3.366s3.424 1.507 3.424 3.366c0 1.86-1.533 3.367-3.424 3.367-1.89 0-3.423-1.507-3.423-3.367h0z" stroke="#FFF" stroke-width=".3"/></g></g><g><path d="M967.857 150.741c0 5.114-4.215 9.259-9.414 9.259-5.2 0-9.416-4.145-9.416-9.259 0-5.114 4.215-9.258 9.416-9.258 5.199 0 9.414 4.144 9.414 9.258" fill-opacity=".4" fill="#FFF" style="mix-blend-mode:overlay"/><path d="M967.857 150.741c0 5.114-4.215 9.259-9.414 9.259-5.2 0-9.416-4.145-9.416-9.259 0-5.114 4.215-9.258 9.416-9.258 5.199 0 9.414 4.144 9.414 9.258h0z" stroke="#FFF" stroke-width=".3"/><path d="M973 173.95c0 2.79-2.3 5.05-5.135 5.05-2.837 0-5.136-2.26-5.136-5.05s2.3-5.05 5.136-5.05c2.836 0 5.135 2.26 5.135 5.05" fill-opacity=".4" fill="#FFF" style="mix-blend-mode:overlay"/><path d="M973 173.95c0 2.79-2.3 5.05-5.135 5.05-2.837 0-5.136-2.26-5.136-5.05s2.3-5.05 5.136-5.05c2.836 0 5.135 2.26 5.135 5.05h0z" stroke="#FFF" stroke-width=".3"/><g><path d="M957.571 172.179c0 1.86-1.532 3.366-3.423 3.366s-3.424-1.507-3.424-3.366c0-1.86 1.533-3.367 3.424-3.367 1.89 0 3.423 1.507 3.423 3.367" fill-opacity=".4" fill="#FFF" style="mix-blend-mode:overlay"/><path d="M957.571 172.179c0 1.86-1.532 3.366-3.423 3.366s-3.424-1.507-3.424-3.366c0-1.86 1.533-3.367 3.424-3.367 1.89 0 3.423 1.507 3.423 3.367h0z" stroke="#FFF" stroke-width=".3"/></g></g><g><path d="M130 108.868c0 7.806-6.434 14.132-14.37 14.132-7.937 0-14.37-6.326-14.37-14.132 0-7.805 6.433-14.131 14.37-14.131 7.936 0 14.37 6.326 14.37 14.131" fill-opacity=".4" fill="#FFF" style="mix-blend-mode:overlay"/><path d="M130 108.868c0 7.806-6.434 14.132-14.37 14.132-7.937 0-14.37-6.326-14.37-14.132 0-7.805 6.433-14.131 14.37-14.131 7.936 0 14.37 6.326 14.37 14.131h0z" stroke="#FFF" stroke-width=".3"/><path d="M138 144.195c0 4.311-3.553 7.805-7.936 7.805-4.384 0-7.937-3.494-7.937-7.805 0-4.31 3.553-7.805 7.937-7.805 4.383 0 7.936 3.494 7.936 7.805" fill-opacity=".4" fill="#FFF" style="mix-blend-mode:overlay"/><path d="M138 144.195c0 4.311-3.553 7.805-7.936 7.805-4.384 0-7.937-3.494-7.937-7.805 0-4.31 3.553-7.805 7.937-7.805 4.383 0 7.936 3.494 7.936 7.805h0z" stroke="#FFF" stroke-width=".3"/><g><path d="M112 140.71c0 2.922-2.409 5.29-5.38 5.29s-5.38-2.368-5.38-5.29c0-2.923 2.409-5.291 5.38-5.291s5.38 2.368 5.38 5.29" fill-opacity=".4" fill="#FFF" style="mix-blend-mode:overlay"/><path d="M112 140.71c0 2.922-2.409 5.29-5.38 5.29s-5.38-2.368-5.38-5.29c0-2.923 2.409-5.291 5.38-5.291s5.38 2.368 5.38 5.29h0z" stroke="#FFF" stroke-width=".3"/></g></g><g><path d="M149.041 255.429c-16.868 0-30.543-12.619-30.543-26.106h61.087c0 13.487-13.675 26.106-30.544 26.106" fill="#25C6DA"/><path d="M170.327 236.63c0-1.977-1.615-3.58-3.607-3.58-1.993 0-3.609 1.603-3.609 3.58 0 1.978 1.616 3.581 3.609 3.581 1.992 0 3.607-1.603 3.607-3.58" fill="#1F2A4A"/><path d="M139.422 247.998c-4.277 4.245-4.985 11.41-4.13 12.26.857.849 8.503-.278 12.352-4.1 2.27-2.253 2.734-10.874 2.734-10.874s-8.686.46-10.956 2.714" fill="#307EC2"/><path d="M121.836 218.247c-3.801 4.67-3.742 11.87-2.8 12.624.942.756 8.425-1.168 11.846-5.371 2.017-2.48 1.56-11.101 1.56-11.101s-8.589 1.37-10.606 3.848" fill="#4D75D1"/><g transform="matrix(-1 0 0 1 119.63 213.367)"><mask id="t" fill="#fff"><use xlink:href="#s"/></mask><path d="M12.415 11.604c-3.71 4.743-10.782 6.336-11.739 5.6-.955-.736-.784-8.407 2.553-12.676C5.2 2.01 13.76.475 13.76.475s.625 8.612-1.344 11.13" fill="#40A6FF" mask="url(#t)"/></g></g><g><path d="M184.772 229.99c.605 1.577 2.383 2.36 3.971 1.75 1.59-.61 2.387-2.382 1.782-3.958s-2.384-2.36-3.972-1.75c-1.589.61-2.387 2.382-1.781 3.958" fill-opacity=".4" fill="#FFF" style="mix-blend-mode:overlay"/><path d="M184.772 229.99c.605 1.577 2.383 2.36 3.971 1.75 1.59-.61 2.387-2.382 1.782-3.958s-2.384-2.36-3.972-1.75c-1.589.61-2.387 2.382-1.781 3.958h0z" stroke="#FFF" stroke-width=".3"/><g><path d="M193.03 225.672a2.046 2.046 0 0 0 2.648 1.167 2.046 2.046 0 0 0 1.187-2.64 2.046 2.046 0 0 0-2.648-1.165 2.046 2.046 0 0 0-1.187 2.638" fill-opacity=".4" fill="#FFF" style="mix-blend-mode:overlay"/><path d="M193.03 225.672a2.046 2.046 0 0 0 2.648 1.167 2.046 2.046 0 0 0 1.187-2.64 2.046 2.046 0 0 0-2.648-1.165 2.046 2.046 0 0 0-1.187 2.638h0z" stroke="#FFF" stroke-width=".3"/></g></g><g><path d="M705 109c11.046 0 20-8.217 20-17h-40c0 8.783 8.954 17 20 17" fill="#25C6DA"/><path d="M691 96.5a2.5 2.5 0 1 1 5 0 2.5 2.5 0 0 1-5 0" fill="#1F2A4A"/><path d="M711.113 104.78c2.776 2.786 3.236 7.488 2.68 8.045-.555.557-5.519-.182-8.018-2.69C704.301 108.657 704 103 704 103s5.639.302 7.113 1.78" fill="#307EC2"/><path d="M722.853 84.545c2.445 3.089 2.407 7.85 1.801 8.349-.606.5-5.42-.773-7.621-3.553-1.299-1.64-1.004-7.341-1.004-7.341s5.526.906 6.824 2.545" fill="#4D75D1"/><g transform="translate(725 81)"><mask id="v" fill="#fff"><use xlink:href="#u"/></mask><path d="M8.576 7.736C6.014 10.898 1.128 11.96.467 11.47c-.66-.49-.542-5.604 1.764-8.45C3.59 1.34 9.504.317 9.504.317s.433 5.74-.928 7.42" fill="#40A6FF" mask="url(#v)"/></g></g><g><path d="M905 324.655c0 1.29-1.125 2.345-2.5 2.345s-2.5-1.055-2.5-2.345v-100.31c0-1.29 1.125-2.345 2.5-2.345s2.5 1.055 2.5 2.345v100.31z" fill="#96356F"/><path d="M906.132 239.293a2.43 2.43 0 0 1-3.426 0 2.43 2.43 0 0 1 0-3.426l7.161-7.16a2.43 2.43 0 0 1 3.426 0 2.43 2.43 0 0 1 0 3.425l-7.16 7.161z" fill="#96356F"/><path d="M903.293 235.868a2.43 2.43 0 0 1 0 3.426 2.43 2.43 0 0 1-3.426 0l-7.16-7.161a2.43 2.43 0 0 1 0-3.426 2.43 2.43 0 0 1 3.425 0l7.161 7.16zM893.495 248.002c1.327-.05 2.453.966 2.503 2.257.05 1.29-.993 2.387-2.318 2.436l-8.175.303c-1.326.05-2.453-.966-2.503-2.257-.05-1.29.993-2.387 2.32-2.436l8.173-.303zM906.049 259.308a2.38 2.38 0 0 1-3.357 0 2.382 2.382 0 0 1 0-3.357l15.259-15.259a2.38 2.38 0 0 1 3.357 0 2.38 2.38 0 0 1 0 3.357l-15.259 15.259z" fill="#96356F"/><path d="M902.32 256.021a2.34 2.34 0 0 1 0 3.3 2.34 2.34 0 0 1-3.3 0l-15.34-15.341a2.34 2.34 0 0 1 0-3.3 2.338 2.338 0 0 1 3.299 0l15.34 15.341z" fill="#96356F"/><path d="M891.981 241.99c.188-1.255 1.466-2.14 2.84-1.969 1.373.171 2.343 1.338 2.156 2.591l-.958 6.399c-.188 1.254-1.466 2.14-2.84 1.968-1.373-.171-2.343-1.338-2.156-2.591l.958-6.399zM890.534 265.002c1.296-.054 2.397 1.05 2.446 2.454l.018.512c.05 1.403-.97 2.595-2.266 2.648l-9.266.382c-1.296.054-2.397-1.05-2.446-2.453l-.018-.513c-.05-1.403.97-2.595 2.266-2.647l9.266-.383z" fill="#96356F"/><path d="M901.326 274.73c.899.898.899 2.369 0 3.268l-.33.328a2.317 2.317 0 0 1-3.267 0l-17.055-17.055a2.318 2.318 0 0 1 0-3.268l.33-.33a2.318 2.318 0 0 1 3.267 0l17.055 17.056z" fill="#96356F"/><path d="M889.031 257.962a2.275 2.275 0 0 1 2.556-1.941l.451.062a2.276 2.276 0 0 1 1.941 2.556l-1.01 7.399a2.276 2.276 0 0 1-2.555 1.941l-.453-.062a2.276 2.276 0 0 1-1.94-2.556l1.01-7.399z" fill="#96356F"/><g transform="translate(877 281)"><mask id="x" fill="#fff"><use xlink:href="#w"/></mask><path d="M11.302.057c1.279-.096 2.407.835 2.506 2.07l.037.45c.099 1.235-.867 2.322-2.146 2.418l-9.149.684C1.27 5.775.143 4.844.043 3.61L.007 3.16C-.093 1.925.873.837 2.153.742l9.149-.685z" fill="#96356F" mask="url(#x)"/></g><path d="M902.314 295.659c.911.91.915 2.403.01 3.318l-.332.334a2.334 2.334 0 0 1-3.302.01l-21.004-20.98a2.36 2.36 0 0 1-.009-3.318l.331-.334a2.335 2.335 0 0 1 3.303-.01l21.003 20.98z" fill="#96356F"/><path d="M885.767 275.048c.126-1.24 1.297-2.158 2.602-2.037l.477.043c1.305.12 2.27 1.234 2.143 2.475l-.756 7.423c-.126 1.24-1.297 2.158-2.602 2.037l-.477-.044c-1.305-.12-2.27-1.233-2.143-2.474l.756-7.423zM913.998 250.495c.05 1.327-.966 2.453-2.257 2.503-1.29.05-2.387-.993-2.436-2.318l-.303-8.175c-.05-1.326.966-2.453 2.257-2.503 1.29-.05 2.387.993 2.436 2.32l.303 8.173z" fill="#96356F"/><path d="M920.01 249.981c1.255.188 2.14 1.466 1.969 2.84-.171 1.373-1.338 2.343-2.591 2.156l-6.399-.958c-1.254-.188-2.14-1.466-1.968-2.84.171-1.373 1.338-2.343 2.591-2.156l6.399.958zM906.099 280.299a2.41 2.41 0 0 1-3.399 0 2.411 2.411 0 0 1 0-3.398l18.2-18.2a2.411 2.411 0 0 1 3.399 0 2.41 2.41 0 0 1 0 3.398l-18.2 18.2z" fill="#96356F"/><path d="M915.998 268.495c.05 1.327-.966 2.453-2.257 2.503-1.29.05-2.387-.993-2.436-2.318l-.303-8.175c-.05-1.326.966-2.453 2.257-2.503 1.29-.05 2.387.993 2.436 2.32l.303 8.173z" fill="#96356F"/><path d="M922.65 266c1.257-.035 2.315 1.02 2.35 2.344.033 1.324-.969 2.437-2.227 2.473l-6.422.182c-1.26.036-2.317-1.018-2.35-2.343-.034-1.324.968-2.437 2.226-2.473l6.422-.182zM905.994 299.317c-.91.91-2.4.91-3.311 0a2.35 2.35 0 0 1 0-3.312l19.323-19.322c.91-.91 2.4-.91 3.311 0 .91.91.91 2.4 0 3.31l-19.323 19.324z" fill="#96356F"/><path d="M918.998 284.495c.05 1.327-.966 2.453-2.257 2.503-1.29.05-2.387-.993-2.436-2.318l-.303-8.175c-.05-1.326.966-2.453 2.257-2.503 1.29-.05 2.387.993 2.436 2.32l.303 8.173z" fill="#96356F"/><path d="M925.386 282.171c1.32-.032 2.428.907 2.464 2.085.036 1.177-1.015 2.167-2.334 2.2l-6.734.162c-1.32.032-2.428-.906-2.464-2.085-.036-1.177 1.016-2.167 2.335-2.2l6.733-.162z" fill="#96356F"/></g></g></svg>