<svg width="1023" height="320" xmlns="http://www.w3.org/2000/svg"><g fill="none" fill-rule="evenodd"><g fill="#FFF"><path d="M372.828 274.122c0 .556-.325 1.01-.724 1.01-.398 0-.723-.454-.723-1.01v-2.112c0-.555.325-1.01.723-1.01.399 0 .724.455.724 1.01v2.112z" opacity=".415"/><path d="M373.18 272.356c.566 0 1.03.32 1.03.71 0 .391-.464.71-1.03.71h-2.15c-.567 0-1.03-.319-1.03-.71 0-.39.463-.71 1.03-.71h2.15z" opacity=".415"/><path d="M269.828 249.122c0 .556-.325 1.01-.724 1.01-.398 0-.723-.454-.723-1.01v-2.112c0-.555.325-1.01.723-1.01.399 0 .724.455.724 1.01v2.112z"/><path d="M270.18 247.356c.566 0 1.03.32 1.03.71 0 .391-.464.71-1.03.71h-2.15c-.567 0-1.03-.319-1.03-.71 0-.39.463-.71 1.03-.71h2.15zM312.828 244.122c0 .556-.325 1.01-.724 1.01-.398 0-.723-.454-.723-1.01v-2.112c0-.555.325-1.01.723-1.01.399 0 .724.455.724 1.01v2.112z"/><path d="M313.18 242.356c.566 0 1.03.32 1.03.71 0 .391-.464.71-1.03.71h-2.15c-.567 0-1.03-.319-1.03-.71 0-.39.463-.71 1.03-.71h2.15z"/><path d="M351.828 250.122c0 .556-.325 1.01-.724 1.01-.398 0-.723-.454-.723-1.01v-2.112c0-.555.325-1.01.723-1.01.399 0 .724.455.724 1.01v2.112z" opacity=".415"/><path d="M352.18 248.356c.566 0 1.03.32 1.03.71 0 .391-.464.71-1.03.71h-2.15c-.567 0-1.03-.319-1.03-.71 0-.39.463-.71 1.03-.71h2.15z" opacity=".415"/><path d="M389.828 255.122c0 .556-.325 1.01-.724 1.01-.398 0-.723-.454-.723-1.01v-2.112c0-.555.325-1.01.723-1.01.399 0 .724.455.724 1.01v2.112z"/><path d="M390.18 253.356c.566 0 1.03.32 1.03.71 0 .391-.464.71-1.03.71h-2.15c-.567 0-1.03-.319-1.03-.71 0-.39.463-.71 1.03-.71h2.15zM349.828 279.122c0 .556-.325 1.01-.724 1.01-.398 0-.723-.454-.723-1.01v-2.112c0-.555.325-1.01.723-1.01.399 0 .724.455.724 1.01v2.112z"/><path d="M350.18 277.356c.566 0 1.03.32 1.03.71 0 .391-.464.71-1.03.71h-2.15c-.567 0-1.03-.319-1.03-.71 0-.39.463-.71 1.03-.71h2.15z"/><path d="M301.828 232.122c0 .556-.325 1.01-.724 1.01-.398 0-.723-.454-.723-1.01v-2.112c0-.555.325-1.01.723-1.01.399 0 .724.455.724 1.01v2.112z" opacity=".415"/><path d="M302.18 230.356c.566 0 1.03.32 1.03.71 0 .391-.464.71-1.03.71h-2.15c-.567 0-1.03-.319-1.03-.71 0-.39.463-.71 1.03-.71h2.15z" opacity=".415"/></g><g fill="#FFF"><path d="M136.828 86.878c0-.556-.325-1.01-.724-1.01-.398 0-.723.454-.723 1.01v2.112c0 .555.325 1.01.723 1.01.399 0 .724-.455.724-1.01v-2.112z" opacity=".415"/><path d="M137.18 88.644c.566 0 1.03-.32 1.03-.71 0-.391-.464-.71-1.03-.71h-2.15c-.567 0-1.03.319-1.03.71 0 .39.463.71 1.03.71h2.15z" opacity=".415"/><path d="M33.828 111.878c0-.556-.325-1.01-.724-1.01-.398 0-.723.454-.723 1.01v2.112c0 .555.325 1.01.723 1.01.399 0 .724-.455.724-1.01v-2.112z"/><path d="M34.18 113.644c.566 0 1.03-.32 1.03-.71 0-.391-.464-.71-1.03-.71h-2.15c-.567 0-1.03.319-1.03.71 0 .39.463.71 1.03.71h2.15zM76.828 116.878c0-.556-.325-1.01-.724-1.01-.398 0-.723.454-.723 1.01v2.112c0 .555.325 1.01.723 1.01.399 0 .724-.455.724-1.01v-2.112z"/><path d="M77.18 118.644c.566 0 1.03-.32 1.03-.71 0-.391-.464-.71-1.03-.71h-2.15c-.567 0-1.03.319-1.03.71 0 .39.463.71 1.03.71h2.15z"/><path d="M115.828 110.878c0-.556-.325-1.01-.724-1.01-.398 0-.723.454-.723 1.01v2.112c0 .555.325 1.01.723 1.01.399 0 .724-.455.724-1.01v-2.112z" opacity=".415"/><path d="M116.18 112.644c.566 0 1.03-.32 1.03-.71 0-.391-.464-.71-1.03-.71h-2.15c-.567 0-1.03.319-1.03.71 0 .39.463.71 1.03.71h2.15z" opacity=".415"/><path d="M153.828 105.878c0-.556-.325-1.01-.724-1.01-.398 0-.723.454-.723 1.01v2.112c0 .555.325 1.01.723 1.01.399 0 .724-.455.724-1.01v-2.112z"/><path d="M154.18 107.644c.566 0 1.03-.32 1.03-.71 0-.391-.464-.71-1.03-.71h-2.15c-.567 0-1.03.319-1.03.71 0 .39.463.71 1.03.71h2.15zM113.828 81.878c0-.556-.325-1.01-.724-1.01-.398 0-.723.454-.723 1.01v2.112c0 .555.325 1.01.723 1.01.399 0 .724-.455.724-1.01v-2.112z"/><path d="M114.18 83.644c.566 0 1.03-.32 1.03-.71 0-.391-.464-.71-1.03-.71h-2.15c-.567 0-1.03.319-1.03.71 0 .39.463.71 1.03.71h2.15z"/><path d="M65.828 128.878c0-.556-.325-1.01-.724-1.01-.398 0-.723.454-.723 1.01v2.112c0 .555.325 1.01.723 1.01.399 0 .724-.455.724-1.01v-2.112z" opacity=".415"/><path d="M66.18 130.644c.566 0 1.03-.32 1.03-.71 0-.391-.464-.71-1.03-.71h-2.15c-.567 0-1.03.319-1.03.71 0 .39.463.71 1.03.71h2.15z" opacity=".415"/></g><path d="M787 91.5c0-7.456 6.044-13.5 13.5-13.5S814 84.044 814 91.5s-6.044 13.5-13.5 13.5S787 98.956 787 91.5" fill="#3CBEBC"/><path d="M787 91.5c0-7.456 6.044-13.5 13.5-13.5S814 84.044 814 91.5s-6.044 13.5-13.5 13.5S787 98.956 787 91.5" fill="#FF5096"/><path d="M800.5 104c-6.892 0-12.5-5.608-12.5-12.5S793.608 79 800.5 79 813 84.608 813 91.5s-5.608 12.5-12.5 12.5" fill="#453258"/><path d="M800.5 79c-6.893 0-12.5 5.607-12.5 12.5s5.607 12.5 12.5 12.5S813 98.393 813 91.5 807.393 79 800.5 79m0 .338c6.717 0 12.162 5.445 12.162 12.162 0 6.717-5.445 12.162-12.162 12.162-6.717 0-12.162-5.445-12.162-12.162 0-6.717 5.445-12.162 12.162-12.162" fill="#2F1D42"/><path d="M801 79c2.102 3.044 3.409 7.294 3.409 12s-1.307 8.956-3.409 12c6.163-.536 11-5.7 11-12s-4.837-11.464-11-12M105 207.5c0-26.233 21.043-47.5 47-47.5s47 21.267 47 47.5-21.043 47.5-47 47.5-47-21.267-47-47.5" fill="#503F6A"/><path d="M151.923 160c-13.327 0-25.358 5.607-33.923 14.616 8.463-8.245 19.965-13.316 32.639-13.316 26 0 47.077 21.337 47.077 47.658 0 12.83-5.01 24.474-13.154 33.042 8.9-8.67 14.438-20.85 14.438-34.342 0-26.32-21.077-47.658-47.077-47.658" fill="#4EEBD9"/><path d="M126 224c0-7.18 5.82-13 13-13s13 5.82 13 13-5.82 13-13 13-13-5.82-13-13" fill="#322440"/><path d="M128 224c0-6.628 5.149-12 11.5-12s11.5 5.372 11.5 12-5.149 12-11.5 12-11.5-5.372-11.5-12" fill="#453258"/><path d="M145 218.5a1.5 1.5 0 1 1 3 0 1.5 1.5 0 0 1-3 0M146 221.5a.5.5 0 1 1 1 0 .5.5 0 0 1-1 0M144 221.365c0-.201.162-.365.363-.365.2 0 .363.164.363.365a.364.364 0 0 1-.363.366.364.364 0 0 1-.363-.366M181.212 228.067c-5.008 2.326-10.953.153-13.28-4.855-2.325-5.008-.152-10.953 4.856-13.28 5.008-2.325 10.953-.151 13.28 4.856 2.325 5.008.152 10.953-4.856 13.28" fill="#322440"/><path d="M179.79 226.16a8.998 8.998 0 1 1-7.581-16.321 8.998 8.998 0 0 1 7.582 16.321" fill="#453258"/><path d="M171.421 216.907a1 1 0 1 1-.842-1.813 1 1 0 0 1 .842 1.813M172.588 213.802a.411.411 0 0 1-.55-.204.424.424 0 0 1 .202-.559.41.41 0 0 1 .549.204c.096.211.006.461-.2.559M173.516 215.697a.362.362 0 0 1-.482-.177.367.367 0 0 1 .176-.486.361.361 0 0 1 .482.177c.085.183.006.4-.176.486M160.151 248.864a4.999 4.999 0 1 1-2.302-9.728 4.999 4.999 0 0 1 2.302 9.728" fill="#322440"/><path d="M159.536 247.878a4.499 4.499 0 1 1-2.072-8.756 4.499 4.499 0 0 1 2.072 8.756" fill="#453258"/><path d="M155.518 241.844a.428.428 0 0 1-.194-.832.42.42 0 0 1 .506.317.428.428 0 0 1-.312.515M157.412 241.669a.335.335 0 0 1-.403-.252.335.335 0 1 1 .651-.156.339.339 0 0 1-.248.408M157.242 242.393a.2.2 0 0 1-.09-.388.197.197 0 0 1 .236.148.2.2 0 0 1-.146.24" fill="#322440"/><path d="M113 207.5a1.5 1.5 0 1 1 3 0 1.5 1.5 0 0 1-3 0M137 173.5a2.5 2.5 0 1 1 5 0 2.5 2.5 0 0 1-5 0" fill="#4EEBD9"/><path d="M124.812 180.435a3.5 3.5 0 1 1 3.376 6.13 3.5 3.5 0 0 1-3.376-6.13" fill="#322440"/><path d="M124.553 181.373a3 3 0 1 1 2.894 5.254 3 3 0 0 1-2.894-5.254" fill="#453258"/><path d="M115.843 176.54s-31.308-13.474-37.517 1.604c-6.21 15.08 9.132 38.99 51.425 68.932 42.292 29.942 62.363 18.956 62.363 18.956s16.382-6.83-1.389-31.382" stroke="#4EEBD9"/><path d="M78 199.5a3.5 3.5 0 1 1 7 0 3.5 3.5 0 0 1-7 0" fill="#4EEBD9"/><path d="M77 191.5a1.5 1.5 0 1 1 3 0 1.5 1.5 0 0 1-3 0" fill="#FDAF8A"/><g><path d="M911 245.5c0-12.98 10.52-23.5 23.5-23.5s23.5 10.52 23.5 23.5-10.52 23.5-23.5 23.5-23.5-10.52-23.5-23.5" fill="#3CBEBC"/><path d="M911 245.5c0-12.98 10.52-23.5 23.5-23.5s23.5 10.52 23.5 23.5-10.52 23.5-23.5 23.5-23.5-10.52-23.5-23.5" fill="#3CBEBC"/><path d="M933.847 266.389c-11.878 0-21.541-9.664-21.541-21.542 0-11.878 9.663-21.541 21.541-21.541s21.542 9.663 21.542 21.541-9.664 21.542-21.542 21.542" fill="#453258"/><path d="M933.847 223.306c-11.878 0-21.541 9.663-21.541 21.541s9.663 21.542 21.541 21.542 21.542-9.664 21.542-21.542c0-11.878-9.664-21.541-21.542-21.541m0 .582c11.576 0 20.96 9.384 20.96 20.96 0 11.575-9.384 20.959-20.96 20.959-11.575 0-20.96-9.384-20.96-20.96 0-11.575 9.385-20.96 20.96-20.96" fill="#2F1D42"/><path d="M935.806 223.306c3.742 5.298 6.068 12.697 6.068 20.888 0 8.193-2.326 15.591-6.068 20.89 10.972-.933 19.583-9.922 19.583-20.89 0-10.966-8.611-19.955-19.583-20.888" fill="#503F6A"/></g><g opacity=".176" fill="#FFF"><path d="M298.828 116.122c0 .556-.325 1.01-.724 1.01-.398 0-.723-.454-.723-1.01v-2.112c0-.555.325-1.01.723-1.01.399 0 .724.455.724 1.01v2.112z"/><path d="M299.18 114.356c.566 0 1.03.32 1.03.71 0 .391-.464.71-1.03.71h-2.15c-.567 0-1.03-.319-1.03-.71 0-.39.463-.71 1.03-.71h2.15z"/><g opacity=".393"><path d="M326.828 90.122c0 .556-.325 1.01-.724 1.01-.398 0-.723-.454-.723-1.01V88.01c0-.555.325-1.01.723-1.01.399 0 .724.455.724 1.01v2.112z"/><path d="M327.18 88.356c.566 0 1.03.32 1.03.71 0 .391-.464.71-1.03.71h-2.15c-.567 0-1.03-.319-1.03-.71 0-.39.463-.71 1.03-.71h2.15z"/></g><path d="M331.828 129.122c0 .556-.325 1.01-.724 1.01-.398 0-.723-.454-.723-1.01v-2.112c0-.555.325-1.01.723-1.01.399 0 .724.455.724 1.01v2.112z"/><path d="M332.18 127.356c.566 0 1.03.32 1.03.71 0 .391-.464.71-1.03.71h-2.15c-.567 0-1.03-.319-1.03-.71 0-.39.463-.71 1.03-.71h2.15z"/><g opacity=".393"><path d="M309.828 146.122c0 .556-.325 1.01-.724 1.01-.398 0-.723-.454-.723-1.01v-2.112c0-.555.325-1.01.723-1.01.399 0 .724.455.724 1.01v2.112z"/><path d="M310.18 144.356c.566 0 1.03.32 1.03.71 0 .391-.464.71-1.03.71h-2.15c-.567 0-1.03-.319-1.03-.71 0-.39.463-.71 1.03-.71h2.15z"/></g></g><g opacity=".784" fill="#FFF"><path d="M260.828 160.122c0 .556-.325 1.01-.724 1.01-.398 0-.723-.454-.723-1.01v-2.112c0-.555.325-1.01.723-1.01.399 0 .724.455.724 1.01v2.112z"/><path d="M261.18 158.356c.566 0 1.03.32 1.03.71 0 .391-.464.71-1.03.71h-2.15c-.567 0-1.03-.319-1.03-.71 0-.39.463-.71 1.03-.71h2.15z"/><g opacity=".393"><path d="M288.828 134.122c0 .556-.325 1.01-.724 1.01-.398 0-.723-.454-.723-1.01v-2.112c0-.555.325-1.01.723-1.01.399 0 .724.455.724 1.01v2.112z"/><path d="M289.18 132.356c.566 0 1.03.32 1.03.71 0 .391-.464.71-1.03.71h-2.15c-.567 0-1.03-.319-1.03-.71 0-.39.463-.71 1.03-.71h2.15z"/></g><path d="M293.828 173.122c0 .556-.325 1.01-.724 1.01-.398 0-.723-.454-.723-1.01v-2.112c0-.555.325-1.01.723-1.01.399 0 .724.455.724 1.01v2.112z"/><path d="M294.18 171.356c.566 0 1.03.32 1.03.71 0 .391-.464.71-1.03.71h-2.15c-.567 0-1.03-.319-1.03-.71 0-.39.463-.71 1.03-.71h2.15z"/><g opacity=".393"><path d="M271.828 190.122c0 .556-.325 1.01-.724 1.01-.398 0-.723-.454-.723-1.01v-2.112c0-.555.325-1.01.723-1.01.399 0 .724.455.724 1.01v2.112z"/><path d="M272.18 188.356c.566 0 1.03.32 1.03.71 0 .391-.464.71-1.03.71h-2.15c-.567 0-1.03-.319-1.03-.71 0-.39.463-.71 1.03-.71h2.15z"/></g></g><g fill="#FFF"><path d="M259.414 90.8c0 .282-.163.513-.362.513-.199 0-.362-.23-.362-.513v-1.073c0-.283.163-.514.362-.514.2 0 .362.231.362.514V90.8z"/><path d="M259.59 89.902c.283 0 .515.162.515.361 0 .199-.232.361-.515.361h-1.075c-.283 0-.515-.162-.515-.36 0-.2.232-.362.515-.362h1.075z"/><g opacity=".393"><path d="M273.414 77.587c0 .282-.163.513-.362.513-.199 0-.362-.23-.362-.513v-1.073c0-.283.163-.514.362-.514.2 0 .362.231.362.514v1.073z"/><path d="M273.59 76.69c.283 0 .515.161.515.36 0 .199-.232.361-.515.361h-1.075c-.283 0-.515-.162-.515-.36 0-.2.232-.362.515-.362h1.075z"/></g><path d="M275.914 97.406c0 .283-.163.514-.362.514-.199 0-.362-.231-.362-.514v-1.073c0-.282.163-.513.362-.513.2 0 .362.23.362.513v1.073z"/><path d="M276.09 96.509c.283 0 .515.162.515.36 0 .2-.232.362-.515.362h-1.075c-.283 0-.515-.163-.515-.361 0-.199.232-.361.515-.361h1.075z"/><g opacity=".393"><path d="M264.914 106.046c0 .282-.163.513-.362.513-.199 0-.362-.23-.362-.513v-1.073c0-.283.163-.514.362-.514.2 0 .362.231.362.514v1.073z"/><path d="M265.09 105.148c.283 0 .515.162.515.361 0 .199-.232.361-.515.361h-1.075c-.283 0-.515-.162-.515-.36 0-.2.232-.362.515-.362h1.075z"/></g></g><g fill="#FFF"><path d="M354.414 84.8c0 .282-.163.513-.362.513-.199 0-.362-.23-.362-.513v-1.073c0-.283.163-.514.362-.514.2 0 .362.231.362.514V84.8z"/><path d="M354.59 83.902c.283 0 .515.162.515.361 0 .199-.232.361-.515.361h-1.075c-.283 0-.515-.162-.515-.36 0-.2.232-.362.515-.362h1.075z"/><g opacity=".393"><path d="M368.414 71.587c0 .282-.163.513-.362.513-.199 0-.362-.23-.362-.513v-1.073c0-.283.163-.514.362-.514.2 0 .362.231.362.514v1.073z"/><path d="M368.59 70.69c.283 0 .515.161.515.36 0 .199-.232.361-.515.361h-1.075c-.283 0-.515-.162-.515-.36 0-.2.232-.362.515-.362h1.075z"/></g><path d="M370.914 91.406c0 .283-.163.514-.362.514-.199 0-.362-.231-.362-.514v-1.073c0-.282.163-.513.362-.513.2 0 .362.23.362.513v1.073z"/><path d="M371.09 90.509c.283 0 .515.162.515.36 0 .2-.232.362-.515.362h-1.075c-.283 0-.515-.163-.515-.361 0-.199.232-.361.515-.361h1.075z"/><g opacity=".393"><path d="M359.914 100.046c0 .282-.163.513-.362.513-.199 0-.362-.23-.362-.513v-1.073c0-.283.163-.514.362-.514.2 0 .362.231.362.514v1.073z"/><path d="M360.09 99.148c.283 0 .515.162.515.361 0 .199-.232.361-.515.361h-1.075c-.283 0-.515-.162-.515-.36 0-.2.232-.362.515-.362h1.075z"/></g></g><g fill="#FFF"><path d="M331.414 169.8c0 .282-.163.513-.362.513-.199 0-.362-.23-.362-.513v-1.073c0-.283.163-.514.362-.514.2 0 .362.231.362.514v1.073z"/><path d="M331.59 168.902c.283 0 .515.162.515.361 0 .199-.232.361-.515.361h-1.075c-.283 0-.515-.162-.515-.36 0-.2.232-.362.515-.362h1.075z"/><g opacity=".393"><path d="M345.414 156.587c0 .282-.163.513-.362.513-.199 0-.362-.23-.362-.513v-1.073c0-.283.163-.514.362-.514.2 0 .362.231.362.514v1.073z"/><path d="M345.59 155.69c.283 0 .515.161.515.36 0 .199-.232.361-.515.361h-1.075c-.283 0-.515-.162-.515-.36 0-.2.232-.362.515-.362h1.075z"/></g><path d="M347.914 176.406c0 .283-.163.514-.362.514-.199 0-.362-.231-.362-.514v-1.073c0-.282.163-.513.362-.513.2 0 .362.23.362.513v1.073z"/><path d="M348.09 175.509c.283 0 .515.162.515.36 0 .2-.232.362-.515.362h-1.075c-.283 0-.515-.163-.515-.361 0-.199.232-.361.515-.361h1.075z"/><g opacity=".393"><path d="M336.914 185.046c0 .282-.163.513-.362.513-.199 0-.362-.23-.362-.513v-1.073c0-.283.163-.514.362-.514.2 0 .362.231.362.514v1.073z"/><path d="M337.09 184.148c.283 0 .515.162.515.361 0 .199-.232.361-.515.361h-1.075c-.283 0-.515-.162-.515-.36 0-.2.232-.362.515-.362h1.075z"/></g></g><g fill="#FFF"><path d="M674.828 234.122c0 .556-.325 1.01-.724 1.01-.398 0-.723-.454-.723-1.01v-2.112c0-.555.325-1.01.723-1.01.399 0 .724.455.724 1.01v2.112z"/><path d="M675.18 232.356c.566 0 1.03.32 1.03.71 0 .391-.464.71-1.03.71h-2.15c-.567 0-1.03-.319-1.03-.71 0-.39.463-.71 1.03-.71h2.15z"/><g opacity=".393"><path d="M702.828 208.122c0 .556-.325 1.01-.724 1.01-.398 0-.723-.454-.723-1.01v-2.112c0-.555.325-1.01.723-1.01.399 0 .724.455.724 1.01v2.112z"/><path d="M703.18 206.356c.566 0 1.03.32 1.03.71 0 .391-.464.71-1.03.71h-2.15c-.567 0-1.03-.319-1.03-.71 0-.39.463-.71 1.03-.71h2.15z"/></g><path d="M707.828 247.122c0 .556-.325 1.01-.724 1.01-.398 0-.723-.454-.723-1.01v-2.112c0-.555.325-1.01.723-1.01.399 0 .724.455.724 1.01v2.112z"/><path d="M708.18 245.356c.566 0 1.03.32 1.03.71 0 .391-.464.71-1.03.71h-2.15c-.567 0-1.03-.319-1.03-.71 0-.39.463-.71 1.03-.71h2.15z"/><g opacity=".393"><path d="M685.828 264.122c0 .556-.325 1.01-.724 1.01-.398 0-.723-.454-.723-1.01v-2.112c0-.555.325-1.01.723-1.01.399 0 .724.455.724 1.01v2.112z"/><path d="M686.18 262.356c.566 0 1.03.32 1.03.71 0 .391-.464.71-1.03.71h-2.15c-.567 0-1.03-.319-1.03-.71 0-.39.463-.71 1.03-.71h2.15z"/></g></g><g fill="#FFF"><path d="M803.828 203.122c0 .556-.325 1.01-.724 1.01-.398 0-.723-.454-.723-1.01v-2.112c0-.555.325-1.01.723-1.01.399 0 .724.455.724 1.01v2.112z"/><path d="M804.18 201.356c.566 0 1.03.32 1.03.71 0 .391-.464.71-1.03.71h-2.15c-.567 0-1.03-.319-1.03-.71 0-.39.463-.71 1.03-.71h2.15z"/><g opacity=".393"><path d="M831.828 177.122c0 .556-.325 1.01-.724 1.01-.398 0-.723-.454-.723-1.01v-2.112c0-.555.325-1.01.723-1.01.399 0 .724.455.724 1.01v2.112z"/><path d="M832.18 175.356c.566 0 1.03.32 1.03.71 0 .391-.464.71-1.03.71h-2.15c-.567 0-1.03-.319-1.03-.71 0-.39.463-.71 1.03-.71h2.15z"/></g><path d="M836.828 216.122c0 .556-.325 1.01-.724 1.01-.398 0-.723-.454-.723-1.01v-2.112c0-.555.325-1.01.723-1.01.399 0 .724.455.724 1.01v2.112z"/><path d="M837.18 214.356c.566 0 1.03.32 1.03.71 0 .391-.464.71-1.03.71h-2.15c-.567 0-1.03-.319-1.03-.71 0-.39.463-.71 1.03-.71h2.15z"/><g opacity=".393"><path d="M814.828 233.122c0 .556-.325 1.01-.724 1.01-.398 0-.723-.454-.723-1.01v-2.112c0-.555.325-1.01.723-1.01.399 0 .724.455.724 1.01v2.112z"/><path d="M815.18 231.356c.566 0 1.03.32 1.03.71 0 .391-.464.71-1.03.71h-2.15c-.567 0-1.03-.319-1.03-.71 0-.39.463-.71 1.03-.71h2.15z"/></g></g><g fill="#FFF"><path d="M848.828 269.122c0 .556-.325 1.01-.724 1.01-.398 0-.723-.454-.723-1.01v-2.112c0-.555.325-1.01.723-1.01.399 0 .724.455.724 1.01v2.112z"/><path d="M849.18 267.356c.566 0 1.03.32 1.03.71 0 .391-.464.71-1.03.71h-2.15c-.567 0-1.03-.319-1.03-.71 0-.39.463-.71 1.03-.71h2.15z"/><g opacity=".393"><path d="M876.828 243.122c0 .556-.325 1.01-.724 1.01-.398 0-.723-.454-.723-1.01v-2.112c0-.555.325-1.01.723-1.01.399 0 .724.455.724 1.01v2.112z"/><path d="M877.18 241.356c.566 0 1.03.32 1.03.71 0 .391-.464.71-1.03.71h-2.15c-.567 0-1.03-.319-1.03-.71 0-.39.463-.71 1.03-.71h2.15z"/></g><path d="M881.828 282.122c0 .556-.325 1.01-.724 1.01-.398 0-.723-.454-.723-1.01v-2.112c0-.555.325-1.01.723-1.01.399 0 .724.455.724 1.01v2.112z"/><path d="M882.18 280.356c.566 0 1.03.32 1.03.71 0 .391-.464.71-1.03.71h-2.15c-.567 0-1.03-.319-1.03-.71 0-.39.463-.71 1.03-.71h2.15z"/><g opacity=".393"><path d="M859.828 299.122c0 .556-.325 1.01-.724 1.01-.398 0-.723-.454-.723-1.01v-2.112c0-.555.325-1.01.723-1.01.399 0 .724.455.724 1.01v2.112z"/><path d="M860.18 297.356c.566 0 1.03.32 1.03.71 0 .391-.464.71-1.03.71h-2.15c-.567 0-1.03-.319-1.03-.71 0-.39.463-.71 1.03-.71h2.15z"/></g></g><g fill="#FFF"><path d="M715.17 134.353c0 .42-.25.762-.555.762-.306 0-.555-.343-.555-.762v-1.591c0-.42.25-.762.555-.762.306 0 .555.343.555.762v1.591z"/><path d="M715.44 133.022c.435 0 .79.24.79.535 0 .295-.355.536-.79.536h-1.65c-.435 0-.79-.24-.79-.536 0-.294.355-.535.79-.535h1.65zM746.333 150.182c0 .419-.25.761-.555.761-.306 0-.555-.342-.555-.761v-1.592c0-.419.25-.762.555-.762.306 0 .555.343.555.762v1.592z"/><path d="M746.604 148.85c.434 0 .79.241.79.536 0 .295-.356.535-.79.535h-1.651c-.434 0-.79-.24-.79-.535 0-.295.356-.536.79-.536h1.65z"/><g opacity=".118"><path d="M726.68 140.383c0 .42-.249.762-.554.762-.306 0-.556-.343-.556-.762v-1.592c0-.418.25-.761.556-.761.305 0 .555.343.555.761v1.592z"/><path d="M726.951 139.052c.434 0 .79.24.79.535 0 .295-.356.536-.79.536h-1.65c-.435 0-.79-.241-.79-.536 0-.294.355-.535.79-.535h1.65z"/></g><g opacity=".381"><path d="M745.319 189.585c0 .419-.25.761-.555.761-.306 0-.556-.342-.556-.761v-1.592c0-.419.25-.762.556-.762.305 0 .555.343.555.762v1.592z"/><path d="M745.589 188.253c.434 0 .79.241.79.536 0 .295-.356.535-.79.535h-1.65c-.435 0-.79-.24-.79-.535 0-.295.355-.536.79-.536h1.65z"/></g><g><path d="M740.194 166.01c0 .419-.25.762-.555.762-.306 0-.555-.343-.555-.762v-1.592c0-.419.25-.761.555-.761.306 0 .555.342.555.761v1.592z"/><path d="M740.465 164.679c.434 0 .79.24.79.535 0 .295-.356.536-.79.536h-1.651c-.434 0-.79-.241-.79-.536 0-.295.356-.535.79-.535h1.65z"/></g><g opacity=".381"><path d="M722.076 155.458c0 .419-.25.762-.555.762-.305 0-.555-.343-.555-.762v-1.592c0-.419.25-.762.555-.762.306 0 .555.343.555.762v1.592z"/><path d="M722.347 154.126c.434 0 .79.241.79.536 0 .295-.356.535-.79.535h-1.65c-.435 0-.79-.24-.79-.535 0-.295.355-.536.79-.536h1.65z"/></g></g><g opacity=".433" fill="#FFF"><path d="M599.34 46.707c0 .838-.499 1.523-1.11 1.523-.611 0-1.11-.685-1.11-1.523v-3.184c0-.838.499-1.523 1.11-1.523.611 0 1.11.685 1.11 1.523v3.184z"/><path d="M599.88 44.044c.87 0 1.58.481 1.58 1.07 0 .59-.71 1.072-1.58 1.072h-3.3c-.87 0-1.58-.482-1.58-1.071 0-.59.71-1.071 1.58-1.071h3.3zM661.667 78.364c0 .837-.5 1.523-1.11 1.523-.612 0-1.111-.686-1.111-1.523V75.18c0-.838.499-1.523 1.11-1.523.611 0 1.11.685 1.11 1.523v3.184z"/><path d="M662.207 75.7c.869 0 1.58.482 1.58 1.072 0 .59-.711 1.07-1.58 1.07h-3.301c-.869 0-1.58-.48-1.58-1.07 0-.59.711-1.071 1.58-1.071h3.301z"/><g opacity=".118"><path d="M622.361 58.767c0 .837-.499 1.523-1.11 1.523-.611 0-1.11-.686-1.11-1.523v-3.184c0-.838.499-1.523 1.11-1.523.611 0 1.11.685 1.11 1.523v3.184z"/><path d="M622.902 56.104c.869 0 1.58.481 1.58 1.07 0 .59-.711 1.071-1.58 1.071H619.6c-.869 0-1.58-.48-1.58-1.07 0-.59.711-1.071 1.58-1.071h3.3z"/></g><g opacity=".381"><path d="M659.638 157.17c0 .837-.5 1.523-1.11 1.523-.612 0-1.111-.686-1.111-1.523v-3.184c0-.838.499-1.523 1.11-1.523.611 0 1.11.685 1.11 1.523v3.184z"/><path d="M660.178 154.507c.869 0 1.58.481 1.58 1.07 0 .59-.711 1.071-1.58 1.071h-3.301c-.869 0-1.58-.48-1.58-1.07 0-.59.711-1.071 1.58-1.071h3.301z"/></g><g><path d="M649.389 110.02c0 .838-.5 1.523-1.11 1.523-.612 0-1.111-.685-1.111-1.523v-3.183c0-.838.499-1.524 1.11-1.524.611 0 1.11.686 1.11 1.524v3.183z"/><path d="M649.93 107.357c.868 0 1.579.482 1.579 1.071 0 .59-.711 1.071-1.58 1.071h-3.301c-.869 0-1.58-.481-1.58-1.07 0-.59.711-1.072 1.58-1.072h3.301z"/></g><g opacity=".381"><path d="M613.153 88.916c0 .838-.5 1.523-1.11 1.523-.612 0-1.11-.685-1.11-1.523v-3.184c0-.838.498-1.523 1.11-1.523.61 0 1.11.685 1.11 1.523v3.184z"/><path d="M613.693 86.253c.87 0 1.58.481 1.58 1.07 0 .59-.71 1.072-1.58 1.072h-3.3c-.87 0-1.58-.482-1.58-1.071 0-.59.71-1.071 1.58-1.071h3.3z"/></g></g><g fill="#FFF"><path d="M975.722 200.293c0-.838.492-1.523 1.094-1.523.603 0 1.095.685 1.095 1.523v3.184c0 .838-.492 1.523-1.095 1.523-.602 0-1.094-.685-1.094-1.523v-3.184z"/><path d="M975.189 202.956c-.856 0-1.557-.481-1.557-1.07 0-.59.7-1.072 1.557-1.072h3.254c.856 0 1.557.482 1.557 1.071 0 .59-.7 1.071-1.557 1.071h-3.254zM914.286 168.636c0-.837.492-1.523 1.094-1.523.603 0 1.095.686 1.095 1.523v3.184c0 .838-.492 1.523-1.095 1.523-.602 0-1.094-.685-1.094-1.523v-3.184z"/><path d="M913.753 171.3c-.856 0-1.557-.482-1.557-1.072 0-.59.7-1.07 1.557-1.07h3.254c.856 0 1.557.48 1.557 1.07 0 .59-.7 1.071-1.557 1.071h-3.254z"/><g opacity=".118"><path d="M953.03 188.233c0-.837.491-1.523 1.094-1.523.603 0 1.095.686 1.095 1.523v3.184c0 .838-.492 1.523-1.095 1.523s-1.095-.685-1.095-1.523v-3.184z"/><path d="M952.497 190.896c-.857 0-1.557-.481-1.557-1.07 0-.59.7-1.071 1.557-1.071h3.254c.856 0 1.557.48 1.557 1.07 0 .59-.7 1.071-1.557 1.071h-3.254z"/></g><g opacity=".381"><path d="M916.286 89.83c0-.837.492-1.523 1.094-1.523.603 0 1.095.686 1.095 1.523v3.184c0 .838-.492 1.523-1.095 1.523-.602 0-1.094-.685-1.094-1.523V89.83z"/><path d="M915.753 92.493c-.856 0-1.557-.481-1.557-1.07 0-.59.7-1.071 1.557-1.071h3.254c.856 0 1.557.48 1.557 1.07 0 .59-.7 1.071-1.557 1.071h-3.254z"/></g><g><path d="M926.388 136.98c0-.838.492-1.523 1.095-1.523s1.095.685 1.095 1.523v3.183c0 .838-.492 1.524-1.095 1.524s-1.095-.686-1.095-1.524v-3.183z"/><path d="M925.856 139.643c-.857 0-1.557-.482-1.557-1.071 0-.59.7-1.071 1.557-1.071h3.254c.856 0 1.557.481 1.557 1.07 0 .59-.701 1.072-1.557 1.072h-3.254z"/></g><g opacity=".381"><path d="M962.106 158.084c0-.838.492-1.523 1.095-1.523.602 0 1.094.685 1.094 1.523v3.184c0 .838-.492 1.523-1.094 1.523-.603 0-1.095-.685-1.095-1.523v-3.184z"/><path d="M961.574 160.747c-.857 0-1.557-.481-1.557-1.07 0-.59.7-1.072 1.557-1.072h3.254c.856 0 1.557.482 1.557 1.071 0 .59-.701 1.071-1.557 1.071h-3.254z"/></g></g></g></svg>