<svg width="1023" height="320" xmlns="http://www.w3.org/2000/svg"><g fill="none" fill-rule="evenodd"><path fill="#6D3634" d="M125.96 320h12.452v-27.293h-12.453z"/><path fill="#522827" d="M138.412 297.64l-12.452 7.892v-12.825h12.452z"/><path fill="#019E92" d="M131.556 174l-19.36 31.24 19.99-6.249 19.99 6.248z"/><path fill="#019E92" d="M103.78 231.545l28.406-8.878 28.407 8.878-29.302-44.392z"/><path fill="#019E92" d="M91.154 265.086l41.033-12.825 41.03 12.825-42.324-64.122z"/><path fill="#019E92" d="M84 295.666h96.372l-49.706-75.302z"/><path fill="#017A71" d="M100.585 268.906l21.475-13.48-16.274 5.087zM162.326 268.327l-21.847-13.48 16.273 5.087zM110.284 234.11l14.452-9.07-10.952 3.422zM152.176 233.32l-14.702-9.07 10.952 3.423zM120.087 205.239l7.983-5.01-6.05 1.89zM142.906 204.724l-8.12-5.01 6.05 1.89z"/><g><path fill="#6D3634" d="M207.83 320h6.524v-14.694h-6.523z"/><path fill="#522827" d="M214.354 308.132l-6.523 4.521v-7.347h6.523z"/><path fill="#019E92" d="M211.153 240l-10.66 17.143 11.007-3.429 11.008 3.429z"/><path fill="#019E92" d="M195.6 271.837l15.492-4.898 15.493 4.898-15.981-24.49z"/><path fill="#019E92" d="M189.077 289.796l22.423-7.02 22.423 7.02-23.13-35.102z"/><path fill="#019E92" d="M185 306.939h53l-27.336-41.633z"/><path fill="#017A71" d="M193.97 292.245l11.415-7.347-8.65 2.772zM228.215 291.429l-12.23-7.347 9.11 2.772zM199.677 272.653l8.154-4.898-6.18 1.848zM222.508 272.653l-8.154-4.898 6.074 1.848zM204.57 257.143l4.076-2.45-3.09.925zM216.8 256.327l-4.077-2.45 3.037.924z"/></g><g><path fill="#6D3634" d="M271.83 320h6.524v-14.694h-6.523z"/><path fill="#522827" d="M278.354 308.132l-6.523 4.521v-7.347h6.523z"/><path fill="#019E92" d="M275.153 240l-10.66 17.143 11.007-3.429 11.008 3.429z"/><path fill="#019E92" d="M259.6 271.837l15.492-4.898 15.493 4.898-15.981-24.49z"/><path fill="#019E92" d="M253.077 289.796l22.423-7.02 22.423 7.02-23.13-35.102z"/><path fill="#019E92" d="M249 306.939h53l-27.336-41.633z"/><path fill="#017A71" d="M257.97 292.245l11.415-7.347-8.65 2.772zM292.215 291.429l-12.23-7.347 9.11 2.772zM263.677 272.653l8.154-4.898-6.18 1.848zM286.508 272.653l-8.154-4.898 6.074 1.848zM268.57 257.143l4.076-2.45-3.09.925zM280.8 256.327l-4.077-2.45 3.037.924z"/></g><g><path fill="#019E92" d="M681.586 253L630 319.987h103z"/><path fill-opacity=".8" fill="#FFF" d="M681.531 253l-18.921 24.57 1.272 1.704 6.1-7.372 2.022 3.037 1.86-1.848 3.787 5.308 3.849-5.232 4.159 5.232 4.973-6.497 2.191 2.869 1.602-1.604 4.776 6.414 1.19-2.01z"/><path fill-opacity=".1" fill="#000" d="M630 319.987h17.195L681.585 253z"/></g><g><path fill="#028E9E" d="M908.193 105l-165.37 214.475L1024 321.906V255.97z"/><path fill="#FFF" d="M908.07 105l-42.619 55.376 2.867 3.837 13.737-16.614 4.556 6.847 4.19-4.166 8.53 11.963L908 150.452l9.367 11.79L928.57 147.6l4.936 6.466 3.607-3.613 10.759 14.453 2.678-4.529z"/><path fill-opacity=".05" fill="#000" d="M742.924 319.38l68.904.66L908.193 105z"/></g><g opacity=".7" fill="#FFF"><path d="M250.223 115.387c-2.59-2.225-4.223-5.481-4.223-9.109 0-6.707 5.585-12.145 12.475-12.145 2.072 0 4.027.492 5.746 1.362C266.136 88.308 272.845 83 280.827 83c9.31 0 16.89 7.222 17.146 16.227 6.308.407 10.403 4.541 10.403 9.582 0 2.544-1.044 4.858-2.89 6.578h-55.263z" opacity=".387"/><path d="M271.847 126.723c-2.59-2.226-4.223-5.482-4.223-9.11 0-6.707 5.585-12.144 12.475-12.144 2.072 0 4.026.491 5.746 1.362 1.915-7.188 8.624-12.495 16.605-12.495 9.312 0 16.89 7.222 17.147 16.226 6.308.408 10.403 4.542 10.403 9.582 0 2.545-1.044 4.859-2.89 6.579h-55.263z" opacity=".952"/></g></g></svg>