<svg width="1023" height="320" xmlns="http://www.w3.org/2000/svg" xmlns:xlink="http://www.w3.org/1999/xlink"><defs><path id="a" d="M0 0h125v238H0z"/><path id="c" d="M0 0h80v154H0z"/></defs><g fill="none" fill-rule="evenodd"><g fill="#1D8D41"><path d="M751.315 262.091c.19-2.613-1.755-4.887-4.343-5.078-2.588-.191-4.84 1.772-5.03 4.385-.189 2.613 3.872 11.584 3.872 11.584s5.312-8.278 5.501-10.891M756.331 277.486c2.1-1.54 2.567-4.507 1.041-6.626a4.669 4.669 0 0 0-6.563-1.052c-2.1 1.54-6.268 10.46-6.268 10.46s9.69-1.243 11.79-2.782M757.685 292.933c2.415-1.77 2.951-5.182 1.198-7.62a5.37 5.37 0 0 0-7.547-1.21c-2.415 1.771-7.21 12.03-7.21 12.03s11.145-1.43 13.56-3.2M737.622 282.147a6.007 6.007 0 0 0-8.55-.18c-2.411 2.335-2.491 6.2-.178 8.634 2.311 2.433 14.306 6.239 14.306 6.239s-3.266-12.26-5.578-14.693M733.297 300.265a6.705 6.705 0 0 0-9.516.764c-2.419 2.864-2.08 7.166.758 9.608 2.836 2.442 16.578 5.316 16.578 5.316s-4.983-13.246-7.82-15.688M759.602 313.276c3.366-2.102 4.407-6.56 2.326-9.959-2.081-3.398-6.497-4.449-9.862-2.348-3.366 2.102-10.706 15.19-10.706 15.19s14.876-.782 18.242-2.883"/><path d="M741.116 268.676a4.769 4.769 0 0 0-6.78-.34 4.88 4.88 0 0 0-.337 6.848c1.78 1.984 11.213 5.279 11.213 5.279s-2.315-9.802-4.096-11.787"/><path d="M741.279 325.841c2.533-11.61 5.99-56.19 6.136-58.083l-2.342-.184c-.036.462-3.59 46.308-6.089 57.756l2.295.511z"/></g><g fill="#1D8D41"><path d="M776.992 287.185c.12-1.635-1.121-3.057-2.775-3.177-1.653-.12-3.092 1.109-3.213 2.744-.121 1.635 2.473 7.248 2.473 7.248s3.394-5.18 3.515-6.815M779.87 296.287c1.224-.949 1.496-2.776.607-4.081-.888-1.307-2.6-1.596-3.824-.648C775.43 292.506 773 298 773 298s5.647-.765 6.87-1.713M780.588 306.042c1.53-1.084 1.87-3.172.759-4.664-1.11-1.493-3.251-1.824-4.78-.74C775.036 301.72 772 308 772 308s7.059-.875 8.588-1.958M768.512 299.134c-1.446-1.468-3.84-1.517-5.348-.109a3.618 3.618 0 0 0-.111 5.21C764.499 305.704 772 308 772 308s-2.042-7.397-3.488-8.866M766.048 310.035a4.237 4.237 0 0 0-6.026.486c-1.532 1.819-1.317 4.551.48 6.103C762.298 318.174 771 320 771 320s-3.156-8.414-4.952-9.965M781.959 318.228c2.022-1.292 2.647-4.031 1.397-6.12-1.25-2.088-3.903-2.734-5.925-1.443C775.41 311.957 771 320 771 320s8.937-.48 10.959-1.772M770.37 290.953c-1.144-1.187-3.094-1.277-4.356-.203-1.263 1.074-1.36 2.907-.216 4.094C766.941 296.03 773 298 773 298s-1.487-5.86-2.63-7.047"/><path d="M770.36 325c1.503-6.974 3.553-33.753 3.64-34.89l-1.39-.11c-.02.277-2.128 27.816-3.61 34.693l1.36.307z"/></g><g fill="#1D8D41"><path d="M710.992 288.185c.12-1.635-1.121-3.057-2.775-3.177-1.653-.12-3.092 1.109-3.213 2.744-.121 1.635 2.473 7.248 2.473 7.248s3.394-5.18 3.515-6.815M713.87 297.287c1.224-.949 1.496-2.776.607-4.081-.888-1.307-2.6-1.596-3.824-.648C709.43 293.506 707 299 707 299s5.647-.765 6.87-1.713M714.588 307.042c1.53-1.084 1.87-3.172.759-4.664-1.11-1.493-3.251-1.824-4.78-.74C709.036 302.72 706 309 706 309s7.059-.875 8.588-1.958M702.512 300.134c-1.446-1.468-3.84-1.517-5.348-.109a3.618 3.618 0 0 0-.111 5.21C698.499 306.704 706 309 706 309s-2.042-7.397-3.488-8.866M700.048 311.035a4.237 4.237 0 0 0-6.026.486c-1.532 1.819-1.317 4.551.48 6.103C696.298 319.174 705 321 705 321s-3.156-8.414-4.952-9.965M715.959 319.228c2.022-1.292 2.647-4.031 1.397-6.12-1.25-2.088-3.903-2.734-5.925-1.443C709.41 312.957 705 321 705 321s8.937-.48 10.959-1.772M704.37 291.953c-1.144-1.187-3.094-1.277-4.356-.203-1.263 1.074-1.36 2.907-.216 4.094C700.941 297.03 707 299 707 299s-1.487-5.86-2.63-7.047"/><path d="M704.36 326c1.503-6.974 3.553-33.753 3.64-34.89l-1.39-.11c-.02.277-2.128 27.816-3.61 34.693l1.36.307z"/></g><g fill="#1D8D41"><path d="M682.992 288.185c.12-1.635-1.121-3.057-2.775-3.177-1.653-.12-3.092 1.109-3.213 2.744-.121 1.635 2.473 7.248 2.473 7.248s3.394-5.18 3.515-6.815M685.87 297.287c1.224-.949 1.496-2.776.607-4.081-.888-1.307-2.6-1.596-3.824-.648C681.43 293.506 679 299 679 299s5.647-.765 6.87-1.713M686.588 307.042c1.53-1.084 1.87-3.172.759-4.664-1.11-1.493-3.251-1.824-4.78-.74C681.036 302.72 678 309 678 309s7.059-.875 8.588-1.958M674.512 300.134c-1.446-1.468-3.84-1.517-5.348-.109a3.618 3.618 0 0 0-.111 5.21C670.499 306.704 678 309 678 309s-2.042-7.397-3.488-8.866M672.048 311.035a4.237 4.237 0 0 0-6.026.486c-1.532 1.819-1.317 4.551.48 6.103C668.298 319.174 677 321 677 321s-3.156-8.414-4.952-9.965M687.959 319.228c2.022-1.292 2.647-4.031 1.397-6.12-1.25-2.088-3.903-2.734-5.925-1.443C681.41 312.957 677 321 677 321s8.937-.48 10.959-1.772M676.37 291.953c-1.144-1.187-3.094-1.277-4.356-.203-1.263 1.074-1.36 2.907-.216 4.094C672.941 297.03 679 299 679 299s-1.487-5.86-2.63-7.047"/><path d="M676.36 326c1.503-6.974 3.553-33.753 3.64-34.89l-1.39-.11c-.02.277-2.128 27.816-3.61 34.693l1.36.307z"/></g><g opacity=".42"><g fill="#15662F"><path d="M230.438 229.306c.106-3.593 2.504-6.517 5.357-6.531 2.853-.015 5.08 2.887 4.974 6.48-.105 3.593-5.62 15.478-5.62 15.478s-4.816-11.833-4.71-15.427M223.11 249.889c-2.11-2.307-2.266-6.411-.344-9.165 1.921-2.756 5.19-3.119 7.302-.811 2.111 2.307 5.602 14.91 5.602 14.91s-10.448-2.627-12.56-4.934M219.781 270.893c-2.428-2.653-2.606-7.372-.397-10.54 2.21-3.168 5.969-3.585 8.397-.932 2.429 2.653 6.443 17.146 6.443 17.146s-12.015-3.02-14.443-5.674M243.01 258.056c2.819-3.109 7.015-2.853 9.371.571 2.356 3.425 1.981 8.72-.839 11.83-2.819 3.108-16.39 7.167-16.39 7.167s5.039-16.46 7.858-19.568M245.57 283.257c3.394-3.07 8.012-2.194 10.314 1.957 2.302 4.15 1.416 10.002-1.979 13.072-3.393 3.07-18.762 5.686-18.762 5.686s7.034-17.646 10.427-20.715M215.25 298.541c-3.428-3.197-4.033-9.396-1.35-13.846 2.682-4.451 7.635-5.466 11.064-2.27 3.429 3.197 9.887 21.807 9.887 21.807s-16.172-2.493-19.6-5.69"/><path d="M240.802 239.291c2.183-2.545 5.521-2.461 7.455.185 1.934 2.647 1.731 6.855-.453 9.4-2.183 2.544-12.892 6.15-12.892 6.15s3.706-13.19 5.89-15.735"/><path d="M233.781 317.486c-1.38-16.127.177-77.45.243-80.054l2.583-.027c-.016.636-1.617 63.699-.255 79.601l-2.57.48z"/></g><g fill="#7EFFA8"><path d="M261.419 263.202c.74-3.46 3.324-5.949 5.77-5.56 2.447.387 3.83 3.506 3.09 6.965-.74 3.459-7.613 14.174-7.613 14.174s-1.987-12.119-1.247-15.579M251.46 281.18c-1.37-2.608-.72-6.751 1.454-9.254 2.174-2.503 5.047-2.418 6.417.19 1.37 2.607 1.96 15.745 1.96 15.745s-8.46-4.074-9.83-6.682M245.21 299.175c-1.576-2.999-.828-7.763 1.671-10.641 2.5-2.88 5.804-2.78 7.38.218 1.576 2.999 2.253 18.107 2.253 18.107s-9.728-4.686-11.304-7.684M267.425 290.03c3-2.698 6.55-1.863 7.927 1.865 1.377 3.728.06 8.936-2.942 11.633-3 2.698-15.399 4.85-15.399 4.85s7.412-15.65 10.414-18.348M265.581 312.313c3.493-2.6 7.287-1.089 8.474 3.377 1.187 4.466-.682 10.194-4.175 12.795-3.492 2.6-17.168 3.097-17.168 3.097s9.377-16.67 12.87-19.27M236.504 323.617c-2.327-3.696-1.654-10.033 1.501-14.156 3.156-4.123 7.6-4.468 9.927-.773 2.327 3.696 4.293 23.357 4.293 23.357s-13.394-4.732-15.72-8.428"/><path d="M268.659 273.174c2.35-2.221 5.195-1.675 6.357 1.216 1.162 2.892.2 7.037-2.15 9.257-2.348 2.22-12.205 4.31-12.205 4.31s5.648-12.563 7.998-14.783"/><path d="M250.251 341.96c1.451-14.734 12.79-69.762 13.27-72.098l2.214.354c-.117.57-11.777 57.16-13.207 71.688l-2.277.056z"/></g></g><g opacity=".42"><g fill="#15662F"><path d="M284.262 249.514c.089-3.035 2.114-5.504 4.523-5.516 2.41-.012 4.29 2.438 4.201 5.473-.09 3.033-4.745 13.07-4.745 13.07s-4.069-9.993-3.98-13.027M278.074 266.895c-1.783-1.948-1.914-5.414-.291-7.74 1.622-2.327 4.383-2.633 6.166-.685 1.783 1.949 4.731 12.592 4.731 12.592s-8.823-2.218-10.606-4.167M275.262 284.633c-2.05-2.24-2.2-6.226-.335-8.9 1.865-2.676 5.04-3.028 7.09-.788 2.052 2.24 5.442 14.48 5.442 14.48s-10.147-2.551-12.197-4.792M294.878 273.792c2.38-2.625 5.924-2.409 7.914.483 1.99 2.892 1.673 7.364-.708 9.99-2.381 2.624-13.841 6.053-13.841 6.053s4.255-13.9 6.635-16.526M297.04 295.074c2.867-2.592 6.767-1.853 8.71 1.653 1.944 3.504 1.196 8.446-1.67 11.04-2.866 2.591-15.846 4.801-15.846 4.801s5.94-14.902 8.807-17.494M271.436 307.982c-2.896-2.7-3.406-7.935-1.141-11.694 2.265-3.758 6.448-4.616 9.344-1.916 2.896 2.7 8.35 18.415 8.35 18.415s-13.658-2.105-16.553-4.805"/><path d="M293.013 257.946c1.845-2.15 4.664-2.079 6.296.155 1.634 2.236 1.463 5.79-.382 7.94-1.844 2.147-10.887 5.192-10.887 5.192s3.13-11.138 4.973-13.287"/><path d="M287.085 323.98c-1.166-13.619.149-65.405.205-67.604l2.181-.023c-.013.537-1.366 53.793-.216 67.222l-2.17.405z"/></g><g fill="#7EFFA8"><path d="M310.424 278.138c.626-2.921 2.807-5.024 4.874-4.696 2.066.327 3.234 2.961 2.61 5.883-.626 2.92-6.43 11.97-6.43 11.97s-1.679-10.235-1.054-13.157M302.015 293.32c-1.158-2.202-.609-5.701 1.227-7.814 1.836-2.115 4.262-2.043 5.42.16 1.157 2.201 1.654 13.297 1.654 13.297s-7.144-3.441-8.301-5.643M296.736 308.517c-1.33-2.533-.7-6.556 1.411-8.987 2.111-2.43 4.901-2.348 6.232.185 1.332 2.532 1.903 15.291 1.903 15.291s-8.215-3.957-9.546-6.49M315.496 300.794c2.535-2.278 5.532-1.573 6.695 1.575 1.163 3.148.05 7.546-2.484 9.824-2.535 2.278-13.005 4.096-13.005 4.096s6.26-13.217 8.794-15.495M313.94 319.611c2.949-2.195 6.153-.919 7.155 2.853 1.003 3.771-.575 8.608-3.525 10.805-2.95 2.196-14.499 2.615-14.499 2.615s7.92-14.077 10.869-16.273M289.384 329.157c-1.965-3.12-1.397-8.472 1.268-11.954 2.665-3.481 6.418-3.773 8.383-.653 1.965 3.121 3.625 19.725 3.625 19.725s-11.31-3.996-13.276-7.118"/><path d="M316.538 286.559c1.984-1.875 4.388-1.414 5.37 1.027.98 2.443.168 5.943-1.816 7.818-1.984 1.874-10.308 3.64-10.308 3.64s4.77-10.61 6.754-12.485"/><path d="M300.994 344.648c1.225-12.442 10.8-58.913 11.206-60.886l1.87.3c-.1.48-9.946 48.27-11.154 60.539l-1.922.047z"/></g></g><g opacity=".42"><g fill="#15662F"><path d="M190.358 263.058c.063-2.161 1.506-3.92 3.221-3.928 1.716-.009 3.056 1.736 2.992 3.898-.063 2.16-3.38 9.309-3.38 9.309s-2.897-7.117-2.833-9.279M185.95 275.437c-1.27-1.387-1.363-3.855-.207-5.512 1.156-1.657 3.122-1.875 4.392-.488 1.27 1.388 3.37 8.968 3.37 8.968s-6.284-1.58-7.554-2.968M183.948 288.07c-1.46-1.595-1.567-4.434-.239-6.339 1.329-1.905 3.59-2.156 5.05-.56 1.461 1.595 3.876 10.312 3.876 10.312s-7.227-1.817-8.687-3.413M197.919 280.35c1.695-1.87 4.219-1.716 5.636.343 1.417 2.06 1.192 5.245-.504 7.115s-9.858 4.31-9.858 4.31 3.03-9.899 4.726-11.769M199.459 295.507c2.041-1.846 4.819-1.32 6.203 1.177 1.384 2.495.852 6.015-1.19 7.862-2.041 1.846-11.285 3.42-11.285 3.42s4.23-10.613 6.272-12.46M181.223 304.7c-2.062-1.924-2.426-5.652-.813-8.329 1.614-2.676 4.593-3.287 6.655-1.365 2.063 1.923 5.947 13.116 5.947 13.116s-9.727-1.5-11.79-3.423"/><path d="M196.59 269.063c1.314-1.53 3.322-1.48 4.485.112 1.163 1.592 1.041 4.123-.272 5.653-1.314 1.53-7.754 3.7-7.754 3.7s2.228-7.934 3.542-9.465"/><path d="M192.368 316.093c-.83-9.699.106-46.581.146-48.147l1.554-.017c-.01.382-.973 38.312-.154 47.876l-1.546.288z"/></g><g fill="#7EFFA8"><path d="M208.99 283.445c.446-2.08 2-3.578 3.472-3.345 1.471.233 2.303 2.11 1.858 4.19-.445 2.08-4.579 8.525-4.579 8.525s-1.195-7.29-.75-9.37M203.001 294.257c-.824-1.568-.433-4.06.875-5.565 1.307-1.506 3.035-1.455 3.86.114.824 1.568 1.178 9.47 1.178 9.47s-5.088-2.45-5.913-4.019M199.242 305.08c-.948-1.803-.498-4.669 1.005-6.4 1.503-1.731 3.49-1.672 4.439.132.948 1.803 1.355 10.89 1.355 10.89s-5.851-2.818-6.799-4.622M212.603 299.58c1.805-1.622 3.94-1.12 4.768 1.122.828 2.242.036 5.374-1.77 6.997-1.804 1.622-9.261 2.917-9.261 2.917s4.458-9.413 6.263-11.036M211.494 312.982c2.1-1.564 4.383-.655 5.097 2.032.714 2.685-.41 6.13-2.511 7.695-2.1 1.564-10.326 1.863-10.326 1.863s5.64-10.026 7.74-11.59M194.006 319.78c-1.4-2.222-.995-6.033.903-8.513 1.898-2.48 4.57-2.687 5.97-.465 1.4 2.223 2.582 14.048 2.582 14.048s-8.055-2.846-9.455-5.07"/><path d="M213.345 289.442c1.413-1.335 3.125-1.007 3.824.732.699 1.74.12 4.232-1.293 5.567-1.413 1.335-7.341 2.593-7.341 2.593s3.397-7.556 4.81-8.892"/><path d="M202.274 330.813c.873-8.861 7.692-41.957 7.982-43.363l1.331.213c-.07.343-7.084 34.379-7.944 43.117l-1.369.033z"/></g></g><path d="M941.684 293.973s-16.192 5.801-23.86-12.383c0 0 16.595-7.185 23.86 12.383" fill="#1E8E42"/><path d="M938.71 319.114c-1.201-53.38-10.385-64.646-10.478-64.753l3.306-2.997c.423.453 10.385 11.735 11.644 67.65l-4.472.1z" fill="#0C6920"/><path d="M934.16 270.308c0 2.448-1.426 4.45-3.17 4.45-1.742 0-3.167-2.002-3.167-4.45V235.45c0-2.447 1.425-4.45 3.168-4.45s3.168 2.002 3.168 4.45v34.858z" fill="#FFFFFD"/><path d="M948.51 249.727c2.46 0 4.472 1.418 4.472 3.152 0 1.734-2.013 3.152-4.473 3.152h-35.036c-2.46 0-4.473-1.418-4.473-3.152 0-1.734 2.013-3.152 4.473-3.152h35.036z" fill="#FFFFFD"/><path d="M920.844 267.432c-1.74 1.731-4.17 2.144-5.403.918-1.232-1.226-.817-3.644.923-5.375l24.774-24.649c1.74-1.73 4.17-2.143 5.403-.918 1.232 1.225.817 3.645-.923 5.376l-24.774 24.648z" fill="#FFFFFD"/><path d="M945.618 262.975c1.74 1.73 2.155 4.148.923 5.375-1.233 1.225-3.663.813-5.403-.918l-24.774-24.649c-1.74-1.73-2.155-4.148-.923-5.375 1.231-1.225 3.663-.813 5.403.918l24.774 24.649z" fill="#FFFFFD"/><path d="M924.468 253.25c0-3.277 2.67-5.933 5.964-5.933 3.293 0 5.963 2.656 5.963 5.933 0 3.277-2.67 5.933-5.963 5.933-3.294 0-5.964-2.656-5.964-5.933" fill="#F2C100"/><path d="M952.982 319.63l2.515-34.134 2.563 30.925s3.705-29.176 11.905-34.738c0 0-5.615 14.213-6.733 34.98h4.1s11.554-14.113 23.109-18.934c0 0-16.586 14.483-18.729 21.9h-18.73zM939.999 287.243s-1.491-17.058 18.14-19.777c0 0 2.732 17.8-18.14 19.777" fill="#1E8E42"/><g><path d="M890.937 305.255s-8.887 3.064-13.095-6.539c0 0 9.108-3.794 13.095 6.54" fill="#1E8E42"/><path d="M889.304 318.532c-.659-28.189-5.699-34.139-5.75-34.195l1.814-1.583c.233.24 5.7 6.197 6.39 35.726l-2.454.052z" fill="#0C6920"/><path d="M886.807 292.758c0 1.293-.782 2.35-1.739 2.35-.956 0-1.738-1.057-1.738-2.35V274.35c0-1.293.782-2.35 1.738-2.35.957 0 1.739 1.058 1.739 2.35v18.408z" fill="#FFFFFD"/><path d="M894.682 281.89c1.35 0 2.454.748 2.454 1.664 0 .916-1.104 1.665-2.454 1.665h-19.227c-1.35 0-2.455-.75-2.455-1.665 0-.916 1.105-1.664 2.455-1.664h19.227z" fill="#FFFFFD"/><path d="M879.5 291.24c-.955.914-2.289 1.131-2.965.484-.676-.647-.449-1.924.506-2.838l13.596-13.017c.955-.914 2.288-1.132 2.965-.485.676.647.448 1.925-.507 2.839L879.5 291.24z" fill="#FFFFFD"/><path d="M893.095 288.885c.955.915 1.183 2.191.507 2.84-.677.646-2.01.429-2.965-.486l-13.596-13.016c-.955-.914-1.182-2.191-.506-2.84.675-.646 2.01-.428 2.965.486l13.595 13.016z" fill="#FFFFFD"/><path d="M881.489 283.75c0-1.73 1.465-3.133 3.272-3.133 1.808 0 3.273 1.403 3.273 3.133s-1.465 3.133-3.273 3.133c-1.807 0-3.272-1.403-3.272-3.133" fill="#F2C100"/><path d="M897.136 318.804l1.38-18.025 1.407 16.33s2.033-15.407 6.533-18.344c0 0-3.081 7.506-3.695 18.473h2.25s6.341-7.453 12.682-9.999c0 0-9.102 7.649-10.278 11.565h-10.279zM890.011 301.701s-.818-9.008 9.955-10.444c0 0 1.5 9.4-9.955 10.444" fill="#1E8E42"/></g><g transform="translate(0 82)"><mask id="b" fill="#fff"><use xlink:href="#a"/></mask><g mask="url(#b)"><path d="M-25.858 39.432C-28.673 23.466-17.977 8.234-1.968 5.41c13.54-2.388 26.544 4.866 31.936 16.82a29.348 29.348 0 0 1 15.18-7.652c16.01-2.823 31.271 7.832 34.086 23.798a29.173 29.173 0 0 1-2.996 18.848c12.263 1.735 22.56 11.128 24.822 23.956 1.861 10.554-2.184 20.783-9.762 27.324.424 1.3.768 2.642 1.012 4.028 1.947 11.042-2.572 21.73-10.838 28.208.89 14.694-9.37 28.182-24.256 30.806-16.01 2.823-31.289-7.934-34.062-23.663L6.53 150.816l-15.85-89.888c-8.394-3.91-14.81-11.7-16.537-21.496" fill="#1E8E42"/><path d="M4.213 88.758c8.357-9.216 27.893-55.383 28.09-55.85a1.266 1.266 0 0 1 1.655-.673c.645.27.946 1.01.675 1.651-.808 1.915-19.902 47.03-28.545 56.563a1.264 1.264 0 0 1-1.786.09 1.258 1.258 0 0 1-.089-1.78M27.177 97.275l3.06-26.685a1.265 1.265 0 0 1 2.511.286l-2.452 21.388 7.13-11.458 12.17-20.658-3.017-17.113a1.262 1.262 0 0 1 1.026-1.46 1.263 1.263 0 0 1 1.464 1.021l2.504 14.198 6.054-10.277a1.268 1.268 0 0 1 1.73-.45c.603.352.803 1.125.45 1.726L39.59 82.108l-22.675 36.433a1.26 1.26 0 0 1-.855.578 1.262 1.262 0 0 1-1.292-1.906l12.409-19.938zM19.856 128c.357-.29 35.834-29.169 45.878-51.225a1.266 1.266 0 0 1 1.674-.627c.635.287.916 1.034.627 1.669-2.194 4.816-5.634 10.192-10.277 16.078 8.3-.634 19.738-2.099 22.118-4.055a1.266 1.266 0 0 1 1.779.169 1.259 1.259 0 0 1-.172 1.775c-1.527 1.257-5.157 2.22-9.265 2.944-6.518 1.15-14.218 1.694-16.63 1.846-4.123 4.975-9.051 10.289-14.789 15.93-10.198 10.024-19.26 17.38-19.351 17.453a1.263 1.263 0 0 1-1.778-.183 1.26 1.26 0 0 1 .186-1.774M21.53 135.131l40.883-19.728c.105-.05.217-.086.331-.106l10.791-1.902A1.263 1.263 0 0 1 75 114.417c.121.685-.339 1.34-1.026 1.461l-10.618 1.872-11.348 5.476 16.716 1.445a1.26 1.26 0 1 1-.22 2.513l-20.57-1.778a1.267 1.267 0 0 1-.302-.07L22.63 137.403a1.265 1.265 0 0 1-1.688-.586 1.26 1.26 0 0 1 .589-1.685" fill-opacity=".6" fill="#0C6920"/><g><path d="M-41.858 128.432c-2.815-15.966 7.881-31.198 23.89-34.021 13.54-2.388 26.544 4.866 31.936 16.82a29.348 29.348 0 0 1 15.18-7.652c16.01-2.823 31.271 7.832 34.086 23.798a29.173 29.173 0 0 1-2.996 18.848c12.263 1.735 22.56 11.128 24.822 23.956 1.861 10.554-2.184 20.783-9.762 27.324.424 1.3.768 2.642 1.012 4.028 1.947 11.042-2.572 21.73-10.838 28.208.89 14.694-9.37 28.182-24.256 30.806-16.01 2.823-31.289-7.934-34.062-23.663l-16.625 2.932-15.85-89.888c-8.394-3.91-14.81-11.7-16.537-21.496" fill="#1E8E42"/><path d="M-11.787 177.758c8.357-9.216 27.893-55.383 28.09-55.85a1.266 1.266 0 0 1 1.655-.673c.645.27.946 1.01.675 1.651-.808 1.915-19.902 47.03-28.545 56.563a1.264 1.264 0 0 1-1.786.09 1.258 1.258 0 0 1-.089-1.78M11.177 186.275l3.06-26.685a1.265 1.265 0 0 1 2.511.286l-2.452 21.388 7.13-11.458 12.17-20.658-3.017-17.113a1.262 1.262 0 0 1 1.026-1.46 1.263 1.263 0 0 1 1.464 1.021l2.504 14.198 6.054-10.277a1.268 1.268 0 0 1 1.73-.45c.603.352.803 1.125.45 1.726L23.59 171.108.915 207.541a1.26 1.26 0 0 1-.855.578 1.262 1.262 0 0 1-1.292-1.906l12.409-19.938zM3.856 217c.357-.29 35.834-29.169 45.878-51.225a1.266 1.266 0 0 1 1.674-.627c.635.287.916 1.034.627 1.669-2.194 4.816-5.634 10.192-10.277 16.078 8.3-.634 19.738-2.099 22.118-4.055a1.266 1.266 0 0 1 1.779.169 1.259 1.259 0 0 1-.172 1.775c-1.527 1.257-5.157 2.22-9.265 2.944-6.518 1.15-14.218 1.694-16.63 1.846-4.123 4.975-9.051 10.289-14.789 15.93-10.198 10.024-19.26 17.38-19.351 17.453a1.263 1.263 0 0 1-1.778-.183A1.26 1.26 0 0 1 3.856 217M5.53 224.131l40.883-19.728c.105-.05.217-.086.331-.106l10.791-1.902A1.263 1.263 0 0 1 59 203.417c.121.685-.339 1.34-1.026 1.461l-10.618 1.872-11.348 5.476 16.716 1.445a1.26 1.26 0 1 1-.22 2.513l-20.57-1.778a1.267 1.267 0 0 1-.302-.07L6.63 226.403a1.265 1.265 0 0 1-1.688-.586 1.26 1.26 0 0 1 .589-1.685" fill-opacity=".6" fill="#0C6920"/></g></g></g><g transform="translate(944 64)"><mask id="d" fill="#fff"><use xlink:href="#c"/></mask><g mask="url(#d)"><path d="M102.082 38.703c1.936-10.98-5.42-21.457-16.432-23.399-9.313-1.642-18.256 3.347-21.965 11.57a20.185 20.185 0 0 0-10.44-5.264C42.232 19.67 31.736 26.997 29.8 37.978a20.064 20.064 0 0 0 2.06 12.964c-8.434 1.193-15.516 7.653-17.072 16.476-1.28 7.259 1.503 14.294 6.715 18.793a20.247 20.247 0 0 0-.696 2.77c-1.34 7.595 1.768 14.946 7.454 19.401-.612 10.107 6.445 19.383 16.683 21.189 11.01 1.941 21.52-5.458 23.427-16.276l11.434 2.016 10.901-61.823c5.774-2.69 10.187-8.048 11.375-14.785" fill="#1E8E42"/><path d="M81.4 72.63c-5.749-6.34-19.185-38.093-19.32-38.413a.87.87 0 0 0-1.14-.464.866.866 0 0 0-.463 1.136c.556 1.317 13.688 32.347 19.633 38.903a.87.87 0 0 0 1.228.062.865.865 0 0 0 .061-1.225M65.605 78.487l-2.104-18.353a.87.87 0 0 0-1.728.196l1.687 14.71-4.904-7.88-8.37-14.208 2.074-11.77a.868.868 0 0 0-.705-1.005.868.868 0 0 0-1.007.703l-1.722 9.765-4.164-7.069a.872.872 0 0 0-1.19-.31.866.866 0 0 0-.31 1.188l13.905 23.601 15.596 25.059a.868.868 0 1 0 1.477-.914l-8.535-13.713zM70.64 99.62c-.245-.2-24.646-20.063-31.554-35.233a.87.87 0 0 0-1.151-.431.865.865 0 0 0-.431 1.148c1.508 3.313 3.874 7.01 7.068 11.058-5.71-.436-13.575-1.443-15.212-2.789a.87.87 0 0 0-1.224.117.866.866 0 0 0 .118 1.22c1.05.865 3.547 1.527 6.372 2.025 4.484.79 9.78 1.166 11.439 1.27C48.9 81.426 52.29 85.08 56.236 88.96c7.014 6.895 13.247 11.954 13.31 12.004a.869.869 0 1 0 1.094-1.346M69.489 104.524L41.37 90.956a.888.888 0 0 0-.228-.074l-7.421-1.308a.868.868 0 1 0-.302 1.708l7.303 1.288 7.805 3.766-11.497.994a.867.867 0 1 0 .152 1.728l14.147-1.223a.871.871 0 0 0 .208-.047l17.196 8.298a.87.87 0 0 0 1.16-.403.867.867 0 0 0-.404-1.159" fill-opacity=".6" fill="#0C6920"/></g></g></g></svg>