<svg width="84" height="84" xmlns="http://www.w3.org/2000/svg" xmlns:xlink="http://www.w3.org/1999/xlink"><defs><path d="M.146 6c7.618 7.565 18.213 12.255 29.928 12.255 11.882 0 22.612-4.825 30.252-12.58V.168H.146V6z" id="a"/><path d="M.146 6c7.618 7.565 18.213 12.255 29.928 12.255 11.882 0 22.612-4.825 30.252-12.58v-5.2H.146V6z" id="c"/><path d="M42 .003C18.804.003 0 18.39 0 41.07 0 63.753 18.804 82.14 42 82.14s42-18.387 42-41.069C84 18.39 65.196.003 42 .003z" id="e"/></defs><g fill="none" fill-rule="evenodd"><path d="M0 41.576C0 18.894 18.804.507 42 .507s42 18.387 42 41.069c0 22.682-18.804 41.069-42 41.069S0 64.258 0 41.575" fill="#34203E"/><g transform="translate(0 .504)"><path d="M63.793 34.273c-.083-.01-.165-.012-.248-.017a30.555 30.555 0 0 1-1.142 10.023c.014.002.026.007.04.008 2.356.304 4.568-1.692 4.94-4.457.374-2.765-1.234-5.253-3.59-5.557z" fill="#DE7662"/><path d="M63.585 35.377a30.566 30.566 0 0 1-.875 7.753c1.62-.431 2.9-1.772 3.132-3.499.24-1.787-.713-3.457-2.257-4.254" fill="#B25252"/><path d="M20.545 34.273c.083-.01.166-.011.249-.016A33.78 33.78 0 0 0 22.006 44.8c-.014.002-.027.006-.04.007-2.357.304-4.584-1.808-4.976-4.717-.393-2.909 1.2-5.513 3.555-5.817" fill="#DE7662"/><path d="M20.761 35.435c-.024 2.785.3 5.528.93 8.155-1.626-.464-2.915-1.882-3.16-3.699-.253-1.88.69-3.628 2.23-4.456" fill="#B25252"/><g transform="translate(11.926 63.885)"><mask id="b" fill="#fff"><use xlink:href="#a"/></mask><path d="M1.715 38.943C-3.567 23.54 4.921 6.867 20.672 1.703c15.752-5.166 32.804 3.133 38.085 18.536C64.04 35.641 55.552 52.315 39.8 57.48 24.05 62.646 6.997 54.347 1.715 38.944" fill="#8181AB" mask="url(#b)"/></g><g transform="translate(11.926 63.885)"><mask id="d" fill="#fff"><use xlink:href="#c"/></mask><path d="M1.715 39.25C-3.567 23.848 4.921 7.175 20.672 2.01c15.752-5.165 32.804 3.134 38.085 18.536C64.04 35.95 55.552 52.622 39.8 57.787 24.05 62.952 6.997 54.653 1.715 39.25" fill="#3F3F54" mask="url(#d)"/></g><path d="M33.534 75.53c-1.561-4.551.947-9.479 5.602-11.005 4.654-1.526 9.693.926 11.255 5.478 1.56 4.552-.948 9.479-5.602 11.005-4.656 1.526-9.695-.926-11.255-5.478" fill="#F5A17D"/><path d="M44.788 77.079c-4.654 1.526-9.693-.927-11.255-5.478a8.794 8.794 0 0 1-.225-.786 8.457 8.457 0 0 0 .225 4.715c1.562 4.552 6.6 7.004 11.255 5.478 4.389-1.439 6.866-5.9 5.828-10.22-.675 2.845-2.789 5.294-5.828 6.29" fill="#25C6DA"/><path d="M36.815 59.324v8.113h.002c.021 2.209 2.333 3.994 5.183 3.994 2.85 0 5.162-1.785 5.183-3.994h.002v-8.113h-10.37z" fill="#ED8E66"/><path fill="#B25252" d="M47.185 65.662l-10.37-2.028v-2.282h10.37z"/><path d="M63.12 27.89C59.24 14.98 46.71 8.023 35.136 12.352c-11.576 4.33-17.813 18.305-13.931 31.216C25.086 56.48 37.615 63.436 49.19 59.106c11.575-4.33 17.812-18.305 13.93-31.216" fill="#DE7662"/><path d="M20.325 35.952c0-12.667 9.858-22.936 22.019-22.936 12.16 0 22.017 10.269 22.017 22.936s-9.858 26.63-22.017 26.63c-12.16 0-22.019-13.963-22.019-26.63" fill="#F5A17D"/><path d="M62.222 26.083c-5.185 1.376-16.81 4.489-22.735 4.72-5.802.227-13.561-3.055-17.19-4.638v6.959c4.666 2.272 11.786 3.742 19.933 3.742 8.169 0 15.326-1.478 19.992-3.761v-7.022z" fill="#DE7662"/><path d="M42.343 60.555C31.39 60.555 23.03 47.62 23.03 36.21c0-11.41 4.582-20.66 19.314-20.66 10.953 0 19.315 9.25 19.315 20.66s-8.362 24.344-19.315 24.344m0-47.539c-12.16 0-22.018 10.269-22.018 22.936 0 12.666 9.858 26.63 22.018 26.63s22.019-13.964 22.019-26.63c0-12.667-9.858-22.936-22.019-22.936" fill-opacity=".7" fill="#DE7662"/><path fill="#783900" d="M62.733 27.015l2.88 6.293-.837-.498-.084 7.246-.773 2.484-1.778-3.189"/><path d="M62.848 27.355l-2.486-7.262-1.863-1.371.17-2.494h-1.864l-1.863-5.373.678 4.399-5.59-4.472 1.016 1.656-6.436-2.815 1.694 1.49-6.436-2.153 2.37 1.657-6.435-1.159 1.863 1.492-6.267-.33 2.37 1.164s-2.032 1.17-4.741 1.5l-4.235 7.1-4.065 6.952c-.977 3.94-1.181 4.006-.742 8.886.375 4.168.7 6.41 1.123 6.41l.72-2.849s-.424-7.559 2.033-9.96c2.455-2.402 7.537-9.032 7.537-9.032h19.309s3.514 1.827 5.716 4.477c2.202 2.65 5.717 5.306 5.717 14.083" fill="#783900"/><path fill="#FFC79B" d="M45.079 48.043h-5.833l1.827-1.014h2.178z"/><path d="M37.515 53.565c0 .43 2.532 1.272 4.608 1.272 2.075 0 4.88-.97 4.88-1.351 0-.294-1.264-.882-2.963-.882-.895 0-.986.21-1.686.204-.62-.006-.82-.244-1.51-.244-2.075 0-3.329.605-3.329 1" fill="#DE7662"/><path d="M30.247 38.874c0-.747.619-1.352 1.383-1.352.763 0 1.382.605 1.382 1.352 0 .747-.619 1.353-1.382 1.353-.764 0-1.383-.606-1.383-1.353M54.272 38.874c0-.747-.62-1.352-1.383-1.352-.764 0-1.383.605-1.383 1.352 0 .747.62 1.353 1.383 1.353.764 0 1.383-.606 1.383-1.353" fill="#000"/><mask id="f" fill="#fff"><use xlink:href="#e"/></mask><path fill="#4C4C66" mask="url(#f)" d="M41.376 122.695h1.297v-41.28h-1.297z"/><path d="M64.973 27.459c0-12.326-10.219-22.318-22.824-22.318-12.605 0-22.824 9.992-22.824 22.318" fill="#EEAAA4" mask="url(#f)"/><path d="M65.112 28.034c0-12.4-10.28-22.454-22.963-22.454-12.683 0-22.964 10.053-22.964 22.454" fill="#EE3727" mask="url(#f)"/><path d="M64.41 24.422c2.134.1 2.61 2.094 2.61 2.094 0 5.156-11.135 9.336-24.871 9.336-13.737 0-24.872-4.18-24.872-9.336 0 0 .479-1.696 3.223-2.193 0 0 11.282 5.764 18.906 5.466 7.623-.298 25.004-5.367 25.004-5.367" fill="#CC2F21" mask="url(#f)"/><path d="M36.552 30.093l2.736 5.739s10.49.17 12.564-.845l-4.036-8.378-11.264 3.484z" fill="#B0281D" mask="url(#f)"/><path d="M63.916 20.607c-4.098 3.03-12.045 5.18-21.743 5.18-9.702 0-17.611-2.237-21.707-5.27-.355 1.29-1.083 2.783-1.197 4.154 3.776 3.337 12.61 5.678 22.904 5.678 10.292 0 19.124-2.34 22.902-5.675-.115-1.37-.563-2.68-1.159-4.067" fill="#323236" mask="url(#f)"/><path d="M36.296 28.058c0-3.174 2.631-5.746 5.877-5.746s5.877 2.572 5.877 5.746c0 3.173-2.631 5.746-5.877 5.746s-5.877-2.573-5.877-5.746" fill="#4D4D54" mask="url(#f)"/><path d="M37.237 28.058c0-2.666 2.21-4.826 4.936-4.826s4.935 2.16 4.935 4.826c0 2.665-2.21 4.826-4.935 4.826-2.726 0-4.936-2.16-4.936-4.826" fill="#FDF13D" mask="url(#f)"/><path d="M41.106 28.058c0-.576.478-1.043 1.067-1.043s1.066.467 1.066 1.043c0 .576-.477 1.042-1.066 1.042a1.055 1.055 0 0 1-1.067-1.042" fill="#FDFBDA" mask="url(#f)"/><path d="M37.756 28.565c0-2.666 2.21-4.827 4.936-4.827 1.23 0 2.353.444 3.217 1.173a4.966 4.966 0 0 0-3.736-1.68c-2.726 0-4.936 2.161-4.936 4.827 0 1.462.668 2.769 1.718 3.654a4.742 4.742 0 0 1-1.2-3.147" fill="#FFF" mask="url(#f)"/></g><circle stroke="#FFF" stroke-width="2" cx="42" cy="42" r="41"/></g></svg>