<svg width="84" height="84" xmlns="http://www.w3.org/2000/svg" xmlns:xlink="http://www.w3.org/1999/xlink"><defs><path id="a" d="M84 82.978V.003H0v82.975z"/><path d="M.12 11.225c7.14 5.501 16.127 8.771 25.884 8.753 10.504-.02 20.1-3.846 27.452-10.155V.468H.12v10.757z" id="c"/><path d="M.146 5.036c7.595 7.36 18.008 11.89 29.488 11.869 12.125-.023 23.041-5.118 30.692-13.25V.48H.146v4.556z" id="e"/><path d="M.083 11.857a42.028 42.028 0 0 0 7.176 2.616V.079H.083v11.778z" id="g"/><path d="M.403 16.073c2.743.55 5.582.837 8.49.832a42.64 42.64 0 0 0 9.295-1.037V.188H.403v15.885z" id="i"/><path d="M.083 11.345a42.028 42.028 0 0 0 7.176 2.616V.079H.083v11.266z" id="k"/><path d="M.226 14.268a42.025 42.025 0 0 0 7.176-2.77V.078H.226v14.19z" id="m"/><path d="M.226 13.756a42.025 42.025 0 0 0 7.176-2.77V.078H.226v13.677z" id="o"/></defs><g fill="none" fill-rule="evenodd"><g transform="translate(0 .51)"><mask id="b" fill="#fff"><use xlink:href="#a"/></mask><path d="M0 41.568C-.044 18.655 18.726.045 41.922.003 65.117-.04 83.956 18.5 84 41.413c.043 22.913-18.726 41.522-41.922 41.565C18.882 83.021.044 64.481 0 41.568" fill="#2DCC82" mask="url(#b)"/></g><g transform="translate(16.074 63.51)"><mask id="d" fill="#fff"><use xlink:href="#c"/></mask><path d="M53.456 42.003c0 5.634-4.667 10.244-10.37 10.244H10.49c-5.704 0-10.37-4.61-10.37-10.244v-31.29C.12 5.077 4.786.467 10.49.467h32.596c5.703 0 10.37 4.61 10.37 10.244v31.29z" fill="#2E2E3D" mask="url(#d)"/></g><path d="M64.312 34.62c-.083-.01-.166-.012-.249-.017a31.165 31.165 0 0 1-1.141 10.126c.013.002.026.006.04.007 2.356.307 4.568-1.709 4.94-4.502.373-2.793-1.235-5.307-3.59-5.613" fill="#DE7662"/><path d="M64.103 35.735a31.178 31.178 0 0 1-.874 7.833c1.62-.436 2.899-1.79 3.131-3.535.241-1.806-.713-3.492-2.257-4.298" fill="#B25252"/><path d="M20.418 34.62c.083-.01.165-.012.248-.017a31.165 31.165 0 0 0 1.142 10.126c-.014.002-.027.006-.04.007-2.356.307-4.568-1.709-4.941-4.502-.373-2.793 1.235-5.307 3.59-5.613" fill="#DE7662"/><path d="M20.626 35.735a31.178 31.178 0 0 0 .875 7.833c-1.62-.436-2.9-1.79-3.132-3.535-.24-1.806.713-3.492 2.257-4.298" fill="#B25252"/><g transform="translate(12.444 66.583)"><mask id="f" fill="#fff"><use xlink:href="#e"/></mask><path d="M1.715 39.651c-5.282-15.56 3.206-32.403 18.957-37.62 15.752-5.218 32.804 3.165 38.085 18.725 5.282 15.56-3.205 32.403-18.957 37.62-15.75 5.22-32.803-3.164-38.085-18.724" fill="#25C6DA" mask="url(#f)"/></g><g transform="translate(23.852 67.607)"><mask id="h" fill="#fff"><use xlink:href="#g"/></mask><path d="M7.26 43.027c0 .845-.7 1.537-1.556 1.537H1.639a1.55 1.55 0 0 1-1.556-1.537V5.125c0-.845.606-1.883 1.347-2.306L5.913.26c.74-.422 1.346-.077 1.346.768v42z" fill="#626282" mask="url(#h)"/></g><g transform="translate(33.185 66.583)"><mask id="j" fill="#fff"><use xlink:href="#i"/></mask><path d="M.867 11.764C-.693 7.166 1.814 2.19 6.469.647c4.655-1.542 9.694.935 11.255 5.533 1.56 4.599-.947 9.576-5.602 11.118-4.655 1.542-9.694-.936-11.255-5.534" fill="#F5A17D" mask="url(#j)"/></g><path d="M37.333 59.927v10.244h.002c.022 2.232 2.333 4.035 5.184 4.035 2.85 0 5.161-1.803 5.183-4.035h.002V59.927h-10.37z" fill="#ED8E66"/><path fill-opacity=".8" fill="#B25252" d="M47.704 68.378l-10.37-4.097v-2.305h10.37z"/><path d="M63.64 28.172C59.756 15.13 47.227 8.102 35.652 12.475 24.078 16.85 17.841 30.968 21.723 44.01c3.881 13.043 16.41 20.07 27.986 15.697 11.575-4.374 17.812-18.492 13.93-31.535" fill="#DE7662"/><path d="M20.844 36.316c0-12.796 9.858-23.17 22.018-23.17S64.88 23.52 64.88 36.316c0 12.796-9.858 26.903-22.018 26.903S20.844 49.112 20.844 36.316" fill="#F5A17D"/><path d="M20.73 31.589s9.033-4.51 23.035-4.51c14.001 0 22.016 4.639 22.016 4.639s-.907 10.229-13.7 4.89c-2.991-1.249-13.355-1.386-17.528.122-9.418 3.404-14.405-.934-13.824-5.141" fill-opacity=".7" fill="#DE7662"/><path d="M42.862 61.17c-10.953 0-19.314-13.067-19.314-24.592 0-11.527 4.582-20.87 19.314-20.87 10.953 0 19.314 9.343 19.314 20.87 0 11.525-8.361 24.592-19.314 24.592m0-48.023c-12.16 0-22.018 10.373-22.018 23.169 0 12.796 9.858 26.903 22.018 26.903S64.88 49.112 64.88 36.316s-9.858-23.17-22.018-23.17" fill-opacity=".7" fill="#DE7662"/><path d="M22.763 41.89c0 .846-.498 1.422-1.107 1.281-.608-.14-1.107-.947-1.107-1.792V31.088c0-.845.499-1.537 1.107-1.537.61 0 1.107.692 1.107 1.537V41.89zm42.429 0c0 .846-.499 1.537-1.108 1.537-.608 0-1.107-.691-1.107-1.536V31.088c0-.845.499-1.537 1.107-1.537.61 0 1.108.692 1.108 1.537V41.89z" fill="#363132"/><path d="M38.033 54.62c0 .435 2.533 1.286 4.608 1.286 2.076 0 4.88-.98 4.88-1.365 0-.297-1.264-.89-2.962-.89-.895 0-.986.212-1.687.205-.62-.006-.819-.246-1.51-.246-2.074 0-3.329.611-3.329 1.01" fill="#F5A17D"/><path fill="#363132" d="M46.505 54.657h-7.422l-1.036-.257h9.495z"/><path fill="#FFC79B" d="M45.597 49.043h-5.833l1.828-1.025h2.178z"/><path d="M31.802 39.268c0-.754.62-1.366 1.383-1.366.764 0 1.383.612 1.383 1.366 0 .755-.62 1.366-1.383 1.366a1.374 1.374 0 0 1-1.383-1.366m21.951 0c0-.754-.619-1.366-1.383-1.366-.763 0-1.382.612-1.382 1.366 0 .755.619 1.366 1.382 1.366.764 0 1.383-.611 1.383-1.366" fill="#451500"/><g transform="translate(23.852 68.12)"><mask id="l" fill="#fff"><use xlink:href="#k"/></mask><path d="M7.26 43.027c0 .845-.7 1.537-1.556 1.537H1.639a1.55 1.55 0 0 1-1.556-1.537V5.125c0-.845.606-1.883 1.347-2.306L5.913.26c.74-.422 1.346-.077 1.346.768v42z" fill="#47475E" mask="url(#l)"/></g><g transform="translate(53.407 67.607)"><mask id="n" fill="#fff"><use xlink:href="#m"/></mask><path d="M.226 43.027c0 .845.7 1.537 1.556 1.537h4.065a1.55 1.55 0 0 0 1.555-1.537V5.125c0-.845-.606-1.883-1.347-2.306L1.573.26C.833-.163.226.182.226 1.027v42z" fill="#626282" mask="url(#n)"/></g><g transform="translate(53.407 68.12)"><mask id="p" fill="#fff"><use xlink:href="#o"/></mask><path d="M.226 43.027c0 .845.7 1.537 1.556 1.537h4.065a1.55 1.55 0 0 0 1.555-1.537V5.125c0-.845-.606-1.883-1.347-2.306L1.573.26C.833-.163.226.182.226 1.027v42z" fill="#47475E" mask="url(#p)"/></g><path d="M65.78 29.707c-1.926-10.243-11.306-18.651-22.594-18.651-11.289 0-20.668 8.408-22.595 18.651 0 0 8.936-4.61 23.306-4.61 14.37 0 21.883 4.61 21.883 4.61" fill="#328A81"/><path d="M20.73 29.54s9.033-4.509 23.035-4.509c14.001 0 22.016 4.638 22.016 4.638s-.907 10.23-13.7 4.89c-2.991-1.249-13.355-1.386-17.528.122-9.418 3.404-14.405-.934-13.824-5.141" fill="#48C8BC"/><path d="M37.8 54.194c0 .426 2.532 1.264 4.608 1.264 2.075 0 4.88-.965 4.88-1.343 0-.291-1.264-.875-2.963-.875-.895 0-.986.208-1.686.202-.62-.006-.82-.242-1.51-.242-2.075 0-3.329.6-3.329.994" fill="#DE7662"/><circle stroke="#FFF" stroke-width="2" cx="42" cy="42" r="41"/></g></svg>