<svg width="84" height="84" xmlns="http://www.w3.org/2000/svg" xmlns:xlink="http://www.w3.org/1999/xlink"><defs><path id="a" d="M84 .49H0v82.472h84V.489z"/><path d="M.475.304c7.272 12.287 20.823 20.549 36.34 20.549 15.516 0 29.068-8.262 36.34-20.549H.475z" id="c"/><path d="M0 8.969a42.166 42.166 0 0 0 9.964 4.478V.489H0v8.48z" id="e"/><path d="M.407 13.447a42.166 42.166 0 0 0 9.963-4.478V.489H.407v12.958z" id="g"/><path d="M0 41.726C0 64.5 18.804 82.962 42 82.962S84 64.5 84 41.726C84 18.95 65.196.489 42 .489S0 18.951 0 41.726z" id="i"/></defs><g fill="none" fill-rule="evenodd"><g transform="translate(0 .02)"><mask id="b" fill="#fff"><use xlink:href="#a"/></mask><path d="M0 41.726C0 18.95 18.804.489 42 .489s42 18.462 42 41.237C84 64.5 65.196 82.962 42 82.962S0 64.5 0 41.726" fill="#2B2B3B" mask="url(#b)"/></g><path d="M67.79 16.251c0 .28-.164.51-.365.51-.2 0-.364-.23-.364-.51v-1.064c0-.28.164-.509.364-.509.201 0 .365.23.365.51v1.063z" fill="#FFF"/><path d="M67.967 15.361c.285 0 .519.161.519.358 0 .197-.234.358-.519.358h-1.083c-.286 0-.519-.16-.519-.358 0-.197.233-.358.519-.358h1.083zM6.939 36.38c0 .28-.164.508-.365.508-.2 0-.364-.229-.364-.509v-1.064c0-.28.163-.509.364-.509.2 0 .365.23.365.51v1.063z" fill="#FFF"/><path d="M7.116 35.49c.285 0 .519.16.519.357 0 .197-.234.358-.519.358H6.032c-.285 0-.518-.16-.518-.358 0-.197.233-.358.518-.358h1.084zm6.045 25.97c0 .28-.164.509-.364.509-.2 0-.365-.23-.365-.51v-1.063c0-.28.164-.51.365-.51.2 0 .364.23.364.51v1.064z" fill="#FFF"/><path d="M13.339 60.57c.285 0 .518.16.518.358 0 .197-.233.357-.518.357h-1.084c-.285 0-.519-.16-.519-.357 0-.197.234-.358.519-.358h1.084zM70.04 22.085c0 .28-.164.509-.365.509-.2 0-.364-.23-.364-.51v-1.063c0-.28.163-.51.364-.51.2 0 .365.23.365.51v1.064z" fill="#FFF"/><path d="M70.217 21.195c.285 0 .518.16.518.358 0 .197-.233.358-.518.358h-1.084c-.285 0-.518-.161-.518-.358 0-.197.233-.358.518-.358h1.084zm1.558 32.314c0 .28-.164.51-.365.51-.2 0-.364-.23-.364-.51v-1.064c0-.28.164-.51.364-.51.201 0 .365.23.365.51v1.064z" fill="#FFF"/><path d="M71.952 52.619c.285 0 .519.16.519.358 0 .197-.234.358-.519.358H70.87c-.286 0-.519-.161-.519-.358 0-.197.233-.358.519-.358h1.083zM9.321 25.688c0 .28-.164.51-.364.51-.201 0-.365-.23-.365-.51v-1.064c0-.28.164-.509.365-.509.2 0 .364.23.364.51v1.063z" fill="#FFF"/><path d="M9.499 24.798c.285 0 .518.161.518.358 0 .197-.233.358-.518.358H8.415c-.285 0-.519-.16-.519-.358 0-.197.234-.358.519-.358h1.084z" fill="#FFF"/><g transform="translate(0 .02)"><g transform="translate(5.185 62.11)"><mask id="d" fill="#fff"><use xlink:href="#c"/></mask><path d="M-2.166 54.447c-7.346-21.507 4.457-44.788 26.363-52C46.102-4.766 69.814 6.822 77.16 28.33c7.346 21.507-4.458 44.788-26.363 52C28.892 87.543 5.18 75.955-2.166 54.448" fill="#E8F2FB" mask="url(#d)"/></g><path d="M20.771 68.46c5.842 3.817 13.303 6.1 21.435 6.1 8.132 0 15.593-2.278 21.435-6.097l-3.225-8.92h-36.42L20.77 68.46z" fill="#C4DEED"/><path d="M43.556 74.53c7.777-.231 14.58-2.457 20.11-6.07l-3.25-8.916h-16.86v14.985z" fill="#A6CDE3"/><path d="M11.06 38.918c0-5.653 4.667-10.235 10.424-10.235s10.424 4.582 10.424 10.235c0 5.652-4.667 10.234-10.424 10.234S11.061 44.57 11.061 38.918" fill="#FFF"/><path d="M52.253 38.918c0-5.653 4.667-10.235 10.424-10.235 5.756 0 10.424 4.582 10.424 10.235 0 5.652-4.668 10.234-10.424 10.234-5.757 0-10.424-4.582-10.424-10.234" fill="#C4DEED"/><path d="M42.215 59.17c-11.52 0-20.858-6.726-20.858-18.036 0-11.31 9.338-11.422 20.858-11.422 11.52 0 20.857.113 20.857 11.422 0 11.31-9.338 18.036-20.857 18.036m-.009-46.763c-15.259 0-27.63 12.145-27.63 27.127S26.948 66.66 42.207 66.66s27.63-12.145 27.63-27.127-12.371-27.127-27.63-27.127" fill="#E8F2FB"/><path d="M42.077 59.14c.415.018.831.03 1.252.03 11.52 0 20.858-6.726 20.858-18.036 0-11.31-9.339-11.422-20.858-11.422l-1.252.001c10.936.022 19.605.524 19.605 11.421 0 10.897-8.67 17.536-19.605 18.007" fill="#FFF"/><path d="M21.357 41.134c0-11.31 9.339-11.422 20.858-11.422 11.52 0 20.857.112 20.857 11.422S53.734 59.17 42.215 59.17c-11.52 0-20.858-6.726-20.858-18.036" fill="#3DABA0"/><path d="M21.357 43.41c0-11.31 9.339-11.423 20.858-11.423 11.52 0 20.857.112 20.857 11.422s-9.338 18.036-20.857 18.036c-11.52 0-20.858-6.726-20.858-18.036" fill="#48C8BC"/><path d="M31.761 35.079l-7.44 5.97m12.062-4.789l-11.013 9.1" stroke-opacity=".8" stroke="#FFF" stroke-width="2" stroke-linecap="round" stroke-linejoin="round"/><g transform="translate(19.704 67.71)"><mask id="f" fill="#fff"><use xlink:href="#e"/></mask><path d="M0 .49v15.607s.232 8.349 9.964 8.349" stroke="#94BDD4" stroke-width="4" stroke-linecap="round" stroke-linejoin="round" mask="url(#f)"/></g><g transform="translate(53.926 67.71)"><mask id="h" fill="#fff"><use xlink:href="#g"/></mask><path d="M10.37.49v15.607s-.231 8.349-9.963 8.349" stroke="#94BDD4" stroke-width="4" stroke-linecap="round" stroke-linejoin="round" mask="url(#h)"/></g><path d="M17.081 39.534c0-14.569 11.7-26.452 26.377-27.096a28.37 28.37 0 0 0-1.252-.03c-15.26 0-27.629 12.145-27.629 27.126 0 14.982 12.37 27.127 27.63 27.127.42 0 .836-.013 1.251-.031-14.677-.644-26.377-12.527-26.377-27.096" fill="#FFF"/><mask id="j" fill="#fff"><use xlink:href="#i"/></mask><path fill="#E8F2FB" mask="url(#j)" d="M57.676 20.934h.988v-8.296h-.988z"/><path fill="#C4DEED" mask="url(#j)" d="M57.676 17.036l.988.645v3.253h-.988z"/><path d="M57.02 12.638c0-.607.502-1.1 1.12-1.1.618 0 1.12.493 1.12 1.1 0 .607-.502 1.1-1.12 1.1a1.11 1.11 0 0 1-1.12-1.1" fill="#48C8BC" mask="url(#j)"/></g><circle stroke="#FFF" stroke-width="2" cx="42" cy="42" r="41"/></g></svg>