<svg width="84" height="84" xmlns="http://www.w3.org/2000/svg" xmlns:xlink="http://www.w3.org/1999/xlink"><defs><path d="M.146 2.492a42 42 0 0 0 29.928 12.455A42.002 42.002 0 0 0 60.326 2.161V.483H.146v2.009z" id="a"/><path d="M.45 13.898c3.023.686 6.17 1.05 9.402 1.05a42.34 42.34 0 0 0 10.184-1.236V.202H.45v13.696z" id="c"/><path d="M.443 4.522a42.854 42.854 0 0 0 6.408-.002V.003H.443v4.52z" id="e"/><path d="M.308 8.693a42.006 42.006 0 0 0 18.766 4.704V.497H.308v8.196z" id="g"/><path d="M.308 13.4a42.026 42.026 0 0 0 18.473-4.394V.233H.308V13.4z" id="i"/></defs><g fill="none" fill-rule="evenodd"><path d="M0 41.742C0 18.69 18.804 0 42 0s42 18.69 42 41.742c0 23.054-18.804 41.743-42 41.743S0 64.796 0 41.742" fill="#FFD75E"/><path d="M20.545 37.41c.083-.011.166-.012.249-.017a34.869 34.869 0 0 0 1.212 10.716c-.014.002-.027.006-.04.007-2.357.309-4.584-1.837-4.976-4.794-.393-2.957 1.2-5.604 3.555-5.912" fill="#DE7662"/><path d="M20.761 38.59c-.024 2.83.3 5.62.93 8.289-1.626-.472-2.915-1.913-3.16-3.76-.253-1.91.69-3.687 2.23-4.529" fill="#B25252"/><g transform="translate(11.926 68.537)"><mask id="b" fill="#fff"><use xlink:href="#a"/></mask><path d="M1.715 39.894C-3.567 24.24 4.921 7.292 20.672 2.043c15.752-5.25 32.804 3.185 38.085 18.84C64.04 36.538 55.552 53.485 39.8 58.735c-15.75 5.25-32.803-3.185-38.085-18.84" fill="#102042" mask="url(#b)"/></g><g transform="translate(32.148 68.537)"><mask id="d" fill="#fff"><use xlink:href="#c"/></mask><path d="M.45 2.043l9.29 31.152L20.036 2.297S8.912-2.242.45 2.043" fill="#ECECEC" mask="url(#d)"/></g><g transform="translate(38.37 78.844)"><mask id="f" fill="#fff"><use xlink:href="#e"/></mask><path fill="#102042" mask="url(#f)" d="M.443 10.671l3.075 11.126L6.851 10.67 5.697.003H1.562z"/></g><path d="M39.137 77.67A2.854 2.854 0 0 1 42 74.825a2.854 2.854 0 0 1 2.862 2.845c0 1.571-1.28 2.33-2.862 2.33-1.58 0-2.863-.759-2.863-2.33" fill="#102042"/><path d="M39.137 77.67A2.854 2.854 0 0 1 42 74.825a2.854 2.854 0 0 1 2.862 2.845c0 1.571-1.28 2.33-2.862 2.33-1.58 0-2.863-.759-2.863-2.33z" stroke="#FFF"/><path d="M36.815 62.871v9.276h.002c.021 2.246 2.333 4.06 5.183 4.06 2.85 0 5.162-1.814 5.183-4.06h.002v-9.276h-10.37z" fill="#ED8E66"/><path fill="#B25252" d="M47.185 70.344l-10.37-4.123v-1.288h10.37z"/><path d="M63.12 30.922c-3.88-13.123-16.41-20.193-27.984-15.793-11.576 4.4-17.813 18.605-13.931 31.728C25.086 59.979 37.615 67.05 49.19 62.65c11.575-4.4 17.812-18.606 13.93-31.728" fill="#DE7662"/><path d="M20.325 39.115c0-12.874 9.858-23.311 22.019-23.311 12.16 0 22.017 10.437 22.017 23.311 0 12.875-9.858 27.068-22.017 27.068-12.16 0-22.019-14.193-22.019-27.068" fill="#F5A17D"/><path d="M20.078 28.074c1.013 6 10.583 10.705 22.255 10.705 12.087 0 21.91-5.048 22.317-11.352" fill-opacity=".6" fill="#DE7662"/><path d="M22.21 28.37s19.909-6.595 23.12-9.787c0 0-6.208 6.596-8.563 7.022 0 0 13.487-5.532 14.985-7.447 1.499-1.915-22.264-2.553-22.264-2.553L22.21 28.37z" fill="#DE7662"/><path d="M42.343 64.122c-10.953 0-19.314-13.147-19.314-24.743 0-11.598 4.582-20.998 19.314-20.998 10.953 0 19.315 9.4 19.315 20.998 0 11.596-8.362 24.743-19.315 24.743m0-48.318c-12.16 0-22.018 10.437-22.018 23.311 0 12.875 9.858 27.068 22.018 27.068S64.362 51.99 64.362 39.115c0-12.874-9.858-23.311-22.019-23.311" fill-opacity=".6" fill="#DE7662"/><path fill="#FFC79B" d="M45.079 51.92h-5.833l1.827-1.03h2.178z"/><path d="M37.515 57.017c0 .437 2.532 1.294 4.608 1.294 2.075 0 4.88-.987 4.88-1.374 0-.298-1.264-.896-2.963-.896-.895 0-.986.214-1.686.207-.62-.006-.82-.247-1.51-.247-2.075 0-3.329.614-3.329 1.016" fill="#DE7662"/><path fill="#B25252" d="M45.986 57.053h-7.421l-1.037-.257h9.495z"/><path d="M62.568 37.019c0-9.105-3.63-11.724-5.876-14.473-2.248-2.748-5.877-4.509-5.877-4.509H31.11s-5.185 6.742-7.691 9.233c-2.506 2.491-2.074 10.264-2.074 10.264l-.735 2.92c-.43 0-.525-2.634-.907-6.957-.442-4.989.518-8.933.518-8.933l4.148-7.214 34.396-1.804 1.9 1.46 3.976-.343-2.247 3.607 4.84 1.546-4.149 2.405 2.939 6.527-1.383-.515-.087 7.516-.259 2.576-1.815-3.306" fill="#774304"/><path d="M22.21 26.825s19.909-6.596 23.12-9.788c0 0-6.208 6.596-8.563 7.022 0 0 13.487-5.532 14.985-7.447 1.499-1.915-22.264-2.553-22.264-2.553L22.21 26.825z" fill="#774304"/><path d="M30.247 40.025c0-.76.619-1.375 1.383-1.375.763 0 1.382.616 1.382 1.375s-.619 1.374-1.382 1.374a1.379 1.379 0 0 1-1.383-1.374m24.025 0c0-.76-.62-1.375-1.383-1.375-.764 0-1.383.616-1.383 1.375s.62 1.374 1.383 1.374c.764 0 1.383-.615 1.383-1.374" fill="#132729"/><path d="M69.375 18.33c0-4.843-12.326-10.495-27.53-10.495s-27.53 5.652-27.53 10.495c0 2.896 2.155 5.56 5.763 7.683 1.013 6 10.583 10.704 22.255 10.704 12.087 0 21.91-5.048 22.317-11.351 2.982-2.007 4.725-4.429 4.725-7.036" fill="#0F1F40"/><path d="M42.418 22.312s0-3.976 4.696-4.84c4.696-.865 8.697-.52 8.697-.52s-4 6.743-13.393 5.36m-1.271 0s0-3.976-4.696-4.84c-4.696-.865-8.697-.52-8.697-.52s4 6.743 13.393 5.36" fill="#F8F64C"/><path d="M38.24 18.04c0-1.813 1.48-3.284 3.305-3.284 1.825 0 3.305 1.47 3.305 3.285 0 1.814-1.48 3.285-3.305 3.285-1.825 0-3.305-1.471-3.305-3.285" fill="#F8F64C"/><path d="M38.24 18.04c0-1.813 1.48-3.284 3.305-3.284 1.825 0 3.305 1.47 3.305 3.285 0 1.814-1.48 3.285-3.305 3.285-1.825 0-3.305-1.471-3.305-3.285z" stroke="#0F1F40"/><path d="M19.185 26.282s22.902 7.043 46.062-.687" stroke="#F8F64C" stroke-width="2" stroke-linecap="round" stroke-linejoin="round"/><g transform="translate(22.296 70.083)"><mask id="h" fill="#fff"><use xlink:href="#g"/></mask><path d="M10.302.497S2.655 3.478.308 6.277l5.868 3.266L2.42 14.91l16.654 16.74L10.302.497z" fill="#1B294C" mask="url(#h)"/></g><g transform="translate(42 70.083)"><mask id="j" fill="#fff"><use xlink:href="#i"/></mask><path d="M8.8.233S16 2.501 18.78 5.62l-6.094 3.924 3.756 5.366L.308 31.649 8.8.233z" fill="#1B294C" mask="url(#j)"/></g><path fill="#FFF" d="M32.598 70.58l8.88 4.3 9.321-4.563-2.543 8.88L42 76.208l-6.952 3.164z"/><circle stroke="#FFF" stroke-width="2" cx="42" cy="42" r="41"/></g></svg>