<svg width="84" height="84" xmlns="http://www.w3.org/2000/svg" xmlns:xlink="http://www.w3.org/1999/xlink"><defs><path d="M.146 5.43c7.678 8.174 18.708 13.298 30.965 13.298 11.354 0 21.656-4.397 29.215-11.542V.475H.146V5.43z" id="a"/><path d="M42 .003C18.804.003 0 18.356 0 40.996 0 63.637 18.804 81.99 42 81.99s42-18.353 42-40.994C84 18.356 65.196.003 42 .003z" id="c"/></defs><g fill="none" fill-rule="evenodd"><path d="M0 41.5C0 18.86 18.804.506 42 .506S84 18.86 84 41.5 65.196 82.494 42 82.494 0 64.14 0 41.5" fill="#48C8BC"/><g transform="translate(0 .504)"><g transform="translate(10.889 63.262)"><mask id="b" fill="#fff"><use xlink:href="#a"/></mask><path d="M1.715 39.179C-3.567 23.804 4.921 7.162 20.672 2.006 36.424-3.15 53.476 5.134 58.757 20.51 64.04 35.883 55.552 52.526 39.8 57.682 24.05 62.837 6.997 54.554 1.715 39.179" fill="#08183A" mask="url(#b)"/></g><path d="M32.497 74.886c-1.561-4.543.947-9.461 5.602-10.985 4.654-1.523 9.693.925 11.255 5.468 1.56 4.544-.948 9.462-5.602 10.985-4.656 1.524-9.695-.924-11.255-5.468" fill="#F5A17D"/><path d="M35.778 56.686v10.122h.002c.021 2.205 2.333 3.987 5.183 3.987 2.85 0 5.162-1.782 5.183-3.987h.002V56.686h-10.37z" fill="#ED8E66"/><path fill="#B25252" d="M46.148 65.036l-10.37-4.049V58.71h10.37z"/><path d="M62.084 25.309C58.202 12.422 45.672 5.478 34.098 9.799 22.522 14.12 16.285 28.07 20.167 40.959c3.882 12.887 16.411 19.83 27.986 15.51 11.575-4.322 17.812-18.273 13.93-31.16" fill="#DE7662"/><path d="M19.288 33.356c0-12.644 9.858-22.894 22.019-22.894 12.16 0 22.017 10.25 22.017 22.894 0 12.643-9.858 26.582-22.017 26.582-12.16 0-22.019-13.939-22.019-26.582" fill="#F5A17D"/><path d="M41.306 58.985c-10.632 0-19.252-12.188-19.252-23.244s8.62-11.167 19.252-11.167c10.633 0 19.253.111 19.253 11.167s-8.62 23.244-19.253 23.244m.048-49.313c-12.3-.022-22.291 10.747-22.317 24.053-.025 13.306 9.918 27.993 22.218 28.015 12.3.023 22.299-14.628 22.324-27.935.025-13.306-9.925-24.11-22.225-24.133" fill="#DE7662"/><path d="M41.306 57.914c-10.953 0-19.314-12.911-19.314-24.3 0-11.39 4.582-20.621 19.314-20.621 10.953 0 19.315 9.232 19.315 20.621s-8.362 24.3-19.315 24.3m0-47.452c-12.16 0-22.018 10.25-22.018 22.894 0 12.643 9.858 26.582 22.018 26.582S63.325 46 63.325 33.356s-9.858-22.894-22.019-22.894" fill="#DE7662"/><path fill="#FFC79B" d="M44.042 45.931h-5.833l1.827-1.012h2.178z"/><path d="M36.478 50.937c0 .428 2.532 1.27 4.607 1.27 2.076 0 4.881-.97 4.881-1.35 0-.292-1.264-.879-2.963-.879-.895 0-.986.21-1.686.203-.62-.006-.82-.243-1.51-.243-2.075 0-3.33.604-3.33.999" fill="#DE7662"/><path d="M61.833 29.04a.32.32 0 0 1 .324-.316.32.32 0 0 1 .324.316.32.32 0 0 1-.324.316.32.32 0 0 1-.324-.316m0 1.012a.32.32 0 0 1 .324-.316.32.32 0 0 1 .324.316.32.32 0 0 1-.324.317.32.32 0 0 1-.324-.317" fill="#998077"/><path d="M41.306 59.3c-10.632 0-19.252-12.642-19.252-24.108 0-11.467 8.62-11.583 19.252-11.583 10.633 0 19.253.116 19.253 11.583 0 11.466-8.62 24.107-19.253 24.107m.048-51.145c-12.3-.023-22.291 11.145-22.317 24.946-.025 13.8 9.918 29.034 22.218 29.057 12.3.023 22.299-15.173 22.324-28.973.025-13.8-9.925-25.007-22.225-25.03" fill="#08183A"/><path d="M36.383 52.13c0-2.655 2.205-4.807 4.926-4.807 2.72 0 4.926 2.152 4.926 4.808 0 2.655-2.206 4.808-4.926 4.808-2.721 0-4.926-2.153-4.926-4.808" fill="#444445"/><path d="M37.506 52.13c0-2.049 1.702-3.71 3.802-3.71s3.803 1.661 3.803 3.71c0 2.05-1.703 3.712-3.803 3.712-2.1 0-3.802-1.662-3.802-3.711" fill="#2C2C3A"/><mask id="d" fill="#fff"><use xlink:href="#c"/></mask><path fill="#3F3F54" mask="url(#d)" d="M60.254 30.375h6.785V1.015h-6.785z"/><path fill="#2C2C3A" mask="url(#d)" d="M63.703 30.375h3.336V1.015h-3.336z"/><path fill="#656587" mask="url(#d)" d="M60.803 30.892h6.784v-1.59h-6.784z"/><path d="M38.752 32.646c0-6.326 5.254-11.454 11.735-11.454s11.735 5.128 11.735 11.454c0 6.326-5.254 11.454-11.735 11.454s-11.735-5.128-11.735-11.454" fill="#656587" mask="url(#d)"/><path d="M18.01 32.646c0-6.326 5.255-11.454 11.736-11.454 6.481 0 11.736 5.128 11.736 11.454 0 6.326-5.255 11.454-11.736 11.454-6.481 0-11.735-5.128-11.735-11.454" fill="#656587" mask="url(#d)"/><path fill="#656587" mask="url(#d)" d="M29.674 33.628H51.51V21.192H29.674z"/><path d="M50.815 24.84v-.04H30.57c-5.022 0-9.342 4.01-9.312 8.911.03 4.868 4.082 8.93 9.074 8.93 3.68 0 6.839-2.345 8.261-5.146.173-.34.531-.646.92-.646h1.343c.388 0 .747.308.919.647 1.647 3.239 5.613 5.867 10.022 4.965 4.145-.848 7.233-4.44 7.312-8.573.089-4.71-3.593-8.659-8.295-9.05" fill="#000" mask="url(#d)"/><path d="M38.233 34.164c0-6.326 5.254-11.454 11.735-11.454 6.482 0 11.736 5.128 11.736 11.454 0 6.326-5.254 11.454-11.736 11.454-6.48 0-11.735-5.128-11.735-11.454" fill="#2C2C3A" mask="url(#d)"/><path d="M18.53 34.164c0-6.326 5.254-11.454 11.734-11.454C36.746 22.71 42 27.838 42 34.164c0 6.326-5.254 11.454-11.736 11.454-6.48 0-11.735-5.128-11.735-11.454" fill="#2C2C3A" mask="url(#d)"/><path fill="#2C2C3A" mask="url(#d)" d="M31.518 35.146h18.148V22.71H31.518z"/><path d="M50.815 24.84v-.04H30.57c-5.022 0-9.342 4.01-9.312 8.911.03 4.868 4.082 8.93 9.074 8.93 3.68 0 6.839-2.345 8.261-5.146.173-.34.531-.646.92-.646h1.343c.388 0 .747.308.919.647 1.647 3.239 5.613 5.867 10.022 4.965 4.145-.848 7.233-4.44 7.312-8.573.089-4.71-3.593-8.659-8.295-9.05" fill="#25C6DA" mask="url(#d)"/><path d="M59.09 33.405c-.245-4.555-3.792-8.193-8.275-8.565v-.04H30.571c-4.858 0-9.046 3.543-9.288 8.604h37.806z" fill-opacity=".8" fill="#21ADBF" mask="url(#d)"/><g mask="url(#d)" fill="#08183A"><path d="M29.728 33.742c0-.745.62-1.35 1.383-1.35.764 0 1.383.605 1.383 1.35 0 .746-.62 1.35-1.383 1.35-.764 0-1.383-.604-1.383-1.35m20.914 0c0-.745-.62-1.35-1.383-1.35s-1.382.605-1.382 1.35c0 .746.619 1.35 1.382 1.35.764 0 1.383-.604 1.383-1.35"/></g><path fill="#333" mask="url(#d)" d="M60.803 37.372h6.784v-7.058h-6.784z"/><path d="M51.182 66.578c-2.98 0-5.77-.793-7.983-2.341-2.38-1.665-5.218-4.94-5.218-11.094 0-1.817 1.51-3.29 3.37-3.29 1.862 0 3.371 1.473 3.371 3.29 0 2.698.808 4.63 2.403 5.745 1.848 1.292 4.712 1.48 7.662.503 4.835-1.603 5.324-6.813 5.361-7.348V33.911c0-1.816 1.509-3.29 3.37-3.29 1.862 0 3.37 1.474 3.37 3.29v18.22c0 .043 0 .087-.002.13-.017.418-.525 10.241-9.932 13.36a18.397 18.397 0 0 1-5.772.957" fill="#2C2C3A" mask="url(#d)"/><path d="M31.36 27.326l-7.01 5.83m9.603-3.299l-7.01 5.829" stroke="#FFF" opacity=".513" stroke-linecap="round" stroke-linejoin="round" mask="url(#d)"/><path d="M11.26 59.05c0-2.638 2.192-4.776 4.894-4.776s4.893 2.138 4.893 4.775c0 2.638-2.19 4.776-4.893 4.776-2.702 0-4.893-2.138-4.893-4.776" fill-opacity=".4" fill="#FFF" mask="url(#d)"/><path d="M11.26 59.05c0-2.638 2.192-4.776 4.894-4.776s4.893 2.138 4.893 4.775c0 2.638-2.19 4.776-4.893 4.776-2.702 0-4.893-2.138-4.893-4.776z" stroke-opacity=".8" stroke="#FFF" stroke-width=".5" mask="url(#d)"/><path d="M10.915 48.674c0-.727.604-1.317 1.35-1.317.745 0 1.35.59 1.35 1.317 0 .728-.605 1.318-1.35 1.318-.746 0-1.35-.59-1.35-1.318" fill-opacity=".6" fill="#FFF" mask="url(#d)"/><path d="M10.915 48.674c0-.727.604-1.317 1.35-1.317.745 0 1.35.59 1.35 1.317 0 .728-.605 1.318-1.35 1.318-.746 0-1.35-.59-1.35-1.318z" stroke="#FFF" stroke-width=".5" mask="url(#d)"/><path d="M73.656 33.491c0-.727.604-1.317 1.35-1.317.745 0 1.35.59 1.35 1.317 0 .728-.605 1.318-1.35 1.318-.746 0-1.35-.59-1.35-1.318" fill-opacity=".6" fill="#FFF" mask="url(#d)"/><path d="M73.656 33.491c0-.727.604-1.317 1.35-1.317.745 0 1.35.59 1.35 1.317 0 .728-.605 1.318-1.35 1.318-.746 0-1.35-.59-1.35-1.318z" stroke="#FFF" stroke-width=".5" mask="url(#d)"/><path d="M17.45 48.875c.746 0 1.35.59 1.35 1.318 0 .727-.604 1.317-1.35 1.317-.746 0-1.35-.59-1.35-1.317 0-.728.604-1.318 1.35-1.318z" fill="#FFF" opacity=".48" mask="url(#d)"/><path d="M16.1 50.193c0-.728.604-1.318 1.35-1.318.746 0 1.35.59 1.35 1.318 0 .727-.604 1.317-1.35 1.317-.746 0-1.35-.59-1.35-1.317z" stroke="#FFF" stroke-width=".5" opacity=".6" mask="url(#d)"/><path d="M69.195 55.254c0-1.455 1.209-2.635 2.7-2.635 1.49 0 2.7 1.18 2.7 2.635 0 1.455-1.21 2.634-2.7 2.634-1.491 0-2.7-1.18-2.7-2.634" fill-opacity=".6" fill="#FFF" mask="url(#d)"/><path d="M69.195 55.254c0-1.455 1.209-2.635 2.7-2.635 1.49 0 2.7 1.18 2.7 2.635 0 1.455-1.21 2.634-2.7 2.634-1.491 0-2.7-1.18-2.7-2.634z" stroke="#FFF" stroke-width=".5" mask="url(#d)"/></g><circle stroke="#FFF" stroke-width="2" cx="42" cy="42" r="41"/></g></svg>