<svg width="84" height="85" xmlns="http://www.w3.org/2000/svg" xmlns:xlink="http://www.w3.org/1999/xlink"><defs><path id="a" d="M84 41.49V.004H0V82.98h84V41.49z"/><path d="M.146 4.012c7.617 7.643 18.213 12.381 29.928 12.381 11.882 0 22.612-4.874 30.253-12.71V.48H.146v3.532z" id="c"/><path d="M0 41.49C0 64.404 18.805 82.98 42 82.98S84 64.403 84 41.49C84 18.577 65.194.003 42 .003S0 18.577 0 41.491z" id="e"/><path d="M4.45.13A24.78 24.78 0 0 0 .012 6.064h10.53V.13H4.45z" id="g"/><path d="M10.525 6.064A24.8 24.8 0 0 0 6.303.344H.061v5.72h10.464z" id="i"/></defs><g fill="none" fill-rule="evenodd"><g transform="translate(0 .51)"><mask id="b" fill="#fff"><use xlink:href="#a"/></mask><path d="M0 41.49C0 18.578 18.804.004 42 .004c23.195 0 42 18.574 42 41.488 0 22.912-18.805 41.488-42 41.488-23.196 0-42-18.576-42-41.488" fill="#5CE1F2" mask="url(#b)"/></g><g transform="translate(0 .51)"><g transform="translate(11.926 66.585)"><mask id="d" fill="#fff"><use xlink:href="#c"/></mask><path d="M1.715 39.651C-3.568 24.091 4.92 7.248 20.672 2.03c15.752-5.218 32.803 3.166 38.085 18.726 5.283 15.56-3.205 32.403-18.957 37.621-15.751 5.218-32.803-3.166-38.085-18.726" fill="#EE3727" mask="url(#d)"/></g><path d="M36.815 59.93v10.243h.002c.021 2.232 2.332 4.036 5.183 4.036 2.85 0 5.161-1.804 5.183-4.036h.002V59.93h-10.37" fill="#ED8E66"/><path d="M36.815 62.238v2.045l10.37 4.098v-5.912a16.13 16.13 0 0 1-4.842.752 16.26 16.26 0 0 1-5.528-.983" fill="#CA6A5A"/><path d="M22.076 46.497a25.737 25.737 0 0 0 1.955 3.856 31.804 31.804 0 0 1-1.644-3.546 12.62 12.62 0 0 1-.311-.31" fill="#B4A29C"/><path d="M20.325 36.318c0-12.795 9.858-23.17 22.018-23.17s22.018 10.375 22.018 23.17c0 12.796-9.858 26.903-22.018 26.903S20.325 49.114 20.325 36.318" fill="#F5A17D"/><path d="M53.407 28.063l-.314.001.194.11h.12v-.111M62.805 45.419a12.836 12.836 0 0 1-4.1 3.47l-.018.033a.129.129 0 0 1 .164.123c0 .071-.057.128-.13.128a.13.13 0 0 1-.119-.079 28.254 28.254 0 0 1-2.172 3.656.13.13 0 0 1 .089-.034.128.128 0 1 1 0 .256.129.129 0 0 1-.12-.177 25.343 25.343 0 0 1-1.629 2.072.128.128 0 0 1-.11.197.137.137 0 0 1-.054-.012c-.265.297-.535.585-.813.865h.003a.13.13 0 0 1 .13.128.129.129 0 0 1-.13.128.129.129 0 0 1-.13-.128v-.001c-1.407 1.399-2.964 2.573-4.637 3.442a.127.127 0 0 1 .1.122.13.13 0 0 1-.13.129.13.13 0 0 1-.13-.129c0-.016.003-.03.009-.044-.86.436-1.75.79-2.666 1.055l.001.017c0 .07-.06.124-.13.124a.133.133 0 0 1-.119-.071 13.79 13.79 0 0 1-6.502.18.13.13 0 0 1-.1.044.134.134 0 0 1-.125-.095 14.337 14.337 0 0 1-1.093-.299c.006.016.01.034.01.052 0 .07-.056.125-.13.125a.13.13 0 0 1-.131-.125c0-.049.026-.09.065-.111-3.408-1.124-6.43-3.497-8.85-6.565.01.018.015.038.015.059 0 .07-.058.128-.13.128a.129.129 0 0 1-.13-.128c0-.071.059-.128.13-.128.034 0 .064.012.087.032a27.653 27.653 0 0 1-2.871-4.516 12.783 12.783 0 0 1-3.822-2.535c3.509 8.974 11.125 16.414 19.956 16.414 5.43 0 10.4-2.812 14.239-7.064a.132.132 0 0 1-.063.016.129.129 0 0 1-.13-.128.13.13 0 1 1 .25.05c2.697-3.008 4.83-6.726 6.166-10.676m-2.268 2.73a.129.129 0 0 1-.13-.128c0-.07.058-.128.13-.128.072 0 .13.057.13.128 0 .07-.058.128-.13.128m-.26 1.152a.129.129 0 0 1-.13-.128c0-.07.059-.128.13-.128a.128.128 0 1 1 0 .256m-35.907.257a.129.129 0 0 1-.13-.129c0-.07.058-.128.13-.128.071 0 .13.057.13.128a.129.129 0 0 1-.13.129m1.34.426a.129.129 0 0 1-.13-.128c0-.07.058-.127.13-.127.071 0 .13.056.13.127 0 .07-.059.128-.13.128m33.487.257a.13.13 0 0 1-.13-.128.13.13 0 0 1 .13-.129.13.13 0 0 1 .13.13.13.13 0 0 1-.13.127m.886.47a.129.129 0 0 1-.13-.129c0-.071.059-.128.13-.128.072 0 .13.057.13.128 0 .071-.058.128-.13.128m-34.935.128a.128.128 0 0 1 0-.256.128.128 0 1 1 0 .256m33.185.512a.129.129 0 0 1-.13-.128c0-.07.058-.128.13-.128.072 0 .13.057.13.128 0 .07-.058.128-.13.128m.907.427a.129.129 0 0 1-.13-.128c0-.07.059-.128.13-.128.072 0 .13.058.13.128 0 .071-.058.128-.13.128m-32.84.17a.13.13 0 0 1-.129-.128c0-.07.059-.127.13-.127.072 0 .13.057.13.127 0 .071-.058.128-.13.128m31.284.684a.128.128 0 0 1 0-.257.128.128 0 1 1 0 .257m-30.55.683a.13.13 0 0 1-.129-.129c0-.07.058-.128.13-.128a.128.128 0 1 1 0 .257m30.635.512a.13.13 0 0 1-.13-.128.13.13 0 0 1 .13-.128c.072 0 .13.057.13.128 0 .07-.058.128-.13.128M28.13 55.192a.129.129 0 0 1-.13-.128c0-.071.058-.128.13-.128.071 0 .13.057.13.128 0 .07-.059.128-.13.128m28.475.042a.13.13 0 0 1-.13-.128.13.13 0 0 1 .13-.128c.072 0 .13.057.13.128 0 .07-.058.128-.13.128m-27.137.086a.129.129 0 0 1-.13-.128c0-.071.059-.128.13-.128a.13.13 0 0 1 .131.128.13.13 0 0 1-.13.128m25.667.982a.129.129 0 0 1-.13-.129.13.13 0 0 1 .13-.128.13.13 0 0 1 .13.128.129.129 0 0 1-.13.129m-25.451.042a.129.129 0 0 1-.13-.128c0-.07.058-.128.13-.128.071 0 .13.057.13.128 0 .07-.059.128-.13.128m1.253 1.024a.129.129 0 0 1-.13-.128c0-.07.058-.127.13-.127.071 0 .13.057.13.127 0 .071-.059.128-.13.128m22.987.257a.129.129 0 0 1-.13-.128c0-.071.059-.129.13-.129.072 0 .13.058.13.129 0 .07-.058.128-.13.128m-1.77.853a.129.129 0 0 1-.13-.128.13.13 0 0 1 .258 0c0 .071-.057.128-.129.128m-20.913.107a.128.128 0 1 1 0-.256.128.128 0 1 1 0 .256m19.746.661a.129.129 0 0 1-.13-.128c0-.07.059-.128.13-.128.072 0 .13.057.13.128 0 .07-.058.128-.13.128m-18.191.3a.129.129 0 0 1-.13-.129c0-.07.058-.128.13-.128.071 0 .13.058.13.128s-.059.128-.13.128m2.161-.001c-.07 0-.13-.056-.13-.125a.13.13 0 0 1 .13-.129c.07 0 .13.055.13.129 0 .069-.06.125-.13.125m16.117.898a.129.129 0 0 1-.13-.128c0-.071.058-.128.13-.128.072 0 .13.057.13.128 0 .07-.058.128-.13.128m-15.64.424c-.075 0-.132-.055-.132-.124 0-.073.057-.13.131-.13.07 0 .126.057.126.13 0 .07-.056.124-.126.124m14.084.153a.133.133 0 0 1-.13-.13c0-.069.06-.129.13-.129a.13.13 0 1 1 0 .259m-12.618.193a.13.13 0 0 1-.127-.13c0-.073.057-.128.127-.128.074 0 .13.055.13.129a.13.13 0 0 1-.13.13m10.677.04a.13.13 0 0 1-.131-.128c0-.07.056-.13.131-.13.07 0 .126.06.126.13a.128.128 0 0 1-.126.128m-3.589.342c-.07 0-.13-.06-.13-.13 0-.069.06-.129.13-.129s.13.06.13.13-.06.13-.13.13m-2.333.04a.13.13 0 0 1-.131-.129c0-.07.061-.124.131-.124s.13.055.13.124a.13.13 0 0 1-.13.13m4.797.17a.127.127 0 1 1 0-.254c.07 0 .13.056.13.125 0 .074-.06.129-.13.129m-7.952.212c-.07 0-.13-.055-.13-.124a.13.13 0 1 1 .26 0c0 .069-.06.124-.13.124m6.977.152a.128.128 0 0 1-.126-.13c0-.068.056-.128.126-.128a.13.13 0 0 1 .13.129.13.13 0 0 1-.13.129m-1.102.235a.128.128 0 0 1-.125-.13c0-.068.055-.128.125-.128a.13.13 0 0 1 .131.129.13.13 0 0 1-.13.129m-3.93.083c-.074 0-.13-.055-.13-.124 0-.074.056-.13.13-.13.07 0 .13.056.13.13 0 .07-.06.124-.13.124m2.464.064a.127.127 0 0 1-.13-.129c0-.069.056-.124.13-.124.07 0 .126.055.126.124 0 .074-.056.13-.126.13" fill="#E7876D"/><path fill="#FFC79B" d="M45.078 49.045h-5.833l1.828-1.024h2.178z"/><path fill="#B25252" d="M45.986 54.147h-7.422l-1.036-.256h9.495z"/><path d="M50.296 50.518a.129.129 0 0 0-.13.128c0 .07.059.128.13.128.072 0 .13-.057.13-.128a.129.129 0 0 0-.13-.128" fill="#90561C"/><path d="M25.71 49.728a.129.129 0 0 0-.13.128c0 .071.058.128.13.128.072 0 .13-.057.13-.128a.129.129 0 0 0-.13-.128M26.401 51.692a.13.13 0 0 0-.13.128c0 .07.059.128.13.128.072 0 .13-.058.13-.128a.129.129 0 0 0-.13-.128" fill="#8D5119"/><path d="M27.913 51.65a.129.129 0 0 0-.13.127c0 .07.059.128.13.128.072 0 .13-.057.13-.128a.129.129 0 0 0-.13-.128" fill="#90561C"/><path d="M27.136 53.057a.129.129 0 0 0-.13.128c0 .071.058.129.13.129a.13.13 0 0 0 .13-.129.129.129 0 0 0-.13-.128M29.685 56.088a.129.129 0 0 0-.13.128c0 .07.058.128.13.128.071 0 .13-.057.13-.128a.129.129 0 0 0-.13-.128" fill="#8D5119"/><path d="M29.037 52.631a.128.128 0 0 0-.13.128c0 .07.058.128.13.128.072 0 .13-.057.13-.128a.128.128 0 0 0-.13-.128M29.469 51.521a.129.129 0 0 0-.13.128c0 .07.058.128.13.128a.13.13 0 0 0 .13-.128.13.13 0 0 0-.13-.128M29.08 53.858l.028.037a.131.131 0 0 0-.028-.037" fill="#90561C"/><path d="M28.993 53.826a.129.129 0 0 0-.13.128c0 .07.059.128.13.128.072 0 .13-.057.13-.128a.128.128 0 0 0-.015-.06c-.009-.011-.02-.024-.028-.036a.132.132 0 0 0-.087-.032M29.469 55.064a.129.129 0 0 0-.13.128c0 .07.058.128.13.128a.13.13 0 0 0 .13-.128.13.13 0 0 0-.13-.128M28.13 54.936a.129.129 0 0 0-.13.128c0 .07.058.128.13.128.071 0 .13-.057.13-.128a.129.129 0 0 0-.13-.128M30.938 57.113a.129.129 0 0 0-.13.128c0 .07.058.128.13.128.071 0 .13-.058.13-.128a.129.129 0 0 0-.13-.128M32.796 59.29a.129.129 0 0 0-.13.127c0 .071.058.128.13.128.072 0 .13-.057.13-.128a.129.129 0 0 0-.13-.128" fill="#8D5119"/><path d="M30.851 51.735a.129.129 0 0 0-.13.128c0 .07.059.128.13.128.072 0 .13-.058.13-.128a.129.129 0 0 0-.13-.128M32.148 52.631a.128.128 0 1 0 0 .256c.072 0 .13-.057.13-.128a.128.128 0 0 0-.13-.128M33.4 51.65a.129.129 0 0 0-.129.127c0 .07.058.128.13.128.071 0 .13-.057.13-.128a.129.129 0 0 0-.13-.128M33.487 52.844a.13.13 0 0 0-.13.128c0 .071.059.128.13.128.072 0 .13-.057.13-.128a.13.13 0 0 0-.13-.128M32.624 53.954a.13.13 0 0 0-.13.128c0 .07.058.128.13.128.071 0 .13-.058.13-.128a.129.129 0 0 0-.13-.128M32.493 55.747a.13.13 0 0 0-.13.128c0 .07.06.128.13.128.072 0 .13-.058.13-.128a.129.129 0 0 0-.13-.128M32.97 57.07a.13.13 0 0 0-.13.127c0 .072.058.129.13.129.07 0 .129-.057.129-.129a.13.13 0 0 0-.13-.128" fill="#90561C"/><path d="M31.24 58.33a.128.128 0 1 0 0 .255c.072 0 .13-.057.13-.128a.128.128 0 0 0-.13-.128" fill="#8D5119"/><path d="M30.938 53.996a.13.13 0 0 0-.13.129c0 .07.058.128.13.128.071 0 .13-.058.13-.128a.13.13 0 0 0-.13-.129M30.851 54.936a.129.129 0 0 0-.13.128c0 .07.059.128.13.128.072 0 .13-.057.13-.128a.129.129 0 0 0-.13-.128M27.74 49.899a.13.13 0 0 0-.13.128c0 .07.059.128.13.128.072 0 .13-.057.13-.128a.13.13 0 0 0-.13-.128" fill="#90561C"/><path d="M24.37 49.301a.129.129 0 0 0-.13.128c0 .071.059.129.13.129.072 0 .13-.058.13-.129a.129.129 0 0 0-.13-.128M60.537 47.893a.129.129 0 0 0-.13.128c0 .07.058.128.13.128.072 0 .13-.057.13-.128a.129.129 0 0 0-.13-.128M25.148 50.582a.128.128 0 1 0 0 .256c.072 0 .13-.057.13-.128a.128.128 0 0 0-.13-.128" fill="#8D5119"/><path d="M53.58 52.631a.128.128 0 1 0 0 .256.13.13 0 0 0 .13-.128.129.129 0 0 0-.13-.128M54.703 53.612a.129.129 0 0 0-.13.128c0 .071.059.128.13.128.072 0 .13-.057.13-.128a.129.129 0 0 0-.13-.128M55.136 52.502a.129.129 0 0 0-.13.129c0 .07.058.128.13.128.071 0 .13-.057.13-.128a.129.129 0 0 0-.13-.129M57.857 49.77a.13.13 0 0 0-.13.129c0 .07.059.128.13.128a.13.13 0 0 0 .13-.128.13.13 0 0 0-.13-.128" fill="#90561C"/><path d="M59.197 49.984a.129.129 0 0 0-.13.129c0 .07.059.128.13.128a.13.13 0 0 0 .13-.128.129.129 0 0 0-.13-.129" fill="#8D5119"/><path d="M58.688 48.922a.129.129 0 0 0-.086.172l.086-.172" fill="#90561C"/><path d="M58.722 48.917a.125.125 0 0 0-.034.005l-.085.173a.13.13 0 0 0 .119.078c.072 0 .13-.057.13-.128a.129.129 0 0 0-.13-.128M60.277 49.045a.129.129 0 0 0-.13.128c0 .071.059.128.13.128a.128.128 0 1 0 0-.256M60.083 50.454a.129.129 0 0 0-.13.128c0 .07.059.128.13.128.072 0 .13-.057.13-.128a.129.129 0 0 0-.13-.128" fill="#8D5119"/><path d="M51.246 54.466a.129.129 0 0 0-.13.128c0 .071.059.129.13.129.072 0 .13-.058.13-.129a.129.129 0 0 0-.13-.128M52.5 53.484a.129.129 0 0 0-.13.128c0 .071.058.128.13.128.071 0 .13-.057.13-.128a.129.129 0 0 0-.13-.128M52.586 54.679a.13.13 0 0 0-.13.129c0 .07.059.128.13.128.072 0 .13-.057.13-.128a.129.129 0 0 0-.13-.129" fill="#90561C"/><path d="M58.334 51.094a.129.129 0 0 0-.13.128c0 .07.057.128.13.128.071 0 .13-.057.13-.128a.129.129 0 0 0-.13-.128M59.24 51.521a.129.129 0 0 0-.13.128c0 .07.059.128.13.128.072 0 .13-.057.13-.128a.129.129 0 0 0-.13-.128" fill="#8D5119"/><path d="M54.66 54.808a.13.13 0 0 0-.13.128c0 .052.032.096.076.116.055-.06.11-.123.164-.185a.13.13 0 0 0-.11-.06" fill="#90561C"/><path d="M54.77 54.867l-.163.185a.134.134 0 0 0 .054.011c.071 0 .13-.057.13-.127a.129.129 0 0 0-.021-.069M55.136 56.045a.13.13 0 0 0-.13.128c0 .071.058.129.13.129.071 0 .13-.058.13-.129a.13.13 0 0 0-.13-.128" fill="#8D5119"/><path d="M53.793 55.917a.13.13 0 0 0-.127.127l.127-.127" fill="#90561C"/><path d="M53.796 55.917h-.003a9.86 9.86 0 0 1-.127.127v.001c0 .071.058.128.13.128.071 0 .13-.057.13-.128a.13.13 0 0 0-.13-.128" fill="#8D5119"/><path d="M56.648 51.136a.129.129 0 0 0-.13.129c0 .07.058.128.13.128a.13.13 0 0 0 .13-.128.129.129 0 0 0-.13-.129M56.43 52.75a.14.14 0 0 0-.031.044l.031-.044" fill="#90561C"/><path d="M56.519 52.716a.128.128 0 0 0-.089.034l-.031.044a.129.129 0 0 0 .12.178c.071 0 .13-.057.13-.128a.129.129 0 0 0-.13-.128M57.685 52.374a.129.129 0 0 0-.13.128c0 .072.058.129.13.129.071 0 .13-.057.13-.129a.129.129 0 0 0-.13-.128M57.772 53.57a.13.13 0 0 0-.13.128c0 .07.058.128.13.128.071 0 .13-.057.13-.128a.129.129 0 0 0-.13-.128M50.987 58.99a.129.129 0 0 0-.13.128c0 .07.059.128.13.128.072 0 .13-.057.13-.128a.129.129 0 0 0-.13-.128M51.074 60.186a.129.129 0 0 0-.13.128c0 .07.058.128.13.128.072 0 .13-.057.13-.128a.129.129 0 0 0-.13-.128M56.604 54.978a.13.13 0 0 0-.13.128c0 .07.06.128.13.128.072 0 .13-.057.13-.128a.129.129 0 0 0-.13-.128" fill="#8D5119"/><path d="M56.638 56.094l-.056.063a.13.13 0 0 0 .056-.063" fill="#766334"/><path d="M56.519 55.917a.13.13 0 0 0-.13.128c0 .071.058.128.13.128a.132.132 0 0 0 .063-.016l.056-.063a.13.13 0 0 0 .01-.049.13.13 0 0 0-.13-.128" fill="#8D5119"/><path d="M52.068 56.216a.129.129 0 0 0-.13.128c0 .07.058.128.13.128.071 0 .13-.057.13-.128a.129.129 0 0 0-.13-.128" fill="#90561C"/><path d="M52.154 58.222a.13.13 0 0 0-.13.128c0 .071.059.128.13.128.072 0 .13-.057.13-.128a.13.13 0 0 0-.13-.128" fill="#8D5119"/><path d="M50.944 56.985a.129.129 0 0 0-.13.128c0 .07.058.128.13.128.072 0 .13-.058.13-.128a.129.129 0 0 0-.13-.128M50.728 55.79a.129.129 0 0 0-.13.127c0 .07.059.128.13.128.072 0 .13-.057.13-.128a.129.129 0 0 0-.13-.128" fill="#90561C"/><path d="M53.925 57.369a.129.129 0 0 0-.13.128c0 .07.059.128.13.128.072 0 .13-.058.13-.128a.129.129 0 0 0-.13-.128" fill="#8D5119"/><path d="M51.679 51.65a.129.129 0 0 0-.13.127c0 .07.058.128.13.128.071 0 .13-.057.13-.128a.129.129 0 0 0-.13-.128M51.117 52.631a.128.128 0 1 0 0 .256c.072 0 .13-.057.13-.128a.128.128 0 0 0-.13-.128" fill="#90561C"/><path d="M62.87 31.95c0-.176.145-.32.324-.32.18 0 .324.144.324.32 0 .178-.145.321-.324.321a.322.322 0 0 1-.324-.32M62.87 32.975c0-.176.145-.32.324-.32.18 0 .324.144.324.32 0 .177-.145.32-.324.32a.322.322 0 0 1-.324-.32" fill="#998077"/><path d="M42.343 24.694c10.475 0 19.41 5.902 22.902 15.638.447-2.06.688-4.143.688-6.196 0-13.71-10.561-24.823-23.59-24.823-13.028 0-23.59 11.113-23.59 24.823 0 2.053.241 4.136.688 6.196 3.493-9.736 12.427-15.638 22.902-15.638" fill="#EE3727"/><mask id="f" fill="#fff"><use xlink:href="#e"/></mask><path fill="#CC2F21" mask="url(#f)" d="M41.141 98.472h2.334V73.119H41.14z"/><path fill="#EE3727" mask="url(#f)" d="M33.897 74.742h15.871v-9.26h-15.87z"/><path fill="#CC2F21" mask="url(#f)" d="M33.897 66.364h15.871v-.881h-15.87z"/></g><g transform="translate(21.778 16.387)"><mask id="h" fill="#fff"><use xlink:href="#g"/></mask><path d="M10.411 5.21L5.961.3a.523.523 0 0 0-.675-.083L.056 3.675a.509.509 0 0 0-.142.71c.16.235.482.298.72.14l4.854-3.21 4.15 4.578c.191.21.52.229.733.04a.508.508 0 0 0 .04-.723z" fill="#FCF13D" mask="url(#h)"/></g><path d="M42.748 21.576l-5.272-5.207a.523.523 0 0 0-.734 0l-5.272 5.207a.508.508 0 0 0 0 .725c.203.2.531.2.734 0l4.905-4.846 4.905 4.846c.203.2.53.2.734 0a.508.508 0 0 0 0-.725z" fill="#FCF13D"/><path d="M53.326 21.576l-5.272-5.207a.523.523 0 0 0-.734 0l-5.271 5.207a.508.508 0 0 0 0 .725c.202.2.53.2.733 0l4.905-4.846 4.905 4.846c.203.2.531.2.734 0a.508.508 0 0 0 0-.725z" fill="#FCF13D"/><g transform="translate(52.37 16.387)"><mask id="j" fill="#fff"><use xlink:href="#i"/></mask><path d="M10.36 4.392L5.669.465a.524.524 0 0 0-.702.028L.213 5.19a.508.508 0 0 0 0 .725c.203.2.531.2.734 0l4.415-4.362L9.69 5.174a.523.523 0 0 0 .73-.06.508.508 0 0 0-.06-.722z" fill="#FCF13D" mask="url(#j)"/></g><g><path d="M54.657 47.44c-4.791.992-9.102-1.79-10.891-5.351a1.109 1.109 0 0 0-.998-.602h-1.461a1.11 1.11 0 0 0-.998.6c-1.547 3.081-4.98 5.605-8.977 5.605-5.427 0-9.828-4.418-9.86-9.771-.033-5.39 4.66-9.751 10.118-9.751l21.818-.11c5.185.428 9.2 4.772 9.103 9.951-.085 4.546-3.35 8.496-7.854 9.429m-1.974-22.343H31.28c-7.043 0-12.764 5.694-12.764 12.651s5.704 12.624 12.747 12.624c4.488 0 8.43-2.28 10.702-5.742a12.784 12.784 0 0 0 10.705 5.762c7.043 0 12.759-5.69 12.759-12.648 0-6.956-5.702-12.647-12.746-12.647" fill="#15151C"/><path d="M54.657 47.952c-4.791.992-9.102-1.788-10.891-5.35a1.109 1.109 0 0 0-.998-.602h-1.461a1.11 1.11 0 0 0-.998.6c-1.547 3.08-4.98 5.604-8.977 5.604-5.427 0-9.828-4.418-9.86-9.771-.033-5.39 4.66-9.75 10.118-9.75l21.818-.11c5.185.428 9.2 4.771 9.103 9.95-.085 4.546-3.35 8.496-7.854 9.429m-1.974-22.343H31.28c-7.043 0-12.764 5.694-12.764 12.651 0 6.958 5.704 12.624 12.747 12.624 4.488 0 8.43-2.28 10.702-5.742a12.783 12.783 0 0 0 10.705 5.762c7.043 0 12.759-5.69 12.759-12.647s-5.702-12.648-12.746-12.648" fill="#2C2C3A"/><path d="M53.287 28.683H31.589c-.064 0-.129 0-.193.002-3.387 1.926-6.266 4.719-8.366 8.096l-.001.308c0 2.461.381 4.994 1.088 7.454a9.844 9.844 0 0 0 7.214 3.149c3.999 0 7.431-2.524 8.978-5.604.187-.373.576-.6.998-.6h1.46c.422 0 .812.227.999.6 1.54 3.067 4.95 5.555 8.924 5.555.643 0 1.3-.065 1.967-.203a9.871 9.871 0 0 0 6.28-4.304 26.638 26.638 0 0 0 .719-6.357c-2.102-3.378-4.98-6.17-8.37-8.096m-18.155 6.806c-.067 0-.134-.004-.202-.01l-6.979-.652c-.852-.08-1.49-.64-1.42-1.246.066-.557.71-.966 1.475-.966.067 0 .135.003.203.009l6.979.652c.852.08 1.49.64 1.42 1.246-.066.558-.71.967-1.476.967m13.63.429c-.804 0-1.5-.547-1.573-1.26-.077-.746.56-1.403 1.413-1.46l7.26-.478c.04-.003.08-.004.118-.004.805 0 1.5.546 1.573 1.259.077.747-.56 1.403-1.413 1.46l-7.26.479c-.04.003-.078.004-.118.004m2.053 4.716a1.374 1.374 0 0 1-1.382-1.366c0-.754.619-1.366 1.382-1.366.764 0 1.383.612 1.383 1.366 0 .755-.62 1.366-1.383 1.366m-18.148 0a1.374 1.374 0 0 1-1.382-1.366c0-.754.619-1.366 1.382-1.366.764 0 1.383.612 1.383 1.366 0 .755-.619 1.366-1.383 1.366" fill="#F2981E"/><path d="M55.979 32.716c-.039 0-.078 0-.118.004l-7.26.478c-.853.057-1.49.714-1.413 1.46.073.713.769 1.26 1.574 1.26.039 0 .078-.001.117-.004l7.26-.48c.854-.055 1.49-.712 1.413-1.46-.072-.712-.768-1.258-1.573-1.258M28.005 32.614c-.766 0-1.409.41-1.475.967-.07.606.568 1.166 1.42 1.246l6.98.652c.067.006.134.01.2.01.767 0 1.411-.41 1.477-.967.071-.606-.568-1.166-1.42-1.246l-6.978-.652a2.118 2.118 0 0 0-.204-.01" fill="#ED7416"/><path d="M53.407 28.572v.11h-.12c3.39 1.927 6.267 4.72 8.368 8.097a23.341 23.341 0 0 0-.198-2.754 22.859 22.859 0 0 0-5.315-4.834 9.992 9.992 0 0 0-2.735-.619m-22.011.113c-.938.017-1.852.164-2.722.421a22.891 22.891 0 0 0-5.538 5.036c-.066.864-.1 1.744-.106 2.638 2.1-3.376 4.978-6.169 8.366-8.095M61.656 36.78l.002.309c0 1.994-.25 4.036-.722 6.046a9.753 9.753 0 0 0 1.567-4.881c-.266-.503-.549-.995-.847-1.475m-38.626.002a24.677 24.677 0 0 0-1.432 2.65 9.825 9.825 0 0 0 2.519 5.112c-.707-2.46-1.088-4.992-1.088-7.454v-.308" fill="#E4801A"/><path d="M61.457 34.025c.12.901.187 1.82.198 2.754.3.48.582.972.849 1.474l.005-.17a9.626 9.626 0 0 0-.95-3.93l-.102-.128m-38.321.118c-.487.615-.944 1.26-1.37 1.931a9.135 9.135 0 0 0-.292 2.049c.012.444.054.88.124 1.309.426-.917.904-1.803 1.432-2.652.006-.894.04-1.774.106-2.637" fill="#DF7618"/><path d="M28.674 29.106c-3.351.994-6.042 3.642-6.909 6.968a22.86 22.86 0 0 1 6.908-6.968m27.47.085a22.859 22.859 0 0 1 5.315 4.835l.1.127a9.935 9.935 0 0 0-5.416-4.962" fill="#EB3409"/><path d="M32.666 37.902c-.763 0-1.382.612-1.382 1.366 0 .754.619 1.366 1.382 1.366.764 0 1.383-.612 1.383-1.366 0-.754-.619-1.366-1.383-1.366M50.814 37.902c-.763 0-1.383.612-1.383 1.366 0 .754.62 1.366 1.383 1.366.764 0 1.383-.612 1.383-1.366 0-.754-.619-1.366-1.383-1.366" fill="#E9500D"/><path d="M62.51 38.084a9.755 9.755 0 0 1-1.573 5.052 9.873 9.873 0 0 1-6.28 4.304 9.664 9.664 0 0 1-1.967.203c-3.975 0-7.384-2.488-8.924-5.554a1.11 1.11 0 0 0-.999-.602h-1.46c-.421 0-.811.228-.998.6-1.547 3.081-4.98 5.605-8.978 5.605a9.843 9.843 0 0 1-7.214-3.149 9.825 9.825 0 0 1-2.519-5.111 9.73 9.73 0 0 1-.124-1.309 9.723 9.723 0 0 0-.003.31c.032 5.354 4.435 9.771 9.86 9.771 3.999 0 7.431-2.523 8.978-5.605.187-.373.577-.599.998-.599h1.46c.422 0 .812.228.999.6 1.54 3.067 4.949 5.555 8.924 5.555.642 0 1.3-.065 1.966-.203 4.505-.933 7.77-4.883 7.855-9.43l.002-.18c0-.087-.002-.173-.004-.258" fill="#151407"/><path d="M53.407 28.572c.958.08 1.876.292 2.735.62a9.937 9.937 0 0 1 5.417 4.96 9.634 9.634 0 0 1 .954 4.19c0-5.099-3.981-9.345-9.106-9.77m-21.817.11c-5.437 0-10.115 4.327-10.12 9.688 0-.083.002-.165.004-.247.02-.704.12-1.39.292-2.049.866-3.326 3.557-5.974 6.908-6.968a10.254 10.254 0 0 1 2.916-.423" fill="#2B2A0E"/><path d="M19.313 39.808c0 .845-.534 1.536-1.187 1.536-.652 0-1.186-.691-1.186-1.536v-3.614c0-.845.534-1.537 1.186-1.537.653 0 1.187.692 1.187 1.537v3.614zM67.062 39.808c0 .845-.534 1.536-1.186 1.536-.653 0-1.187-.691-1.187-1.536v-3.614c0-.845.534-1.537 1.187-1.537.652 0 1.186.692 1.186 1.537v3.614z" fill="#2C2C3A"/></g><circle stroke="#FFF" stroke-width="2" cx="42" cy="42" r="41"/></g></svg>